<svg id="图层_1" data-name="图层 1" xmlns="http://www.w3.org/2000/svg" viewBox="0 0 24 24"><defs></defs><title>7sjiany</title><path class="cls-1" d="M21.7,16.8H13a.4.4,0,0,0-.4.4V18a.4.4,0,0,0,.4.4h8.7c.2,0,.3-.2.3-.4v-.8C22,17,21.9,16.8,21.7,16.8Z"/><path class="cls-1" d="M21.7,19.9H13a.4.4,0,0,0-.4.4v.8a.4.4,0,0,0,.4.4h8.7c.2-.1.3-.2.3-.4v-.8C22,20.1,21.9,19.9,21.7,19.9Z"/><path class="cls-1" d="M21.7,13.7H13a.4.4,0,0,0-.4.4v.8a.4.4,0,0,0,.4.4h8.7c.2,0,.3-.2.3-.4v-.8C22,13.9,21.9,13.7,21.7,13.7Z"/><path class="cls-1" d="M8.4,15a4.8,4.8,0,0,1-1.7-.8A4.8,4.8,0,0,1,5,15a4.2,4.2,0,0,1-1.9-.2,36.9,36.9,0,0,0,.1,4.4c.3,1.9,3.5,3.3,3.5,3.3s3.2-1.4,3.5-3.3a36.9,36.9,0,0,0,.1-4.4A4.2,4.2,0,0,1,8.4,15ZM6.5,19.8l-.6-.6h0l-1-1,.6-.6,1,1,1.9-2,.6.6Z"/><path class="cls-1" d="M2,3.5H8.4c-1.8,1.9-4.3,5.8-4.8,9h3a20.6,20.6,0,0,1,4.9-9.2V1.5H2Z"/><path class="cls-1" d="M17.5,11c-1.2,0-1.9-.4-2.1-1.1H12.5c.2,1.5,1.6,2.8,4.8,2.8S22,11.4,22,10s-.5-2.3-4.1-3c-1.8-.3-2.1-.5-2.1-.9s.3-.8,1.3-.8,1.7.6,1.8.9h2.8c-.1-1.1-1.2-2.6-4.5-2.6S12.9,5,12.9,6.3,13.4,8.4,17,9c1.5.3,2,.6,2,1.1S18.6,11,17.5,11Z"/></svg>