<svg id="图层_1" data-name="图层 1" xmlns="http://www.w3.org/2000/svg" viewBox="0 0 24 24"><defs> </defs><title></title><path class="cls-1" d="M13.86,6.91h2.61V9.52a1.1,1.1,0,1,0,2.2,0V6.91h2.61a1.1,1.1,0,0,0,0-2.2H18.67V2.1A1.1,1.1,0,0,0,17.57,1h0a1.1,1.1,0,0,0-1.1,1.1V4.71H13.86a1.1,1.1,0,1,0,0,2.2Z"/><path class="cls-1" d="M21.9,10.9A1.1,1.1,0,0,0,20.8,12v4a1.1,1.1,0,0,1-1.1,1.1H13.86a1.22,1.22,0,0,0-.5.11L7.53,20.12V18.19a1.1,1.1,0,0,0-1.1-1.1H4.3A1.1,1.1,0,0,1,3.2,16V4.3A1.1,1.1,0,0,1,4.3,3.2h6.46a1.1,1.1,0,0,0,0-2.2H4.3A3.3,3.3,0,0,0,1,4.3V16a3.3,3.3,0,0,0,3.3,3.3h1V21.9a1,1,0,0,0,.12.49,1.09,1.09,0,0,0,1.47.49l7.2-3.59H19.7A3.3,3.3,0,0,0,23,16V12h0A1.1,1.1,0,0,0,21.9,10.9Z"/></svg>
