<svg id="图层_1" data-name="图层 1" xmlns="http://www.w3.org/2000/svg" viewBox="0 0 24 24"><defs> </defs><title></title><path class="cls-1" d="M13.91,10.33a7.67,7.67,0,0,1,3.76-.75,7.68,7.68,0,0,0,.38-4.14A5.94,5.94,0,0,0,11.17.58C8,1.15,5.22,3.66,5.79,6.92a10.48,10.48,0,0,0,.86,2.59L.79,18a1.94,1.94,0,0,0-.27,1.25l.25,1.44c-.24-1.39.07.51.26.5l1.93,0a1.79,1.79,0,0,0,1-.7l2.32-3.63,0,0,2,.16,2.71-4.25A6.55,6.55,0,0,1,13.91,10.33ZM2.38,18.55l-.51.32L2,18.29l5.5-7.87.38.27ZM10.6,3.86a2.79,2.79,0,0,1,3.9-.7,2.85,2.85,0,0,1,.69,4c-.89,1.28-1.8.38-3.06-.52S9.71,5.14,10.6,3.86Z"/><path class="cls-1" d="M17.31,11.14a6.19,6.19,0,1,0,6.19,6.19A6.19,6.19,0,0,0,17.31,11.14Zm3.1,7.12H18.23v2.21a.93.93,0,1,1-1.85,0V18.26H14.13a1,1,0,0,1-1-.93.94.94,0,0,1,1-.93h2.25V14.19a1,1,0,0,1,.93-1,1,1,0,0,1,.92,1V16.4h2.18a.93.93,0,1,1,0,1.86Z"/></svg>
