<svg id="图层_1" data-name="图层 1" xmlns="http://www.w3.org/2000/svg" viewBox="0 0 24 24"><defs></defs><title>banbiepz</title><path class="cls-1" d="M12.8,5V2.3a.7.7,0,0,1,.7-.7h.7a.7.7,0,0,1,.7.7V5a.7.7,0,0,1-.7.7h-.7A.7.7,0,0,1,12.8,5Zm5.4-1v7.4h1v-8a.8.8,0,0,0-.9-.7h-3V3.8h2.4C18,3.8,18.2,3.9,18.2,4ZM4.3,10.6v.2a.6.6,0,0,0,.6.6H15.2a.6.6,0,0,0,.6-.6v-.2c0-.2-.1-.3-.2-.5H4.9A.6.6,0,0,0,4.3,10.6ZM5.9,5.7h.7A.7.7,0,0,0,7.3,5V2.3a.7.7,0,0,0-.7-.7H5.9a.8.8,0,0,0-.7.7V5A.8.8,0,0,0,5.9,5.7Zm6.5-3H7.7V3.8h4.7ZM2.4,21.4l-.3-.2c-.1-.1-.2-.2-.2-.3h0V4.2a.5.5,0,0,1,.5-.4H4.8V2.7h-3a.9.9,0,0,0-.9.9V21.5a.9.9,0,0,0,.9.9h8.5v-1Zm2.3-5.9c-.2,0-.4.2-.4.6v.2c0,.4.2.6.4.6H9c.3,0,.4-.2.4-.6v-.2c0-.4-.1-.6-.4-.6Zm18.4,4.1a3.4,3.4,0,0,0-1.8-3,2,2,0,0,0,.6-1.4,2.1,2.1,0,0,0-1.6-2h0c-.2,0-.3.1-.3.2l.2.2a1.6,1.6,0,0,1,1.2,1.6,1.4,1.4,0,0,1-.6,1.2c-.1.1-.2.3-.1.4h.2a3.1,3.1,0,0,1,1.7,3.2h0a.3.3,0,0,0,.3.3c.1,0,.2-.2.2-.3h0Zm-9.5-2.7a.2.2,0,0,0,.2-.2.4.4,0,0,0-.1-.3,1.4,1.4,0,0,1-.6-1.2,1.6,1.6,0,0,1,1.3-1.6h0l.2-.2a.2.2,0,0,0-.2-.2h-.1a1.9,1.9,0,0,0-1.6,2,2.4,2.4,0,0,0,.5,1.4,3.4,3.4,0,0,0-1.8,3v.5h0c0,.2.1.3.2.3s.3-.1.3-.2h0v-.4A3.2,3.2,0,0,1,13.6,16.9Zm5.2-.1a2.6,2.6,0,0,0,1-2,2.6,2.6,0,0,0-2.6-2.5,2.8,2.8,0,0,0-2.5,2.5,2.6,2.6,0,0,0,1,2,4,4,0,0,0-2.6,3.9v.8a.4.4,0,0,0,.4.4H21a.4.4,0,0,0,.4-.4h0v-.8A4,4,0,0,0,18.8,16.8Z"/></svg>