<svg id="图层_1" data-name="图层 1" xmlns="http://www.w3.org/2000/svg" viewBox="0 0 24 24"><title>baobiao</title><path class="cls-1" d="M22.45,23H1.55a.55.55,0,0,1,0-1.1h20.9a.55.55,0,0,1,.55.55A.54.54,0,0,1,22.45,23ZM4.3,13.1H3.2a1.1,1.1,0,0,0-1.1,1.1v5.5a1.1,1.1,0,0,0,1.1,1.1H4.3a1.1,1.1,0,0,0,1.1-1.1V14.2A1.1,1.1,0,0,0,4.3,13.1ZM3.2,19.7V14.2H4.3v5.5ZM9.8,6.5H8.7A1.1,1.1,0,0,0,7.6,7.6V19.7a1.1,1.1,0,0,0,1.1,1.1H9.8a1.1,1.1,0,0,0,1.1-1.1V7.6A1.1,1.1,0,0,0,9.8,6.5ZM8.7,19.7V7.6H9.8V19.7Zm6.6-11H14.2a1.1,1.1,0,0,0-1.1,1.1v9.9a1.1,1.1,0,0,0,1.1,1.1h1.1a1.1,1.1,0,0,0,1.1-1.1V9.8A1.1,1.1,0,0,0,15.3,8.7Zm-1.1,11V9.8h1.1v9.9ZM20.8,1H19.7a1.1,1.1,0,0,0-1.1,1.1V19.7a1.1,1.1,0,0,0,1.1,1.1h1.1a1.1,1.1,0,0,0,1.1-1.1V2.1A1.1,1.1,0,0,0,20.8,1ZM19.7,19.7V2.1h1.1V19.7Z"/></svg>
