<svg id="图层_1" data-name="图层 1" xmlns="http://www.w3.org/2000/svg" viewBox="0 0 24 24"><defs> </defs><title></title><path class="cls-1" d="M3,20H4.47A1.32,1.32,0,0,0,5.9,18.85V13.1A1.31,1.31,0,0,0,4.47,12H3A1.31,1.31,0,0,0,1.6,13.1v5.75A1.31,1.31,0,0,0,3,20Zm.17-6.57H4.3v5.09H3.2Z"/><path class="cls-1" d="M8.53,20H10a1.3,1.3,0,0,0,1.43-1.09v-12A1.3,1.3,0,0,0,10,5.84H8.53A1.3,1.3,0,0,0,7.1,6.93v12A1.3,1.3,0,0,0,8.53,20ZM8.7,7.32H9.8v11.2H8.7Z"/><path class="cls-1" d="M14,20h1.44a1.3,1.3,0,0,0,1.43-1.1V9a1.3,1.3,0,0,0-1.43-1.1H14A1.3,1.3,0,0,0,12.6,9V18.9A1.3,1.3,0,0,0,14,20ZM14.2,9.36h1.1v9.16H14.2Z"/><path class="cls-1" d="M19.53,20H21c.79,0,1.43-.48,1.43-1.07V1.82c0-.59-.64-1.07-1.43-1.07H19.53c-.79,0-1.43.48-1.43,1.07V18.93C18.1,19.52,18.74,20,19.53,20ZM19.7,2.23h1.1V18.52H19.7Z"/><path class="cls-1" d="M22,21.25H2a1,1,0,0,0,0,2H22a1,1,0,0,0,0-2Z"/></svg>
