<svg id="图层_1" data-name="图层 1" xmlns="http://www.w3.org/2000/svg" viewBox="0 0 24 24"><defs> </defs><title>baocun</title><path class="cls-1" d="M22.06,8.07,15.75,1.46A1.48,1.48,0,0,0,14.69,1H3A1.53,1.53,0,0,0,1.5,2.57V21.43A1.53,1.53,0,0,0,3,23H21a1.53,1.53,0,0,0,1.5-1.57V9.18A1.64,1.64,0,0,0,22.06,8.07ZM8.63,2.57H12V6.5H8.63ZM6,2.57H7.13V6.5H6ZM18,21.43H6V16.71H18Zm3,0H19.5v-5.5a.77.77,0,0,0-.75-.79H5.25a.77.77,0,0,0-.75.79v5.5H3V2.57H4.5V7.29a.77.77,0,0,0,.75.78h7.5a.77.77,0,0,0,.75-.78V2.57h1.19L21,9.18Z"/></svg>