<svg id="图层_1" data-name="图层 1" xmlns="http://www.w3.org/2000/svg" viewBox="0 0 24 24"><defs></defs><title></title><path class="cls-1" d="M4.4,6.8V22.1h9.4a5.3,5.3,0,0,1-.7-2.8,6,6,0,0,1,6-6A5.9,5.9,0,0,1,24,15.9V6.8Zm18,5.5a7.5,7.5,0,0,0-3.3-.7,7.6,7.6,0,0,0-7.6,7.7v1.1H6V8.6H22.4Z"/><polygon class="cls-1" points="1.7 3.6 17.9 3.6 17.9 5.2 19.6 5.2 19.6 1.9 0 1.9 0 17.2 3.3 17.2 3.3 15.4 1.7 15.4 1.7 3.6"/><path class="cls-1" d="M23.1,17.9h-5l.8-.8a1,1,0,0,0,0-1.4,1,1,0,0,0-1.3,0l-2.4,2.4h-.1a.3.3,0,0,1-.1.2,1.1,1.1,0,0,0,0,.8h.1c.1.1.1.1.1.2h0l2.4,2.3a.9.9,0,0,0,.7.3.7.7,0,0,0,.6-.3.9.9,0,0,0,0-1.3l-.7-.8h4.9a.9.9,0,1,0,0-1.8Z"/></svg>
