<svg id="图层_1" data-name="图层 1" xmlns="http://www.w3.org/2000/svg" viewBox="0 0 24 24"><defs></defs><title></title><path class="cls-1" d="M18.58,15.86A2.14,2.14,0,1,0,20.72,18,2.14,2.14,0,0,0,18.58,15.86Z"/><polygon class="cls-2" points="21.19 3.49 20.03 2.51 18.05 4.76 19.21 5.74 21.19 3.49"/><rect class="cls-2" x="11.41" width="1.53" height="3"/><path class="cls-2" d="M3.74,12.6V21H13a6.38,6.38,0,0,1-.61-1.5H9.88V12H8.34v7.5H5.27V12.6A6.69,6.69,0,0,1,12,6a7,7,0,0,1,7,6.07,5.55,5.55,0,0,1,1.57.44A8.52,8.52,0,0,0,12,4.5,8.2,8.2,0,0,0,3.74,12.6Z"/><polygon class="cls-2" points="6.19 4.78 4.34 2.53 3.14 3.47 4.99 5.72 6.19 4.78"/><path class="cls-2" d="M.67,22.5V24h17.5a6,6,0,0,1-4-1.5Z"/><path class="cls-2" d="M22.85,17H22c-.08-.17-.19-.52-.33-.77l.59-.58a.47.47,0,0,0,0-.66l-.67-.67a.47.47,0,0,0-.67,0h0l-.55.59c-.25-.14-.61-.25-.78-.33v-.84a.53.53,0,0,0-.54-.47H18.1a.53.53,0,0,0-.54.47v.84c-.17.08-.52.19-.78.33l-.57-.59a.47.47,0,0,0-.66,0h0l-.67.68a.47.47,0,0,0,0,.67h0l.59.56c-.14.25-.25.6-.33.77H14.3a.53.53,0,0,0-.47.54v.95a.54.54,0,0,0,.47.55h.84a7.07,7.07,0,0,0,.33.77l-.59.57a.46.46,0,0,0,0,.67l.67.67a.49.49,0,0,0,.68,0h0l.55-.59c.25.14.61.25.78.33v.83a.53.53,0,0,0,.54.48h.95a.53.53,0,0,0,.54-.48v-.83a8.48,8.48,0,0,0,.78-.34l.57.59a.46.46,0,0,0,.66,0h0l.67-.67a.46.46,0,0,0,0-.67h0l-.59-.56c.14-.25.25-.6.33-.77h.84a.55.55,0,0,0,.48-.55v-.95A.54.54,0,0,0,22.85,17Zm-4.27,3.16A2.14,2.14,0,1,1,20.72,18,2.14,2.14,0,0,1,18.58,20.14Z"/></svg>
