<svg id="图层_1" data-name="图层 1" xmlns="http://www.w3.org/2000/svg" viewBox="0 0 24 24"><defs> </defs><title>baojingguiz</title><polygon class="cls-1" points="21.02 3.49 19.85 2.51 17.87 4.76 19.03 5.74 21.02 3.49"/><path class="cls-1" d="M11.84,4.5a8.19,8.19,0,0,0-8.27,8.1V21H20.43V12.9A8.5,8.5,0,0,0,11.84,4.5Zm7.06,15H9.7V12H8.17v7.5H5.1V12.6A6.68,6.68,0,0,1,11.84,6a7,7,0,0,1,7.06,6.9Z"/><rect class="cls-1" x="11.23" width="1.53" height="3"/><polygon class="cls-1" points="6.01 4.78 4.17 2.53 2.97 3.47 4.82 5.72 6.01 4.78"/><rect class="cls-1" x="0.5" y="22.5" width="23" height="1.5"/></svg>