<svg id="图层_1" data-name="图层 1" xmlns="http://www.w3.org/2000/svg" viewBox="0 0 24 24"><defs></defs><path class="cls-1" d="M16.3,13.6a4.5,4.5,0,0,0,.3-1.6,4.8,4.8,0,0,0-4.8-4.7,4.7,4.7,0,0,0,0,9.4V15a3,3,0,1,1,0-6,3,3,0,0,1,3.1,3,2.9,2.9,0,0,1-.4,1.6Z"/><path class="cls-1" d="M11.4,21.5H10.1L9.8,19H9.3A10.5,10.5,0,0,1,7,17.6l-.4-.3-2.3,1-1.7-3,2-1.5v-.5A5.7,5.7,0,0,1,4.4,12a5.7,5.7,0,0,1,.1-1.3v-.5l-2-1.5L4.3,5.8l2.4.9L7,6.4A10.5,10.5,0,0,1,9.3,5.1h.5l.3-2.5h3.4L13.9,5h.4a8.6,8.6,0,0,1,2.3,1.3l.4.3,2.3-1,1.8,3L19,10.2v.5a5.7,5.7,0,0,1,0,2.6v.3h2.4l-.7-.5a8.1,8.1,0,0,0,0-2.2l1.3-1a1.3,1.3,0,0,0,.5-1.8L20.7,4.8a1.4,1.4,0,0,0-1.9-.5l-1.5.6a9.3,9.3,0,0,0-1.9-1.1l-.3-1.6A1.3,1.3,0,0,0,13.8.9H9.9A1.2,1.2,0,0,0,8.5,2.2L8.3,3.8A7.2,7.2,0,0,0,6.4,4.9L4.8,4.2A1.4,1.4,0,0,0,3,4.8L1,8.1a1.4,1.4,0,0,0,.5,1.8l1.3,1a8.1,8.1,0,0,0,0,2.2l-1.3,1A1.4,1.4,0,0,0,1,15.9l2,3.3a1.4,1.4,0,0,0,1.8.6l1.6-.7a7.2,7.2,0,0,0,1.9,1.1l.2,1.6a1.3,1.3,0,0,0,1.4,1.3h1.5c.2,0,.4-.1.4-.3v-.9a.4.4,0,0,0-.1-.3Z"/><path class="cls-1" d="M22.8,18.4h-9c-.2,0-.4.1-.4.3v.9a.4.4,0,0,0,.4.4h9c.2,0,.3-.2.3-.4v-.9A.3.3,0,0,0,22.8,18.4Z"/><path class="cls-1" d="M22.8,21.6h-9c-.2,0-.4.1-.4.3v.9c0,.2.2.3.4.3h9a.3.3,0,0,0,.3-.3v-.9A.3.3,0,0,0,22.8,21.6Z"/><path class="cls-1" d="M22.8,15.2h-9c-.2,0-.4.1-.4.3v.9a.4.4,0,0,0,.4.4h9c.2,0,.3-.2.3-.4v-.9A.3.3,0,0,0,22.8,15.2Z"/></svg>
