<svg id="图层_1" data-name="图层 1" xmlns="http://www.w3.org/2000/svg" viewBox="0 0 24 24"><defs> </defs><title>bianji</title><rect class="cls-1" x="10.57" y="18.7" width="10.56" height="2.6"/><path class="cls-1" d="M22.93,5.31,19,1.59a.75.75,0,0,0-1,.08L15.29,4.28l4,3.79.85.8,2.74-2.6a.76.76,0,0,0,.25-.55A.57.57,0,0,0,22.93,5.31Zm-1.5.55L20.23,7l-3-2.83L18.45,3Z"/><path class="cls-1" d="M19.37,9.59l-4-3.79L14.54,5,3.62,15.38l-.47.45a.75.75,0,0,0-.21.32L1,21.7c-.09.25-.19.61,0,.78a.44.44,0,0,0,.29.09,1.71,1.71,0,0,0,.51-.1l5.84-1.84A.88.88,0,0,0,8,20.42l10.23-9.73ZM7,19.39,2.86,20.7l1.37-3.94ZM17.4,9.7,7.69,18.93l-3-2.83,9.7-9.24Z"/></svg>