<svg id="图层_1" data-name="图层 1" xmlns="http://www.w3.org/2000/svg" viewBox="0 0 24 24"><defs> </defs><title>biaoqian</title><rect class="cls-1" x="9.72" y="5.68" width="1.17" height="5.23"/><rect class="cls-1" x="5.22" y="5.68" width="2.33" height="5.23"/><rect class="cls-1" x="13.05" y="5.68" width="1.17" height="5.23"/><path class="cls-1" d="M22,.35H6.8A.63.63,0,0,0,6.12,1V2.64H7.48v-1h13.8V18.5l-1.76-1.24a.63.63,0,0,0-.47-.18H19v1.57l.16-.14,2.38,1.72a.66.66,0,0,0,.48.18.62.62,0,0,0,.68-.62V1A.63.63,0,0,0,22,.35Z"/><path class="cls-1" d="M17.3,3.44H2.13a.67.67,0,0,0-.73.67V22.93a.67.67,0,0,0,.73.67.69.69,0,0,0,.5-.19L5,21.71l1.9,1.69a.68.68,0,0,0,.5.2.69.69,0,0,0,.51-.2l1.83-1.63,1.82,1.63a.75.75,0,0,0,1,0l1.89-1.69,2.34,1.69a.7.7,0,0,0,.51.2.67.67,0,0,0,.73-.67V4.11A.67.67,0,0,0,17.3,3.44Zm-.73,18.1-1.68-1.18a.69.69,0,0,0-.51-.2.68.68,0,0,0-.5.2L12.05,22l-1.83-1.63a.68.68,0,0,0-.5-.2.69.69,0,0,0-.51.2L7.38,22,5.56,20.36a.7.7,0,0,0-.51-.2.71.71,0,0,0-.5.19L2.87,21.54V4.78h13.7Z"/><rect class="cls-1" x="3.88" y="15.09" width="11.67" height="1.05"/><rect class="cls-1" x="3.88" y="13" width="5.83" height="1.05"/><rect class="cls-1" x="3.88" y="17.18" width="8.17" height="1.05"/></svg>