<svg id="图层_1" data-name="图层 1" xmlns="http://www.w3.org/2000/svg" viewBox="0 0 24 24"><defs></defs><title>biaoqiangl_1</title><path class="cls-1" d="M7.87,16.26A2.46,2.46,0,0,0,7.05,16H6.79a2.29,2.29,0,0,0-1.36.45,2.44,2.44,0,0,0-.37.35,2.29,2.29,0,0,0-.55,1.59.76.76,0,0,0,0,.15A2.29,2.29,0,0,0,6.7,20.59a2,2,0,0,0,.35,0,2.46,2.46,0,0,0,.82-.26,2.32,2.32,0,0,0,0-4.06Z"/><path class="cls-2" d="M23,18.46v-.12a.76.76,0,0,0-.75-.76.48.48,0,0,1-.46-.33v0a2.66,2.66,0,0,0-.16-.39v0a.52.52,0,0,1,.1-.57l.35-.35a.29.29,0,0,0,.07-.18.24.24,0,0,0-.07-.18l-.79-.79a.27.27,0,0,0-.36,0l-.35.35a.49.49,0,0,1-.56.09h0l-.25-.11L19.62,15h0a.5.5,0,0,1-.33-.47.76.76,0,0,0-.5-.71.7.7,0,0,0-.25-.05h-.13a.76.76,0,0,0-.75.76.5.5,0,0,1-.33.47h0l-.38.16h0a.42.42,0,0,1-.24.05.45.45,0,0,1-.32-.14L16.27,15,16,14.75a.27.27,0,0,0-.36,0l-.27.27-.51.52a.27.27,0,0,0,0,.36l.35.35a.52.52,0,0,1,.14.41.49.49,0,0,1-.05.16h0c-.06.13-.11.26-.16.4h0a.51.51,0,0,1-.47.34.74.74,0,0,0-.74.75v.13a.85.85,0,0,0,0,.23.75.75,0,0,0,.71.53.5.5,0,0,1,.47.33v0c.05.13.1.27.16.39v0a.43.43,0,0,1,0,.35.38.38,0,0,1-.12.21l-.35.35a.32.32,0,0,0-.07.19.27.27,0,0,0,.08.18l.78.79a.29.29,0,0,0,.18.07.24.24,0,0,0,.18-.07l.34-.35a.49.49,0,0,1,.56-.1h0a3.2,3.2,0,0,0,.39.16h0a.48.48,0,0,1,.33.46.76.76,0,0,0,.75.76h.18a.76.76,0,0,0,.7-.76.49.49,0,0,1,.33-.46h0l.13-.05.26-.11h0a.5.5,0,0,1,.57.1l.34.35a.29.29,0,0,0,.18.07.26.26,0,0,0,.19-.07l.78-.79a.26.26,0,0,0,.07-.19.24.24,0,0,0-.07-.18l-.35-.35a.49.49,0,0,1-.09-.56v0a3.29,3.29,0,0,0,.17-.39v0a.49.49,0,0,1,.46-.33.75.75,0,0,0,.75-.76h0Zm-3.58,1.85a1.85,1.85,0,0,1-.74.24,1.82,1.82,0,0,1-.33,0,2.08,2.08,0,0,1-1.46-.68,2.1,2.1,0,0,1-.54-1.2.71.71,0,0,1,0-.14,2.09,2.09,0,0,1,.51-1.46,2.05,2.05,0,0,1,.34-.32,2.08,2.08,0,0,1,1.24-.42l.25,0a2,2,0,0,1,.74.23,2.11,2.11,0,0,1,0,3.72Z"/><path class="cls-2" d="M12.1,6.32a3.36,3.36,0,0,0,0,4.78,3.81,3.81,0,0,0,2.39.93,3.19,3.19,0,0,0,3.32-3.32,3.21,3.21,0,0,0-.93-2.39,3.79,3.79,0,0,0-2.39-.94A3.18,3.18,0,0,0,12.1,6.32Zm4.38,2.39A2,2,0,0,1,16,10.17,2.06,2.06,0,1,1,13,7.25a2.73,2.73,0,0,1,1.46-.54A2,2,0,0,1,16,7.25,2.81,2.81,0,0,1,16.48,8.71Z"/><path class="cls-2" d="M11,20.8a.6.6,0,0,1-.66,0l-8-8a.58.58,0,0,1,0-.67l9.83-9.83,7,1.59L20.86,11l-2.27,2.28a4.36,4.36,0,0,1,1.41.57l2.06-2.06a1.21,1.21,0,0,0,.13-.66L20.47,3.26c-.14-.27-.27-.53-.54-.53L12.1,1a.84.84,0,0,0-.54.13L1.46,11.23a1.86,1.86,0,0,0,0,2.53l8,8a1.28,1.28,0,0,0,1.19.53,2.23,2.23,0,0,0,1.33-.4l1.81-1.81a4.32,4.32,0,0,1-.57-1.42Z"/></svg>