<svg id="图层_1" data-name="图层 1" xmlns="http://www.w3.org/2000/svg" viewBox="0 0 24 24"><defs> </defs><path class="cls-1" d="M3.8,15.09v1h6.4a6.84,6.84,0,0,1,.21-1Z"/><rect class="cls-1" x="3.8" y="13" width="5.56" height="1.05"/><path class="cls-1" d="M7.23,1.6H20.37V12.16l0,0a6.26,6.26,0,0,1,1.09,1.36l.19.31V1A.62.62,0,0,0,21,.35H6.58A.62.62,0,0,0,5.92,1V2.64H7.23Z"/><path class="cls-1" d="M12.25,21.55l-.13-.14-.54.51-1.7-1.6a.76.76,0,0,0-1.05,0l-1.7,1.6-1.69-1.6a.76.76,0,0,0-.53-.21.71.71,0,0,0-.51.2L2.89,21.43V4.83H15.82v5.85l.31,0a4.74,4.74,0,0,1,1,.05l.23,0V4.11a.71.71,0,0,0-.75-.72H2.13a.71.71,0,0,0-.75.72V22.93a.71.71,0,0,0,.75.72.67.67,0,0,0,.51-.2l2.2-1.67,1.77,1.66a.72.72,0,0,0,.52.21.76.76,0,0,0,.53-.21l1.69-1.6,1.7,1.6a.76.76,0,0,0,.53.21.72.72,0,0,0,.52-.21l1.15-1.08-.2-.15A6.82,6.82,0,0,1,12.25,21.55Z"/><path class="cls-1" d="M3.8,17.18v1h6.47a6,6,0,0,1-.11-1Z"/><rect class="cls-1" x="9.35" y="5.68" width="1.11" height="5.23"/><rect class="cls-1" x="6.02" y="5.68" width="2.22" height="5.23"/><rect class="cls-1" x="11.58" y="5.68" width="1.11" height="5.23"/><path class="cls-1" d="M16.83,23.45l.11,0h-.11Z"/><path class="cls-1" d="M20.55,15V13H13.73V15H11.66v5.87h2.07V23h6.82V20.91h2.07V15Zm-6-1.25h5.18V15H14.55Zm5.18,8.37H14.55V19.65h5.18Zm2.08-2.09H20.55V18.81H13.73v1.26H12.47V15.88h9.34Z"/><path class="cls-1" d="M19.78,16.3a.84.84,0,1,0,.81.84A.82.82,0,0,0,19.78,16.3Z"/></svg>
