<svg id="图层_1" data-name="图层 1" xmlns="http://www.w3.org/2000/svg" viewBox="0 0 24 24"><defs> </defs><title>biaoqiangl</title><path class="cls-1" d="M16.4,23.48l.11,0H16.4Z"/><path class="cls-1" d="M3.37,15.11v1.05h6.4A6.1,6.1,0,0,1,10,15.11Z"/><rect class="cls-1" x="3.37" y="13.02" width="5.56" height="1.05"/><path class="cls-1" d="M6.8,1.62H19.93V12.18l0,0a6.51,6.51,0,0,1,1.09,1.36l.19.31V1a.61.61,0,0,0-.66-.62H6.15A.61.61,0,0,0,5.49,1V2.67H6.8Z"/><path class="cls-1" d="M11.79,21.61l-.11-.1-.53.5L9.41,20.39a.64.64,0,0,0-.49-.2.67.67,0,0,0-.49.2L6.7,22,5,20.39a.66.66,0,0,0-.49-.2.65.65,0,0,0-.48.19L2.41,21.56V4.81h13v5.84h.26a4.2,4.2,0,0,1,1,0l.17,0V4.13a.66.66,0,0,0-.7-.67H1.7a.66.66,0,0,0-.7.67V23a.65.65,0,0,0,.7.67.63.63,0,0,0,.48-.18l2.23-1.7,1.8,1.69a.65.65,0,0,0,.49.19.63.63,0,0,0,.49-.19L8.92,21.8l1.73,1.63a.71.71,0,0,0,.5.19.66.66,0,0,0,.49-.19l1.1-1-.15-.11A5.57,5.57,0,0,1,11.79,21.61Z"/><path class="cls-1" d="M3.37,17.2v1.05H9.84a6,6,0,0,1-.11-1.05Z"/><rect class="cls-1" x="8.92" y="5.7" width="1.11" height="5.23"/><rect class="cls-1" x="5.59" y="5.7" width="2.22" height="5.23"/><rect class="cls-1" x="11.15" y="5.7" width="1.11" height="5.23"/><path class="cls-1" d="M22.5,17.4h-.88c-.08-.17-.2-.55-.35-.81l.62-.61a.47.47,0,0,0,0-.69l-.71-.71a.49.49,0,0,0-.7,0h0l-.59.61c-.26-.15-.64-.26-.81-.35V14a.57.57,0,0,0-.58-.49h-1a.57.57,0,0,0-.57.49v.88c-.18.09-.55.21-.81.36l-.61-.62a.48.48,0,0,0-.69,0h0l-.7.7a.5.5,0,0,0,0,.71h0l.62.59c-.15.26-.26.63-.35.81h-.87A.57.57,0,0,0,13,18v1a.57.57,0,0,0,.51.57h.87c.09.18.2.55.36.82l-.63.6a.5.5,0,0,0,0,.7l.71.71a.5.5,0,0,0,.71,0h0l.59-.62a6.18,6.18,0,0,0,.81.35V23a.57.57,0,0,0,.57.51h1a.57.57,0,0,0,.57-.51v-.88c.18-.08.55-.2.82-.35l.6.62a.49.49,0,0,0,.7,0h0l.71-.71a.49.49,0,0,0,0-.7h0l-.62-.59c.15-.27.27-.64.35-.81h.88A.57.57,0,0,0,23,19V18A.56.56,0,0,0,22.5,17.4ZM18,20.73a2.26,2.26,0,1,1,2.26-2.26A2.25,2.25,0,0,1,18,20.73Z"/></svg>