<svg id="图层_1" data-name="图层 1" xmlns="http://www.w3.org/2000/svg" viewBox="0 0 24 24"><defs> </defs><path class="cls-1" d="M10.18,18.58c1.07-.19,1.61-.63,1.61-1.29-.1-.84-1.07-1.27-2.92-1.29H5v5.5H9.05c2,0,3.08-.54,3.08-1.62C12,19.17,11.35,18.74,10.18,18.58Zm-3.3-1.69H8.57q1.2,0,1.23.63c-.05.45-.46.68-1.23.7H6.88Zm1.84,3.72H6.88V19.15H8.75c.85,0,1.32.25,1.39.69S9.64,20.58,8.72,20.61Z"/><rect class="cls-1" x="13.03" y="16" width="1.91" height="5.5"/><path class="cls-1" d="M23.5,7.89V3.33a.83.83,0,0,0-.83-.83H1.33a.83.83,0,0,0-.83.83V20.67a.83.83,0,0,0,.83.83H4V19.85H2.15V14.48H7.48v0H9.14v0H21.85V15.8H23.5V7.89Zm-16,4.94H2.15V8.7H7.48Zm7,0H9.13V8.7h5.33Zm7.39,0H16.11V8.7h5.74Zm0-5.78H2.15V4.15h19.7Z"/><path class="cls-1" d="M21.74,19.05c0,.37,0,.65,0,.83-.05-.07-.2-.25-.45-.53L18.17,16h-2v5.5h1.77V18.45a6.36,6.36,0,0,0,0-.93l.34.4a1,1,0,0,0,.11.13l3.27,3.45H23.5V17H21.74Z"/></svg>
