<svg id="图层_1" data-name="图层 1" xmlns="http://www.w3.org/2000/svg" viewBox="0 0 24 24"><defs><style>.cls-1{fill:;}</style></defs><title>bumengl</title><path class="cls-1" d="M15.13,15.13H8.94a.34.34,0,0,0-.34.33v6.19a.34.34,0,0,0,.34.34h6.19a.34.34,0,0,0,.33-.34V15.46A.33.33,0,0,0,15.13,15.13Zm-1.34,5.18H10.25V16.8h3.54Z"/><path class="cls-1" d="M23.66,15.13H17.54a.33.33,0,0,0-.33.33v6.19a.34.34,0,0,0,.33.34h6.12a.34.34,0,0,0,.34-.34V15.46A.34.34,0,0,0,23.66,15.13Zm-1.34,5.18H18.88V16.8h3.51Z"/><path class="cls-1" d="M6.51,15.13H.34a.34.34,0,0,0-.34.33v6.19A.34.34,0,0,0,.34,22H6.51a.34.34,0,0,0,.33-.34V15.46A.33.33,0,0,0,6.51,15.13ZM5.22,20.31H1.68V16.8H5.22Z"/><rect class="cls-1" x="3.17" y="11.59" width="17.73" height="1.68"/><path class="cls-1" d="M7.68,6.72h.43a.52.52,0,0,1,.47.34l.24.61a.5.5,0,0,1-.08.57l-.31.3a.36.36,0,0,0,0,.51l.51.51a.37.37,0,0,0,.51,0h0l.31-.3a.5.5,0,0,1,.57-.09l.6.25a.53.53,0,0,1,.35.47v.43a.36.36,0,0,0,.36.36h.72a.36.36,0,0,0,.36-.36V9.89a.52.52,0,0,1,.34-.47l.61-.25a.52.52,0,0,1,.57.09l.3.3a.36.36,0,0,0,.51,0h0l.51-.51a.36.36,0,0,0,0-.51l-.3-.3a.52.52,0,0,1-.09-.57l.25-.61a.52.52,0,0,1,.47-.34h.43a.36.36,0,0,0,.36-.36V5.64a.36.36,0,0,0-.36-.36h-.43a.53.53,0,0,1-.47-.35l-.24-.6a.5.5,0,0,1,.08-.57l.3-.31a.36.36,0,0,0,0-.51l-.5-.51a.37.37,0,0,0-.52,0l-.3.31a.5.5,0,0,1-.57.08l-.61-.24a.52.52,0,0,1-.34-.47V1.68a.36.36,0,0,0-.36-.36h-.72a.36.36,0,0,0-.36.36v.43a.53.53,0,0,1-.35.47l-.6.24a.5.5,0,0,1-.57-.08l-.31-.31a.36.36,0,0,0-.51,0l-.51.51a.36.36,0,0,0,0,.51l.31.31a.5.5,0,0,1,.08.57l-.25.6a.52.52,0,0,1-.46.35H7.68a.36.36,0,0,0-.36.36v.72A.36.36,0,0,0,7.68,6.72ZM12,4.19A1.81,1.81,0,1,1,10.19,6,1.81,1.81,0,0,1,12,4.19Z"/></svg>
