<svg id="图层_1" data-name="图层 1" xmlns="http://www.w3.org/2000/svg" viewBox="0 0 24 24"><defs> </defs><title></title><path class="cls-1" d="M6.94,20H4.05A1.33,1.33,0,0,1,2.6,18.51V4c0-1.28.25-1.44,1.45-1.44H15.62c1.12,0,1.47.37,1.47,1.44V5.49a.73.73,0,1,0,1.45,0V4c0-2.13-.69-2.89-2.92-2.89H4.05c-1.42,0-2.9.17-2.9,2.83,0,3.07,0,4.22,0,7.28s0,4.67,0,7.72a3.06,3.06,0,0,0,.12.85A2.29,2.29,0,0,0,3.5,21.41H6.94A.72.72,0,0,0,6.94,20Z"/><path class="cls-1" d="M5.49,5.48A.74.74,0,1,0,5.49,7h8.68a.74.74,0,1,0,0-1.47Z"/><path class="cls-1" d="M6.64,9.82Z"/><path class="cls-1" d="M15.63,8.39a7.23,7.23,0,1,0,7.22,7.25A7.22,7.22,0,0,0,15.63,8.39Zm0,13a5.78,5.78,0,1,1,5.81-5.73A5.77,5.77,0,0,1,15.59,21.39Z"/><path class="cls-1" d="M6.94,9.82H5.49a.74.74,0,1,0,0,1.47H6.94A.74.74,0,1,0,6.94,9.82Z"/><path class="cls-1" d="M18.39,12.85a.84.84,0,0,0-1.19,0l-1.58,1.58L14,12.85A.84.84,0,1,0,12.84,14l1.59,1.59-1.59,1.59a.85.85,0,0,0,0,1.18.83.83,0,0,0,.6.25.85.85,0,0,0,.59-.25l1.59-1.59,1.58,1.59a.83.83,0,0,0,.6.25.81.81,0,0,0,.59-.25.83.83,0,0,0,0-1.18L16.8,15.62,18.39,14A.83.83,0,0,0,18.39,12.85Z"/></svg>
