<svg id="图层_1" data-name="图层 1" xmlns="http://www.w3.org/2000/svg" viewBox="0 0 24 24"><defs></defs><title>bwendcfjc</title><path class="cls-1" d="M3.15,2.21A.22.22,0,0,1,3.36,2H6.93a.53.53,0,0,1,.52.54V6.61a.21.21,0,0,1-.21.21A.21.21,0,0,1,7,6.61V2.54a.1.1,0,0,0-.1-.11H3.36A.22.22,0,0,1,3.15,2.21Zm2.94.65H2.52A.52.52,0,0,0,2,3.39V7.46A.53.53,0,0,0,2.52,8H6.09a.54.54,0,0,0,.53-.54V3.39A.53.53,0,0,0,6.09,2.86ZM4.52,6.54H3.26a.21.21,0,1,1,0-.42H4.52a.21.21,0,1,1,0,.42Zm.84-2.13H3.26a.21.21,0,0,1-.21-.21A.21.21,0,0,1,3.26,4h2.1a.22.22,0,0,1,0,.43ZM9.84,14.77h.24v-.24H8.88s0-.08,0-.12a3,3,0,0,1,3-3h0a2.94,2.94,0,0,1,1.26.28l.89-.89a4.21,4.21,0,0,0-6.36,3.63.49.49,0,0,0,0,.12H6.46v.24H6.7V15H7v.24h.24v.24h.24v.24h.24V16h.24v.24h.18l.06.14v.1h.06a.31.31,0,0,0,0,.1l.1-.1h0v0l.21-.21h0v0L8.84,16h0v0l.21-.21h0v0l0,0a.36.36,0,0,0,0-.09v-.08h.24v-.24H9.6V15h.24Zm7.22-1h-.24v-.24h-.24v-.24h-.24v-.24H16.1v-.24h-.24V12.6h-.18l-.06-.13v-.11h-.06a.05.05,0,0,0,0,0l0,0h-.12v.12l-.12.12h-.12v.12l-.12.12H14.9V13l-.12.12h-.12v.12h0v.11h-.25v.24h-.24v.24h-.24V14h-.24v.24h1.2c0,.05,0,.08,0,.13a3,3,0,0,1-3,3,3,3,0,0,1-1.19-.25l-.9.89a4.14,4.14,0,0,0,2.09.56,4.22,4.22,0,0,0,4.22-4.21h0c0-.05,0-.08,0-.12h1.22V14h-.25Zm5.3,4.34L14.17,3.2a2.55,2.55,0,0,0-4.33,0L1.65,18.14a2.69,2.69,0,0,0-.25,2.65A1.94,1.94,0,0,0,3.33,22H20.68a2.12,2.12,0,0,0,1.93-1.2h0A2.84,2.84,0,0,0,22.36,18.14Zm-1,1.93c-.13.56-1.2.48-1.2.48H3.57s-.75,0-1-.48.24-1,.24-1L11,4.41s.51-1,1-1,1,1,1,1L21.16,19.1h0A1.59,1.59,0,0,1,21.4,20.07Z"/></svg>