<svg id="图层_1" data-name="图层 1" xmlns="http://www.w3.org/2000/svg" viewBox="0 0 24 24"><defs></defs><polygon class="cls-1" points="16.58 2.97 16.58 5.9 19.6 5.9 16.58 2.97"/><path class="cls-2" d="M9.09,20.57H3V3h12.1v4.4H19.6v.78a.76.76,0,0,0,1.51,0V5.9L16.62,1.5H2.23a.67.67,0,0,0-.73.63V21.41a.65.65,0,0,0,.66.62H9.09a.73.73,0,1,0,0-1.46ZM16.58,3l3,2.93h-3Z"/><path class="cls-2" d="M13.57,6.63a.75.75,0,0,0-.76-.73H5.27a.74.74,0,1,0,0,1.47h7.54A.75.75,0,0,0,13.57,6.63Z"/><path class="cls-2" d="M8.66,9.57a.74.74,0,0,0-.75-.74H5.27a.74.74,0,1,0,0,1.47H7.91A.74.74,0,0,0,8.66,9.57Z"/><path class="cls-2" d="M6.78,14.7H5.27a.74.74,0,1,0,0,1.47H6.78a.74.74,0,1,0,0-1.47Z"/><path class="cls-2" d="M6.78,11.77H5.27a.73.73,0,1,0,0,1.46H6.78a.73.73,0,1,0,0-1.46Z"/><path class="cls-3" d="M21.52,15.42H17.58V11.48a1,1,0,0,0-1-1h-.2a1,1,0,0,0-1,1v3.94H11.48a1,1,0,0,0-1,1v.2a1,1,0,0,0,1,1h3.94v3.94a1,1,0,0,0,1,1h.2a1,1,0,0,0,1-1V17.58h3.94a1,1,0,0,0,1-1v-.2A1,1,0,0,0,21.52,15.42Z"/></svg>
