<svg id="图层_1" data-name="图层 1" xmlns="http://www.w3.org/2000/svg" viewBox="0 0 24 24"><defs> </defs><title>chakxq</title><path class="cls-1" d="M1.34,5.06H5.41V6.44a1,1,0,0,0,1,1h3.76a1,1,0,0,0,1-1V5.06H22.66a.83.83,0,1,0,0-1.65H11.27V2a1,1,0,0,0-1-1H6.46a1,1,0,0,0-1,1V3.41H1.34a.83.83,0,1,0,0,1.65ZM6.77,2.48H9.91V6H6.77Z"/><path class="cls-1" d="M22.66,11.17H19.11V9.8a1,1,0,0,0-1.05-1H14.3a1,1,0,0,0-1.05,1v1.37H1.34a.83.83,0,1,0,0,1.66H13.25V14.2a1,1,0,0,0,1.05,1h3.76a1,1,0,0,0,1.05-1V12.83h3.55a.83.83,0,1,0,0-1.66Zm-4.91,2.59H14.61V10.24h3.14Z"/><path class="cls-1" d="M22.66,18.94H11.27V17.56a1,1,0,0,0-1-1H6.46a1,1,0,0,0-1,1v1.38H1.34a.83.83,0,1,0,0,1.65H5.41V22a1,1,0,0,0,1,1h3.76a1,1,0,0,0,1-1V20.59H22.66a.83.83,0,1,0,0-1.65ZM9.91,21.52H6.77V18H9.91Z"/></svg>