<?xml version="1.0" standalone="no"?><!DOCTYPE svg PUBLIC "-//W3C//DTD SVG 1.1//EN" "http://www.w3.org/Graphics/SVG/1.1/DTD/svg11.dtd"><svg t="1555997067906" class="icon" style="" viewBox="0 0 1024 1024" version="1.1" xmlns="http://www.w3.org/2000/svg" p-id="6982" xmlns:xlink="http://www.w3.org/1999/xlink" width="200" height="200"><defs><style type="text/css"></style></defs><path d="M552.448 353.28c3.584 44.544-4.096 115.712-4.096 115.712l316.416-163.328-326.144-247.296 4.608 118.272C174.08 99.328 52.224 342.016 52.224 342.016c-121.856 139.264 40.448 422.912 40.448 422.912C-77.312 179.712 552.448 353.28 552.448 353.28zM931.84 277.504c169.984 585.216-459.776 411.648-459.776 411.648-3.584-44.544 4.096-115.712 4.096-115.712l-316.416 163.328 326.144 247.296-4.608-118.272c369.152 77.312 491.008-165.376 491.008-165.376 124.928-152.064-40.448-422.912-40.448-422.912z" p-id="6983"></path></svg>