<svg id="图层_1" data-name="图层 1" xmlns="http://www.w3.org/2000/svg" viewBox="0 0 24 24"><defs> </defs><title>changepass</title><path class="cls-1" d="M18.48,14.28a.87.87,0,0,0-.87.87v6.1H2.05V11.56a.2.2,0,0,1,.2-.2H9.66a.88.88,0,0,0,0-1.75H5.25V4.87A2.12,2.12,0,0,1,7.36,2.75H12.6a1.81,1.81,0,0,1,1.81,1.82v.21a.87.87,0,1,0,1.74,0V4.57A3.56,3.56,0,0,0,12.6,1H7.36A3.87,3.87,0,0,0,3.51,4.87V9.61H2.25a2,2,0,0,0-1.94,2V23h19V15.15A.87.87,0,0,0,18.48,14.28Z"/><path class="cls-1" d="M23.49,6c-.46-.57-1-1.24-1.55-1.8l-.1-.1a1.17,1.17,0,0,0-1.3.11,8.63,8.63,0,0,0-.86.61c-.5.4-1,.82-1.05.9L16.75,7.22c-1.17.94-2.18,1.75-3.61,2.92h0l0,0h0v0h0l0,0h0l0,0h0l0,0h0v0h0c-.06.1-1.44,2.58-2,3.66a.75.75,0,0,0,.08.8.71.71,0,0,0,.56.27l.21,0c1.16-.35,3.44-1.1,4-1.28h.07l0,0h0l0,0h0l0,0h0l1.79-1.44c1.2-1,2.24-1.79,3.71-3,.05,0,.51-.4,1-.84,1-.93,1.17-1.37,1.2-1.69A.92.92,0,0,0,23.49,6Zm-10.4,7.13c.21-.39.43-.79.62-1.12l.6.73Zm3.8-2-1.24,1L14.78,11l-.16-.2,3-2.46L19,7.27l.27.32.77.94C18.85,9.5,17.93,10.23,16.89,11.06Zm4.26-3.45-1-1.28a12.77,12.77,0,0,1,1.08-.84c.32.37.66.76,1,1.13A9.06,9.06,0,0,1,21.15,7.61Z"/><path class="cls-1" d="M9.83,19.72a.87.87,0,0,0,.87-.87v-2h0a.58.58,0,0,0,.34-.75.57.57,0,0,0-.74-.34,1,1,0,0,1-.87,0,.86.86,0,0,1-.32-1.17.89.89,0,0,1,.68-.44.59.59,0,0,0,.47-.68A.58.58,0,0,0,9.6,13a2,2,0,0,0-.71,3.76l.07,0v2.05A.87.87,0,0,0,9.83,19.72Z"/></svg>