<svg id="图层_1" data-name="图层 1" xmlns="http://www.w3.org/2000/svg" viewBox="0 0 24 24"><defs></defs><path class="cls-1" d="M14.14,21.43H5.36A2,2,0,0,1,3.43,19.3h0V4.7A2,2,0,0,1,5.36,2.57H18.63A1.81,1.81,0,0,1,20,3.2a2.19,2.19,0,0,1,.57,1.5l0,9.65h0a.72.72,0,1,0,1.43,0l0-9.65h0A3.55,3.55,0,0,0,18.63,1H5.36A3.54,3.54,0,0,0,2,4.7H2V19.3A3.54,3.54,0,0,0,5.36,23h8.78a.79.79,0,0,0,0-1.57Z"/><path class="cls-1" d="M21.79,20.78l-2.72-2.72a4.3,4.3,0,1,0-1,1l2.72,2.72a.71.71,0,0,0,1-1Zm-4.2-3.19a2.83,2.83,0,0,1-2,.84h0a2.87,2.87,0,1,1,2-.84Z"/><path class="cls-1" d="M18.43,5.72A.72.72,0,0,0,17.72,5H6.29a.72.72,0,1,0,0,1.43H17.72A.72.72,0,0,0,18.43,5.72Z"/><path class="cls-1" d="M11.29,10a.71.71,0,0,0-.72-.71H6.29a.72.72,0,1,0,0,1.43h4.28A.72.72,0,0,0,11.29,10Z"/><path class="cls-1" d="M9.14,13.57H6.29a.72.72,0,1,0,0,1.43H9.14a.72.72,0,1,0,0-1.43Z"/></svg>
