<svg id="图层_1" data-name="图层 1" xmlns="http://www.w3.org/2000/svg" viewBox="0 0 24 24"><defs> </defs><title>chaxunsjq</title><path class="cls-1" d="M1.83,16.08a6.94,6.94,0,0,1,5.78-7.8h0a1.73,1.73,0,0,1,.51,0h.18l-.14-.71-.07-.63H8l-.29,0L7.4,7A8.23,8.23,0,0,0,2,10.21a8.09,8.09,0,0,0-1.51,6,8.29,8.29,0,0,0,2.39,4.61l.09.09,1.13-.84L3.92,20A6.49,6.49,0,0,1,1.83,16.08Z"/><path class="cls-1" d="M9.42,19.91a5,5,0,0,0,4.23-5.61,1.67,1.67,0,0,0-.12-.59l0-.12-.62.07-.73.13v.13a1.69,1.69,0,0,0,.11.57,3.49,3.49,0,0,1-.62,2.61A3.69,3.69,0,0,1,9.2,18.58a3.64,3.64,0,0,1-4.15-3A3.54,3.54,0,0,1,5.68,13,3.69,3.69,0,0,1,8.11,11.5a1,1,0,0,1,.53,0l.23.05-.15-.81-.07-.63H8.52a1.81,1.81,0,0,0-.57.06A5,5,0,0,0,3.72,15.8,4.84,4.84,0,0,0,5.66,19a4.92,4.92,0,0,0,2.93,1A4.73,4.73,0,0,0,9.42,19.91Z"/><path class="cls-1" d="M23,1.35c-1-.7-2.82-1.06-5.86,1.26-4.1,3.07-7.31,8.45-8.51,10.63a.54.54,0,0,1-.07.12l-.28.57,1.12.63L9.8,14s.81-1.5,2.07-3.39a7.33,7.33,0,0,0,3.71.6l-.91.59.06.12A6.72,6.72,0,0,1,15.42,14,6.61,6.61,0,0,1,14.22,19a6.94,6.94,0,0,1-4.58,2.79,6.77,6.77,0,0,1-2.35,0l-.16,0-.19,1.16V23l.12,0a8.19,8.19,0,0,0,1.6.16,7.64,7.64,0,0,0,1.19-.1,8.31,8.31,0,0,0,5.45-3.26,8.1,8.1,0,0,0,1.51-6,7.84,7.84,0,0,0-.89-2.62v0a5.24,5.24,0,0,0,1.43-.48,7.09,7.09,0,0,0,3.11-4,4.34,4.34,0,0,0,3.09-3.09h0A2,2,0,0,0,23,1.35Zm-.83,1.94a2.92,2.92,0,0,1-2.39,2.13l-.5.07-.07.5a5.77,5.77,0,0,1-2.54,3.54,5.07,5.07,0,0,1-4.13,0,29.75,29.75,0,0,1,5.33-5.82C18.81,3,21,1.5,22.21,2.41h0C22.28,2.46,22.38,2.74,22.21,3.29Z"/></svg>