<?xml version="1.0" standalone="no"?><!DOCTYPE svg PUBLIC "-//W3C//DTD SVG 1.1//EN" "http://www.w3.org/Graphics/SVG/1.1/DTD/svg11.dtd"><svg t="1560856651141" class="icon" style="" viewBox="0 0 1024 1024" version="1.1" xmlns="http://www.w3.org/2000/svg" p-id="1045" xmlns:xlink="http://www.w3.org/1999/xlink" width="200" height="200"><defs><style type="text/css"></style></defs><path d="M904 64c14.8 0 28.9 5.9 39.5 16.5C954.1 91.1 960 105.2 960 120v784c0 14.8-5.9 28.9-16.5 39.5-10.6 10.6-24.7 16.5-39.5 16.5H120c-14.8 0-28.9-5.9-39.5-16.5C69.9 932.9 64 918.8 64 904V120c0-14.8 5.9-28.9 16.5-39.5C91.1 69.9 105.2 64 120 64h784m0-64H120C54 0 0 54 0 120v784c0 66 54 120 120 120h784c66 0 120-54 120-120V120c0-66-54-120-120-120z" fill="#bbbbbb" p-id="1046"></path><path d="M415.2 698L236.9 519.7c-12.4-12.4-12.4-32.7 0-45.1l0.1-0.1c12.4-12.4 32.7-12.4 45.1 0l178.3 178.3c12.4 12.4 12.4 32.7 0 45.1l-0.1 0.1c-12.4 12.4-32.7 12.4-45.1 0z" fill="#bbbbbb" p-id="1047"></path><path d="M787.1 371.2L460.3 698c-12.4 12.4-32.7 12.4-45.1 0l-0.1-0.1c-12.4-12.4-12.4-32.7 0-45.1L741.9 326c12.4-12.4 32.7-12.4 45.1 0l0.1 0.1c12.4 12.4 12.4 32.7 0 45.1z" fill="#bbbbbb" p-id="1048"></path></svg>
