<svg id="图层_1" data-name="图层 1" xmlns="http://www.w3.org/2000/svg" viewBox="0 0 24 24"><defs> </defs><title></title><path class="cls-1" d="M23.18,11,20.24,8.27V4.2a1.5,1.5,0,1,0-3,0V5.49L12.38.87a.56.56,0,0,0-.78,0L.82,11a.66.66,0,0,0-.14.68.6.6,0,0,0,.52.41H4.42v6.6L3.34,19.87a2,2,0,0,0,0,2.82h0a2,2,0,0,0,2.84,0l.06-.06H19a.57.57,0,0,0,.57-.57V12.13H22.8a.61.61,0,0,0,.52-.41A.65.65,0,0,0,23.18,11ZM5.43,21.92a.93.93,0,1,1-1.31-1.33h0l5.34-5.33-.18-.54A3.29,3.29,0,0,1,9.19,13,3,3,0,0,1,10,11.42a3.25,3.25,0,0,1,2.3-.95,2.31,2.31,0,0,0-.68,1.62,2.24,2.24,0,0,0,.65,1.64,2.43,2.43,0,0,0,1.7.68,2.26,2.26,0,0,0,1.58-.68A3.2,3.2,0,0,1,12.41,17h-.05a3.39,3.39,0,0,1-1-.17l-.54-.19Zm13.36-11a.57.57,0,0,0-.57.56h0v9.93H7.44l3.61-3.55a4.53,4.53,0,0,0,1.31.2,4.32,4.32,0,0,0,3.92-6.14l-.09-.19-.14.16a9.24,9.24,0,0,1-.74.7l-.42.38a1.22,1.22,0,0,1-1.78,0,1.2,1.2,0,0,1,0-1.77c1.17-1.17,1.15-1.25,1.14-1.3V9.81l-.07,0a4.39,4.39,0,0,0-1.82-.4A4.32,4.32,0,0,0,8.21,15L5.75,17.46v-6a.57.57,0,0,0-.57-.57H2.78L12,2.31l9.2,8.58Z"/></svg>
