<svg id="图层_1" data-name="图层 1" xmlns="http://www.w3.org/2000/svg" viewBox="0 0 24 24"><defs> </defs><title>chendishuju</title><path class="cls-1" d="M10.14,10.63A12.36,12.36,0,0,0,18,8.29v1.86h1.3V5.82C19.28,3.2,15.19,1,10.14,1S1,3.2,1,5.82V18.88C1,21.15,5.09,23,10.14,23V21.63c-4.32,0-7.83-1.24-7.83-2.75v-2a12.63,12.63,0,0,0,6.53,2V17.5c-3.71-.21-6.53-1.34-6.53-2.71v-2a12.66,12.66,0,0,0,6.52,2V13.34C5.13,13.1,2.31,12,2.31,10.63V8.29C3.9,9.69,6.82,10.63,10.14,10.63Zm0-8.25C14.46,2.38,18,3.91,18,5.82s-3.51,3.43-7.84,3.43S2.31,7.71,2.31,5.82,5.82,2.38,10.14,2.38Z"/><path class="cls-1" d="M16.85,14.94a2.28,2.28,0,1,0,2.28,2.27A2.28,2.28,0,0,0,16.85,14.94Zm0,3.37a1.1,1.1,0,1,1,1.1-1.1A1.1,1.1,0,0,1,16.85,18.31Z"/><path class="cls-1" d="M22.87,16a.81.81,0,0,0-.74-.75h-.05A1.29,1.29,0,0,1,20.8,14a1.53,1.53,0,0,1,.11-.48.94.94,0,0,0-.35-1.1l-1.51-.83a.79.79,0,0,0-.37-.07,1.09,1.09,0,0,0-.73.28,2,2,0,0,1-1,.6,2,2,0,0,1-1-.61,1,1,0,0,0-.72-.3,1,1,0,0,0-.37.08l-1.52.84A.92.92,0,0,0,13,13.5a1.31,1.31,0,0,1,.12.48,1.29,1.29,0,0,1-1.25,1.32h-.19c-.37,0-.65.3-.74.75a7.87,7.87,0,0,0-.12,1.19,7.76,7.76,0,0,0,.13,1.17.81.81,0,0,0,.75.75h0A1.29,1.29,0,0,1,13,20.45a2,2,0,0,1-.11.48,1,1,0,0,0,.34,1.16l1.49.81a.91.91,0,0,0,.37.08,1,1,0,0,0,.73-.31,2,2,0,0,1,1.1-.63,2,2,0,0,1,1.1.64,1,1,0,0,0,.59.32,1,1,0,0,0,.41-.09l1.49-.82a.91.91,0,0,0,.32-1.1,1.66,1.66,0,0,1-.11-.49A1.28,1.28,0,0,1,22,19.22h.05a.81.81,0,0,0,.74-.75A6.63,6.63,0,0,0,23,17.21,6.66,6.66,0,0,0,22.87,16Zm-1.1,2a2.44,2.44,0,0,0-2.15,2.43,2.36,2.36,0,0,0,.14.74l-1.11.6a5.53,5.53,0,0,0-.44-.38,2.45,2.45,0,0,0-1.37-.53,2.31,2.31,0,0,0-1.36.52,3.25,3.25,0,0,0-.44.38l-1-.59a2,2,0,0,0,.13-.73A2.44,2.44,0,0,0,12,18a5.42,5.42,0,0,1-.08-.8A5.56,5.56,0,0,1,12,16.4,2.46,2.46,0,0,0,14.2,14a2.35,2.35,0,0,0-.13-.74l1.1-.61a3.13,3.13,0,0,0,.44.36,2.33,2.33,0,0,0,1.34.51,2.36,2.36,0,0,0,1.32-.5,4.82,4.82,0,0,0,.44-.35l1.1.59a2.68,2.68,0,0,0-.13.74,2.47,2.47,0,0,0,2.08,2.41,5.12,5.12,0,0,1,.06.78,5.79,5.79,0,0,1-.06.83Z"/></svg>