<svg id="图层_1" data-name="图层 1" xmlns="http://www.w3.org/2000/svg" viewBox="0 0 24 24"><defs> </defs><title>chendixinxisz</title><path class="cls-1" d="M20.92,7.83h-2.8a.78.78,0,0,1-.78-.78V6.89a.79.79,0,0,1,.78-.79h2.8a.8.8,0,0,1,.79.79v.16A.79.79,0,0,1,20.92,7.83ZM22.8,4.34V4.19A.79.79,0,0,0,22,3.4H18.12a.79.79,0,0,0-.78.79v.15a.78.78,0,0,0,.78.79H22A.79.79,0,0,0,22.8,4.34ZM21.71,9.75V9.59a.8.8,0,0,0-.79-.79h-2.8a.79.79,0,0,0-.78.79v.16a.78.78,0,0,0,.78.78h2.8A.79.79,0,0,0,21.71,9.75Zm-9.24,9.67L9.8,22.77a.51.51,0,0,1-.59.2l-1.87-.65L.7,20a.61.61,0,0,1-.33-.29,1.05,1.05,0,0,1,.1-1.19L3.14,15.8.7,15a.63.63,0,0,1-.33-.3,1,1,0,0,1,.1-1.19l2.67-2.74L.7,9.87a.66.66,0,0,1-.33-.29,1.07,1.07,0,0,1,.1-1.2l7-7.2A.51.51,0,0,1,8,1l8.11,1.85a.75.75,0,0,1,.5.59,1.09,1.09,0,0,1-.17.87l-2.5,3.12,2.17.5a.72.72,0,0,1,.5.59,1.07,1.07,0,0,1-.17.86l-2.49,3.13,1.73.39a6.6,6.6,0,0,0-3.24,5.69A7.37,7.37,0,0,0,12.47,19.42ZM9.19,11.07l5.44-6.83L8,2.74H8L2.27,8.67Zm5.44-1.75-1.86-.43-3,3.73a.53.53,0,0,1-.59.2L4.69,11.26,2.27,13.74l6.92,2.4ZM23.76,18h0a.79.79,0,0,1-.79.8.5.5,0,0,0-.48.35v0c0,.14-.11.28-.17.42h0a.53.53,0,0,0,.1.6l.37.37a.27.27,0,0,1,.07.2.26.26,0,0,1-.07.19l-.83.84a.27.27,0,0,1-.38,0l-.37-.37a.5.5,0,0,0-.59-.1h0l-.27.12-.14.05h0a.54.54,0,0,0-.35.5.81.81,0,0,1-.75.8h-.18a.79.79,0,0,1-.79-.8.53.53,0,0,0-.35-.5h0l-.41-.17h0a.51.51,0,0,0-.59.1l-.36.37a.27.27,0,0,1-.38,0L15.14,21a.27.27,0,0,1-.08-.19.3.3,0,0,1,.08-.2l.37-.37a.48.48,0,0,0,.13-.23.53.53,0,0,0,0-.37h0a3.61,3.61,0,0,1-.16-.42v0a.52.52,0,0,0-.49-.35.79.79,0,0,1-.75-.57.86.86,0,0,1,0-.24V17.9a.8.8,0,0,1,.79-.8.51.51,0,0,0,.49-.36h0a2.61,2.61,0,0,1,.16-.42v0a.34.34,0,0,0,.05-.17.5.5,0,0,0-.15-.43l-.36-.37a.24.24,0,0,1-.08-.19.26.26,0,0,1,.08-.2l.54-.55L16,14.1a.27.27,0,0,1,.38,0l.3.31.07.06a.49.49,0,0,0,.34.15.56.56,0,0,0,.25,0h0a2.37,2.37,0,0,1,.41-.17h0a.52.52,0,0,0,.35-.49.8.8,0,0,1,.79-.81H19a.76.76,0,0,1,.27.05.8.8,0,0,1,.52.76.52.52,0,0,0,.35.49h0l.14,0,.27.12h0a.54.54,0,0,0,.59-.1l.36-.37a.27.27,0,0,1,.19-.08.3.3,0,0,1,.2.08l.82.83a.26.26,0,0,1,.08.2.27.27,0,0,1-.08.19l-.36.37a.53.53,0,0,0-.1.6v0c.06.13.12.28.17.42v0a.52.52,0,0,0,.49.35.8.8,0,0,1,.79.8Zm-2.61,0a2.23,2.23,0,0,0-1.16-2,2.17,2.17,0,0,0-.79-.26H19a2.16,2.16,0,0,0-1.32.44,1.88,1.88,0,0,0-.35.34,2.23,2.23,0,0,0-.54,1.55.66.66,0,0,0,0,.14,2.28,2.28,0,0,0,.57,1.28,2.19,2.19,0,0,0,1.54.73,1.88,1.88,0,0,0,.34,0A2.15,2.15,0,0,0,20,20,2.25,2.25,0,0,0,21.15,18Z"/></svg>