<svg id="图层_1" data-name="图层 1" xmlns="http://www.w3.org/2000/svg" viewBox="0 0 24 24"><defs> </defs><title></title><path class="cls-1" d="M22.65,18.12V18a.81.81,0,0,0-.81-.81.55.55,0,0,1-.51-.36v0a2.65,2.65,0,0,0-.18-.42v0a.53.53,0,0,1,.11-.61l.38-.38a.26.26,0,0,0,.07-.19.27.27,0,0,0-.07-.2l-.86-.85a.32.32,0,0,0-.4,0l-.37.38a.53.53,0,0,1-.61.1h0l-.28-.12-.15-.05h0a.53.53,0,0,1-.36-.5.8.8,0,0,0-.53-.76.66.66,0,0,0-.28-.05h-.14a.81.81,0,0,0-.81.81.53.53,0,0,1-.37.5h0L16,14.6h0a.45.45,0,0,1-.25.05.55.55,0,0,1-.36-.15l-.06-.07L15,14.13a.31.31,0,0,0-.2-.07.27.27,0,0,0-.2.07l-.29.29-.56.56a.28.28,0,0,0-.08.2.27.27,0,0,0,.08.19l.38.38a.49.49,0,0,1,.15.43.41.41,0,0,1,0,.18h0c-.06.14-.12.28-.17.43h0a.52.52,0,0,1-.5.36.82.82,0,0,0-.82.82v.13a.86.86,0,0,0,0,.24.82.82,0,0,0,.78.58.53.53,0,0,1,.5.36h0a4.08,4.08,0,0,0,.17.42v0a.55.55,0,0,1,0,.38.51.51,0,0,1-.14.23l-.37.37a.27.27,0,0,0-.08.2.24.24,0,0,0,.08.2l.85.85a.27.27,0,0,0,.2.07A.26.26,0,0,0,15,22l.38-.38a.53.53,0,0,1,.61-.1h0l.42.17h0a.52.52,0,0,1,.36.5.82.82,0,0,0,.82.81h.19a.82.82,0,0,0,.77-.81.52.52,0,0,1,.36-.5h0l.14-.05.28-.12h0a.53.53,0,0,1,.61.1l.38.38a.27.27,0,0,0,.2.07.26.26,0,0,0,.19-.07l.86-.85a.29.29,0,0,0,0-.4l-.38-.37a.55.55,0,0,1-.11-.61v0a3.12,3.12,0,0,0,.18-.42v0a.52.52,0,0,1,.5-.35.82.82,0,0,0,.82-.82h0Zm-3.89,2a2.25,2.25,0,0,1-.82.26,2,2,0,0,1-.35,0,2.26,2.26,0,0,1-1.6-.74,2.2,2.2,0,0,1-.58-1.29.66.66,0,0,1,0-.14A2.26,2.26,0,0,1,16,16.63a3,3,0,0,1,.37-.34,2.28,2.28,0,0,1,1.36-.44h.26a2.26,2.26,0,0,1,.82,4.25Z"/><path class="cls-1" d="M3.44,3.21H18.16V9.85h2.11V2.11A1.08,1.08,0,0,0,19.21,1H2.38a1.08,1.08,0,0,0-1,1.11v18.8h0A1.08,1.08,0,0,0,2.39,22h8.28V19.8H3.44Z"/><path class="cls-1" d="M13.64,13.52l2.63-2.77a1.14,1.14,0,0,0,0-1.56L13.64,6.42,12.15,8,14,10l-1.89,2Z"/><path class="cls-1" d="M8,6.42H8L5.32,9.19a1.14,1.14,0,0,0,0,1.56L8,13.52,9.44,12,7.55,10,9.44,8Z"/></svg>
