<svg id="图层_1" data-name="图层 1" xmlns="http://www.w3.org/2000/svg" viewBox="0 0 24 24"><defs> </defs><title></title><path class="cls-1" d="M21.89,4.56H19.78L18.31,1.12l0-.06A1,1,0,0,0,16.8.73L11.43,4.56H2.11A1.59,1.59,0,0,0,.52,6.15V7.94a.8.8,0,0,0,1.6,0V6.15H9.19L6.91,7.78H5.05a.8.8,0,0,0,0,1.6H21.89v1.84H18.66a2.8,2.8,0,0,0,0,5.59h3.23v5.07H2.11V12.37a.8.8,0,1,0-1.59,0v9.51a1.59,1.59,0,0,0,1.59,1.59H21.89a1.59,1.59,0,0,0,1.59-1.59V6.15A1.58,1.58,0,0,0,21.89,4.56ZM12.05,6.07a.66.66,0,0,0,.22-.15l4.87-3.48,2.28,5.33H9.66Zm9.11,1.71-.7-1.63h1.43V7.78Zm-2.5,7.44a1.2,1.2,0,1,1,0-2.4h3.23v2.4Z"/></svg>
