<svg id="图层_1" data-name="图层 1" xmlns="http://www.w3.org/2000/svg" viewBox="0 0 24 24"><defs> </defs><title>chenditoupiansz</title><path class="cls-1" d="M16.85,13l-2.3-.48,2.65-3a.91.91,0,0,0,.18-.83.71.71,0,0,0-.53-.56l-2.3-.47,2.65-3a.88.88,0,0,0,.18-.82.71.71,0,0,0-.53-.56L8.23,1.51a.58.58,0,0,0-.52.16L.26,8.55A.93.93,0,0,0,.15,9.69.68.68,0,0,0,.5,10l2.6.81L.26,13.39a.91.91,0,0,0-.11,1.14.63.63,0,0,0,.35.28l2.6.81L.26,18.24a.92.92,0,0,0-.11,1.14.68.68,0,0,0,.35.28l7.05,2.19,2,.62a.59.59,0,0,0,.63-.19l7-7.93a.92.92,0,0,0,.19-.82A.74.74,0,0,0,16.85,13ZM8.3,3.16l7,1.43L9.52,11.11,2.17,8.82,8.3,3.16ZM4.74,11.29l4.8,1.49a.6.6,0,0,0,.63-.19L13.32,9l2,.4L9.52,16,2.17,13.66Zm19.26,4-3.32,5.32-3.31-5.32h2.21v-.4a14.89,14.89,0,0,0-2-7.44,9.37,9.37,0,0,1,4.2,7.84Z"/></svg>