<svg id="图层_1" data-name="图层 1" xmlns="http://www.w3.org/2000/svg" viewBox="0 0 24 24"><defs> </defs><title>chongzhi</title><path class="cls-1" d="M23.74,4.33a.86.86,0,0,0,0-1.24L20.92.26a.85.85,0,0,0-.29-.19.86.86,0,0,0-.95.19L14.59,5.34,10.44,1.18A1,1,0,0,0,10,.94a.92.92,0,0,0-.8.24L.26,10.12a.85.85,0,0,0-.19.29.86.86,0,0,0,.19.95l9.4,9.41h0l0,0,2.94,2.94a.84.84,0,0,0,.79.24h0l.12,0s0,0,.06,0l.09,0,.06,0,.08-.07h0l8.92-8.92,0,0a.87.87,0,0,0,0-1.23L18.66,9.4l5.06-5.05ZM16.8,8.79a.88.88,0,0,0,0,1.23h0L21,14.18,18.4,16.75,7.25,5.6,9.82,3,14,7.19a.86.86,0,0,0,.46.24.88.88,0,0,0,.79-.23.1.1,0,0,1,0,0l5-5L21.89,3.7Zm-3.54,13.1-1.73-1.72,1.34-1.35a.87.87,0,1,0-1.23-1.23L10.3,18.93l-2-2,2.09-2.09a.87.87,0,1,0-1.23-1.24L7.08,15.71l-2-2L6.4,12.34a.89.89,0,0,0,0-1.23.86.86,0,0,0-1.24,0L3.82,12.45,2.11,10.74,6,6.84,17.16,18Z"/></svg>