<svg id="图层_1" data-name="图层 1" xmlns="http://www.w3.org/2000/svg" viewBox="0 0 24 24"><defs></defs><title>choujzsl</title><path class="cls-1" d="M18,17.6a4.8,4.8,0,0,0,1.3-3.2,5.1,5.1,0,0,0-5.1-5.1h-.3a5,5,0,0,0-5.3,4.9,5.1,5.1,0,0,0,5.1,5.1h.2a5.3,5.3,0,0,0,2.8-.7l3.7,4c.2.2.4.2.7,0l.5-.5c.3-.2.3-.4.1-.6Zm-4.1,0h-.2a3.2,3.2,0,0,1-3.3-3.4A3.3,3.3,0,0,1,13.9,11h.2a3.4,3.4,0,0,1,3.4,3.4A3.4,3.4,0,0,1,13.9,17.6ZM22,6v8.8a.9.9,0,0,1-.9.9.9.9,0,0,1-.8-.9V6a.7.7,0,0,0-.7-.7C15.4,5,13,3.5,12,2.5A12.5,12.5,0,0,1,4.4,5.3a.7.7,0,0,0-.7.7v8.8c0,1.3,2.9,4,7.5,6.8a1.5,1.5,0,0,0,1.6,0l1.7-1.1a.8.8,0,0,1,1.2.2.7.7,0,0,1-.2,1.1h0L13.7,23a3.4,3.4,0,0,1-1.7.5,3.4,3.4,0,0,1-1.7-.5C4.8,19.6,2,16.9,2,14.8V6A2.4,2.4,0,0,1,4.3,3.6c5.1-.4,7-2.7,7-2.8A.9.9,0,0,1,12,.5a.8.8,0,0,1,.7.4c.1.1,1.8,2.3,7,2.7A2.4,2.4,0,0,1,22,6ZM8.6,6.9a.7.7,0,0,1-.7.8H6.8A.8.8,0,0,1,6,6.9a.8.8,0,0,1,.8-.7H7.9A.7.7,0,0,1,8.6,6.9Zm5,0a.7.7,0,0,1-.7.8H11.8a.8.8,0,0,1-.8-.8.8.8,0,0,1,.8-.7h1.1A.7.7,0,0,1,13.6,6.9ZM7.9,9H6.8a.9.9,0,0,0-.8.8.8.8,0,0,0,.8.7H7.9a.7.7,0,0,0,.7-.7A.8.8,0,0,0,7.9,9Z"/></svg>