<svg id="图层_1" data-name="图层 1" xmlns="http://www.w3.org/2000/svg" viewBox="0 0 24 24"><defs><style>.cls-1{fill:#616161;}</style></defs><title>chuangjmb</title><path class="cls-1" d="M21.3.8H8.9A1.6,1.6,0,0,0,7.3,2.4V3.9H5.8A1.6,1.6,0,0,0,4.2,5.5V7H2.7A1.6,1.6,0,0,0,1.1,8.6V21a1.6,1.6,0,0,0,1.6,1.6H13V21H2.7V8.6H15.1v3.1h1.6V8.6h0A1.6,1.6,0,0,0,15.1,7H5.8V5.5H18.2v6.2h1.6V5.5h0a1.6,1.6,0,0,0-1.6-1.6H8.9V2.4H21.3v9.3h1.6V2.4A1.6,1.6,0,0,0,21.3.8Z"/><path class="cls-1" d="M22,17H18.6V13.6a.9.9,0,0,0-.9-.9h-.1a.9.9,0,0,0-.9.9V17H13.3a.9.9,0,0,0-.9.9h0a.9.9,0,0,0,.9.9h3.4v3.4a.9.9,0,0,0,.9.9h.1a.9.9,0,0,0,.9-.9V18.9H22a.9.9,0,0,0,.9-.9h0A.9.9,0,0,0,22,17Z"/></svg>