<svg id="图层_1" data-name="图层 1" xmlns="http://www.w3.org/2000/svg" viewBox="0 0 24 24"><defs></defs><title>chucisygl</title><path class="cls-1" d="M20.3,16.5h-.5a.8.8,0,0,1-.6-.4l-.2-.7a.6.6,0,0,1,.1-.7l.3-.3a.4.4,0,0,0,0-.6l-.6-.6h-.6l-.3.4a.9.9,0,0,1-.7.1l-.6-.3a.5.5,0,0,1-.4-.5v-.5a.4.4,0,0,0-.4-.4h-.9a.4.4,0,0,0-.4.4v.5a.7.7,0,0,1-.4.5l-.7.3a.6.6,0,0,1-.6-.1l-.4-.4h-.5l-.6.6a.4.4,0,0,0,0,.6l.3.3a.6.6,0,0,1,.1.7l-.3.7c0,.2-.3.4-.5.4h-.5a.4.4,0,0,0-.4.4v.8a.4.4,0,0,0,.4.4h.5c.2,0,.5.2.5.4l.3.7c.1.2.1.5-.1.6l-.3.4a.4.4,0,0,0,0,.6l.6.6a.5.5,0,0,0,.5,0h0l.4-.4a.5.5,0,0,1,.6-.1l.7.3a.7.7,0,0,1,.4.5v.5a.4.4,0,0,0,.4.4h.9a.4.4,0,0,0,.4-.4v-.5a.5.5,0,0,1,.4-.5l.6-.3a.6.6,0,0,1,.7.1l.3.4a.6.6,0,0,0,.6,0h0l.6-.6a.4.4,0,0,0,0-.6l-.3-.4c-.2-.1-.2-.4-.1-.6l.2-.7a.7.7,0,0,1,.6-.4h.5a.4.4,0,0,0,.4-.4v-.8A.4.4,0,0,0,20.3,16.5Zm-5,2.8a2,2,0,0,1-2-2,2.1,2.1,0,1,1,4.1,0A2,2,0,0,1,15.3,19.3Z"/><path class="cls-1" d="M13.4,1.4A10.5,10.5,0,0,0,2.8,11.2H.1l3.8,5.7,3.9-5.7H5.1a8.3,8.3,0,0,1,16.5.7,11.1,11.1,0,0,1-.2,1.9,4.7,4.7,0,0,1,1.8,1.9,9.5,9.5,0,0,0,.7-3.8A10.5,10.5,0,0,0,13.4,1.4Z"/></svg>