<svg id="图层_1" data-name="图层 1" xmlns="http://www.w3.org/2000/svg" viewBox="0 0 24 24"><defs> </defs><title>chuku</title><path class="cls-1" d="M22.81,11a.79.79,0,0,1-1.11.07l-.27-.23v3.54a.79.79,0,1,1-1.57,0V9.49L12,2.82,4.13,9.49h0V22.21a.79.79,0,1,1-1.57,0V10.82l-.27.23a.78.78,0,0,1-1-1.19L11.48,1.19a.79.79,0,0,1,1,0L22.72,9.86h0A.79.79,0,0,1,22.81,11Zm-15,9.65H6a.27.27,0,0,0-.3.3V22.7A.26.26,0,0,0,6,23H7.76a.26.26,0,0,0,.3-.29V20.93A.27.27,0,0,0,7.76,20.63Zm3.54,0H9.53a.26.26,0,0,0-.29.3V22.7a.26.26,0,0,0,.29.29H11.3a.26.26,0,0,0,.3-.29V20.93A.27.27,0,0,0,11.3,20.63ZM7.78,17.51H6a.26.26,0,0,0-.29.3v1.76a.26.26,0,0,0,.29.3H7.78a.27.27,0,0,0,.3-.3V17.81A.27.27,0,0,0,7.78,17.51Zm0-3.13H6a.26.26,0,0,0-.29.29v1.77a.26.26,0,0,0,.29.3H7.78a.27.27,0,0,0,.3-.3V14.67A.26.26,0,0,0,7.78,14.38Zm3.52,3.11H9.53a.26.26,0,0,0-.29.3v1.77a.26.26,0,0,0,.29.29H11.3a.26.26,0,0,0,.3-.29V17.79A.27.27,0,0,0,11.3,17.49Zm3.54,3.14H13.07c-.2,0-.29.1-.29.3V22.7a.25.25,0,0,0,.29.29h1.77a.26.26,0,0,0,.29-.29V20.93A.26.26,0,0,0,14.84,20.63Zm6.56-2h0v0h0v0h-.13l-1.57-1.56a.62.62,0,0,0-.87,0,.6.6,0,0,0,0,.86h0l.51.51H16.07a.61.61,0,0,0-.61.62.61.61,0,0,0,.61.61H19.3l-.52.52a.62.62,0,0,0,.87.87l1.57-1.57h.1v0h0v0h0v0h0v0h0v0h0v0h0v0h0v0h0Z"/></svg>