<svg id="图层_1" data-name="图层 1" xmlns="http://www.w3.org/2000/svg" viewBox="0 0 24 24"><defs> </defs><title></title><path class="cls-1" d="M21.78,15.34a.79.79,0,0,0-1.09,0l-6,5.64-2.16-2.05a.8.8,0,0,0-1.08,0,.69.69,0,0,0,0,1L13.66,22l.54.51a.8.8,0,0,0,.54.21l.14,0a.86.86,0,0,0,.41-.19l.54-.51h0l5.94-5.64A.7.7,0,0,0,21.78,15.34Z"/><path class="cls-1" d="M14.38,12.66V12.6a.76.76,0,0,0-.77-.73H5.89a.76.76,0,0,0-.77.73v.06a.74.74,0,0,0,.77.72h7.72A.75.75,0,0,0,14.38,12.66Z"/><path class="cls-1" d="M11.76,10.69a.75.75,0,0,0,.76-.73V9.9a.75.75,0,0,0-.76-.72H5.89a.75.75,0,0,0-.77.72V10a.75.75,0,0,0,.77.73Z"/><path class="cls-1" d="M3.74,21.36V2.63H14.45V8.14h5.81v5a6.94,6.94,0,0,1,1.74,1V8a.76.76,0,0,0-.23-.53L15,1a.85.85,0,0,0-.57-.22H2.4a.39.39,0,0,0-.4.38V22.81a.39.39,0,0,0,.4.38h9.66a6.74,6.74,0,0,1-1-1.83Z"/><path class="cls-1" d="M12.59,14.57H5.86a.76.76,0,0,0,0,1.51h5.56A5.72,5.72,0,0,1,12.59,14.57Z"/><path class="cls-1" d="M5.12,18a.75.75,0,0,0,.74.75h4.81c0-.06,0-.11,0-.16a5.94,5.94,0,0,1,.19-1.35h-5A.75.75,0,0,0,5.12,18Z"/></svg>
