<svg id="图层_1" data-name="图层 1" xmlns="http://www.w3.org/2000/svg" viewBox="0 0 24 24"><defs></defs><title>churukjj</title><path class="cls-1" d="M8.3,14.1H6.5c-.6,0-.8.1-.8.8v1.9c0,.7.2.8.8.8H8.3c.7,0,.8-.1.8-.8V14.9C9.2,14.2,9,14.1,8.3,14.1Z"/><path class="cls-1" d="M19.8,8.7l1.8,1.2.6.3c.3.3.8.1,1-.3A.7.7,0,0,0,23,8.8L12.6,1.3l-.3-.2a.7.7,0,0,0-1,.3L.9,8.9A.8.8,0,0,0,.8,10a.7.7,0,0,0,1,.3l.7-.5V22.2a.9.9,0,0,0,.8.8.8.8,0,0,0,.8-.8V8.6L11.9,3Z"/><path class="cls-1" d="M8.3,18.6H6.5c-.6,0-.8.1-.8.9v1.8c0,.7.2.9.8.9H8.3c.7,0,.8-.2.8-.9V19.5C9.2,18.7,9,18.6,8.3,18.6Zm0-9.1H6.5c-.6,0-.8.2-.8.9v1.8c0,.8.2.9.8.9H8.3c.7,0,.8-.1.8-.9V10.4C9.2,9.7,9,9.5,8.3,9.5ZM20.4,13a1.2,1.2,0,0,0-1.6,0,1.3,1.3,0,0,0-.4.9v.9H15.9v-.9a1.8,1.8,0,0,0-.4-.9,1.2,1.2,0,0,0-1.6,0l-2.5,2.7a1.8,1.8,0,0,0-.5,1.1,1.5,1.5,0,0,0,.6,1.1L14,20.7a1.2,1.2,0,0,0,.8.4A1.1,1.1,0,0,0,15.9,20V18.9h2.5V20a1,1,0,0,0,1,1.1h.1a2,2,0,0,0,.8-.4l2.5-2.8a1.9,1.9,0,0,0,.5-1.1,1.5,1.5,0,0,0-.4-1.1Zm1.5,4.3-2.2,2.4V18.5a.6.6,0,0,0-.5-.6H15.3a.6.6,0,0,0-.6.6v1.2l-2.2-2.4-.2-.2c0-.1,0-.1.1-.2h.1l2.3-2.5v1.1a.9.9,0,0,0,.5.7h3.8a1.1,1.1,0,0,0,.6-.7V14.3l2.2,2.5H22c.1,0,.1.1.1.2S22,17.2,21.9,17.3Z"/></svg>