<?xml version="1.0" standalone="no"?><!DOCTYPE svg PUBLIC "-//W3C//DTD SVG 1.1//EN" "http://www.w3.org/Graphics/SVG/1.1/DTD/svg11.dtd"><svg t="1555911053050" class="icon" style="" viewBox="0 0 1024 1024" version="1.1" xmlns="http://www.w3.org/2000/svg" p-id="6264" xmlns:xlink="http://www.w3.org/1999/xlink" width="200" height="200"><defs><style type="text/css"></style></defs><path d="M974.208 395.392l-76.736 44.416c4.096 23.744 6.976 47.488 6.976 72.32 0 24.512-2.88 48.384-6.976 71.936l76.736 44.48c30.848 18.112 41.728 58.624 23.744 90.112l-65.344 114.368c-18.048 31.36-58.176 42.24-89.536 24.256l-76.928-44.992a385.856 385.856 0 0 1-123.2 72.512v56.256c0 36.608-29.632 65.728-65.344 65.728H446.592a65.472 65.472 0 0 1-65.344-65.728v-56.256a391.488 391.488 0 0 1-123.2-72.512l-77.056 44.992a65.792 65.792 0 0 1-89.6-24.256L26.048 718.656A66.56 66.56 0 0 1 49.92 628.544l76.8-44.48a382.4 382.4 0 0 1-7.168-71.936c0-24.832 2.688-48.576 7.168-72.32l-76.8-44.416a66.432 66.432 0 0 1-23.936-90.048l65.344-114.24a65.472 65.472 0 0 1 89.6-24.384l77.056 45.12a404.544 404.544 0 0 1 123.2-72.896v-55.872A65.92 65.92 0 0 1 446.528 17.216h131.072c35.84 0 65.344 29.632 65.344 65.856v55.872a400 400 0 0 1 123.2 72.896l76.928-45.12a65.408 65.408 0 0 1 89.536 24.384l65.344 114.24a66.496 66.496 0 0 1-23.744 90.048z m-49.088-85.76l-32.832-56.96a32.32 32.32 0 0 0-44.8-12.032l-90.752 52.608a327.04 327.04 0 0 0-179.392-104.704V116.096a33.088 33.088 0 0 0-32.64-33.152H479.04c-17.92 0-32.896 14.72-32.896 33.152v72.512a326.336 326.336 0 0 0-179.392 104.704L176.256 240.64a32 32 0 0 0-44.736 12.096l-32.896 56.96a32.896 32.896 0 0 0 12.032 45.12l91.072 53.056a330.624 330.624 0 0 0-17.344 104.256c0 36.544 6.528 71.04 17.344 104l-91.072 52.992a33.28 33.28 0 0 0-12.032 45.12l32.896 57.28c8.832 16.128 28.48 21.12 44.736 12.032l90.496-52.608a330.496 330.496 0 0 0 179.456 104.64v72.768c0 17.984 14.656 33.024 32.896 33.024h65.664c17.6 0 32.64-14.848 32.64-33.024v-72.768a329.28 329.28 0 0 0 179.392-104.64l90.752 52.608c15.36 9.28 35.52 4.096 44.8-12.032l32.832-57.28a33.536 33.536 0 0 0-12.096-45.12l-91.52-52.992a319.552 319.552 0 0 0 17.536-104c0-36.8-6.464-71.488-17.536-104.256l91.52-53.056a33.792 33.792 0 0 0 12.032-45.184z m-413.184 367.552a164.48 164.48 0 0 1-164.032-165.056 164.608 164.608 0 0 1 164.032-164.864c90.24 0 163.52 74.176 163.52 164.864 0 91.2-73.216 165.056-163.52 165.056z m0-263.936A98.56 98.56 0 0 0 413.44 512.192c0 54.4 44.032 98.752 98.496 98.752 54.4 0 98.24-44.352 98.24-98.752a98.496 98.496 0 0 0-98.24-98.944z" p-id="6265"></path></svg>
