<?xml version="1.0" standalone="no"?><!DOCTYPE svg PUBLIC "-//W3C//DTD SVG 1.1//EN" "http://www.w3.org/Graphics/SVG/1.1/DTD/svg11.dtd"><svg t="1552616283940" class="icon" style="" viewBox="0 0 1024 1024" version="1.1" xmlns="http://www.w3.org/2000/svg" p-id="1154" xmlns:xlink="http://www.w3.org/1999/xlink" width="200" height="200"><defs><style type="text/css"></style></defs><path d="M520.192 595.968c-169.301333 0-307.882667-133.802667-307.882667-298.325333s137.898667-297.642667 307.882667-297.642667 307.882667 133.802667 307.882667 298.325333-138.581333 297.642667-307.882667 297.642667z m0-547.498667c-142.677333 0-259.413333 111.957333-259.413333 249.856 0 137.898667 116.053333 249.856 259.413333 249.856s259.413333-111.957333 259.413333-249.856c0-137.898667-116.736-249.856-259.413333-249.856z" p-id="1155"></path><path d="M520.192 547.498667c-255.317333 0-473.770667 189.098667-519.509333 448.512-2.730667 12.970667 6.144 25.258667 19.114666 27.989333h4.096c11.605333 0 21.845333-8.192 24.576-19.797333 42.325333-235.52 240.981333-407.552 471.722667-407.552v-49.152z" p-id="1156"></path><path d="M1018.538667 747.52l-0.682667-4.096c-1.365333-6.144-7.509333-9.557333-13.653333-6.826667l-4.096 1.365334c-5.461333 2.048-12.288 3.413333-18.432 3.413333-17.749333 0-34.133333-9.557333-42.325334-24.576-12.288-21.162667-6.826667-47.786667 12.288-62.805333l3.413334-2.730667c4.778667-4.096 4.778667-10.922667 0.682666-15.018667l-3.413333-2.730666c-25.258667-23.893333-56.661333-41.642667-90.112-51.882667l-4.096-1.365333c-6.144-2.048-12.288 2.048-12.970667 8.192l-0.682666 4.096c-3.413333 23.893333-24.576 41.642667-48.469334 41.642666-23.893333 0-45.056-17.749333-48.469333-41.642666l-0.682667-4.096c-0.682667-6.144-6.826667-10.24-12.970666-8.192l-4.096 1.365333c-34.133333 10.24-64.170667 27.989333-90.112 51.882667l-3.413334 2.730666c-4.778667 4.096-4.096 11.605333 0.682667 15.018667l3.413333 2.730667c19.114667 15.018667 23.893333 41.642667 12.288 62.805333-8.874667 15.018667-25.258667 24.576-42.325333 24.576-6.144 0-12.288-1.365333-18.432-3.413333l-4.096-1.365334c-5.461333-2.048-12.288 1.365333-13.653333 6.826667l-0.682667 4.096c-4.096 17.066667-6.144 34.816-6.144 51.882667 0 17.749333 2.048 34.816 6.144 51.882666l0.682667 4.096c1.365333 6.144 7.509333 9.557333 13.653333 6.826667l4.096-1.365333c5.461333-2.048 12.288-3.413333 18.432-3.413334 17.749333 0 33.450667 9.557333 42.325333 24.576 12.288 21.162667 6.826667 47.786667-12.288 62.805334l-3.413333 2.730666c-4.778667 4.096-4.778667 10.922667-0.682667 15.018667l3.413334 2.730667c25.258667 23.893333 56.661333 41.642667 90.112 51.882666l4.096 1.365334c6.144 2.048 12.288-2.048 12.970666-8.192l0.682667-4.096c3.413333-23.893333 24.576-41.642667 48.469333-41.642667 23.893333 0 45.056 17.749333 48.469334 41.642667l0.682666 4.096c0.682667 6.144 6.826667 10.24 12.970667 8.192l4.096-1.365334c34.133333-10.24 64.170667-27.989333 90.112-51.882666l3.413333-2.730667c4.778667-4.096 4.096-11.605333-0.682666-15.018667l-3.413334-2.730666c-19.114667-15.018667-23.893333-41.642667-12.288-62.805334 8.874667-15.018667 25.258667-24.576 42.325334-24.576 6.144 0 12.288 1.365333 18.432 3.413334l4.096 1.365333c5.461333 2.048 12.288-1.365333 13.653333-6.826667l0.682667-4.096c4.096-17.066667 6.144-34.816 6.144-51.882666s-2.048-34.816-6.144-51.882667z m-38.912 51.882667v4.096c0 4.778667-4.096 8.874667-8.874667 9.557333-29.354667 3.413333-55.296 20.48-70.314667 46.421333-15.018667 25.941333-16.384 57.344-4.778666 83.968 2.048 4.778667 0 10.24-4.096 12.288-2.048 1.365333-4.778667 2.730667-6.826667 4.096-4.778667 2.730667-10.24 1.365333-12.970667-2.730666-17.749333-23.210667-45.738667-37.546667-75.093333-37.546667s-57.344 14.336-75.093333 37.546667c-2.730667 4.096-8.192 5.461333-12.288 2.730666-2.730667-1.365333-5.461333-2.730667-7.509334-4.778666-4.096-2.730667-5.461333-7.509333-4.096-12.288 11.605333-27.306667 10.24-58.709333-4.778666-83.968-15.018667-25.941333-40.96-43.008-70.314667-46.421334-4.778667-0.682667-8.874667-4.778667-8.874667-9.557333v-4.096-4.096c0-4.778667 4.096-8.874667 8.874667-9.557333 29.354667-3.413333 55.296-20.48 70.314667-46.421334 15.018667-25.941333 16.384-57.344 4.778666-83.968-2.048-4.778667 0-10.24 4.096-12.288 2.048-1.365333 4.778667-2.730667 6.826667-4.096 4.778667-2.730667 10.24-1.365333 12.970667 2.730667 17.749333 23.210667 45.738667 37.546667 75.093333 37.546667s57.344-14.336 75.093333-37.546667c2.730667-4.096 8.192-5.461333 12.288-2.730667 2.730667 1.365333 5.461333 2.730667 7.509334 4.778667 4.096 2.730667 5.461333 7.509333 4.096 12.288-11.605333 27.306667-10.24 58.709333 4.778666 83.968 15.018667 25.941333 40.96 43.008 70.314667 46.421333 4.778667 0.682667 8.874667 4.778667 8.874667 9.557334v4.096z" p-id="1157"></path><path d="M811.008 895.658667c-63.488 8.192-117.418667-45.738667-109.226667-109.226667 5.461333-43.008 40.277333-78.506667 83.968-83.968 63.488-8.192 117.418667 45.738667 109.226667 109.226667-5.461333 43.690667-40.277333 78.506667-83.968 83.968z m-2.730667-137.898667c-30.72-6.826667-58.026667 20.48-51.2 51.2 3.413333 15.701333 16.384 27.989333 32.085334 32.085333 30.72 6.826667 58.026667-20.48 51.2-51.2-3.413333-15.701333-16.384-27.989333-32.085334-32.085333z" p-id="1158"></path></svg>