<svg id="图层_1" data-name="图层 1" xmlns="http://www.w3.org/2000/svg" viewBox="0 0 24 24"><defs> </defs><title>cotjinglizb</title><path class="cls-1" d="M12.9,9.33c.95,0,1.51-.37,1.7-1.1L13.75,8a.78.78,0,0,1-.85.7,1,1,0,0,1-1-1.07c0-.67.35-1,1-1a.83.83,0,0,1,.82.53L14.57,7A1.67,1.67,0,0,0,12.9,6c-1.2.06-1.83.62-1.9,1.66S11.69,9.28,12.9,9.33Z"/><path class="cls-1" d="M16.88,9.33c1.23-.05,1.88-.61,1.94-1.66S18.09,6.05,16.88,6s-1.9.6-2,1.68S15.65,9.26,16.88,9.33Zm0-2.72a1,1,0,0,1,1,1.06c0,.69-.34,1-1,1.05a1,1,0,0,1-1-1.05A1,1,0,0,1,16.86,6.61Z"/><polygon class="cls-1" points="20.43 9.29 21.34 9.29 21.34 6.63 22.6 6.63 22.6 6.05 19.16 6.05 19.16 6.63 20.43 6.63 20.43 9.29"/><path class="cls-1" d="M23.83,16.38,18,14.22V16H14.59a6.42,6.42,0,0,0-6-6V5.86h1.73L8.18,0,6,5.86H7.75V10a6.41,6.41,0,0,0-6,6H.17v.85h1.6a6.42,6.42,0,0,0,6,6V24H8.6V22.79a6.43,6.43,0,0,0,6-6H18v1.73ZM7.75,19.49A3.15,3.15,0,0,1,5.06,16.8H7.75Zm0-3.54H5.06a3.16,3.16,0,0,1,2.69-2.69Zm.85,3.54V16.8h2.69A3.14,3.14,0,0,1,8.6,19.49ZM8.6,16V13.26A3.15,3.15,0,0,1,11.29,16Z"/></svg>