<svg id="图层_1" data-name="图层 1" xmlns="http://www.w3.org/2000/svg" viewBox="0 0 24 24"><defs></defs><title>cotsjjk</title><path class="cls-1" d="M5.6,7.8c0,1.1.5,1.6,1.3,1.6a1.1,1.1,0,0,0,1.2-1l1.1.2a2.1,2.1,0,0,1-2.3,1.5A2.1,2.1,0,0,1,4.6,7.8,2.3,2.3,0,0,1,7,5.5,1.9,1.9,0,0,1,9.1,6.8l-1,.3a1.2,1.2,0,0,0-1.2-.9C6.1,6.2,5.7,6.8,5.6,7.8Zm4,0c.1-1.5,1-2.3,2.8-2.3s2.6.8,2.7,2.3-1,2.3-2.8,2.3S9.7,9.3,9.6,7.8Zm1.1,0a1.4,1.4,0,0,0,1.6,1.6c1.1,0,1.7-.5,1.7-1.6a1.5,1.5,0,0,0-1.6-1.6A1.5,1.5,0,0,0,10.7,7.8ZM18.2,10V6.3h1.6V5.6H15.5v.7h1.7V10Zm2.7-7.5H3.1A1.8,1.8,0,0,0,1.3,4.2V16.3A1.8,1.8,0,0,0,3.1,18H13.8a.7.7,0,0,0,.8-.7.7.7,0,0,0-.8-.8H3.1c-.2,0-.3-.1-.3-.2V4.2c0-.1.1-.2.3-.2H20.9c.2,0,.3.1.3.2V16.3c0,.1-.1.2-.3.2H17.6a.8.8,0,0,0-.8.8.8.8,0,0,0,.8.7h3.3a1.8,1.8,0,0,0,1.8-1.7V4.2A1.8,1.8,0,0,0,20.9,2.5ZM18.5,20H5.1a.9.9,0,0,0-.8.8.8.8,0,0,0,.8.7H18.5a.7.7,0,0,0,.8-.7A.8.8,0,0,0,18.5,20Zm-3.3-2.2h.6c.1,0,.2,0,.2-.1h.3l.2-.3v-.2a1.4,1.4,0,0,0-.2-.6,1.1,1.1,0,0,0-1.1,0c0,.1,0,.1-.1.1h0V17a.1.1,0,0,0-.1.1v.4C15.1,17.6,15.2,17.7,15.2,17.8ZM4.4,15.1c.1.2.6.2.9,0l2-1.3,2.2,2,.5.2h.2l.5-.2,2-3.5L15.9,15l.6.2H17l2.5-1.7c.3-.1.3-.4,0-.6a1.7,1.7,0,0,0-1,0l-2,1.3-3.4-2.9-.6-.2a.5.5,0,0,0-.5.3L9.9,14.7,8,12.8H6.9L4.4,14.4A.5.5,0,0,0,4.4,15.1Z"/></svg>