<svg id="图层_1" data-name="图层 1" xmlns="http://www.w3.org/2000/svg" viewBox="0 0 24 24"><defs> </defs><title>cotyichangbz</title><path class="cls-1" d="M23.2,3.6a2.8,2.8,0,0,0-5.45-.88,9.72,9.72,0,0,0-11.49,0,2.79,2.79,0,1,0-3,3.6A9.75,9.75,0,0,0,9.24,20a2.85,2.85,0,0,0,0,.41,2.8,2.8,0,0,0,5.6,0,2.58,2.58,0,0,0,0-.39,9.75,9.75,0,0,0,6-13.65A2.79,2.79,0,0,0,23.2,3.6Zm-17,1a8.33,8.33,0,0,1,11.58-.08c0,.1.08.2.13.3L14.72,7.42a4.15,4.15,0,0,0-5.61.15L6,5.05A4,4,0,0,0,6.2,4.64ZM12,7.8a2.8,2.8,0,1,1-2.8,2.8A2.81,2.81,0,0,1,12,7.8ZM2.2,3.6A1.4,1.4,0,0,1,5,3.6a1.14,1.14,0,0,1-.07.32,1.36,1.36,0,0,1-.8,1A1.32,1.32,0,0,1,3.6,5,1.4,1.4,0,0,1,2.2,3.6ZM9.8,18.69a8.38,8.38,0,0,1-6.14-8.06A8.29,8.29,0,0,1,5,6.07L5,6,5.08,6,5,6.07,8.28,8.7a4.06,4.06,0,0,0-.48,1.9,4.19,4.19,0,0,0,3.5,4.13l-.21,3A2.74,2.74,0,0,0,9.8,18.69ZM12,21.8a1.4,1.4,0,0,1-1.4-1.4s0-.07,0-.11a1.38,1.38,0,0,1,2.76,0s0,.06,0,.1A1.4,1.4,0,0,1,12,21.8Zm2.21-3.1a2.77,2.77,0,0,0-1.71-1.05l.2-2.92A4.16,4.16,0,0,0,15.62,8.5l3.21-2.58.07-.06L19,6a8.35,8.35,0,0,1-4.8,12.68ZM20.4,5a1.39,1.39,0,0,1-.46-.09,1.38,1.38,0,0,1-.89-1.07A.93.93,0,0,1,19,3.6,1.4,1.4,0,1,1,20.4,5Z"/></svg>