<svg id="图层_1" data-name="图层 1" xmlns="http://www.w3.org/2000/svg" viewBox="0 0 24 24"><defs></defs><title>cowjjk</title><path class="cls-1" d="M13.8,15.4c.5,0,.8-.2.8-.4V11.4c0-.2-.3-.4-.8-.4s-.7.2-.7.4V15C13.1,15.2,13.4,15.4,13.8,15.4Z"/><path class="cls-1" d="M9.4,12.4v2.4c0,.3.3.6.8.6a.7.7,0,0,0,.7-.6V12.4c0-.4-.3-.6-.7-.6S9.4,12,9.4,12.4Z"/><polygon class="cls-1" points="18.8 5.5 17.9 9 17 5.5 16.2 5.5 15.2 9 14.4 5.5 13.5 5.5 14.8 9.9 15.5 9.9 16.6 6.7 17.6 9.9 18.3 9.9 19.6 5.5 18.8 5.5"/><path class="cls-1" d="M13.2,7.7a2.2,2.2,0,0,0-2.3-2.3A2.1,2.1,0,0,0,8.7,7.7,2.1,2.1,0,0,0,10.9,10C12.4,10,13.1,9.2,13.2,7.7Zm-3.6,0c0-1,.5-1.6,1.3-1.6s1.4.6,1.4,1.6-.5,1.6-1.4,1.6S9.6,8.8,9.6,7.7Z"/><path class="cls-1" d="M18.5,20H5.1a.9.9,0,0,0-.8.8.8.8,0,0,0,.8.7H18.5a.7.7,0,0,0,.8-.7A.8.8,0,0,0,18.5,20Z"/><path class="cls-1" d="M8.3,8.5l-.8-.2c-.2.7-.5,1-1,1S5.4,8.8,5.4,7.7s.4-1.5,1.1-1.6a1,1,0,0,1,.9.9l.9-.3A1.7,1.7,0,0,0,6.5,5.4c-1.3.1-1.9.9-2,2.3s.7,2.3,2,2.3A1.7,1.7,0,0,0,8.3,8.5Z"/><path class="cls-1" d="M5.7,11.6v3.2c0,.4.3.6.8.6s.7-.2.7-.6V11.6a.7.7,0,0,0-.7-.6C6,11,5.7,11.3,5.7,11.6Z"/><path class="cls-1" d="M15.2,16.7c0,.1,0,.1-.1.1h0V17a.1.1,0,0,0-.1.1v.4c0,.1.1.2.1.3h.6c.1,0,.2,0,.2-.1h.3l.2-.3v-.2a1.4,1.4,0,0,0-.2-.6A1.1,1.1,0,0,0,15.2,16.7Z"/><path class="cls-1" d="M20.9,2.5H3.1A1.8,1.8,0,0,0,1.3,4.2V16.3A1.8,1.8,0,0,0,3.1,18H13.8a.7.7,0,0,0,.8-.7.7.7,0,0,0-.8-.8H3.1c-.2,0-.3-.1-.3-.2V4.2c0-.1.1-.2.3-.2H20.9c.2,0,.3.1.3.2V16.3c0,.1-.1.2-.3.2H17.6a.8.8,0,0,0-.8.8.8.8,0,0,0,.8.7h3.3a1.8,1.8,0,0,0,1.8-1.7V4.2A1.8,1.8,0,0,0,20.9,2.5Z"/><path class="cls-1" d="M17.5,11.8c-.4,0-.7.2-.7.6v2.4a.7.7,0,0,0,.7.6c.5,0,.8-.3.8-.6V12.4C18.3,12,18,11.8,17.5,11.8Z"/></svg>