<svg id="图层_1" data-name="图层 1" xmlns="http://www.w3.org/2000/svg" viewBox="0 0 24 24"><defs> </defs><path class="cls-1" d="M12.9,22.57a1.05,1.05,0,0,1-1.11,1H2a1.92,1.92,0,0,1-1.88-2V2.37A1.92,1.92,0,0,1,2,.41H16.24a1.92,1.92,0,0,1,1.88,2V9.22a1,1,0,0,1-1,1,1,1,0,0,1-.94-1V2.37H2.2V21.54h9.67A1,1,0,0,1,12.9,22.57Zm.77-15H4.6c-.94,0-1-.42-1-.6V4.17c0-.26.17-.6,1-.6h9.07c.94,0,1,.43,1,.6V6.91C14.7,7.17,14.61,7.59,13.67,7.59Zm0-3H4.51v2h9.16ZM6.4,10.76A1.2,1.2,0,1,0,5.2,12a1.2,1.2,0,0,0,1.2-1.2Zm2.73-1.2a1.2,1.2,0,1,0,1.2,1.2A1.19,1.19,0,0,0,9.13,9.56Zm2.66,1.2a1.2,1.2,0,1,0,2.39,0h0a1.2,1.2,0,1,0-2.39,0ZM6.4,14.44a1.2,1.2,0,1,0-1.2,1.2,1.2,1.2,0,0,0,1.2-1.2Zm2.73-1.2a1.2,1.2,0,1,0,1.2,1.2A1.19,1.19,0,0,0,9.13,13.24ZM4,18.46a1.2,1.2,0,0,0,2.4,0h0a1.2,1.2,0,0,0-2.4,0Zm5.13-1.2a1.2,1.2,0,1,0,1.2,1.2A1.19,1.19,0,0,0,9.13,17.26ZM17.51,16l0-1.6L14.47,17l3.09,2.68V17.91s4.29-1.39,3.42,2.94C21,20.85,23.75,15.59,17.51,16Zm6.34,1.65A5.82,5.82,0,1,1,18,11.79,5.77,5.77,0,0,1,23.85,17.6Zm-1,0A4.79,4.79,0,1,0,18,22.4,4.78,4.78,0,0,0,22.82,17.6Z"/></svg>
