<svg id="图层_1" data-name="图层 1" xmlns="http://www.w3.org/2000/svg" viewBox="0 0 24 24"><defs> </defs><title></title><path class="cls-1" d="M18.13,13.17a5,5,0,1,1-5,5A5,5,0,0,1,18.13,13.17Zm1.11-1.58V3.06H3.12V20.88h9.64c0,.93.76,1.69,1.05,2.22H2.42A1.52,1.52,0,0,1,.9,21.52v-19A1.52,1.52,0,0,1,2.42.9H19.89a1.57,1.57,0,0,1,1.52,1.58V13.23A6.8,6.8,0,0,0,19.24,11.59ZM6.45,7.91A.88.88,0,1,1,7.33,7,.9.9,0,0,1,6.45,7.91ZM9.37,6.16h5.84a.88.88,0,1,1,0,1.75H9.37a.88.88,0,1,1,0-1.75ZM6.45,11.42a.88.88,0,1,1,.88-.88A.9.9,0,0,1,6.45,11.42Zm0,3.5A.88.88,0,1,1,7.33,14,.9.9,0,0,1,6.45,14.92ZM9.37,9.66h5.84a.88.88,0,0,1,0,1.76H9.37a.88.88,0,0,1,0-1.76Zm0,3.51h1.75a.88.88,0,1,1,0,1.75H9.37a.88.88,0,1,1,0-1.75ZM19,21.29c0,.06.06.06.12,0h.06a2.78,2.78,0,0,0,1.69-2.75,2.37,2.37,0,0,0-1.46-2.22A5.22,5.22,0,0,0,17.78,16c-.17,0-.17-.06-.17-.17v-.88c-.7.7-1.4,1.34-2,2-.05.05,0,.11.06.17.64.64,1.23,1.29,1.87,1.93l.12.12V18.08c0-.12.06-.12.12-.12a2.18,2.18,0,0,1,.87.12,1.57,1.57,0,0,1,1.23,1.11A1.83,1.83,0,0,1,19,21.29Z"/></svg>
