<svg id="图层_1" data-name="图层 1" xmlns="http://www.w3.org/2000/svg" viewBox="0 0 24 24"><defs> </defs><title>daidingpd</title><path class="cls-1" d="M6.87,20.22a.52.52,0,0,1-.52.53H4.23A3.35,3.35,0,0,1,.88,17.41V4.34A3.35,3.35,0,0,1,4.23,1a.53.53,0,0,1,0,1.06A2.29,2.29,0,0,0,1.94,4.34V17.41a2.29,2.29,0,0,0,2.29,2.28H6.35A.52.52,0,0,1,6.87,20.22ZM17.35,2.06a2.29,2.29,0,0,1,2.29,2.28V6.28a.53.53,0,1,0,1.05,0V4.34A3.35,3.35,0,0,0,17.35,1a.53.53,0,1,0,0,1.06Zm-11,0H8.07A.53.53,0,0,0,8.07,1H6.35a.53.53,0,0,0,0,1.06Zm3.67,0h1.73a.53.53,0,1,0,0-1.06H10a.53.53,0,0,0,0,1.06Zm3.68,0h1.73a.53.53,0,1,0,0-1.06H13.7a.53.53,0,0,0,0,1.06Zm9.42,13.21a7.76,7.76,0,1,1-7.75-7.72A7.74,7.74,0,0,1,23.12,15.27Zm-2,.61a.35.35,0,0,0-.35-.35H15.11V11.85a.36.36,0,0,0-.71,0v3.78a.36.36,0,0,0,.1.57.33.33,0,0,0,.26.11.32.32,0,0,0,.21-.08h5.76A.35.35,0,0,0,21.08,15.88ZM5.78,6.34H10a.53.53,0,1,0,0-1H5.78a.53.53,0,1,0,0,1ZM8.05,8a.53.53,0,0,0-.53-.53H5.78a.53.53,0,1,0,0,1.06H7.52A.53.53,0,0,0,8.05,8Z"/><path class="cls-1" d="M15.37,23.15a7.88,7.88,0,1,1,7.9-7.88A7.9,7.9,0,0,1,15.37,23.15Zm0-15.45A7.58,7.58,0,1,0,23,15.27,7.59,7.59,0,0,0,15.37,7.7Zm-9,13.2H4.23a3.5,3.5,0,0,1-3.5-3.49V4.34A3.5,3.5,0,0,1,4.23.85a.68.68,0,0,1,0,1.36A2.14,2.14,0,0,0,2.09,4.34V17.41a2.13,2.13,0,0,0,2.14,2.13H6.35a.68.68,0,1,1,0,1.36ZM4.23,1.15A3.2,3.2,0,0,0,1,4.34V17.41a3.2,3.2,0,0,0,3.2,3.19H6.35a.38.38,0,0,0,0-.76H4.23a2.43,2.43,0,0,1-2.44-2.43V4.34A2.43,2.43,0,0,1,4.23,1.91a.38.38,0,0,0,0-.76ZM14.76,16.46a.57.57,0,0,1-.51-.89V11.85a.51.51,0,0,1,1,0v3.53h5.47a.5.5,0,1,1,0,1H15A.46.46,0,0,1,14.76,16.46Zm0-4.81a.2.2,0,0,0-.21.2v3.84l0,.05a.2.2,0,0,0-.06.14.19.19,0,0,0,.11.18l0,0a.2.2,0,0,0,.27,0l0,0h5.81a.2.2,0,0,0,0-.4H15V11.85A.2.2,0,0,0,14.76,11.65Zm-7.24-3H5.78a.68.68,0,1,1,0-1.36H7.52a.68.68,0,0,1,0,1.36ZM5.78,7.59a.38.38,0,0,0,0,.76H7.52a.38.38,0,1,0,0-.76ZM20.17,7a.67.67,0,0,1-.68-.68V4.34a2.14,2.14,0,0,0-2.14-2.13.68.68,0,1,1,0-1.36,3.5,3.5,0,0,1,3.49,3.49V6.28A.67.67,0,0,1,20.17,7ZM17.35,1.15a.38.38,0,1,0,0,.76,2.44,2.44,0,0,1,2.44,2.43V6.28a.38.38,0,1,0,.75,0V4.34A3.19,3.19,0,0,0,17.35,1.15ZM10,6.49H5.78a.68.68,0,1,1,0-1.36H10a.68.68,0,0,1,0,1.36Zm-4.24-1a.38.38,0,1,0,0,.75H10a.38.38,0,1,0,0-.75Zm9.65-3.23H13.7a.68.68,0,1,1,0-1.36h1.73a.68.68,0,0,1,0,1.36ZM13.7,1.15a.38.38,0,0,0,0,.76h1.73a.38.38,0,1,0,0-.76ZM11.75,2.21H10A.68.68,0,1,1,10,.85h1.73a.68.68,0,0,1,0,1.36ZM10,1.15a.38.38,0,0,0,0,.76h1.73a.38.38,0,1,0,0-.76ZM8.07,2.21H6.35a.68.68,0,0,1,0-1.36H8.07a.68.68,0,0,1,0,1.36ZM6.35,1.15a.38.38,0,0,0,0,.76H8.07a.38.38,0,1,0,0-.76Z"/></svg>