<svg id="图层_1" data-name="图层 1" xmlns="http://www.w3.org/2000/svg" viewBox="0 0 24 24"><defs></defs><title></title><path class="cls-1" d="M16.29,1,22,6.87H16.29ZM2,1V23H22V8.33H20.57v13.2H3.43V2.47H14.86V1ZM16.09,15c-.6.82-2.52,1.42-4.8,1.42S7.08,15.85,6.48,15c-.13-.17-.19-.08-.19,0v1.2c0,1.16,2.23,2.36,5,2.36s5-1.2,5-2.36V15c0-.09-.07-.18-.2,0Zm0-3.67c-.59.78-2.53,1.34-4.81,1.34s-4.22-.56-4.82-1.34c-.12-.16-.18-.08-.18,0v1.52c0,1.13,2.23,2,5,2s5-.92,5-2V11.36c0-.08-.07-.16-.19,0ZM11.29,6.87c-2.77,0-5,.77-5,1.73v.83c0,1,2.23,1.84,5,1.84s5-.83,5-1.84V8.6c0-1-2.24-1.73-5-1.73Z"/></svg>
