<?xml version="1.0" standalone="no"?><!DOCTYPE svg PUBLIC "-//W3C//DTD SVG 1.1//EN" "http://www.w3.org/Graphics/SVG/1.1/DTD/svg11.dtd"><svg t="1555569981928" class="icon" style="" viewBox="0 0 1024 1024" version="1.1" xmlns="http://www.w3.org/2000/svg" p-id="17058" xmlns:xlink="http://www.w3.org/1999/xlink" width="200" height="200"><defs><style type="text/css"></style></defs><path d="M741.996 86.252l89.041 89.041L545.29 422.548l-207.472-193.73-4.327-5.002-0.537 0.46-0.492-0.46-4.342 4.644L66.56 454.784v85.366l0.62 0.717L331.284 312.33l214.068 199.885 15.119-16.195 317.005-274.293 79.964 79.964V86.25zM66.56 937.748h103.506V571.561L66.56 668.196zM566.528 937.748h103.506V489.923l-103.506 89.825z" p-id="17059"></path><path d="M316.544 489.923v447.825h103.511V483.773l-50.094-56.217zM816.512 403.876v533.872h103.506v-547.61l-50.089-40.068z" p-id="17060"></path></svg>