<?xml version="1.0" standalone="no"?><!DOCTYPE svg PUBLIC "-//W3C//DTD SVG 1.1//EN" "http://www.w3.org/Graphics/SVG/1.1/DTD/svg11.dtd"><svg t="1545976917072" class="icon" style="" viewBox="0 0 1024 1024" version="1.1" xmlns="http://www.w3.org/2000/svg" p-id="14942" id="mx_n_1545976917072" xmlns:xlink="http://www.w3.org/1999/xlink" width="128" height="128"><defs><style type="text/css">*{fill:#949494;}</style></defs><path d="M692 52.00000001L932 292.00000001 692 292.00000001 692 52.00000001Z" fill="#bfbfbf" p-id="14943"></path><path d="M92 52.00000001L92 952.00000001 932 952.00000001 932 352.00000001 872 352.00000001 872 892.00000001 152 892.00000001 152 112.00000001 632 112.00000001 632 52.00000001 92 52.00000001Z" fill="#bfbfbf" p-id="14944"></path><path d="M683.80625 626.00037813C658.49375 659.41109219 577.75625 683.84899563 482 683.84899563 386.3 683.84899563 305.50625 659.42640438 280.2125 626.00037813 274.85 618.92624876 272 622.72361782 272 626.21474594L272 675.25898219C272 722.75671001 366.0125 772.00000001 482 772.00000001 597.9875 772.00000001 692 722.75671001 692 675.25898219L692 626.21474594C692 622.70830563 689.1125 618.91093751 683.80625 626.00037813L683.80625 626.00037813ZM684.10625 475.71656407C659.24375 507.53164469 578.15 530.84072594 482 530.84072594 385.85 530.84072594 304.75625 507.53164469 279.89375 475.71656407 274.7375 469.15573376 272 472.71638501 272 475.68359407L272 537.83015219C272 584.33292157 366.0125 622.00000001 482 622.00000001 597.9875 622.00000001 692 584.33292157 692 537.83015219L692 475.68359407C692 472.69990094 689.24375 469.13924876 684.10625 475.71656407L684.10625 475.71656407ZM482 292.01683376C366.0125 292.01683376 272 323.74787219 272 362.90245938L272 396.80501219C272 438.33311501 366.0125 472.00000001 482 472.00000001 597.9875 472.00000001 692 438.33311501 692 396.80501219L692 362.91929313C692 323.73103938 597.9875 292.00000001 482 292.00000001L482 292.01683376Z" fill="#bfbfbf" p-id="14945"></path></svg>
