<svg id="图层_1" data-name="图层 1" xmlns="http://www.w3.org/2000/svg" viewBox="0 0 24 24"><defs></defs><title>diangdgl</title><path class="cls-1" d="M11.6,13.3a.8.8,0,0,0-.7-.7H5.6a.8.8,0,0,0-.7.7.7.7,0,0,0,.7.7h5.3A.7.7,0,0,0,11.6,13.3Z"/><path class="cls-1" d="M11.9,20.9H4.2l-.6-.2a.7.7,0,0,1-.2-.6V5.6A.7.7,0,0,1,3.6,5a.9.9,0,0,1,.6-.3H5.9A2.2,2.2,0,0,0,8,6.6h6.6a2.1,2.1,0,0,0,2.1-1.9h1.7a.9.9,0,0,1,.9.9v6.6a.7.7,0,0,0,.6.7.7.7,0,0,0,.7-.7V5.6a2.2,2.2,0,0,0-2.2-2.2H16.8a2.3,2.3,0,0,0-2.2-2.1H8A2.3,2.3,0,0,0,5.8,3.4H4.2A2.2,2.2,0,0,0,2,5.6V20.1a2,2,0,0,0,.6,1.5,2.1,2.1,0,0,0,1.6.7h7.7a.7.7,0,0,0,0-1.4ZM7.2,3.6A.9.9,0,0,1,8,2.7h6.6l.6.2a1.4,1.4,0,0,1,.2.7v.7a.9.9,0,0,1-.8.9H8L7.4,5a1.4,1.4,0,0,1-.2-.7Z"/><path class="cls-1" d="M21.7,17.3l-.7-.5a1.1,1.1,0,0,0-.1-.5l.4-.6a.5.5,0,0,0,0-.7,4.1,4.1,0,0,0-1-1.3.5.5,0,0,0-.6-.1l-.8.2-.4-.2-.3-.7a.8.8,0,0,0-.5-.5H16a.8.8,0,0,0-.5.5l-.3.7-.4.2-.8-.2c-.2-.1-.5-.1-.6.1A4.5,4.5,0,0,0,12.3,15a.9.9,0,0,0,0,.7l.4.6a.7.7,0,0,1-.1.5l-.6.5a.6.6,0,0,0-.3.6,5,5,0,0,0,.3,1.6.9.9,0,0,0,.6.4h.8l.3.4v.7a.9.9,0,0,0,.3.7,5.2,5.2,0,0,0,1.5.7h.2l.4-.2.6-.5h.5l.6.5c.1.2.4.2.6.2l1.5-.7a.9.9,0,0,0,.3-.7v-.7l.3-.4h.8a1,1,0,0,0,.5-.4,5.3,5.3,0,0,0,.4-1.6A.6.6,0,0,0,21.7,17.3Zm-1.2,1.3h-.7a.5.5,0,0,0-.5.3l-.5.6a1.4,1.4,0,0,0-.2.6v.7l-.4.2-.5-.5-.5-.2h-.9c-.2,0-.4,0-.5.2l-.5.5-.4-.2v-.7a.7.7,0,0,0-.2-.6l-.5-.6a.5.5,0,0,0-.5-.3h-.6a.9.9,0,0,1-.1-.5l.5-.3a.5.5,0,0,0,.3-.5c.1-.3.1-.6.2-.8a.6.6,0,0,0,0-.6l-.4-.6L14,15l.7.2h.5l.7-.3a1,1,0,0,0,.5-.4l.2-.7h.5l.2.7a.8.8,0,0,0,.4.4,1.5,1.5,0,0,1,.7.3H19l.7-.2.3.3-.4.6a.6.6,0,0,0,0,.6,1.9,1.9,0,0,1,.1.8l.3.5.6.3C20.6,18.3,20.5,18.4,20.5,18.6Z"/><path class="cls-1" d="M5.6,16.5a.8.8,0,0,0-.7.7.7.7,0,0,0,.7.7h4a.7.7,0,0,0,.7-.7.8.8,0,0,0-.7-.7Z"/><path class="cls-1" d="M16.9,15.4a2.1,2.1,0,0,0-2.1,2.1,2.1,2.1,0,0,0,4.2,0A2.1,2.1,0,0,0,16.9,15.4Zm0,3h0a1,1,0,0,1-1-.9,1,1,0,0,1,1-1h0a1,1,0,0,1,1,1A1,1,0,0,1,16.9,18.4Z"/><path class="cls-1" d="M17.6,9.4a.7.7,0,0,0-.6-.7H5.6a.7.7,0,0,0,0,1.4H17A.7.7,0,0,0,17.6,9.4Z"/></svg>