<svg id="图层_1" data-name="图层 1" xmlns="http://www.w3.org/2000/svg" viewBox="0 0 24 24"><title>dsrwgl</title><path class="cls-1" d="M22.81,17v-.16a1,1,0,0,0-1-1,.66.66,0,0,1-.61-.44v0c-.06-.17-.14-.35-.21-.51l0,0a.66.66,0,0,1,.13-.74l.46-.46a.36.36,0,0,0,.09-.24.34.34,0,0,0-.09-.24l-1-1a.34.34,0,0,0-.24-.09.36.36,0,0,0-.24.09l-.45.46a.65.65,0,0,1-.74.12h0l-.34-.15-.17-.06h0a.63.63,0,0,1-.44-.61,1,1,0,0,0-.65-.94.93.93,0,0,0-.34-.06h-.16a1,1,0,0,0-1,1,.65.65,0,0,1-.43.61h0a4.71,4.71,0,0,0-.52.21h0a.63.63,0,0,1-.74-.12l-.07-.08-.38-.38a.34.34,0,0,0-.24-.09.36.36,0,0,0-.24.09l-.35.36-.68.68a.34.34,0,0,0-.09.24.36.36,0,0,0,.09.24l.46.46a.65.65,0,0,1,.19.53.83.83,0,0,1-.06.21v0a4.71,4.71,0,0,0-.21.52v0a.64.64,0,0,1-.61.44,1,1,0,0,0-1,1V17a.94.94,0,0,0,0,.3,1,1,0,0,0,.94.7.66.66,0,0,1,.61.44v0a3.33,3.33,0,0,0,.21.52v0a.67.67,0,0,1,0,.46.66.66,0,0,1-.16.28l-.46.46a.37.37,0,0,0-.1.24.35.35,0,0,0,.1.24l1,1a.37.37,0,0,0,.24.1.33.33,0,0,0,.24-.1l.45-.46a.62.62,0,0,1,.74-.12h0l.51.21h0a.64.64,0,0,1,.43.61,1,1,0,0,0,1,1H17a1,1,0,0,0,.93-1,.65.65,0,0,1,.43-.61h0l.18-.06.34-.15h0a.64.64,0,0,1,.74.12l.45.46a.37.37,0,0,0,.24.1.31.31,0,0,0,.24-.1l1-1a.34.34,0,0,0,0-.48l-.46-.46A.65.65,0,0,1,21,19v0c.08-.17.15-.35.21-.52v0a.65.65,0,0,1,.61-.44,1,1,0,0,0,1-1h0ZM18.1,19.45a2.74,2.74,0,0,1-1,.31,2,2,0,0,1-.43,0,2.73,2.73,0,0,1-1.92-.9,2.77,2.77,0,0,1-.71-1.58,1.09,1.09,0,0,1,0-.18,2.73,2.73,0,0,1,.67-1.93,2.85,2.85,0,0,1,.44-.41,2.7,2.7,0,0,1,1.64-.55,1.67,1.67,0,0,1,.32,0,2.74,2.74,0,0,1,1,.31,2.79,2.79,0,0,1,0,4.89ZM10.87,6c0-.43.27-.79.6-.79h4.8c.33,0,.6.36.6.79s-.27.79-.6.79h-4.8C11.14,6.79,10.87,6.43,10.87,6Zm-1-1.27a.78.78,0,0,1,0,1.11L6.71,9A.8.8,0,0,1,5.6,9L4,7.41A.78.78,0,0,1,4,6.3a.8.8,0,0,1,1.11,0l1,1L8.74,4.73A.8.8,0,0,1,9.85,4.73ZM6.94,11.4a2.75,2.75,0,1,0,2.75,2.75A2.75,2.75,0,0,0,6.94,11.4ZM7.78,15h0a1.2,1.2,0,1,1,.34-.83A1.18,1.18,0,0,1,7.78,15Zm5.31-4.19H11.66a.79.79,0,0,1-.79-.79h0a.8.8,0,0,1,.79-.79h1.43a.79.79,0,0,1,.78.79h0A.79.79,0,0,1,13.09,10.79ZM10.57,21.43a.79.79,0,1,1,0,1.57h-7a2.45,2.45,0,0,1-2.42-2.48v-17A2.45,2.45,0,0,1,3.6,1h14A2.45,2.45,0,0,1,20,3.48V8a.78.78,0,1,1-1.56,0V3.48a.88.88,0,0,0-.86-.91H3.6a.88.88,0,0,0-.86.91v17a.88.88,0,0,0,.86.91Z"/></svg>
