<svg id="图层_1" data-name="图层 1" xmlns="http://www.w3.org/2000/svg" viewBox="0 0 24 24"><title>dsrwlb</title><path class="cls-1" d="M10.76,21.43a.79.79,0,0,1,0,1.57h-7a2.45,2.45,0,0,1-2.43-2.48v-17A2.45,2.45,0,0,1,3.79,1h14a2.45,2.45,0,0,1,2.42,2.48V8a.79.79,0,0,1-1.57,0V3.48a.88.88,0,0,0-.85-.91H3.79a.88.88,0,0,0-.86.91v17a.88.88,0,0,0,.86.91ZM16.37,9.71A6.29,6.29,0,1,0,22.64,16,6.28,6.28,0,0,0,16.37,9.71Zm0,11A4.71,4.71,0,1,1,21.07,16,4.71,4.71,0,0,1,16.37,20.71Zm.39-5.1h1.95a.79.79,0,0,1,0,1.57H16a.78.78,0,0,1-.78-.79V14a.78.78,0,1,1,1.56,0ZM5.84,7.14a.79.79,0,0,1,0-1.57h7.84a.79.79,0,0,1,0,1.57Zm0,7.29a.79.79,0,0,1,0-1.57H7.41a.79.79,0,0,1,0,1.57ZM10,10h0a.79.79,0,0,0-.79-.79H5.79A.79.79,0,0,0,5,10H5a.79.79,0,0,0,.79.79H9.21A.79.79,0,0,0,10,10Z"/></svg>
