<svg id="图层_1" data-name="图层 1" xmlns="http://www.w3.org/2000/svg" viewBox="0 0 24 24"><defs></defs><title>dwdfenxi</title><path class="cls-1" d="M22.4,8.36a1.5,1.5,0,0,0-.62.13L11.18,2.57A1.59,1.59,0,1,0,8,2.67a1.29,1.29,0,0,0,.08.39L2.44,6.2a1.51,1.51,0,0,0-.84-.28A1.62,1.62,0,0,0,0,7.55,1.6,1.6,0,0,0,1.21,9.09v0L2.7,14.78A1.6,1.6,0,0,0,4,17.31a1.29,1.29,0,0,0,.19,0L9.56,21.8a.64.64,0,0,0,.14.08A1.58,1.58,0,0,0,11.2,23a1.62,1.62,0,0,0,1.6-1.63,1.29,1.29,0,0,0-.08-.38l8.89-9.62a1.49,1.49,0,0,0,.79.24,1.63,1.63,0,0,0,0-3.25ZM11,13.58a2.43,2.43,0,0,0,1-1.75l7.66-.69-7.87,8.51Zm-6.37.62a1.53,1.53,0,0,0-.47-.11L2.82,9,7.3,11a2.31,2.31,0,0,0-.1.64,2.59,2.59,0,0,0,.09.63ZM20.36,9.44l-8.78.79a2.47,2.47,0,0,0-1-.85L10.49,4l0,0ZM9,9.27a2.27,2.27,0,0,0-.72.34L3.47,7.48l5.43-3Zm-3.47,7a1.56,1.56,0,0,0,.11-.57c0-.06,0-.1,0-.16L8.2,13.58A2.3,2.3,0,0,0,9.46,14l.76,6.08a.24.24,0,0,0-.08.06L5.49,16.25Z"/></svg>
