<svg id="图层_1" data-name="图层 1" xmlns="http://www.w3.org/2000/svg" viewBox="0 0 24 24"><defs> </defs><title>eljy</title><path class="cls-1" d="M2.58,2.58h11V8.85h4.72v1.6h1.58V7.3L13.57,1h-11A1.55,1.55,0,0,0,1,2.58V21.42A1.55,1.55,0,0,0,2.52,23h7.9V21.42H2.58ZM15.15,4.15,18.29,7.3H15.14Z"/><path class="cls-1" d="M22.4,15.41c-1.33-1.27-4-3.4-7.26-3.4s-5.94,2.13-7.27,3.4a1.76,1.76,0,0,0,0,2.65c1.33,1.27,4.05,3.4,7.27,3.4s5.93-2.13,7.26-3.4A1.76,1.76,0,0,0,22.4,15.41Zm-1.08,1.5c-1.16,1.11-3.51,3-6.18,3s-5-1.86-6.19-3a.3.3,0,0,1-.11-.18A.32.32,0,0,1,9,16.56c1.16-1.11,3.51-3,6.19-3s5,1.86,6.18,3a.32.32,0,0,1,.11.17A.28.28,0,0,1,21.32,16.91Z"/><path class="cls-1" d="M15.19,15.15a1.58,1.58,0,1,0,1.55,1.58A1.57,1.57,0,0,0,15.19,15.15Z"/><polygon class="cls-1" points="8.05 5.5 8.05 4.13 4.07 4.13 4.07 11.5 8.12 11.5 8.12 10.22 5.25 10.22 5.25 8.45 7.87 8.45 7.87 7.11 5.25 7.11 5.25 5.5 8.05 5.5"/><polygon class="cls-1" points="8.86 4.13 8.86 11.5 12.66 11.5 12.66 10.22 10.01 10.22 10.01 4.13 8.86 4.13"/></svg>