<svg id="图层_1" data-name="图层 1" xmlns="http://www.w3.org/2000/svg" viewBox="0 0 24 24"><defs></defs><title>fangonggl</title><path class="cls-1" d="M18.22,16.46a2,2,0,0,0-.81-.26l-.26,0a2.23,2.23,0,0,0-1.36.46,2,2,0,0,0-.37.34,2.32,2.32,0,0,0-.56,1.6c0,.05,0,.1,0,.15a2.29,2.29,0,0,0,2.17,2.06,2.11,2.11,0,0,0,.36,0,2,2,0,0,0,.81-.26,2.3,2.3,0,0,0,0-4.05Z"/><path class="cls-2" d="M20.21,2.54a3,3,0,0,0-.42,0H6.5V.56H1.36V6.41H6.5V4.46H19.79A2.3,2.3,0,0,1,21.93,6.9a2.3,2.3,0,0,1-2.14,2.44H18.67V7.39l-1,1.1-.8.85-.16.17-.75.81.91,1,.8.86,1,1.1v-2h1.12A4.14,4.14,0,0,0,23.64,6.9,4.22,4.22,0,0,0,20.21,2.54Z"/><path class="cls-2" d="M22.12,18.36a.83.83,0,0,0-.82-.83.53.53,0,0,1-.5-.36v0a3.2,3.2,0,0,0-.17-.43v0a.55.55,0,0,1,.1-.62l.38-.38a.28.28,0,0,0,.08-.2.27.27,0,0,0-.08-.2l-.86-.86a.27.27,0,0,0-.19-.08.28.28,0,0,0-.2.08l-.38.38a.52.52,0,0,1-.61.11h0l-.28-.13-.14,0h0a.53.53,0,0,1-.36-.5.83.83,0,0,0-.54-.78.81.81,0,0,0-.27,0h-.14a.83.83,0,0,0-.82.83.53.53,0,0,1-.36.5h0a3.79,3.79,0,0,0-.42.18h0a.47.47,0,0,1-.26.05.5.5,0,0,1-.35-.16l-.06-.06-.32-.32a.27.27,0,0,0-.19-.08.28.28,0,0,0-.2.08l-.29.3-.56.56a.27.27,0,0,0-.08.2.24.24,0,0,0,.08.2l.38.38a.56.56,0,0,1,.15.44.61.61,0,0,1-.05.18v0a4.28,4.28,0,0,0-.17.43h0a.54.54,0,0,1-.5.37.82.82,0,0,0-.82.82v.14a.69.69,0,0,0,0,.25.81.81,0,0,0,.78.58.53.53,0,0,1,.5.36v0c.05.15.11.29.17.43v0a.55.55,0,0,1,0,.38.49.49,0,0,1-.14.23l-.38.38a.32.32,0,0,0-.08.2.28.28,0,0,0,.08.2l.86.86a.24.24,0,0,0,.19.08.24.24,0,0,0,.2-.08l.38-.38a.53.53,0,0,1,.61-.1h0l.42.18h0a.54.54,0,0,1,.36.51.82.82,0,0,0,.82.82h.19a.81.81,0,0,0,.76-.82.55.55,0,0,1,.37-.51h0l.15-.06.28-.12h0a.54.54,0,0,1,.61.1l.38.38a.24.24,0,0,0,.19.08.24.24,0,0,0,.2-.08l.86-.86a.28.28,0,0,0,.08-.2.28.28,0,0,0-.09-.2l-.37-.38a.54.54,0,0,1-.11-.61v0a3.93,3.93,0,0,0,.18-.43v0a.52.52,0,0,1,.5-.36.82.82,0,0,0,.81-.83h0Zm-3.9,2.15a2,2,0,0,1-.81.26,2.11,2.11,0,0,1-.36,0,2.29,2.29,0,0,1-2.17-2.06c0-.05,0-.1,0-.15a2.32,2.32,0,0,1,.56-1.6,2,2,0,0,1,.37-.34,2.23,2.23,0,0,1,1.36-.46l.26,0a2,2,0,0,1,.81.26,2.3,2.3,0,0,1,0,4.05Z"/><path class="cls-2" d="M10.49,16.42H4.21A2.31,2.31,0,0,1,2.07,14a2.3,2.3,0,0,1,2.14-2.44H9.79v2h5.14V7.63H9.79v2H4.21l-.42,0A4.23,4.23,0,0,0,.36,14a4.23,4.23,0,0,0,3.43,4.36,3,3,0,0,0,.42,0h6.58a2.11,2.11,0,0,1-.43-1.26A1.93,1.93,0,0,1,10.49,16.42Z"/></svg>