<svg id="图层_1" data-name="图层 1" xmlns="http://www.w3.org/2000/svg" viewBox="0 0 24 24"><defs> </defs><title>fanglckgl</title><path class="cls-1" d="M23.09,18h-.58a5.06,5.06,0,0,0-.23-.54l.41-.39a.32.32,0,0,0,0-.46l-.46-.46a.34.34,0,0,0-.46,0h0l-.39.4c-.17-.1-.41-.17-.53-.23V15.8a.37.37,0,0,0-.37-.33h-.65a.37.37,0,0,0-.37.33v.57c-.12.06-.36.13-.53.23l-.4-.4a.32.32,0,0,0-.45,0h0l-.46.46a.32.32,0,0,0,0,.46h0l.4.38c-.09.18-.17.42-.22.53h-.58a.36.36,0,0,0-.32.38v.65a.36.36,0,0,0,.32.37h.58A4.26,4.26,0,0,0,18,20l-.41.4a.31.31,0,0,0,0,.45l.46.46a.32.32,0,0,0,.46,0h0l.39-.4a4,4,0,0,0,.53.22v.58a.36.36,0,0,0,.37.32h.65a.36.36,0,0,0,.37-.32v-.58a4.26,4.26,0,0,0,.53-.23l.4.41a.31.31,0,0,0,.45,0h0l.46-.46a.33.33,0,0,0,0-.47h0l-.4-.38c.09-.17.17-.41.22-.53h.58a.36.36,0,0,0,.32-.37v-.65A.35.35,0,0,0,23.09,18ZM20.16,20.2a1.47,1.47,0,1,1,1.47-1.47A1.47,1.47,0,0,1,20.16,20.2Z"/><path class="cls-1" d="M4.94,19.05h0a3.07,3.07,0,0,1-2.21-.91,3.14,3.14,0,0,1-.92-2.22,3.1,3.1,0,0,1,.92-2.21A3.14,3.14,0,0,1,5,12.79H6.52V11.22H5a4.7,4.7,0,1,0,0,9.4v1.57l2.35-2.35L4.94,17.48Z"/><path class="cls-1" d="M13.57,17.49H10.44a2.35,2.35,0,0,0,0,4.7h3.13a2.35,2.35,0,0,0,0-4.7Z"/><path class="cls-1" d="M13.57,1.81H10.44a2.35,2.35,0,0,0,0,4.7h3.13a2.35,2.35,0,0,0,0-4.7Z"/><path class="cls-1" d="M16.7,12l2.35,2.35V12.78a4.7,4.7,0,1,0,0-9.4H17.5V5h1.56a3.13,3.13,0,0,1,0,6.26V9.65Z"/><path class="cls-1" d="M13.57,9.66H10.44a2.35,2.35,0,0,0,0,4.7h3.13a2.35,2.35,0,0,0,0-4.7Z"/></svg>