<svg id="图层_1" data-name="图层 1" xmlns="http://www.w3.org/2000/svg" viewBox="0 0 24 24"><defs></defs><title>fangpk</title><path class="cls-1" d="M21.8,3.9a6.1,6.1,0,0,0-.7-1,2.7,2.7,0,0,0-1-.6A2.8,2.8,0,0,0,18.8,2H5.2a3.1,3.1,0,0,0-1.3.3,2.7,2.7,0,0,0-1,.6,2.7,2.7,0,0,0-.6,1A3.1,3.1,0,0,0,2,5.2V18.8a2.8,2.8,0,0,0,.3,1.3,2.7,2.7,0,0,0,.6,1l1,.7,1.3.2H18.8l1.3-.2,1-.7a6.1,6.1,0,0,0,.7-1,5.1,5.1,0,0,0,.2-1.3V5.2A5.9,5.9,0,0,0,21.8,3.9ZM20.1,18.8a1.3,1.3,0,0,1-1.3,1.3H8.6V14.3h0l3.9-3.3,3.9,3.4v2.4a.4.4,0,0,0,.8,0V14.9h.1c.2.2.5.2.6,0a.6.6,0,0,0,0-.6h0l-5.1-4.3h-.6L7.1,14.4a.6.6,0,0,0,0,.6.3.3,0,0,0,.5,0h.2v5.2H5.2a1.3,1.3,0,0,1-1.3-1.3V5.2A1.3,1.3,0,0,1,5.2,3.9H18.8a1.3,1.3,0,0,1,1.3,1.3Z"/></svg>