<svg id="图层_1" data-name="图层 1" xmlns="http://www.w3.org/2000/svg" viewBox="0 0 24 24"><defs> </defs><title>fanshen</title><path class="cls-1" d="M10.71,12.42A2,2,0,0,0,12,10.6a1.88,1.88,0,0,0-.57-1.34A2.27,2.27,0,0,0,9.79,8.6a2.1,2.1,0,0,0-2.19,2,2,2,0,0,0,1.27,1.82v2.27H6.75a.85.85,0,1,0,0,1.7h6.08a.85.85,0,1,0,0-1.7H10.71Z"/><path class="cls-1" d="M8.08,18a.86.86,0,1,0,0,1.71h3.43a.86.86,0,1,0,0-1.71Z"/><path class="cls-1" d="M23.11,8a3.84,3.84,0,0,0-3.83-3.83H16.53l1.75-1.76L17.19,1.29l-3.6,3.62,3.62,3.6L18.3,7.42,16.53,5.67h2.75a2.3,2.3,0,0,1,0,4.6H13.15v1.54h6.13A3.84,3.84,0,0,0,23.11,8Z"/><path class="cls-1" d="M21.69,13.82l0,.08A9.86,9.86,0,1,1,12,2.13h.1V.4H12A11.6,11.6,0,1,0,23.42,13.93l0-.11Z"/></svg>