<svg id="图层_1" data-name="图层 1" xmlns="http://www.w3.org/2000/svg" viewBox="0 0 24 24"><defs> </defs><title></title><path class="cls-1" d="M11.55,7.35H14v5.29a.83.83,0,1,0,1.66,0V7.35H18a.57.57,0,0,0,.48-.84L15.25.79A.52.52,0,0,0,14.78.5a.56.56,0,0,0-.48.28L11.07,6.51a.57.57,0,0,0,.48.84Z"/><path class="cls-1" d="M8.7,17.36h0a.84.84,0,0,0-.83.84v4.45a.83.83,0,1,0,1.66,0V18.21a.82.82,0,0,0-.23-.6A.84.84,0,0,0,8.7,17.36Z"/><path class="cls-1" d="M14.78,17.36h0a.83.83,0,0,0-.83.84v4.45a.83.83,0,1,0,1.66,0V18.21A.83.83,0,0,0,14.78,17.36Z"/><path class="cls-1" d="M23.22,14.53l-2.88-1.7a.54.54,0,0,0-.55,0,.58.58,0,0,0-.28.48v.85H5A2.86,2.86,0,0,1,2.26,12,3,3,0,0,1,3.63,8.7a2.79,2.79,0,0,1,3.45.54,3,3,0,0,1,.35,3.56.86.86,0,0,0,.28,1.14.81.81,0,0,0,1.13-.25,4.7,4.7,0,0,0-.55-5.62,4.42,4.42,0,0,0-5.46-.85A4.64,4.64,0,0,0,.65,12.41,4.53,4.53,0,0,0,5,15.86h14.5v.85a.55.55,0,0,0,.27.48.57.57,0,0,0,.28.08.53.53,0,0,0,.27-.08l2.88-1.7a.55.55,0,0,0,0-1Z"/></svg>
