<svg id="图层_1" data-name="图层 1" xmlns="http://www.w3.org/2000/svg" viewBox="0 0 24 24"><defs> </defs><title>fenxipz</title><path class="cls-1" d="M14,18.26l2-2-1.39-.13a.64.64,0,0,1-.57-.69.63.63,0,0,1,.69-.58l2.74.26,1.34.13-1,1-3.38,3.41L14,20l-.44-.39-3.74-3.3-3.5,3a.62.62,0,0,1-.89-.07.64.64,0,0,1,.07-.9L9.46,15l.41-.35.42.36Zm7.23-7.86a.64.64,0,0,0-.64.64V21.22H2.77V3.31h11a.64.64,0,0,0,.64-.64A.64.64,0,0,0,13.77,2H1.5V22.5H21.85V11A.63.63,0,0,0,21.22,10.4ZM9.13,6.51H5.32a.64.64,0,1,0,0,1.27H9.13a.64.64,0,1,0,0-1.27ZM22.36,4.86,18,10.36a.69.69,0,0,1-.33.22l-3.54,1a.64.64,0,0,1-.78-.45.65.65,0,0,1,0-.31l.78-3.46a.57.57,0,0,1,.12-.26l4.26-5.34a.63.63,0,0,1,.89-.1h0L22.26,4A.64.64,0,0,1,22.36,4.86ZM21,4.56,19.08,3,15.32,7.76,14.8,10l2.32-.64ZM5.32,12.9H9.13a.63.63,0,0,0,.64-.64.65.65,0,0,0-.64-.64H5.32a.64.64,0,1,0,0,1.28ZM9.13,9.06H5.32a.64.64,0,0,0,0,1.28H9.13a.64.64,0,0,0,.64-.64A.64.64,0,0,0,9.13,9.06Z"/></svg>