<svg id="图层_1" data-name="图层 1" xmlns="http://www.w3.org/2000/svg" viewBox="0 0 24 24"><defs></defs><path class="cls-1" d="M22,17.34a.76.76,0,0,0-.75-.76.48.48,0,0,1-.46-.33v0a2.66,2.66,0,0,0-.16-.39v0a.52.52,0,0,1,.1-.57l.35-.35a.29.29,0,0,0,.07-.18.24.24,0,0,0-.07-.18l-.79-.79a.27.27,0,0,0-.36,0l-.35.35a.49.49,0,0,1-.56.09h0l-.25-.11L18.62,14h0a.5.5,0,0,1-.33-.47.76.76,0,0,0-.5-.71.7.7,0,0,0-.25-.05h-.13a.76.76,0,0,0-.75.76.5.5,0,0,1-.33.47h0l-.38.16h0a.42.42,0,0,1-.24.05.45.45,0,0,1-.32-.14L15.27,14,15,13.75a.27.27,0,0,0-.36,0l-.27.27-.51.52a.27.27,0,0,0,0,.36l.35.35a.52.52,0,0,1,.14.41.49.49,0,0,1-.05.16h0c-.06.13-.11.26-.16.4h0a.51.51,0,0,1-.47.34.74.74,0,0,0-.74.75v.13a.85.85,0,0,0,0,.23.75.75,0,0,0,.71.53.5.5,0,0,1,.47.33v0c.05.13.1.27.16.39v0a.43.43,0,0,1,0,.35.38.38,0,0,1-.12.21l-.35.35a.32.32,0,0,0-.07.19.27.27,0,0,0,.08.18l.78.79a.29.29,0,0,0,.18.07.24.24,0,0,0,.18-.07l.34-.35a.49.49,0,0,1,.56-.1h0a3.2,3.2,0,0,0,.39.16h0a.48.48,0,0,1,.33.46.76.76,0,0,0,.75.76h.18a.76.76,0,0,0,.7-.76.49.49,0,0,1,.33-.46h0l.13-.05.26-.11h0a.5.5,0,0,1,.57.1l.34.35a.29.29,0,0,0,.18.07.26.26,0,0,0,.19-.07l.78-.79a.26.26,0,0,0,.07-.19.24.24,0,0,0-.07-.18l-.35-.35a.49.49,0,0,1-.09-.56v0a3.29,3.29,0,0,0,.17-.39v0a.49.49,0,0,1,.46-.33.75.75,0,0,0,.75-.76h0Zm-3.58,2a1.85,1.85,0,0,1-.74.24,1.82,1.82,0,0,1-.33,0,2.08,2.08,0,0,1-1.46-.68,2.1,2.1,0,0,1-.54-1.2.71.71,0,0,1,0-.14,2.09,2.09,0,0,1,.51-1.46,2.05,2.05,0,0,1,.34-.32,2.08,2.08,0,0,1,1.24-.42l.25,0a2,2,0,0,1,.74.23,2.11,2.11,0,0,1,0,3.72Z"/><path class="cls-1" d="M1.69,17.52a4.79,4.79,0,0,0,9.58,0V12.73H6.48A4.79,4.79,0,0,0,1.69,17.52Zm8.34,0A3.55,3.55,0,1,1,6.48,14H10Z"/><path class="cls-1" d="M22.31,6.48a4.79,4.79,0,0,0-9.58,0v4.79h4.79A4.79,4.79,0,0,0,22.31,6.48ZM14,6.48A3.55,3.55,0,1,1,17.52,10H14Z"/><path class="cls-1" d="M6.48,11.27h4.79V6.48a4.79,4.79,0,1,0-4.79,4.79Zm0-8.34A3.55,3.55,0,0,1,10,6.48V10H6.48a3.55,3.55,0,0,1,0-7.1Z"/></svg>
