<?xml version="1.0" standalone="no"?><!DOCTYPE svg PUBLIC "-//W3C//DTD SVG 1.1//EN" "http://www.w3.org/Graphics/SVG/1.1/DTD/svg11.dtd"><svg t="1553047396272" class="icon" style="" viewBox="0 0 1024 1024" version="1.1" xmlns="http://www.w3.org/2000/svg" p-id="30220" xmlns:xlink="http://www.w3.org/1999/xlink" width="200" height="200"><defs><style type="text/css"></style></defs><path d="M928 1024H32c-19.2 0-32-12.8-32-32V32c0-19.2 12.8-32 32-32h438.4c19.2 0 32 12.8 32 32s-12.8 32-32 32H64v896h832V560c0-19.2 12.8-32 32-32s32 12.8 32 32V992c0 19.2-12.8 32-32 32z" p-id="30221"></path><path d="M784 96c96 0 176 80 176 176S880 448 784 448 608 368 608 272 688 96 784 96m0-64C652.8 32 544 140.8 544 272s108.8 240 240 240S1024 403.2 1024 272 915.2 32 784 32z" p-id="30222"></path><path d="M780.8 364.8c-6.4 0-12.8-3.2-19.2-6.4l-64-48c-12.8-9.6-16-32-6.4-44.8 9.6-12.8 32-16 44.8-6.4l38.4 32L864 198.4c12.8-12.8 32-12.8 44.8 0 12.8 12.8 12.8 32 0 44.8L800 358.4c-3.2 3.2-12.8 6.4-19.2 6.4zM736 800H224c-19.2 0-32-12.8-32-32s12.8-32 32-32h512c19.2 0 32 12.8 32 32s-12.8 32-32 32zM736 608H224c-19.2 0-32-12.8-32-32s12.8-32 32-32h512c19.2 0 32 12.8 32 32s-12.8 32-32 32zM448 416H224c-19.2 0-32-12.8-32-32s12.8-32 32-32h224c19.2 0 32 12.8 32 32s-12.8 32-32 32zM448 224H224c-19.2 0-32-12.8-32-32s12.8-32 32-32h224c19.2 0 32 12.8 32 32s-12.8 32-32 32z" p-id="30223"></path></svg>
