<?xml version="1.0" standalone="no"?><!DOCTYPE svg PUBLIC "-//W3C//DTD SVG 1.1//EN" "http://www.w3.org/Graphics/SVG/1.1/DTD/svg11.dtd"><svg t="1553048509725" class="icon" style="" viewBox="0 0 1024 1024" version="1.1" xmlns="http://www.w3.org/2000/svg" p-id="38819" xmlns:xlink="http://www.w3.org/1999/xlink" width="200" height="200"><defs><style type="text/css"></style></defs><path d="M862.7 725.9V510.3H533.6V347h145.3V62.1H346.8V347h141.5v163.3H160.1v215.6H64.7v234h232.5v-234h-95.5V557.5h286.6V726h-91.7v234h232.5V726h-95.5V557.5h283.9V726h-90.6v234h232.5V726h-96.7z m-613.1 43.4v145.3H108.1V769.3h141.5z m331.9 0v145.3H440V769.3h141.5zM399.6 294.2V112.9H626v181.3H399.6z m512.2 620.4H770.3V769.3h141.5v145.3z" p-id="38820"></path></svg>