<?xml version="1.0" standalone="no"?><!DOCTYPE svg PUBLIC "-//W3C//DTD SVG 1.1//EN" "http://www.w3.org/Graphics/SVG/1.1/DTD/svg11.dtd"><svg t="1553048967494" class="icon" style="" viewBox="0 0 1024 1024" version="1.1" xmlns="http://www.w3.org/2000/svg" p-id="41210" xmlns:xlink="http://www.w3.org/1999/xlink" width="200" height="200"><defs><style type="text/css"></style></defs><path d="M1011.987 700.5s-0.05 0.484-0.05 0.706c-0.02 0.121-0.025 0.252-0.045 0.353 0 0.162-0.175 0.348-0.196 0.511-0.02 0.203-0.196 0.39-0.196 0.591v0.061c-1 4.33-2.376 8.397-5.209 11.534-5.361 6.96-11.143 13.496-17.01 19.91-31.787 34.64-68.234 65.515-108.174 87.934-25.515 14.325-52.773 25.878-81.059 31.422-31.098 6.11-62.229 5.807-93.166-1.416-53.537-12.484-102.012-43.522-144.421-80.609-19.687-17.239-39.048-36.076-55.315-57.24-7.102-9.267-7.1-20.234 0.001-29.5 5.341-6.96 11.21-13.516 17.077-19.91 31.787-34.64 68.267-65.535 108.208-87.934 25.515-14.325 52.788-25.878 81.076-31.422 31.098-6.11 62.217-5.807 93.154 1.416 53.537 12.484 102.016 43.542 144.426 80.63 19.687 17.219 39.051 36.076 55.318 57.24 2.852 3.136 4.715 7.182 5.341 11.534 0 0.02 0 0.04 0.02 0.061 0.02 0.203 0.04 0.385 0.061 0.586 0.02 0.163 0.04 0.344 0.061 0.506 0 0.101 0.02 0.222 0.02 0.344 0.02 0.242 0.04 0.445 0.04 0.687 0.02 0.364-0.194 0.709-0.194 1.052 0 0.364-0.255 0.709-0.255 1.052v-0.099h0.487zM756.866 592.572c-52.829 0-95.663 45.949-95.663 102.664 0 56.693 42.834 102.644 95.663 102.644 52.849 0 95.684-45.949 95.684-102.644-0.001-56.714-42.835-102.664-95.684-102.664z m0 153.956c-26.405 0-47.832-22.985-47.832-51.312 0-28.367 21.407-51.332 47.832-51.332s47.832 22.985 47.832 51.332c0 28.326-21.408 51.312-47.832 51.312zM473.272 408.5c-86.519-3-157.113-73.531-157.113-159.099 0-87.538 72.169-158.88 160.862-158.88 88.725 0 160.898 71.414 160.898 158.963 0 87.58-72.179 159.016-160.898 159.016h-3.749z m3.753-254.995c-53.259 0-96.583 42.898-96.583 95.63 0 52.748 43.322 95.668 96.583 95.668 53.276 0 96.619-42.914 96.619-95.668 0-52.732-43.343-95.63-96.619-95.63zM777.938 422.362c1.521 0 3.001 0.146 4.501 0.225-26.468-50.186-65.153-93.958-113.499-126.851l-14.005-9.504-4.559 16.17c-4.104 14.617-10.121 28.68-17.826 41.822l-5.431 9.259 8.72 6.367c33.091 24.193 59.921 54.634 79.258 89.269 0.34-0.329 0.769-0.69 1.083-1.009 15.738-16.328 38.281-25.748 61.758-25.748zM169.093 886.5C82.595 885.5 12 813.667 12 728.099c0-87.523 72.163-158.496 160.867-158.517 88.73 0 160.919 70.89 160.919 158.464 0 87.564-72.189 158.454-160.919 158.454h-3.774z m3.774-253.593c-53.266 0-96.603 42.903-96.603 95.651 0 52.737 43.338 95.641 96.603 95.641 53.276 0 96.619-42.903 96.619-95.641 0-52.747-43.344-95.651-96.619-95.651zM174.565 547.873l14.507 0.355 1.715-10.251c12.416-74.029 55.581-140.981 118.428-183.665l8.924-6.07-5.097-9.436a177.497 177.497 0 0 1-16.374-42.569l-3.999-16.316-14.319 9.039c-89.075 56.213-147.719 147.604-160.883 250.721l-2.18 17.179 17.026-4.03c13.893-3.274 28.175-4.957 42.252-4.957zM484.177 865.629c0.393-0.999 0.884-2.592 1.217-3.941-5.584 0.324-11.209 0.501-16.854 0.501-45.727 0-89.488-10.617-130.117-31.586l-9.279-4.825-6.164 8.422c-9.164 12.562-19.865 23.875-31.816 33.625l-13.482 11.056 15.181 8.547c53.286 30.17 114.021 46.119 175.652 46.119 5.635 0 11.261-0.182 16.88-0.45-9.781-20.978-10.806-45.485-1.218-67.468z" p-id="41211"></path></svg>