<?xml version="1.0" standalone="no"?><!DOCTYPE svg PUBLIC "-//W3C//DTD SVG 1.1//EN" "http://www.w3.org/Graphics/SVG/1.1/DTD/svg11.dtd"><svg t="1553048850269" class="icon" style="" viewBox="0 0 1024 1024" version="1.1" xmlns="http://www.w3.org/2000/svg" p-id="40753" xmlns:xlink="http://www.w3.org/1999/xlink" width="200" height="200"><defs><style type="text/css"></style></defs><path d="M939.716923 872.369231H267.421538a44.110769 44.110769 0 1 1 0-87.827693h672.295385a44.110769 44.110769 0 1 1 0 87.827693zM144.541538 827.076923a48.836923 48.836923 0 0 1-52.381538 44.110769A48.836923 48.836923 0 0 1 39.384615 827.076923a48.836923 48.836923 0 0 1 52.381539-44.110769A48.836923 48.836923 0 0 1 144.541538 827.076923z m795.175385-272.147692H267.421538a44.110769 44.110769 0 1 1 0-87.827693h672.295385a44.110769 44.110769 0 1 1 0 87.827693zM144.541538 512a48.836923 48.836923 0 0 1-52.381538 44.110769A48.836923 48.836923 0 0 1 39.384615 512a48.836923 48.836923 0 0 1 52.381539-44.110769A48.836923 48.836923 0 0 1 144.541538 512z m795.175385-272.147692H267.421538a44.110769 44.110769 0 1 1 0-87.827693h672.295385a44.110769 44.110769 0 1 1 0 87.827693zM144.541538 202.830769a51.987692 51.987692 0 0 1-52.381538 51.2 51.2 51.2 0 1 1 0-102.4 51.987692 51.987692 0 0 1 52.381538 51.2z" p-id="40754"></path></svg>