<?xml version="1.0" standalone="no"?><!DOCTYPE svg PUBLIC "-//W3C//DTD SVG 1.1//EN" "http://www.w3.org/Graphics/SVG/1.1/DTD/svg11.dtd"><svg t="1553048066433" class="icon" style="" viewBox="0 0 1024 1024" version="1.1" xmlns="http://www.w3.org/2000/svg" p-id="35679" xmlns:xlink="http://www.w3.org/1999/xlink" width="200" height="200"><defs><style type="text/css"></style></defs><path d="M492.682624 1005.756948H54.905652a31.267957 31.267957 0 0 1-31.267957-31.267957V36.383787A31.267957 31.267957 0 0 1 54.905652 5.115831h813.012914a31.273072 31.273072 0 0 1 31.278189 31.267956v437.782088a31.273072 31.273072 0 0 1-62.541029 0V67.65686H86.173609v875.559059h406.503899c17.281276 0 31.278188 13.996913 31.278188 31.267957s-13.991797 31.273072-31.273072 31.273072z" p-id="35680"></path><path d="M680.300595 317.81586H242.523623a31.273072 31.273072 0 0 1 0-62.541029h437.776972a31.273072 31.273072 0 1 1 0 62.541029zM430.14671 693.056919H242.523623a31.267957 31.267957 0 0 1 0-62.535914H430.14671a31.267957 31.267957 0 1 1 0 62.535914zM680.300595 505.433831H242.523623a31.273072 31.273072 0 0 1 0-62.535913h437.776972a31.267957 31.267957 0 1 1 0 62.535913zM998.745702 770.004127c-2.199807-12.595175-9.249422-20.678187-17.941218-20.678188h-2.153764c-30.198748 0-54.770082-26.039578-54.770083-58.100488 0-8.783881 3.248552-18.335137 4.655406-22.038998l0.051158-0.143243 0.040927-0.102317c4.65029-11.039962 1.07944-24.581566-8.308109-31.574906l-0.521815-0.378572-52.693055-31.017281-0.567857-0.291602a24.167184 24.167184 0 0 0-10.139576-2.153765c-7.566313 0-14.93311 3.156467-19.726643 8.456468-3.289479 3.657819-9.909364 9.873553-17.797975 15.321913-9.535908 6.481757-18.268631 9.970754-25.175002 9.970754-7.2389 0-15.82838-3.391796-25.553574-10.262356-7.602124-5.351159-14.329442-11.638515-17.751932-15.511199-4.83446-5.392085-12.25753-8.645754-19.86477-8.645753-3.611776 0-6.952414 0.7111-10.006565 2.066795l-0.557625 0.291602-54.631955 31.774424-0.603668 0.378572c-9.111294 6.768244-12.728187 19.788033-8.686681 30.592667l0.332529 0.787838c0.035811 0.143243 4.824228 11.618051 4.824229 22.381758 0 32.066026-24.612261 58.100488-54.759851 58.100489h-2.256081c-8.635522 0-15.680021 8.129055-17.941218 20.683303l-0.040927 0.276255c-0.982239 5.970174-4.322877 26.745562-4.322877 43.438517 0 17.58311 3.611776 39.427706 4.363804 43.663614 2.215155 12.595175 9.254538 20.678187 17.941218 20.678188h2.169112c30.198748 0 54.764967 26.039578 54.764966 58.090256 0 10.615348-4.742375 22.325485-4.798649 22.427801l-0.373455 0.890155h0.051158c-3.995464 10.763708-0.378571 23.737454 8.732723 30.505698l0.516699 0.378571 51.664773 30.592667 0.562741 0.291603a24.054635 24.054635 0 0 0 10.190735 2.204923c7.653283 0 15.03031-3.248552 19.823843-8.783882 2.670464-3.110425 9.48475-9.970754 17.941218-16.033013 9.766121-7.049615 18.78533-10.804634 26.02423-10.804634 7.320754 0 16.29392 3.75502 26.013999 10.804634 7.796526 5.678572 14.697781 12.451932 18.222589 16.585523 4.793533 5.591603 12.25753 8.973167 19.956855 8.973167 3.616892 0 6.952414-0.690637 9.863321-2.015637l0.562742-0.291603 53.588325-31.482821 0.562741-0.378572c9.11641-6.768244 12.779345-19.731759 8.737839-30.55174h0.051158l-0.332529-0.803185c-0.046042-0.127896-4.880502-11.751063-4.880502-22.412454 0-32.055795 24.612261-58.100488 54.759851-58.100488h2.169112c8.68668 0 15.726063-8.129055 17.982144-20.683303l0.046043-0.127896c0.051158-0.24556 4.374035-24.540639 4.374035-43.576645-0.010232-17.613805-3.637356-39.427706-4.384267-43.663614z m-48.262746 75.903578l-0.214864 1.26361-1.140831 0.086969c-17.255697 1.248263-33.309173 9.290348-45.229058 22.709173-12.272878 13.715542-19.036006 31.733497-19.036006 50.667186 0 11.449229 3.714093 22.69894 5.294885 27.001354l0.532046 1.417085-43.397591 25.568921h-0.358108c-0.092085 0-0.209749-0.046042-0.291602-0.046042l-0.168822-0.046043-0.276255 0.046043-0.460425-0.496236a121.715842 121.715842 0 0 0-15.879538-15.071237c-13.444403-10.712549-26.326064-16.176256-38.225487-16.176256-11.694789 0-24.407628 5.340927-37.933883 15.853959-8.671333 6.809171-14.702897 13.52114-15.853959 14.78475l-0.439962 0.496236h-0.46554l-0.158591 0.030695c-0.081853 0.030695-0.194402 0.030695-0.281371 0.030695h-0.358108l-41.898653-24.934559 0.532047-1.406853c1.26361-3.274132 5.335811-14.93311 5.335811-27.047396 0-18.9695-6.747781-36.95676-19.025774-50.667187-11.971044-13.418824-28.02452-21.460909-45.223942-22.709172l-1.140831-0.086969-0.214864-1.26361c-0.73668-4.517278-3.166699-20.238226-3.1667-32.214385 0-11.469692 2.199807-26.326064 3.1667-32.250196l0.214864-1.268726 1.140831-0.076738c17.235233-1.238031 33.283594-9.285233 45.223942-22.719403 12.272878-13.70531 19.025774-31.723266 19.025774-50.641608 0-11.474808-3.703861-22.714288-5.289769-27.026933l-0.52693-1.38639 44.405409-25.993535 0.496236 0.117664c0.358108 0.092085 0.64971 0.158591 0.89527 0.276255l0.250676 0.127896 0.148359 0.194401c0.7111 0.762259 6.89614 7.576545 15.695368 14.25782 13.244885 10.057723 25.834945 15.204249 37.314869 15.204249 11.413418 0 23.844886-5.01863 36.997687-14.902415 7.786294-5.9139 13.909943-12.078476 15.608399-13.961101l0.15859-0.225097 0.204634-0.107432a3.309942 3.309942 0 0 1 0.900386-0.301834l0.501351-0.117665 42.860429 25.425678-0.532046 1.386391c-1.26361 3.340637-5.340927 14.948457-5.340928 27.026933 0 18.943921 6.758012 36.941413 19.036006 50.641607 11.971044 13.434171 28.029636 21.481373 45.229058 22.719403l1.140831 0.076738 0.214865 1.268726c0.925965 5.847394 3.161583 20.780504 3.161583 32.250196 0.005116 11.438997-2.194691 26.295369-3.156468 32.214385z" p-id="35681"></path><path d="M792.49076 740.700649c-40.788517 0-74.00049 33.222204-74.00049 74.005605s33.160814 74.005605 74.00049 74.005606c40.788517 0 74.010721-33.222204 74.010721-74.005606s-33.222204-74.005605-74.010721-74.005605z m0.020463 112.374335c-21.133496 0-38.384077-17.204538-38.384077-38.36873 0-21.169307 17.199422-38.368729 38.384077-38.368729 21.133496 0 38.353382 17.199422 38.353382 38.368729 0 21.164191-17.189191 38.368729-38.353382 38.36873z" p-id="35682"></path></svg>