<svg id="图层_1" data-name="图层 1" xmlns="http://www.w3.org/2000/svg" viewBox="0 0 24 24"><defs></defs><title>fqcoqc</title><path class="cls-1" d="M21.8,3.1,17.3,1.8C12.6.5,12.2.5,12,.5h0c-.2,0-.6,0-5.3,1.3L2.2,3.1a1.1,1.1,0,0,0-.9,1.1v7.1a11.9,11.9,0,0,0,.9,4.4,15.8,15.8,0,0,0,2.4,3.9A10,10,0,0,0,12,23.5V21.9c-2.1,0-4.3-1.3-6.2-3.4A11.5,11.5,0,0,1,3,11.3V4.6l9-2.5,9,2.5v6.7a11.5,11.5,0,0,1-2.8,7.2c-1.9,2.1-4.1,3.4-6.2,3.4v1.6a10,10,0,0,0,7.4-3.9,15.8,15.8,0,0,0,2.4-3.9,11.9,11.9,0,0,0,.9-4.4V4.2A1.1,1.1,0,0,0,21.8,3.1Z"/><path class="cls-1" d="M11.1,7l-.6-.2a1,1,0,0,0-.9.7L9,9.8V10L6.2,12.7a1.1,1.1,0,0,0,0,1.3h0l2.9,2.8a.8.8,0,0,0,1.2,0h0L13,14.1h.3l2.2-.7a.8.8,0,0,0,.7-1,.8.8,0,0,0-.2-.5ZM13,13.1c-.2.1-.5.2-.6.4L9.7,16.2,6.8,13.4l2.7-2.7a2.5,2.5,0,0,0,.4-.7l.2-.8,3.7,3.7Zm2.2-.6h-.4L10.4,8.2V7.8h0l4.8,4.8Z"/><path class="cls-1" d="M14.4,9h.3l1-1a.5.5,0,0,0-.1-.6H15l-.9,1h0c-.2.1-.2.4,0,.6Z"/><path class="cls-1" d="M12.5,7.2a.5.5,0,0,0,.5-.5V5.4a.5.5,0,0,0-.5-.5.5.5,0,0,0-.4.5V6.7A.5.5,0,0,0,12.5,7.2Z"/><path class="cls-1" d="M10.7,11.7l-.7.7c-.1,0-.1.2-.1.3a.4.4,0,0,0,.4.4h.4l.6-.7a.4.4,0,0,0,0-.5A.5.5,0,0,0,10.7,11.7Z"/><path class="cls-1" d="M17.6,10H16.3a.5.5,0,0,0-.5.4.5.5,0,0,0,.5.5h1.3a.5.5,0,0,0,.5-.5A.5.5,0,0,0,17.6,10Z"/></svg>