<svg id="图层_1" data-name="图层 1" xmlns="http://www.w3.org/2000/svg" viewBox="0 0 24 24"><defs></defs><title>fqcrkjk</title><rect class="cls-1" x="5.7" y="20.6" width="2.4" height="2.36" rx="0.3" ry="0.3"/><rect class="cls-1" x="5.7" y="17.6" width="2.4" height="2.36" rx="0.3" ry="0.3"/><rect class="cls-1" x="5.7" y="14.5" width="2.4" height="2.36" rx="0.3" ry="0.3"/><path class="cls-1" d="M22.7,9.9h0L12.5,1.2a.7.7,0,0,0-1,0L1.3,9.9A.8.8,0,0,0,1.2,11a.9.9,0,0,0,1.1.1h0l.3-.3V22.2a.8.8,0,0,0,.8.8.8.8,0,0,0,.7-.8h0V9.5h0L12,2.8l7.9,6.7v4.9a.7.7,0,0,0,.7.7.7.7,0,0,0,.8-.7V10.8l.3.3a.9.9,0,0,0,1.1-.1A.7.7,0,0,0,22.7,9.9Z"/><path class="cls-1" d="M9.6,11.9h0l1.8,1.8.5.2.4-.2a.7.7,0,0,0,0-1l-.5-.6h3.6a.7.7,0,0,0,.6-.7c0-.3-.3-.7-.6-.7H11.8l.5-.5a.7.7,0,0,0,0-1,.6.6,0,0,0-.9,0L9.6,10.9h0v.2a.4.4,0,0,0,0,.5h.1Z"/><polygon class="cls-1" points="9.5 22 10.4 22 10.4 20.1 12.3 20.1 12.3 19.4 10.4 19.4 10.4 18.3 12.6 18.3 12.6 17.6 9.5 17.6 9.5 22"/><path class="cls-1" d="M18.1,19.8a2.2,2.2,0,0,0-2.5-2.3,2.2,2.2,0,0,0-2.5,2.3c.1,1.5.9,2.2,2.5,2.2h0l1,.9,1.2-.2-1.2-.8A2.2,2.2,0,0,0,18.1,19.8Zm-2.5,1.6a1.4,1.4,0,0,1-1.5-1.6,1.4,1.4,0,0,1,1.5-1.6,1.4,1.4,0,0,1,1.5,1.6A1.4,1.4,0,0,1,15.6,21.4Z"/><path class="cls-1" d="M20.7,21.4c-.8,0-1.2-.5-1.2-1.6s.4-1.6,1.2-1.6a1,1,0,0,1,1,.9l1-.3a1.9,1.9,0,0,0-2-1.3,2.1,2.1,0,0,0-2.1,2.3c0,1.5.7,2.3,2.1,2.3a1.8,1.8,0,0,0,2-1.5l-.9-.2C21.6,21.1,21.3,21.4,20.7,21.4Z"/></svg>