<?xml version="1.0" standalone="no"?><!DOCTYPE svg PUBLIC "-//W3C//DTD SVG 1.1//EN" "http://www.w3.org/Graphics/SVG/1.1/DTD/svg11.dtd"><svg t="1553047596961" class="icon" style="" viewBox="0 0 1024 1024" version="1.1" xmlns="http://www.w3.org/2000/svg" p-id="31354" xmlns:xlink="http://www.w3.org/1999/xlink" width="200" height="200"><defs><style type="text/css"></style></defs><path d="M52.138667 553.344L0 584.149333l300.501333 125.098667 2.176 0.938667 25.856-48.981334-203.989333-81.706666L886.144 142.506667 402.816 724.906667l-0.64 0.810666V1024h57.088v-277.973333L935.594667 172.074667l-121.386667 688.810666-214.741333-86.314666-2.517334-1.024-19.797333 54.912 229.034667 91.733333 52.437333 16.554667 150.826667-866.090667L1024 0z" fill="#FFFFFF" p-id="31355"></path><path d="M52.138667 553.344L0 584.149333l300.501333 125.098667 2.176 0.938667 25.856-48.981334-203.989333-81.706666L886.144 142.506667 402.816 724.906667l-0.64 0.810666V1024h57.088v-277.973333L935.594667 172.074667l-121.386667 688.810666-214.741333-86.314666-2.517334-1.024-19.797333 54.912 229.034667 91.733333 52.437333 16.554667 150.826667-866.090667L1024 0z" p-id="31356"></path></svg>
