<svg id="图层_1" data-name="图层 1" xmlns="http://www.w3.org/2000/svg" viewBox="0 0 24 24"><defs></defs><title>fuprktj</title><path class="cls-1" d="M11.6,20.9v1.8a.3.3,0,0,1-.3.3H9.5a.3.3,0,0,1-.3-.3V20.9a.3.3,0,0,1,.3-.3h1.8A.3.3,0,0,1,11.6,20.9Zm-.3-3.4H9.5a.3.3,0,0,0-.3.3v1.8c0,.1.1.2.3.2h1.8c.2,0,.3-.1.3-.2V17.8A.3.3,0,0,0,11.3,17.5ZM7.8,20.6H6a.3.3,0,0,0-.3.3v1.8A.3.3,0,0,0,6,23H7.8a.3.3,0,0,0,.3-.3V20.9A.3.3,0,0,0,7.8,20.6Zm0-3.1H6a.3.3,0,0,0-.3.3v1.8a.3.3,0,0,0,.3.3H7.8a.3.3,0,0,0,.3-.3V17.8A.3.3,0,0,0,7.8,17.5ZM22.7,9.9h0L12.5,1.2a.7.7,0,0,0-1,0L1.3,9.9A.8.8,0,0,0,1.2,11a.9.9,0,0,0,1.1.1h0l.3-.3V22.2a.8.8,0,0,0,.8.8.8.8,0,0,0,.7-.8h0V9.5h0L12,2.8l7.9,6.7v4.9a.7.7,0,0,0,.7.7.7.7,0,0,0,.8-.7V10.8l.3.3a.9.9,0,0,0,1.1-.1A.7.7,0,0,0,22.7,9.9Zm-7.3.8H11.8l.5-.5a.7.7,0,0,0,0-1,.6.6,0,0,0-.9,0L9.6,10.9h0v.2a.4.4,0,0,0,0,.5h.1l1.8,1.8.5.2.4-.2a.7.7,0,0,0,0-1l-.5-.6h3.6a.7.7,0,0,0,.6-.7C16,11.1,15.7,10.7,15.4,10.7Zm-.9,8.5a.8.8,0,0,0-.7.8v3h1.5V20A.9.9,0,0,0,14.5,19.2Zm3-3.7a.7.7,0,0,0-.7.7V23h1.5V16.2A.8.8,0,0,0,17.5,15.5Zm3,2.2a.8.8,0,0,0-.7.8V23h1.5V18.5A.9.9,0,0,0,20.5,17.7Z"/></svg>