<svg id="图层_1" data-name="图层 1" xmlns="http://www.w3.org/2000/svg" viewBox="0 0 24 24"><defs></defs><title></title><path class="cls-1" d="M17.5,12H16.3l-.7-.3-.7-.2h-2a.9.9,0,0,0-.7.3l-1.8,1.9L8.6,11.7a1.1,1.1,0,0,0-.8-.3H6.7a5.2,5.2,0,0,0-4,1.8A6,6,0,0,0,1,17.5v1.3a3.3,3.3,0,0,0,3.2,3.4H14.6a5.2,5.2,0,0,0,2.9.9A5.5,5.5,0,0,0,23,17.5,5.5,5.5,0,0,0,17.5,12ZM4.2,20.6a1.7,1.7,0,0,1-1.6-1.8V17.5a4.4,4.4,0,0,1,4.1-4.6h.9l2,2.2a.9.9,0,0,0,.8.4h0a.8.8,0,0,0,.7-.4l2.1-2.2h1.2A5.4,5.4,0,0,0,13,20.6H4.2Zm16.3-.1h0a4.2,4.2,0,0,1-5.6.3h-.1l-.3-.3a4.3,4.3,0,0,1,0-6.1,4.4,4.4,0,0,1,1.6-1h1.4a4.3,4.3,0,0,1,4.3,4.3A4.3,4.3,0,0,1,20.5,20.5ZM10.4,10.8A4.9,4.9,0,1,0,5.5,5.9,4.9,4.9,0,0,0,10.4,10.8ZM8.1,3.6a3.3,3.3,0,0,1,4.7,0,3.5,3.5,0,0,1,0,4.7,3.3,3.3,0,0,1-4.7,0,3.3,3.3,0,0,1-1-2.4A2.9,2.9,0,0,1,8.1,3.6ZM19.7,17.7V16.6h.8v-.9h-.8V14.6h-.9v1.1h-.7V14.6h-.9v1.1h-.6v.9h.6v1.1h-.8v.9h4.2v-.9Zm-.9,0h-.7V16.6h.7Zm-1.4,1.1.9.3a10,10,0,0,1-1.4,1.5,2,2,0,0,0-.7-.6A4.6,4.6,0,0,0,17.4,18.8Zm-.7-4-.6,1.3v4.5h-.9V17.5l-.3.3-.5-1a5.3,5.3,0,0,0,1.4-2.3Zm2.8,4,1.1,1.3-.8.5a12.1,12.1,0,0,0-1-1.4Z"/></svg>
