<svg id="图层_1" data-name="图层 1" xmlns="http://www.w3.org/2000/svg" viewBox="0 0 24 24"><title>gongyi</title><path class="cls-1" d="M21.91,5.84,12.59.65A1.23,1.23,0,0,0,12,.5a1.32,1.32,0,0,0-.59.15L2.09,5.84a1.11,1.11,0,0,0-.59,1V17.18a1.11,1.11,0,0,0,.59,1l9.32,5.19a1.23,1.23,0,0,0,.59.15,1.32,1.32,0,0,0,.59-.15l9.32-5.19a1.12,1.12,0,0,0,.59-1V6.81A1.14,1.14,0,0,0,21.91,5.84ZM21,17.05l-9,5-9-5V7l9-5,9,5ZM6,12.27a6.18,6.18,0,0,0,6.29,6A6.69,6.69,0,0,0,14.4,18a.41.41,0,0,0,.19-.12.5.5,0,0,0,0-.7l-3.9-3.51,3-2.94,3.77,3.4a.54.54,0,0,0,.5.12.58.58,0,0,0,.39-.37,5.58,5.58,0,0,0,.22-1.58,6.18,6.18,0,0,0-6.3-6A6.19,6.19,0,0,0,6,12.27Zm6.3-4.91A5,5,0,0,1,17.4,12.3v.42l-3.32-3a.53.53,0,0,0-.72,0L9.71,13.25a.49.49,0,0,0-.15.36.43.43,0,0,0,.16.35l3.52,3.19-.43.05c-.16,0-.33,0-.5,0A5,5,0,0,1,7.22,12.3,5,5,0,0,1,12.31,7.36ZM15,13.74a1,1,0,1,1-1-.94A1,1,0,0,1,15,13.74Z"/></svg>
