<svg id="图层_1" data-name="图层 1" xmlns="http://www.w3.org/2000/svg" viewBox="0 0 24 24"><defs> </defs><path class="cls-1" d="M7,11a6.05,6.05,0,0,0,0,12.1,6.21,6.21,0,0,0,2-.34c.07,0,.14-.06.18-.12a.52.52,0,0,0,0-.7L5.45,18.44,8.37,15.5,12,18.9a.49.49,0,0,0,.48.12.55.55,0,0,0,.37-.37,5.58,5.58,0,0,0,.21-1.58A6,6,0,0,0,7,11Zm4.89,6.5-3.2-3a.49.49,0,0,0-.69,0L4.5,18.05a.5.5,0,0,0-.14.35.46.46,0,0,0,.15.36L7.89,22,7.48,22c-.15,0-.31,0-.48,0a4.95,4.95,0,0,1,0-9.89,4.93,4.93,0,0,1,4.9,4.94Z"/><path class="cls-1" d="M8.67,17.6a.94.94,0,1,0,.94.94A.94.94,0,0,0,8.67,17.6Z"/><path class="cls-1" d="M3.41,10H8a2.29,2.29,0,0,0,2.29-2.29V3.17A2.29,2.29,0,0,0,8,.88H3.41A2.29,2.29,0,0,0,1.13,3.17V7.74A2.29,2.29,0,0,0,3.41,10ZM2.65,3.17a.76.76,0,0,1,.76-.76H8a.76.76,0,0,1,.77.76V7.74A.76.76,0,0,1,8,8.5H3.41a.76.76,0,0,1-.76-.76Z"/><path class="cls-1" d="M20.76,12.55H16.19a2.28,2.28,0,0,0-2.28,2.29v4.57a2.29,2.29,0,0,0,2.28,2.29h4.57a2.29,2.29,0,0,0,2.29-2.29V14.84A2.28,2.28,0,0,0,20.76,12.55Zm.77,6.86a.77.77,0,0,1-.77.76H16.19a.76.76,0,0,1-.76-.76V14.84a.76.76,0,0,1,.76-.76h4.57a.77.77,0,0,1,.77.76Z"/><path class="cls-1" d="M18.48,10a4.58,4.58,0,1,0-4.57-4.57A4.58,4.58,0,0,0,18.48,10Z"/></svg>
