<svg id="图层_1" data-name="图层 1" xmlns="http://www.w3.org/2000/svg" viewBox="0 0 24 24"><defs></defs><path class="cls-1" d="M22.75,9.92a.76.76,0,0,0-.57-.59,3.8,3.8,0,0,1-2.46-1.84,3.88,3.88,0,0,1-.34-3.07.76.76,0,0,0-.23-.8A11,11,0,0,0,15.6,1.54a.77.77,0,0,0-.81.2A3.74,3.74,0,0,1,12,3h0A3.74,3.74,0,0,1,9.21,1.74a.74.74,0,0,0-.81-.19A10.68,10.68,0,0,0,4.85,3.63a.77.77,0,0,0-.23.79,3.88,3.88,0,0,1-.34,3.07A3.8,3.8,0,0,1,1.82,9.33a.74.74,0,0,0-.57.59A11.34,11.34,0,0,0,1.06,12a11.15,11.15,0,0,0,.19,2.07.76.76,0,0,0,.57.6,3.8,3.8,0,0,1,2.46,1.84,3.88,3.88,0,0,1,.34,3.07.76.76,0,0,0,.23.8A11,11,0,0,0,8.4,22.46a.78.78,0,0,0,.81-.2A3.74,3.74,0,0,1,12,21h0a3.74,3.74,0,0,1,2.79,1.24.8.8,0,0,0,.56.24.67.67,0,0,0,.24,0,10.72,10.72,0,0,0,3.56-2.08.8.8,0,0,0,.23-.8,3.88,3.88,0,0,1,.34-3.07,3.8,3.8,0,0,1,2.46-1.84.75.75,0,0,0,.57-.59,11.48,11.48,0,0,0,0-4.16Zm-1.41,3.42a5.36,5.36,0,0,0-2.93,2.41,5.48,5.48,0,0,0-.6,3.78,9.14,9.14,0,0,1-2.28,1.33A5.18,5.18,0,0,0,12,19.5h0a5.33,5.33,0,0,0-3.53,1.36,9.14,9.14,0,0,1-2.28-1.33,5.37,5.37,0,0,0-3.53-6.19A8.54,8.54,0,0,1,2.56,12a8.92,8.92,0,0,1,.1-1.34A5.31,5.31,0,0,0,5.58,8.25a5.4,5.4,0,0,0,.6-3.77A9.1,9.1,0,0,1,8.47,3.14,5.33,5.33,0,0,0,12,4.5h0a5.19,5.19,0,0,0,3.52-1.36,9.17,9.17,0,0,1,2.28,1.34,5.45,5.45,0,0,0,.61,3.77,5.31,5.31,0,0,0,2.92,2.41,8.92,8.92,0,0,1,.1,1.34A8.54,8.54,0,0,1,21.34,13.34Z"/><path class="cls-1" d="M16.24,8.5,16,8.79a3.41,3.41,0,0,1-.38.37l-.37.33a.56.56,0,0,1-.48.22.61.61,0,0,1-.46-.22A.65.65,0,0,1,14.08,9a.69.69,0,0,1,.22-.47c.82-.86.82-.86.75-1l0-.09-.08,0a3,3,0,0,0-3.36.6,3,3,0,0,0-.76,2.93L7.68,14a1.47,1.47,0,0,0,0,2.06,1.41,1.41,0,0,0,1,.43,1.48,1.48,0,0,0,1-.43L12.89,13a3,3,0,0,0,2.93-.76,3,3,0,0,0,.58-3.34ZM15,11.44a1.91,1.91,0,0,1-2.23.32l-.16-.08L9,15.31a.41.41,0,0,1-.25.11.37.37,0,0,1-.27-.12.35.35,0,0,1,0-.51l3.65-3.65L12,11a1.89,1.89,0,0,1,.33-2.23,1.77,1.77,0,0,1,.8-.47,1.76,1.76,0,0,0,2.35,2.33A1.77,1.77,0,0,1,15,11.44Z"/></svg>
