<svg id="图层_1" data-name="图层 1" xmlns="http://www.w3.org/2000/svg" viewBox="0 0 24 24"><defs><style>.cls-1{fill:;}</style></defs><path class="cls-1" d="M20.92,2.62H3.08A1.67,1.67,0,0,0,1.3,4.12V16.76a1.66,1.66,0,0,0,1.78,1.5H20.92a1.66,1.66,0,0,0,1.78-1.5V4.12A1.67,1.67,0,0,0,20.92,2.62ZM21,16.76s-.06.08-.12.08H3.08c-.06,0-.12,0-.12-.08V4.12s0-.07.12-.07H20.92c.07,0,.12,0,.12.07Zm-4.6-7.68h0a1.25,1.25,0,0,1-1-1.5v0a.53.53,0,0,0-.15-.63A4.2,4.2,0,0,0,13.79,6,.45.45,0,0,0,13.55,6a.64.64,0,0,0-.46.21,1.18,1.18,0,0,1-.87.39h-.05a1.41,1.41,0,0,1-.93-.42A.63.63,0,0,0,10.81,6L10.6,6l0,0h0a6,6,0,0,0-1.53.84.54.54,0,0,0-.21.63,1.27,1.27,0,0,1-.12,1A1.32,1.32,0,0,1,8,9.07a.22.22,0,0,0-.14,0,.86.86,0,0,0-.34.39v0a3.94,3.94,0,0,0-.1.9,3.51,3.51,0,0,0,.11.87.55.55,0,0,0,.47.49,1.24,1.24,0,0,1,.8.57,1.17,1.17,0,0,1,.15.93v0A.56.56,0,0,0,9,14a4.28,4.28,0,0,0,1.6.9.25.25,0,0,0,.12,0h.07a.77.77,0,0,0,.47-.2,1.23,1.23,0,0,1,.92-.4,1.41,1.41,0,0,1,.94.42.67.67,0,0,0,.41.2h0a.69.69,0,0,0,.2,0A5.78,5.78,0,0,0,15.31,14a.52.52,0,0,0,.22-.63,1.18,1.18,0,0,1,.08-.94,1.3,1.3,0,0,1,.75-.61l.07,0a.17.17,0,0,0,.13-.05.71.71,0,0,0,.35-.39v0a3.91,3.91,0,0,0,.1-.91,5.89,5.89,0,0,0-.12-.87A.55.55,0,0,0,16.44,9.08Zm-.51,1.85a2.38,2.38,0,0,0-1.18,1,2.21,2.21,0,0,0-.28,1.5,4.2,4.2,0,0,1-.74.43,2.37,2.37,0,0,0-1.46-.53h0a2.36,2.36,0,0,0-1.49.53,3.44,3.44,0,0,1-.77-.43,2.27,2.27,0,0,0-1.49-2.5,3.47,3.47,0,0,1,0-.91A2.23,2.23,0,0,0,10,7.51a4.67,4.67,0,0,1,.76-.43,2.26,2.26,0,0,0,1.44.51,2.22,2.22,0,0,0,1.51-.52,3.34,3.34,0,0,1,.73.43A2.09,2.09,0,0,0,14.71,9a2.24,2.24,0,0,0,1.21,1c0,.13,0,.26,0,.4v.09C16,10.62,16,10.78,15.93,10.93Zm-3.76-2a1.54,1.54,0,0,0-1.61,1.47,1.53,1.53,0,0,0,1.54,1.53,1.54,1.54,0,0,0,1.61-1.47,1.49,1.49,0,0,0-.45-1.08A1.62,1.62,0,0,0,12.17,8.94Zm.33,2.19a.83.83,0,0,1-.62,0,.75.75,0,0,1-.49-.72.76.76,0,0,1,.78-.76h0a.82.82,0,0,1,.76.47A.76.76,0,0,1,12.5,11.13Zm8.9,9.61a.66.66,0,0,1-.67.64H3.65a.65.65,0,1,1,0-1.29H20.73A.66.66,0,0,1,21.4,20.74Z"/></svg>
