<svg id="图层_1" data-name="图层 1" xmlns="http://www.w3.org/2000/svg" viewBox="0 0 24 24"><defs> </defs><title>gongggl</title><path class="cls-1" d="M22.54,15.68H22a.66.66,0,0,1-.59-.44l-.32-.77a.66.66,0,0,1,.11-.73l.39-.39a.48.48,0,0,0,0-.65l-.65-.65a.48.48,0,0,0-.65,0l-.39.39a.66.66,0,0,1-.73.11l-.77-.31a.68.68,0,0,1-.44-.6v-.55a.47.47,0,0,0-.46-.46h-.91a.47.47,0,0,0-.46.46v.55a.68.68,0,0,1-.44.6l-.77.31a.66.66,0,0,1-.73-.11l-.39-.39a.48.48,0,0,0-.65,0l-.64.65a.46.46,0,0,0,0,.65l.38.39a.66.66,0,0,1,.11.73l-.31.77a.67.67,0,0,1-.6.44h-.54a.45.45,0,0,0-.46.45v.92a.46.46,0,0,0,.46.46h.54a.66.66,0,0,1,.6.44l.32.77a.64.64,0,0,1-.11.72l-.39.39a.46.46,0,0,0,0,.65l.65.65a.45.45,0,0,0,.64,0h0l.39-.39a.68.68,0,0,1,.73-.11l.77.32a.67.67,0,0,1,.44.59v.55a.45.45,0,0,0,.46.46h.91a.45.45,0,0,0,.46-.46v-.55a.66.66,0,0,1,.44-.59l.77-.32a.66.66,0,0,1,.73.11l.39.39a.45.45,0,0,0,.64,0h0l.65-.65a.46.46,0,0,0,0-.65l-.39-.39a.64.64,0,0,1-.1-.72L21.4,18a.64.64,0,0,1,.59-.44h.55a.47.47,0,0,0,.46-.46v-.92A.46.46,0,0,0,22.54,15.68ZM17,18.89a2.3,2.3,0,1,1,2.3-2.3A2.3,2.3,0,0,1,17,18.89Z"/><path class="cls-1" d="M19.22,4.71A7.87,7.87,0,0,1,20.11,6a9.43,9.43,0,0,1,1.31,4.86v.37a6.86,6.86,0,0,1,1.25,1.54,10.78,10.78,0,0,0,.16-1.91,10.82,10.82,0,0,0-1.5-5.57,8.7,8.7,0,0,0-1.55-2,.68.68,0,0,0-.51-.17.71.71,0,0,0-.49.23.73.73,0,0,0,.06,1A3.11,3.11,0,0,1,19.22,4.71Z"/><path class="cls-1" d="M16.57,8a6.16,6.16,0,0,1,.48,1.41,7.24,7.24,0,0,1,1.47.21,7.66,7.66,0,0,0-.69-2.24A5.1,5.1,0,0,0,17,6.12a.7.7,0,0,0-1,1A4.29,4.29,0,0,1,16.57,8Z"/><path class="cls-1" d="M13.68,10.15V2.38c0-.78-.63-1.14-1.42-.81L6.63,5.19H3.83A2.81,2.81,0,0,0,1,8H1v5.64a2.8,2.8,0,0,0,2.79,2.82H6.64l3.85,2.47A6.85,6.85,0,0,1,13.68,10.15Z"/></svg>