<svg id="图层_1" data-name="图层 1" xmlns="http://www.w3.org/2000/svg" viewBox="0 0 24 24"><defs><style>.cls-1{fill:#707070;}</style></defs><title></title><path class="cls-1" d="M4.18,5.37h8.89a2.19,2.19,0,0,0,0-4.37H4.18a2.19,2.19,0,0,0,0,4.37Z"/><path class="cls-1" d="M22.06,4.3a1.13,1.13,0,0,0-1.14-1.09,1.11,1.11,0,0,0-1.13,1.1v6.62H17.53V9.82A1.11,1.11,0,0,0,17.2,9a1.14,1.14,0,0,0-.8-.32H15a1.12,1.12,0,0,0-1.14,1.1h0v4.4A1.12,1.12,0,0,0,15,15.33H16.4a1.14,1.14,0,0,0,.8-.32,1.07,1.07,0,0,0,.33-.78v-1.1h2.26v6.61a1.14,1.14,0,0,0,2.27,0V4.31Z"/><rect class="cls-1" x="3.94" y="6.07" width="9.06" height="11.81"/><path class="cls-1" d="M13.07,18.63h-9A2.19,2.19,0,1,0,4.18,23h8.89a2.19,2.19,0,0,0,0-4.37Z"/></svg>
