<svg id="图层_1" data-name="图层 1" xmlns="http://www.w3.org/2000/svg" viewBox="0 0 24 24"><defs> </defs><title>guangsexhgl</title><path class="cls-1" d="M13.27,9.68a2.9,2.9,0,0,0-1-.31H12a2.67,2.67,0,0,0-1.62.54,2.64,2.64,0,0,0-1.09,2.3,1.15,1.15,0,0,0,0,.18A2.79,2.79,0,0,0,10,13.93a2.73,2.73,0,0,0,1.9.89,3,3,0,0,0,.42,0,2.69,2.69,0,0,0,1-.31,2.74,2.74,0,0,0,0-4.81Z"/><path class="cls-1" d="M12,4a8,8,0,1,0,8,8A8,8,0,0,0,12,4Zm4.94,9.07a.61.61,0,0,0-.59.43v0a5.49,5.49,0,0,1-.21.51v0a.64.64,0,0,0,.12.73l.45.45a.35.35,0,0,1,.1.24.33.33,0,0,1-.1.23l-1,1a.36.36,0,0,1-.24.09.32.32,0,0,1-.23-.09l-.45-.46a.64.64,0,0,0-.73-.12h0a3.49,3.49,0,0,1-.34.15l-.16.06h0a.65.65,0,0,0-.43.6,1,1,0,0,1-.91,1h-.23a1,1,0,0,1-1-1,.65.65,0,0,0-.43-.6h0a4.4,4.4,0,0,1-.5-.21h0a.64.64,0,0,0-.73.12l-.44.46a.36.36,0,0,1-.24.09.32.32,0,0,1-.23-.09l-1-1a.33.33,0,0,1-.1-.24.36.36,0,0,1,.09-.24l.45-.45a.57.57,0,0,0,.16-.28.64.64,0,0,0,0-.45v0a5.49,5.49,0,0,1-.21-.51v0a.62.62,0,0,0-.59-.43,1,1,0,0,1-.93-.69.92.92,0,0,1,0-.29v-.17a1,1,0,0,1,1-1,.61.61,0,0,0,.59-.43v0A3.89,3.89,0,0,1,7.87,10v0a.83.83,0,0,0,.06-.21.63.63,0,0,0-.18-.52l-.45-.45a.34.34,0,0,1,0-.48L8,7.64l.35-.35a.32.32,0,0,1,.23-.09.34.34,0,0,1,.24.09l.37.38.07.07a.65.65,0,0,0,.43.19.56.56,0,0,0,.3-.06l0,0c.17-.07.33-.15.51-.21h0A.65.65,0,0,0,10.94,7a1,1,0,0,1,1-1h.16a1.14,1.14,0,0,1,.33.05A1,1,0,0,1,13,7a.64.64,0,0,0,.43.61h0l.17.07.33.14,0,0a.63.63,0,0,0,.72-.13l.45-.45a.32.32,0,0,1,.23-.09.36.36,0,0,1,.24.09l1,1a.36.36,0,0,1,0,.48l-.45.45a.64.64,0,0,0-.13.73v0a5.49,5.49,0,0,1,.21.51v0a.64.64,0,0,0,.6.44,1,1,0,0,1,1,1v.17h0A1,1,0,0,1,16.94,13.08Z"/><path class="cls-1" d="M5.28,6A9.08,9.08,0,0,1,6,5.28L4.27,3.52a.53.53,0,0,0-.75,0,.54.54,0,0,0,0,.76Z"/><path class="cls-1" d="M12.53,3V.55a.54.54,0,1,0-1.07,0V3c.18,0,.36,0,.54,0S12.35,3,12.53,3Z"/><path class="cls-1" d="M20.45,4.3a.54.54,0,0,0,0-.76.53.53,0,0,0-.75,0L18,5.28c.26.24.52.49.75.75Z"/><path class="cls-1" d="M.54,11.47a.54.54,0,1,0,0,1.07H3c0-.17,0-.35,0-.53s0-.36,0-.54Z"/><path class="cls-1" d="M23.46,11.47H21c0,.18,0,.36,0,.54s0,.35,0,.53h2.49a.54.54,0,1,0,0-1.07Z"/><path class="cls-1" d="M18.73,18a9.08,9.08,0,0,1-.76.76l1.74,1.74a.57.57,0,0,0,.38.16.52.52,0,0,0,.38-.16.54.54,0,0,0,0-.76Z"/><path class="cls-1" d="M3.51,19.72a.54.54,0,0,0,0,.76.53.53,0,0,0,.76,0L6,18.73A9,9,0,0,1,5.27,18Z"/><path class="cls-1" d="M11.46,21v2.46a.54.54,0,1,0,1.07,0V21L12,21Z"/></svg>