<svg id="图层_1" data-name="图层 1" xmlns="http://www.w3.org/2000/svg" viewBox="0 0 24 24"><defs> </defs><title>guiweigl</title><path class="cls-1" d="M16.08,7.33a1.17,1.17,0,1,0-1.16-1.16h0A1.16,1.16,0,0,0,16.08,7.33Z"/><circle class="cls-1" cx="8.5" cy="6.17" r="1.17"/><path class="cls-1" d="M8.79,12a.87.87,0,0,0-.87.87v2.34a.88.88,0,0,0,1.75,0V12.87A.88.88,0,0,0,8.79,12Z"/><path class="cls-1" d="M15.79,12a.87.87,0,0,0-.87.87v2.34a.88.88,0,0,0,1.75,0V12.87A.88.88,0,0,0,15.79,12Z"/><path class="cls-1" d="M20.75,1.5H3.25A1.68,1.68,0,0,0,1.5,3.1V21.62a.88.88,0,1,0,1.75,0V20.17h17.5v1.45a.88.88,0,1,0,1.75,0V3.1A1.68,1.68,0,0,0,20.75,1.5Zm0,1.75V8.5H13.17V3.25Zm-9.33,0V8.5H3.25V3.25ZM3.25,18.42V10.25h8.17v8.17Zm9.92,0V10.25h7.58v8.17Z"/></svg>