<svg id="图层_1" data-name="图层 1" xmlns="http://www.w3.org/2000/svg" viewBox="0 0 24 24"><defs></defs><title></title><path class="cls-1" d="M18,6.8a5.8,5.8,0,0,0-11.6,0A5.8,5.8,0,1,0,18,6.8ZM12.2,9.2A2.3,2.3,0,0,1,9.9,6.8a2.3,2.3,0,0,1,4.6,0A2.3,2.3,0,0,1,12.2,9.2Z"/><path class="cls-1" d="M6.9,12.5A5.3,5.3,0,0,0,6.9,23a5.3,5.3,0,1,0,0-10.5Zm0,7a1.8,1.8,0,0,1-1.7-1.7A1.8,1.8,0,0,1,6.9,16a1.8,1.8,0,0,1,1.8,1.8A1.8,1.8,0,0,1,6.9,19.5Z"/><path class="cls-1" d="M22.3,14.1a4.5,4.5,0,0,1-2.1.3,6,6,0,0,1-1.8-.9,6,6,0,0,1-1.8.9,4.5,4.5,0,0,1-2.1-.3,43.8,43.8,0,0,0,.1,4.8c.3,2.1,3.8,3.6,3.8,3.6s3.5-1.5,3.8-3.6A43.8,43.8,0,0,0,22.3,14.1Zm-4.2,5.5-.6-.7h0l-1-1,.6-.7,1,1.1,2.1-2.1.7.6Z"/></svg>
