<svg id="图层_1" data-name="图层 1" xmlns="http://www.w3.org/2000/svg" viewBox="0 0 24 24"><defs><style></style></defs><title>help</title><path class="cls-1" d="M21,6.5H5.6a1.9,1.9,0,0,1-1.8-2A1.8,1.8,0,0,1,5.6,2.6H21c.6,0,.8-.3.8-.8S21.6,1,21,1H5.6A3.5,3.5,0,0,0,2.2,4.5v.4h0V19.1A3.9,3.9,0,0,0,6,23H21c.6,0,.8-.2.8-.8V7.3C21.8,6.7,21.6,6.5,21,6.5ZM11.2,8.1h4.3v4.2L13.9,11a.9.9,0,0,0-1,0l-1.7,1.3Zm9,13.3H6a2.2,2.2,0,0,1-2.2-2.3V7.5a2.8,2.8,0,0,0,1.8.6h4v5.8a.8.8,0,0,0,.8.8l.5-.2,2.5-1.9,2.4,1.9a.8.8,0,0,0,1.3-.6V8.1h3.1Z"/></svg>