<svg id="图层_1" data-name="图层 1" xmlns="http://www.w3.org/2000/svg" viewBox="0 0 24 24"><defs> </defs><title>heweigl</title><path class="cls-1" d="M2.84,7.49,12,12.77l9.16-5.28L12,2.22ZM2.33,8.65v7.6l9,5.15V13.8Zm19.34,0-9,5.15v7.6l9-5.15ZM12,.67,23,7V17L12,23.33,1,17V7Z"/><path class="cls-1" d="M12,23.5.89,17.11V6.89l.08,0L12,.5,23.11,6.89V17.11l-.07,0ZM1.19,16.94,12,23.16l10.81-6.22V7.06L12,.84,1.19,7.06ZM12.5,21.65V13.72l.07-.05L21.82,8.4v7.93l-.08.05Zm.29-7.76v7.25l8.73-5V8.91ZM11.5,21.65l-.22-.12-9.1-5.2V8.4l.22.12,9.1,5.2Zm-9-5.49,8.73,5V13.89l-8.73-5ZM12,12.94l-.07,0L2.55,7.49,12,2.05l.07,0,9.38,5.4ZM3.14,7.49,12,12.6l8.86-5.11L12,2.39Z"/></svg>