<?xml version="1.0" standalone="no"?><!DOCTYPE svg PUBLIC "-//W3C//DTD SVG 1.1//EN" "http://www.w3.org/Graphics/SVG/1.1/DTD/svg11.dtd"><svg t="1547465781572" class="icon" style="" viewBox="0 0 1024 1024" version="1.1" xmlns="http://www.w3.org/2000/svg" p-id="4363" xmlns:xlink="http://www.w3.org/1999/xlink" width="200" height="200"><defs><style type="text/css"></style></defs><path d="M512 963.764706C262.023529 963.764706 60.235294 761.976471 60.235294 512S262.023529 60.235294 512 60.235294s451.764706 201.788235 451.764706 451.764706-201.788235 451.764706-451.764706 451.764706z m0-864.376471C283.105882 99.388235 99.388235 283.105882 99.388235 512S283.105882 924.611765 512 924.611765 924.611765 740.894118 924.611765 512 740.894118 99.388235 512 99.388235z" fill="#009494" p-id="4364"></path><path d="M617.411765 322.258824c24.094118 21.082353 36.141176 51.2 36.141176 87.341176 0 27.105882-9.035294 54.211765-24.094117 72.282353-6.023529 9.035294-24.094118 24.094118-51.2 48.188235-15.058824 12.047059-24.094118 24.094118-30.117648 33.129412-9.035294 15.058824-12.047059 30.117647-12.047058 45.176471v15.058823h-51.2v-15.058823c0-21.082353 3.011765-39.152941 12.047058-54.211765 9.035294-18.070588 30.117647-42.164706 63.247059-72.282353 9.035294-9.035294 18.070588-18.070588 21.082353-24.094118 12.047059-15.058824 18.070588-33.129412 18.070588-48.188235 0-24.094118-9.035294-45.176471-21.082352-57.223529-15.058824-15.058824-36.141176-21.082353-60.235295-21.082353-30.117647 0-54.211765 9.035294-69.270588 30.117647-15.058824 18.070588-21.082353 42.164706-21.082353 72.282353h-48.188235c0-45.176471 12.047059-78.305882 36.141176-105.411765 24.094118-27.105882 60.235294-42.164706 105.411765-42.164706 39.152941 3.011765 72.282353 15.058824 96.376471 36.141177z m-78.305883 361.411764c6.023529 6.023529 12.047059 15.058824 12.047059 27.105883s-3.011765 21.082353-12.047059 27.105882c-9.035294 6.023529-15.058824 12.047059-27.105882 12.047059s-18.070588-3.011765-27.105882-12.047059c-9.035294-9.035294-12.047059-15.058824-12.047059-27.105882s3.011765-18.070588 12.047059-27.105883c9.035294-9.035294 15.058824-12.047059 27.105882-12.047059s21.082353 3.011765 27.105882 12.047059z" fill="#009494" p-id="4365"></path></svg>