<svg id="图层_1" data-name="图层 1" xmlns="http://www.w3.org/2000/svg" viewBox="0 0 24 24"><defs> </defs><title>home</title><path class="cls-1" d="M23.74,10.86,12.54,1.19a.69.69,0,0,0-.93,0L.29,10.84a.74.74,0,0,0,.43,1.33H3.27V19.8a3.25,3.25,0,0,0,.91,2.26A3,3,0,0,0,6.37,23H13.7a2.53,2.53,0,0,0,1.85-.8,2.71,2.71,0,0,0,.77-1.91V14a2.38,2.38,0,0,0-.66-1.65,2.25,2.25,0,0,0-1.61-.69H10a2.25,2.25,0,0,0-1.6.69A2.39,2.39,0,0,0,7.69,14v4a.72.72,0,1,0,1.44,0h0V14a.9.9,0,0,1,.24-.61.84.84,0,0,1,.59-.25h4.09a.84.84,0,0,1,.59.25.86.86,0,0,1,.25.61v6.26a1.24,1.24,0,0,1-.35.87,1.2,1.2,0,0,1-.84.36H6.37A1.61,1.61,0,0,1,5.19,21a1.75,1.75,0,0,1-.49-1.22V11.43A.73.73,0,0,0,4,10.69H2.71l9.35-8,9.25,8H20a.73.73,0,0,0-.72.74V21a.5.5,0,0,1-.14.35.48.48,0,0,1-.34.14h-.18a.74.74,0,0,0,0,1.48h.18a1.85,1.85,0,0,0,1.35-.58A2,2,0,0,0,20.73,21V12.17h2.55a.69.69,0,0,0,.55-.27A.74.74,0,0,0,23.74,10.86Z"/></svg>