<svg id="图层_1" data-name="图层 1" xmlns="http://www.w3.org/2000/svg" viewBox="0 0 24 24"><defs></defs><title>hongkaogcgl</title><path class="cls-1" d="M2.51,17.1H18.06V4.67H2.51ZM4.32,6.53H16.25v8.72H4.32Z"/><path class="cls-1" d="M20.77,4.67a.92.92,0,0,0-.91.93v5.94a.91.91,0,1,0,1.81,0V5.6A.92.92,0,0,0,20.77,4.67Z"/><path class="cls-1" d="M20.77,14.32a.92.92,0,0,0-.91.93v.93a.91.91,0,1,0,1.81,0v-.93A.91.91,0,0,0,20.77,14.32Z"/><path class="cls-2" d="M22.81,17.18a.78.78,0,0,0-.78-.79.48.48,0,0,1-.47-.34v0a3,3,0,0,0-.17-.41h0a.54.54,0,0,1,.1-.59l.36-.36a.27.27,0,0,0,0-.38L21,13.47a.27.27,0,0,0-.19-.08.24.24,0,0,0-.19.08l-.35.36a.5.5,0,0,1-.58.09h0l-.27-.11-.13-.05h0a.5.5,0,0,1-.34-.48.79.79,0,0,0-.52-.74.75.75,0,0,0-.26,0H18a.77.77,0,0,0-.77.78.5.5,0,0,1-.35.48h0a2.9,2.9,0,0,0-.41.16h0a.5.5,0,0,1-.24.06.53.53,0,0,1-.33-.15l-.06-.06-.3-.3a.27.27,0,0,0-.19-.08.24.24,0,0,0-.19.08l-.27.28-.53.53a.27.27,0,0,0,0,.38l.35.36a.47.47,0,0,1,.15.42.33.33,0,0,1,0,.16v0c-.06.13-.11.27-.16.41v0a.51.51,0,0,1-.48.34.78.78,0,0,0-.77.78v.13a.93.93,0,0,0,0,.24.78.78,0,0,0,.74.55.51.51,0,0,1,.48.34v0a2.9,2.9,0,0,0,.16.41h0a.53.53,0,0,1,0,.37.5.5,0,0,1-.13.22l-.36.36a.27.27,0,0,0,0,.38l.81.81a.27.27,0,0,0,.19.08.29.29,0,0,0,.19-.08l.35-.36a.52.52,0,0,1,.58-.1h0a2.83,2.83,0,0,0,.4.17h0a.5.5,0,0,1,.34.48A.78.78,0,0,0,18,22h.18a.79.79,0,0,0,.73-.78.51.51,0,0,1,.34-.48h0l.13-.05a2.21,2.21,0,0,0,.27-.12h0a.52.52,0,0,1,.58.1l.36.36a.26.26,0,0,0,.19.08A.25.25,0,0,0,21,21l.82-.81a.32.32,0,0,0,.07-.19.27.27,0,0,0-.08-.19l-.35-.36a.5.5,0,0,1-.1-.59h0a2.37,2.37,0,0,0,.17-.41v0a.51.51,0,0,1,.48-.34.78.78,0,0,0,.77-.78h0Zm-3.7,2a2.32,2.32,0,0,1-.77.25H18a2.14,2.14,0,0,1-1.52-.71,2.23,2.23,0,0,1-.55-1.24.76.76,0,0,1,0-.15,2.24,2.24,0,0,1,.52-1.51,2.6,2.6,0,0,1,.35-.32,2.17,2.17,0,0,1,1.29-.43h.26a2.3,2.3,0,0,1,.77.24,2.2,2.2,0,0,1,0,3.85ZM23.48,2.94V13.76a6.56,6.56,0,0,0-2-2.36.94.94,0,0,0,.36-.73v-6a.92.92,0,1,0-1.84,0v5.94a6.58,6.58,0,0,0-1.84-.42V3.7H2.36V16.33H11c0,.13,0,.26,0,.4a6.54,6.54,0,0,0,.23,1.67H6.77v.94a.92.92,0,1,1-1.84,0V18.4H1.44a.93.93,0,0,1-.92-.94V2.94A.93.93,0,0,1,1.44,2H22.56A.93.93,0,0,1,23.48,2.94Zm-7.16,7.31a6.62,6.62,0,0,0-4.92,4.19H4.19V5.58H16.32Z"/></svg>