<svg id="图层_1" data-name="图层 1" xmlns="http://www.w3.org/2000/svg" viewBox="0 0 24 24"><defs></defs><title></title><path class="cls-1" d="M20.8,9.2V1.6H19V9.2A2.6,2.6,0,0,0,19,14v7.6h1.8V14a2.5,2.5,0,0,0,0-4.8Z"/><path class="cls-1" d="M2.6,1.6v12a5.2,5.2,0,0,1,2.7-1V7l3,2.3,3.1,2.3L8.9,13.5a5,5,0,0,1,1.9,1.9l5-3.8-6.6-5Z"/><path class="cls-1" d="M6,13.4a4.5,4.5,0,1,0,4.5,4.5A4.5,4.5,0,0,0,6,13.4Zm0,8a3.5,3.5,0,0,1-3.5-3.5A3.5,3.5,0,0,1,6,14.4a3.5,3.5,0,0,1,3.5,3.5A3.5,3.5,0,0,1,6,21.4Z"/><rect class="cls-1" x="5.5" y="15.4" width="1" height="3"/><rect class="cls-1" x="5.5" y="19.4" width="1" height="1"/></svg>
