<svg id="图层_1" data-name="图层 1" xmlns="http://www.w3.org/2000/svg" viewBox="0 0 24 24"><defs></defs><title>houdlckgl</title><path class="cls-1" d="M7.1,16.07a2.09,2.09,0,0,0-.78-.24l-.25,0a2.1,2.1,0,0,0-1.3.44,1.78,1.78,0,0,0-.35.32,2.23,2.23,0,0,0-.53,1.53.61.61,0,0,0,0,.14,2.15,2.15,0,0,0,.56,1.25A2.12,2.12,0,0,0,6,20.21a1.9,1.9,0,0,0,.34,0A2.3,2.3,0,0,0,7.1,20a2.21,2.21,0,0,0,0-3.88Z"/><path class="cls-2" d="M21,8.9V1.25H19.21V8.9a2.55,2.55,0,0,0,0,4.76v7.66H21V13.66A2.55,2.55,0,0,0,21,8.9Z"/><path class="cls-2" d="M10.82,17.89A.78.78,0,0,0,10,17.1a.5.5,0,0,1-.48-.35v0a3.56,3.56,0,0,0-.17-.41h0a.5.5,0,0,1,.1-.59l.36-.37a.29.29,0,0,0,0-.38L9,14.15a.27.27,0,0,0-.38,0l-.36.36a.49.49,0,0,1-.58.1h0l-.27-.12-.14-.05h0a.52.52,0,0,1-.35-.49.78.78,0,0,0-.51-.74.76.76,0,0,0-.27,0H6a.79.79,0,0,0-.78.79.52.52,0,0,1-.34.49h0l-.41.17h0a.45.45,0,0,1-.25.05.53.53,0,0,1-.34-.15l-.06-.06-.29-.3a.29.29,0,0,0-.19-.08.27.27,0,0,0-.19.08l-.28.28L2.3,15a.29.29,0,0,0,0,.38l.37.37a.5.5,0,0,1,.14.42.47.47,0,0,1,0,.16v0a3,3,0,0,0-.17.41v0a.5.5,0,0,1-.48.35.78.78,0,0,0-.78.79V18a.85.85,0,0,0,0,.23.77.77,0,0,0,.74.56.5.5,0,0,1,.48.35h0a3,3,0,0,0,.17.41v0a.56.56,0,0,1,0,.36.48.48,0,0,1-.13.23l-.36.36a.27.27,0,0,0-.08.19.3.3,0,0,0,.08.2l.81.82a.28.28,0,0,0,.19.07.26.26,0,0,0,.19-.07l.36-.37a.52.52,0,0,1,.58-.1h0l.41.17h0a.5.5,0,0,1,.35.48.78.78,0,0,0,.78.79h.18A.8.8,0,0,0,6.93,22a.5.5,0,0,1,.34-.48h0l.13,0,.27-.12h0a.52.52,0,0,1,.58.1l.36.37a.28.28,0,0,0,.19.07A.25.25,0,0,0,9,21.76l.82-.83a.27.27,0,0,0,0-.38l-.36-.36a.51.51,0,0,1-.1-.59v0a2.9,2.9,0,0,0,.16-.41v0a.51.51,0,0,1,.48-.34.78.78,0,0,0,.78-.79h0ZM7.1,20a2.3,2.3,0,0,1-.78.25,1.9,1.9,0,0,1-.34,0,2.12,2.12,0,0,1-1.52-.72,2.15,2.15,0,0,1-.56-1.25.61.61,0,0,1,0-.14,2.23,2.23,0,0,1,.53-1.53,1.78,1.78,0,0,1,.35-.32,2.1,2.1,0,0,1,1.3-.44l.25,0a2.09,2.09,0,0,1,.78.24A2.21,2.21,0,0,1,7.1,20Z"/><path class="cls-2" d="M2.81,1.25v12a5.64,5.64,0,0,1,2.64-1V6.65L8.5,9l3.06,2.31L9.12,13.13a5.9,5.9,0,0,1,1.89,2l5-3.81-6.6-5Z"/></svg>