<svg id="图层_1" data-name="图层 1" xmlns="http://www.w3.org/2000/svg" viewBox="0 0 24 24"><defs></defs><title>houtaim</title><path class="cls-1" d="M21.63,17.5a.69.69,0,0,1-.69-.69V12a.69.69,0,0,0-.69-.69H13.38a.69.69,0,0,1-.69-.68V8.3a.69.69,0,0,1,.69-.69h1.25a.67.67,0,0,0,.68-.68V1.69A.68.68,0,0,0,14.63,1H9.37a.68.68,0,0,0-.68.69V6.93a.67.67,0,0,0,.68.68h1.26a.69.69,0,0,1,.68.69v2.33a.69.69,0,0,1-.68.68H3.75a.69.69,0,0,0-.69.69v4.8a.68.68,0,0,1-.67.7h-.7a.69.69,0,0,0-.69.69v4.12a.69.69,0,0,0,.69.69H5.81a.69.69,0,0,0,.69-.69V18.19a.69.69,0,0,0-.69-.69H5.13a.69.69,0,0,1-.69-.69V13.38a.69.69,0,0,1,.69-.69h5.5a.69.69,0,0,1,.68.69V16.8a.68.68,0,0,1-.67.7H9.92a.68.68,0,0,0-.68.69v4.12a.68.68,0,0,0,.68.69h4.13a.69.69,0,0,0,.69-.69V18.19a.69.69,0,0,0-.69-.69h-.67a.69.69,0,0,1-.69-.69V13.38a.69.69,0,0,1,.69-.69h5.5a.69.69,0,0,1,.68.69V16.8a.69.69,0,0,1-.68.69h-.69a.68.68,0,0,0-.69.68V22.3a.69.69,0,0,0,.69.69h4.12A.69.69,0,0,0,23,22.3V18.17a.68.68,0,0,0-.69-.68Z"/></svg>
