<svg id="图层_1" data-name="图层 1" xmlns="http://www.w3.org/2000/svg" viewBox="0 0 24 24"><defs></defs><title>huanjyc</title><path class="cls-1" d="M10.8,12.2h0l-.6-.4H9.5a.6.6,0,0,0-.6.5.6.6,0,0,0,.6.6h.3a1,1,0,0,1,.4.5.1.1,0,0,1,0,.2v6.2a.6.6,0,0,0,.6.6h0a.6.6,0,0,0,.6-.5V13.5a1.9,1.9,0,0,0-.2-.7Z"/><path class="cls-1" d="M14.5,11.7a.6.6,0,0,0,.8-.3.5.5,0,0,0-.3-.7,2,2,0,0,0-1.5,0l-.6.4a1.5,1.5,0,0,0-.4.6,1.7,1.7,0,0,0-.1.7v7.3c0,.4.2.6.5.6h.4a.8.8,0,0,0,.2-.4h0V12.4a.4.4,0,0,1,.1-.3c0-.2.2-.3.4-.4Z"/><path class="cls-1" d="M12,1A11,11,0,1,0,23,12,11,11,0,0,0,12,1Zm0,20.3A9.3,9.3,0,1,1,21.3,12,9.3,9.3,0,0,1,12,21.3Z"/><path class="cls-1" d="M18.5,10.7h0a1.4,1.4,0,0,0-.2-.6,1.5,1.5,0,0,0-.4-.6c-.2-.2-.3-.4-.5-.5l-.6-.5-.7-.3L15.4,8h-.5l-.3-.5-.4-.5-.4-.3a1,1,0,0,0-.5-.4l-.5-.2-.6-.2H10.9l-.7.2-.6.3a1,1,0,0,0-.5.4l-.5.5-.3.6a1.4,1.4,0,0,0-.2.6.4.4,0,0,0-.1.3H7.8L7.3,9a3.3,3.3,0,0,0-1,.6l-.4.5a2.1,2.1,0,0,0-.4,1,1.5,1.5,0,0,0-.1.7,1.3,1.3,0,0,0,.1.6,1.4,1.4,0,0,0,.2.6l.3.5.5.5a1,1,0,0,0,.5.4l.6.3H8.9a.5.5,0,0,0,.6-.6c0-.3-.2-.5-.6-.5H8l-.4-.2-.4-.2-.3-.4-.2-.3c-.1-.1-.1-.2-.1-.4s-.1-.2-.1-.4a.4.4,0,0,1,.1-.3.6.6,0,0,1,.1-.4l.2-.3.2-.3.3-.2.4-.2.4-.2h.9V9.2a.9.9,0,0,1,.1-.5V8.3l.3-.5.3-.3.4-.3.4-.2.4-.2h1.4l.3.2.4.2.3.3.2.3a.8.8,0,0,1,.2.4l.2.4v.4h1.1l.5.2.5.2.4.3.4.4.2.3.2.5v.9c-.1.1-.1.3-.2.4s-.1.3-.2.4l-.4.3-.4.3-.5.3H14.7c-.4,0-.6.2-.6.5a.6.6,0,0,0,.6.6h.7a3.4,3.4,0,0,0,1.4-.5l.6-.4c.2-.1.3-.3.5-.5l.4-.6a1.4,1.4,0,0,0,.2-.6,2.2,2.2,0,0,0,.1-.8A2,2,0,0,0,18.5,10.7Z"/></svg>