<svg id="图层_1" data-name="图层 1" xmlns="http://www.w3.org/2000/svg" viewBox="0 0 24 24"><defs></defs><title>rukujl</title><path class="cls-1" d="M11,10.42c0,.4-.22.72-.49.72H7c-.26,0-.48-.32-.48-.72v0c0-.39.22-.71.48-.71h3.54c.27,0,.49.32.49.71Zm0-2.83c0-.39-.22-.72-.49-.72H7c-.26,0-.48.33-.48.72v0c0,.39.22.71.48.71h3.54c.27,0,.49-.32.49-.71Zm-.49,4.91H7c-.26,0-.48.32-.48.71v0c0,.39.22.71.48.71h3.54c.27,0,.49-.32.49-.71v0C11,12.82,10.78,12.5,10.51,12.5ZM5.78,10.4c0-.39-.22-.71-.49-.71h-1c-.27,0-.49.32-.49.71v0c0,.4.22.72.49.72h1c.27,0,.49-.32.49-.72Zm0-2.81c0-.39-.22-.72-.49-.72h-1c-.27,0-.49.33-.49.72v0c0,.39.22.71.49.71h1c.27,0,.49-.32.49-.71ZM5.29,12.5h-1c-.27,0-.49.32-.49.71v0c0,.39.22.71.49.71h1c.27,0,.49-.32.49-.71v0C5.78,12.82,5.56,12.5,5.29,12.5Zm5.22,2.81H7c-.26,0-.48.32-.48.72v0c0,.39.22.71.48.71h3.54c.27,0,.49-.32.49-.71v0C11,15.63,10.78,15.31,10.51,15.31Zm-5.22,0h-1c-.27,0-.49.32-.49.72v0c0,.39.22.71.49.71h1c.27,0,.49-.32.49-.71v0C5.78,15.63,5.56,15.31,5.29,15.31Zm17.26-6v2.59H20.64V10.73H12.5V2.59H2.74V21.17h8.9v2H.83V.67H13.94Zm-2.2.48L13.46,2.88V9.77Zm-3,13.56L18.77,22l-.67-.76-2.1-2h7.17V17.29H16l2.1-2,.67-.67-1.43-1.44-5,5.08Z"/></svg>
