<svg id="图层_1" data-name="图层 1" xmlns="http://www.w3.org/2000/svg" viewBox="0 0 24 24"><defs></defs><title>ipqc</title><path class="cls-1" d="M9.1,12.6a1.3,1.3,0,0,0,0,2,1.4,1.4,0,0,0,1.6.3l1.8,1.9a1.4,1.4,0,0,0,1,1.7,1.3,1.3,0,0,0,1.7-.9,1.5,1.5,0,0,0-.9-1.8,1.4,1.4,0,0,0-.9.1l-1.9-2v-.5l1.8-1.8a1.5,1.5,0,0,0,1.9-.7A1.6,1.6,0,0,0,14.4,9a1.7,1.7,0,0,0-1.2.1L11.5,7.3a1.4,1.4,0,0,0-1-1.8,1.6,1.6,0,0,0-1.8.9,1.4,1.4,0,0,0,1,1.8,1.4,1.4,0,0,0,.9,0l1.9,1.9a.4.4,0,0,0,0,.5l-1.8,1.8A1.4,1.4,0,0,0,9.1,12.6Z"/><path class="cls-1" d="M21.8,3.1,17.3,1.8C12.6.5,12.2.5,12,.5h0c-.2,0-.6,0-5.3,1.3L2.2,3.1a1.1,1.1,0,0,0-.9,1.1v7.1a11.9,11.9,0,0,0,.9,4.4,15.8,15.8,0,0,0,2.4,3.9A10,10,0,0,0,12,23.5V21.9c-2.1,0-4.3-1.3-6.2-3.4A11.5,11.5,0,0,1,3,11.3V4.6l9-2.5,9,2.5v6.7a11.5,11.5,0,0,1-2.8,7.2c-1.9,2.1-4.1,3.4-6.2,3.4v1.6a10,10,0,0,0,7.4-3.9,15.8,15.8,0,0,0,2.4-3.9,11.9,11.9,0,0,0,.9-4.4V4.2A1.1,1.1,0,0,0,21.8,3.1Z"/></svg>