<svg id="图层_1" data-name="图层 1" xmlns="http://www.w3.org/2000/svg" viewBox="0 0 24 24"><defs></defs><title>iqc</title><polygon class="cls-1" points="16 2 0 2 0 21 1.5 21 1.5 4.5 16 4.5 16 2"/><path class="cls-1" d="M15.1,9.2a4.8,4.8,0,0,0-.4,1.8v2.4a4.8,4.8,0,0,0,.4,1.8,2.3,2.3,0,0,0,1.1,1.1l.7.4h1a3.3,3.3,0,0,0,1.5-.3,2.9,2.9,0,0,0,1.1-1.1,3.8,3.8,0,0,0,.6-1.6H19.4l-.3.7-.5.5-.7.2-.8-.2-.5-.6a2.2,2.2,0,0,1-.1-.9V11a2.8,2.8,0,0,1,.1-.9c.2-.2.3-.4.5-.5a1.2,1.2,0,0,1,.8-.2h.7l.5.5.3.8h1.7a4.3,4.3,0,0,0-.6-1.7,2.7,2.7,0,0,0-1.1-1,2.4,2.4,0,0,0-1.5-.4,3.3,3.3,0,0,0-1.7.4A2.9,2.9,0,0,0,15.1,9.2Z"/><rect class="cls-1" x="3.2" y="7.8" width="1.7" height="8.83"/><path class="cls-1" d="M9.8,16.7a3.3,3.3,0,0,0,1.7-.4l.4-.3,1,.8.9-1.1-1.1-.9a2.8,2.8,0,0,0,.3-1.3V11a3.1,3.1,0,0,0-.4-1.7,3.2,3.2,0,0,0-1.1-1.2,3.3,3.3,0,0,0-1.7-.4,3.3,3.3,0,0,0-1.7.4A2.5,2.5,0,0,0,7,9.3,3.1,3.1,0,0,0,6.6,11v2.5A3.3,3.3,0,0,0,7,15.2a2,2,0,0,0,1.1,1.1A3.3,3.3,0,0,0,9.8,16.7ZM8.3,10.9a1.9,1.9,0,0,1,.2-.8L9,9.6a1.1,1.1,0,0,1,.8-.2,1.1,1.1,0,0,1,.8.2,1.2,1.2,0,0,1,.5.5,1.9,1.9,0,0,1,.2.8v2.8l-.9-.6-.9,1.1,1,.7-.7.2L9,14.9c-.2-.2-.4-.3-.5-.6a1.9,1.9,0,0,1-.2-.8Z"/><polygon class="cls-1" points="22.5 3 22.5 19.5 8 19.5 8 22 24 22 24 3 22.5 3"/></svg>