<svg id="图层_1" data-name="图层 1" xmlns="http://www.w3.org/2000/svg" viewBox="0 0 24 24"><defs> </defs><title></title><path class="cls-1" d="M22.89,17.36a.74.74,0,0,0-.75-.75.5.5,0,0,1-.46-.34h0c-.05-.14-.1-.27-.16-.4h0a.51.51,0,0,1,.1-.57l.34-.34a.26.26,0,0,0,.07-.19.26.26,0,0,0-.07-.18l-.78-.78a.27.27,0,0,0-.18-.08.23.23,0,0,0-.18.08l-.35.34a.49.49,0,0,1-.56.1h0l-.26-.11-.13,0h0a.47.47,0,0,1-.33-.46.75.75,0,0,0-.49-.71.69.69,0,0,0-.25,0h-.13a.74.74,0,0,0-.74.75.49.49,0,0,1-.33.46h0a3.2,3.2,0,0,0-.39.16h0a.52.52,0,0,1-.24,0,.48.48,0,0,1-.32-.15l-.06-.05-.29-.29a.23.23,0,0,0-.18-.08.27.27,0,0,0-.18.08l-.26.27-.51.51a.27.27,0,0,0-.08.18.27.27,0,0,0,.08.19l.34.34a.49.49,0,0,1,.14.41.53.53,0,0,1,0,.16h0a3.2,3.2,0,0,0-.16.39v0a.48.48,0,0,1-.46.33.75.75,0,0,0-.74.75v.13a.73.73,0,0,0,0,.22.76.76,0,0,0,.71.54.47.47,0,0,1,.46.33v0a2.54,2.54,0,0,0,.16.38v0a.53.53,0,0,1,0,.35.46.46,0,0,1-.13.21l-.34.35a.26.26,0,0,0-.07.18.26.26,0,0,0,.07.19l.78.78a.27.27,0,0,0,.36,0l.34-.35a.49.49,0,0,1,.56-.09h0a3.52,3.52,0,0,0,.39.16h0a.5.5,0,0,1,.33.47.76.76,0,0,0,.75.75h.18a.76.76,0,0,0,.7-.75.5.5,0,0,1,.33-.47h0l.13-.05.26-.11h0a.49.49,0,0,1,.56.09l.34.35a.27.27,0,0,0,.36,0l.78-.79a.23.23,0,0,0,.08-.18A.25.25,0,0,0,22,19.9l-.34-.35a.49.49,0,0,1-.1-.56v0a2.66,2.66,0,0,0,.16-.39h0a.48.48,0,0,1,.46-.33.75.75,0,0,0,.74-.76h0Zm-3.56,2a2.13,2.13,0,0,1-.74.23,1.83,1.83,0,0,1-.33,0,2.1,2.1,0,0,1-2-1.88.71.71,0,0,1,0-.14,2.09,2.09,0,0,1,.51-1.46,2.42,2.42,0,0,1,.33-.31,2.07,2.07,0,0,1,1.24-.41h.25a2.11,2.11,0,0,1,.74,3.94Z"/><polygon class="cls-1" points="16.81 6.17 13.48 9.47 10.16 6.17 8.82 7.49 4.83 11.46 6.16 12.78 10.16 8.81 12.15 10.79 13.48 12.12 18.14 7.49 16.81 6.17"/><path class="cls-1" d="M22.06,2H1.94A1.71,1.71,0,0,0,.27,3.73V17.6a1.71,1.71,0,0,0,1.67,1.73H7v1.73h6.67A6,6,0,0,1,13,18.42a5.55,5.55,0,0,1,.07-.82H1.94V3.73H22.06v10a5.8,5.8,0,0,1,1.67,2.12V3.73A1.71,1.71,0,0,0,22.06,2Z"/></svg>
