<svg id="图层_1" data-name="图层 1" xmlns="http://www.w3.org/2000/svg" viewBox="0 0 24 24"><defs> </defs><title></title><path class="cls-1" d="M22,17.72A10.74,10.74,0,0,1,17.76,22a11.64,11.64,0,0,1-11.5,0A10.76,10.76,0,0,1,2,17.72,11.54,11.54,0,0,1,.45,12,11.67,11.67,0,0,1,2,6.24,10.67,10.67,0,0,1,6.33,2,11.87,11.87,0,0,1,12,.5,11.9,11.9,0,0,1,17.69,2,10.62,10.62,0,0,1,22,6.24a11.5,11.5,0,0,1,0,11.48ZM20.34,7.2a8.85,8.85,0,0,0-3.6-3.55,9.66,9.66,0,0,0-9.47,0A8.85,8.85,0,0,0,3.67,7.2a9.49,9.49,0,0,0,0,9.57,9.06,9.06,0,0,0,3.58,3.55,9.67,9.67,0,0,0,9.58,0,8.94,8.94,0,0,0,3.56-3.55A9.63,9.63,0,0,0,21.64,12,9.74,9.74,0,0,0,20.34,7.2Zm-9.12,12c-1.67-2.64-3.63-4.65-5-5.27l3.23-2.52L11,15.33s2.55-7.91,6.56-10.55c-.1,1.88-.49,3.51.2,5.52C16,10.81,12.39,16.46,11.22,19.22Z"/></svg>
