<svg id="图层_1" data-name="图层 1" xmlns="http://www.w3.org/2000/svg" viewBox="0 0 24 24"><defs> </defs><title>jianyansz</title><path class="cls-1" d="M22.25,17.45l-.95-.19a.33.33,0,0,1-.23-.2A2,2,0,0,0,21,16.8a.32.32,0,0,1,0-.3l.54-.81a.3.3,0,0,0,0-.39L21,14.78a.3.3,0,0,0-.39,0l-.8.54a.34.34,0,0,1-.31,0l-.26-.11A.31.31,0,0,1,19,15l-.19-1a.31.31,0,0,0-.3-.25h-.74a.32.32,0,0,0-.3.25l-.19,1a.3.3,0,0,1-.2.23l-.26.11a.32.32,0,0,1-.3,0l-.81-.54a.3.3,0,0,0-.39,0l-.52.52a.32.32,0,0,0,0,.39l.54.81a.29.29,0,0,1,0,.3,2,2,0,0,0-.1.26.35.35,0,0,1-.24.2l-1,.19a.31.31,0,0,0-.25.3v.74a.31.31,0,0,0,.25.3L15,19a.33.33,0,0,1,.24.2,2,2,0,0,0,.1.26.29.29,0,0,1,0,.3l-.54.81a.32.32,0,0,0,0,.39l.52.52a.3.3,0,0,0,.39,0l.81-.54a.3.3,0,0,1,.3,0l.26.11a.3.3,0,0,1,.2.23l.19.95a.32.32,0,0,0,.3.25h.74a.32.32,0,0,0,.31-.25l.19-.95a.28.28,0,0,1,.2-.23l.25-.11a.31.31,0,0,1,.31,0l.8.54a.32.32,0,0,0,.4,0l.51-.52a.29.29,0,0,0,0-.39L21,19.74a.3.3,0,0,1,0-.3c0-.09.08-.17.11-.26a.31.31,0,0,1,.23-.2l.95-.19a.31.31,0,0,0,.25-.3v-.74A.31.31,0,0,0,22.25,17.45Zm-2.79,2A1.86,1.86,0,1,1,20,18.12,1.86,1.86,0,0,1,19.46,19.44ZM21.12,6.56a1.75,1.75,0,0,0,0-2.47h0L19.89,2.86a1.75,1.75,0,0,0-2.47,0h0L16.19,4.09l3.7,3.7ZM15,5.33,3.24,17v3.69h3.7L18.65,9ZM1.5,5.22l3.7-3.7,6.16,6.17-3.7,3.69Z"/></svg>