<svg id="图层_1" data-name="图层 1" xmlns="http://www.w3.org/2000/svg" viewBox="0 0 24 24"><defs></defs><title>jiaosm</title><path class="cls-1" d="M13.88,10.39a7.45,7.45,0,0,1,3.64-.73,7.41,7.41,0,0,0,.36-4A5.75,5.75,0,0,0,11.22.93c-3.13.56-5.78,3-5.22,6.15A10.35,10.35,0,0,0,6.84,9.6L1.15,17.8A1.82,1.82,0,0,0,.89,19l.24,1.4c-.23-1.35.07.49.25.48l1.87,0a1.69,1.69,0,0,0,1-.68l2.25-3.52,0,0,2,.15,2.62-4.11A6.38,6.38,0,0,1,13.88,10.39Zm-11.19,8-.49.31.11-.56,5.34-7.63.37.26Zm8-14.25a2.7,2.7,0,0,1,3.78-.67,2.76,2.76,0,0,1,.67,3.82c-.86,1.24-1.74.37-3-.5S9.8,5.36,10.66,4.11Z"/><path class="cls-1" d="M23.13,18.07V16.32L21.59,16h0a4.46,4.46,0,0,0-.45-1.11L22,13.6h0l-1.23-1.23h0l-1.31.87a4.58,4.58,0,0,0-1.1-.46l-.31-1.54H16.3L16,12.77a4.55,4.55,0,0,0-1.1.45l-1.3-.86L12.34,13.6l.87,1.3A4.14,4.14,0,0,0,12.75,16l-1.54.31v1.75l1.54.31a4.46,4.46,0,0,0,.45,1.11l-.87,1.31L13.57,22l1.31-.87a4.55,4.55,0,0,0,1.1.45l.32,1.54h1.75l.31-1.54a4.55,4.55,0,0,0,1.1-.45l1.31.87h0L22,20.8h0l-.87-1.31a4.46,4.46,0,0,0,.45-1.11Zm-6,1.19h0a2.07,2.07,0,1,1,2.08-2.06A2.07,2.07,0,0,1,17.17,19.26Z"/></svg>
