<svg id="图层_1" data-name="图层 1" xmlns="http://www.w3.org/2000/svg" viewBox="0 0 24 24"><defs> </defs><title></title><path class="cls-1" d="M21.78,9H17.94l1.79-2.75c.3-.5-.35-.75-.8-.75H18a2.44,2.44,0,0,1,1.69-2.65c.6-.2,1.5,0,1.6-.8.15-.35.35-1.25-.25-1.35a8.66,8.66,0,0,0-5,.35c-1.65.85-2,2.7-2,4.45-.39,0-2.19-.15-1.59.75L14.24,9h-12a1.47,1.47,0,0,0-1.5,1.5V22a1.5,1.5,0,0,0,1.5,1.5H21.73A1.5,1.5,0,0,0,23.22,22V10.5A1.4,1.4,0,0,0,21.78,9ZM13.89,6.55h1.35c-.2-1.5-.3-3.55,1.2-4.45a4.81,4.81,0,0,1,2-.55c.2-.05,2.05-.05,2,.2a3.57,3.57,0,0,0-3.29,3.5c0,.2-.15,1.15.1,1.3a2.43,2.43,0,0,0,.6,0h.59L16.84,9.05l-.65,1-.65-1Zm1.85,4.69-.05,0h0ZM6.81,11a.5.5,0,0,1,.5-.5.51.51,0,0,1,.5.5h0a.5.5,0,0,1-.5.5.5.5,0,0,1-.5-.5Zm-2,0a.51.51,0,0,1,.5-.5.5.5,0,0,1,.5.5h0a.5.5,0,0,1-.5.5.5.5,0,0,1-.5-.5Zm-2,0a.5.5,0,0,1,.5-.5.51.51,0,0,1,.5.5.5.5,0,0,1-.5.5.5.5,0,0,1-.5-.5Zm-.55-1h0a.52.52,0,0,0-.23.05A.41.41,0,0,1,2.27,10Zm20,12a.54.54,0,0,1-.5.5H2.27a.54.54,0,0,1-.5-.5V12H22.23Z"/><path class="cls-1" d="M4.76,16.55A.45.45,0,0,1,5,16.5H10.8a1.56,1.56,0,0,0,1-.45,1.45,1.45,0,0,0,0-2.1,1.36,1.36,0,0,0-1-.45H5a1.18,1.18,0,0,0-.64.2,1,1,0,0,0-.3.7v1A2.26,2.26,0,0,1,3.32,17,2.32,2.32,0,0,0,4.76,16.55Z"/></svg>
