<svg id="图层_1" data-name="图层 1" xmlns="http://www.w3.org/2000/svg" viewBox="0 0 24 24"><defs> </defs><path class="cls-1" d="M11.79,23.59H2a1.92,1.92,0,0,1-1.88-2V2.37A1.92,1.92,0,0,1,2,.41H16.24a1.92,1.92,0,0,1,1.88,2V9.22a1,1,0,0,1-1,1,1,1,0,0,1-.94-1V2.37H2.2V21.54h9.67a1,1,0,0,1,1,1A1.05,1.05,0,0,1,11.79,23.59ZM14.7,6.91V4.17c0-.17-.09-.6-1-.6H4.6c-.86,0-1,.34-1,.6V7c0,.18.09.6,1,.6h9.07C14.61,7.59,14.7,7.17,14.7,6.91ZM4.51,4.6h9.16v2H4.51ZM4,10.76a1.2,1.2,0,0,0,2.4,0h0a1.2,1.2,0,0,0-2.4,0Zm3.94,0a1.2,1.2,0,1,0,2.39,0h0a1.2,1.2,0,1,0-2.39,0Zm3.85,0a1.2,1.2,0,1,0,2.39,0h0a1.2,1.2,0,1,0-2.39,0ZM4,14.44a1.2,1.2,0,0,0,2.4,0h0a1.2,1.2,0,0,0-2.4,0Zm3.94,0a1.2,1.2,0,1,0,1.19-1.2A1.19,1.19,0,0,0,7.94,14.44ZM4,18.46a1.2,1.2,0,0,0,2.4,0h0a1.2,1.2,0,0,0-2.4,0Zm3.94,0a1.2,1.2,0,1,0,1.19-1.2,1.19,1.19,0,0,0-1.19,1.2Zm15.91-.86a5.82,5.82,0,0,0-11.64,0,5.82,5.82,0,0,0,11.64,0Zm-1,0A4.79,4.79,0,1,1,18,12.81,4.79,4.79,0,0,1,22.82,17.6Zm-2.22,0a.56.56,0,0,0-.51-.51H16a.52.52,0,0,0,0,1h4.11A.56.56,0,0,0,20.6,17.6Zm0-1.77a.56.56,0,0,0-.51-.51H16a.52.52,0,0,0,0,1h4.11A.56.56,0,0,0,20.6,15.83Zm0,3.54a.56.56,0,0,0-.51-.51H16a.52.52,0,0,0,0,1h4.11A.56.56,0,0,0,20.6,19.37Z"/></svg>
