<svg id="图层_1" data-name="图层 1" xmlns="http://www.w3.org/2000/svg" viewBox="0 0 24 24"><defs> </defs><title></title><path class="cls-1" d="M5.86,15.08H4.79a.79.79,0,1,0,0,1.57H5.86a.79.79,0,0,0,0-1.57Z"/><path class="cls-1" d="M9,12.91a.78.78,0,0,0-.79-.78H4.79a.78.78,0,0,0-.79.78.79.79,0,0,0,.79.79H8.21A.79.79,0,0,0,9,12.91Z"/><path class="cls-1" d="M5.86,18H4.79a.78.78,0,0,0-.79.78.79.79,0,0,0,.79.79H5.86a.79.79,0,0,0,.78-.79A.78.78,0,0,0,5.86,18Z"/><path class="cls-1" d="M2.58,2.58h11V8.85h4.72v1.6h1.58V7.3L13.57,1h-11A1.55,1.55,0,0,0,1,2.58V21.42A1.55,1.55,0,0,0,2.52,23h7.9V21.42H2.58ZM15.15,4.15,18.29,7.3H15.14Z"/><path class="cls-1" d="M22.4,15.41c-1.33-1.27-4-3.4-7.26-3.4s-5.94,2.13-7.27,3.4a1.76,1.76,0,0,0,0,2.65c1.33,1.27,4.05,3.4,7.27,3.4s5.93-2.13,7.26-3.4A1.76,1.76,0,0,0,22.4,15.41Zm-1.08,1.5c-1.16,1.11-3.51,3-6.18,3s-5-1.86-6.19-3a.3.3,0,0,1-.11-.18A.32.32,0,0,1,9,16.56c1.16-1.11,3.51-3,6.19-3s5,1.86,6.18,3a.32.32,0,0,1,.11.17A.28.28,0,0,1,21.32,16.91Z"/><path class="cls-1" d="M15.19,15.15a1.58,1.58,0,1,0,1.55,1.58A1.57,1.57,0,0,0,15.19,15.15Z"/><path class="cls-1" d="M11.83,10.29a.5.5,0,0,0,0-.5L8.63,4.25a.49.49,0,0,0-.86,0L4.57,9.79a.5.5,0,0,0,0,.5.48.48,0,0,0,.43.25h6.4A.48.48,0,0,0,11.83,10.29ZM8.26,5.8a.46.46,0,0,1,.46.38L8.61,8.12a.35.35,0,0,1-.69,0L7.81,6.18A.43.43,0,0,1,8.26,5.8Zm0,4.07a.47.47,0,1,1,.47-.46A.47.47,0,0,1,8.26,9.87Z"/></svg>
