<svg id="图层_1" data-name="图层 1" xmlns="http://www.w3.org/2000/svg" viewBox="0 0 24 24"><defs><style>.cls-1{fill:#009494;}</style></defs><title></title><path class="cls-1" d="M3.17,5.37h8.88a2.19,2.19,0,0,0,0-4.37H3.17a2.19,2.19,0,0,0,0,4.37Z"/><rect class="cls-1" x="2.92" y="6.07" width="9.06" height="11.81"/><path class="cls-1" d="M12.05,18.63h-9A2.19,2.19,0,1,0,3.17,23h8.88a2.19,2.19,0,0,0,0-4.37Z"/><path class="cls-1" d="M23,14.41a.78.78,0,0,0-.38-.69c-.76-.49-1.51-1-2.27-1.51,0,0-.06-.05-.06-.07V10.69l-.08-4.34a.63.63,0,0,0-.59-.66h-.51a.61.61,0,0,0-.59.64h0l.07,4.38v0H16.52V9.68a1.09,1.09,0,0,0-.33-.78,1.14,1.14,0,0,0-.8-.32H14a1.11,1.11,0,0,0-1.12,1.09h0v4.39A1.12,1.12,0,0,0,14,15.16h1.41a1.18,1.18,0,0,0,.8-.31,1.11,1.11,0,0,0,.33-.78V13h2.37l.05,0,2.3,1.54a.16.16,0,0,1,.08.16l.05,2.8a.78.78,0,0,0,.53.81l.66,0a.78.78,0,0,0,.51-.82C23.05,16.21,23,15.68,23,14.41Z"/></svg>
