<svg id="图层_1" data-name="图层 1" xmlns="http://www.w3.org/2000/svg" viewBox="0 0 24 24"><defs><style>.cls-1{stroke:#666;stroke-miterlimit:10;stroke-width:0.2px;}</style></defs><title>kehudpz</title><path class="cls-1" d="M23,16.78V15.42H20.85a4,4,0,0,0-.63-1.74l1.45-1.45-1-1-1.42,1.42c-.52-.39-1.78-.67-1.78-.79V10H16.13v1.94c0,.11-1.29.38-1.81.77l-1.4-1.39-1,1,1.41,1.4a4,4,0,0,0-.65,1.78H10.62v1.36h2.13a4,4,0,0,0,.77,1.63L12,20l1,1,1.59-1.58c.47.31,1.61.52,1.61.61v2.29H17.5V20c0-.11,1.12-.32,1.59-.63l1.61,1.6,1-1-1.6-1.6a3.94,3.94,0,0,0,.74-1.59Zm-6.22,1.88a2.73,2.73,0,1,1,2.75-2.73A2.74,2.74,0,0,1,16.78,18.66Zm-6.7.86a7.29,7.29,0,0,0,.9,1.36H6.5V19.52Zm-.54-1.37H1V1.75H21.63V10.3a8.33,8.33,0,0,0-1.38-.89V3.12H2.37V14.05H9.54a7,7,0,0,0-.25,1.37H2.37v1.36H9.29A7.7,7.7,0,0,0,9.54,18.15Z"/></svg>