<svg id="图层_1" data-name="图层 1" xmlns="http://www.w3.org/2000/svg" viewBox="0 0 24 24"><defs> </defs><title></title><path class="cls-1" d="M20.75,2.65H17.69a.75.75,0,0,0-.71.79.75.75,0,0,0,.71.78h3.06a.89.89,0,0,1,.84.93V20.58a.89.89,0,0,1-.84.93H3.25a.89.89,0,0,1-.84-.93V5.15a.89.89,0,0,1,.84-.93h3a.75.75,0,0,0,.71-.78.75.75,0,0,0-.71-.79h-3A2.39,2.39,0,0,0,1,5.15V20.58a2.38,2.38,0,0,0,2.25,2.49h17.5A2.38,2.38,0,0,0,23,20.58V5.15A2.39,2.39,0,0,0,20.75,2.65Z"/><rect class="cls-1" x="10.55" y="0.93" width="2.9" height="1.65"/><path class="cls-1" d="M11.19,11a1,1,0,0,0,1.62,0L16,7a1.68,1.68,0,0,0,0-2H13.45V3.34h-2.9V5H8A1.68,1.68,0,0,0,8,7Z"/><rect class="cls-1" x="6.5" y="12.75" width="3" height="2.5"/><rect class="cls-1" x="10.5" y="12.75" width="3" height="2.5"/><rect class="cls-1" x="14.5" y="12.75" width="3" height="2.5"/><rect class="cls-1" x="6.5" y="16.75" width="3" height="2.5"/><rect class="cls-1" x="10.5" y="16.75" width="3" height="2.5"/><rect class="cls-1" x="14.5" y="16.75" width="3" height="2.5"/></svg>
