<svg id="图层_1" data-name="图层 1" xmlns="http://www.w3.org/2000/svg" viewBox="0 0 24 24"><defs> </defs><title>kucuntiaoz</title><path class="cls-1" d="M19.86,14.36a.79.79,0,0,0,1.57,0V10.83l.27.22a.78.78,0,1,0,1-1.18h0L12.51,1.2a.79.79,0,0,0-1,0L1.28,9.86a.78.78,0,0,0-.1,1.1.79.79,0,0,0,1.11.11v0l.27-.23V22.2a.79.79,0,1,0,1.57,0h0V9.5h0L12,2.83l7.86,6.66Z"/><rect class="cls-1" x="5.71" y="20.62" width="2.36" height="2.36" rx="0.29" ry="0.29"/><rect class="cls-1" x="9.25" y="20.62" width="2.36" height="2.36" rx="0.29" ry="0.29"/><rect class="cls-1" x="5.73" y="17.5" width="2.36" height="2.36" rx="0.29" ry="0.29"/><rect class="cls-1" x="5.73" y="14.37" width="2.36" height="2.36" rx="0.29" ry="0.29"/><rect class="cls-1" x="9.25" y="17.48" width="2.36" height="2.36" rx="0.29" ry="0.29"/><rect class="cls-1" x="12.78" y="20.62" width="2.36" height="2.36" rx="0.29" ry="0.29"/><path class="cls-1" d="M22.65,18.74H22c-.05-.12-.14-.38-.24-.57l.43-.42a.34.34,0,0,0,0-.49l-.49-.5a.36.36,0,0,0-.49,0h0l-.41.43a3.53,3.53,0,0,0-.57-.24v-.62a.4.4,0,0,0-.4-.35h-.7a.4.4,0,0,0-.4.35V17c-.12.05-.38.14-.57.24l-.42-.43a.35.35,0,0,0-.49,0h0l-.5.49a.37.37,0,0,0,0,.5h0l.43.41a5.55,5.55,0,0,0-.24.57h-.62a.39.39,0,0,0-.35.4v.7a.4.4,0,0,0,.35.4H17c.05.12.14.38.24.57l-.43.42a.34.34,0,0,0,0,.49l.49.49a.35.35,0,0,0,.5,0h0l.41-.43c.18.1.45.18.57.24v.62a.4.4,0,0,0,.4.35h.7a.4.4,0,0,0,.4-.35V22c.12-.06.38-.14.57-.24l.42.43a.35.35,0,0,0,.49,0h0l.5-.49a.36.36,0,0,0,0-.5h0l-.43-.41c.1-.19.18-.45.24-.57h.62a.4.4,0,0,0,.35-.4v-.7A.39.39,0,0,0,22.65,18.74ZM19.5,21.07a1.58,1.58,0,1,1,1.58-1.58A1.58,1.58,0,0,1,19.5,21.07Z"/></svg>