<svg id="图层_1" data-name="图层 1" xmlns="http://www.w3.org/2000/svg" viewBox="0 0 24 24"><defs> </defs><title></title><path class="cls-1" d="M22.72,9.86,12.51,1.2a.79.79,0,0,0-1,0L1.28,9.86a.78.78,0,0,0-.1,1.1.79.79,0,0,0,1.11.11v0l.27-.23V22.2a.79.79,0,1,0,1.57,0h0V9.5h0L12,2.83l7.86,6.66v4.87a.79.79,0,0,0,1.57,0V10.83l.27.22a.78.78,0,1,0,1-1.18ZM6,20.63H7.77a.26.26,0,0,1,.3.29v1.77c0,.2-.1.29-.3.29H6c-.2,0-.3-.09-.3-.29V20.92A.26.26,0,0,1,6,20.63Zm3.53,0h1.77a.25.25,0,0,1,.29.29v1.77c0,.2-.09.29-.29.29H9.54a.25.25,0,0,1-.29-.29V20.92A.26.26,0,0,1,9.54,20.63ZM6,17.51H7.79a.26.26,0,0,1,.3.29v1.77c0,.2-.1.29-.3.29H6c-.2,0-.3-.09-.3-.29V17.8A.26.26,0,0,1,6,17.51Zm0-3.13H7.79a.26.26,0,0,1,.3.29v1.77c0,.2-.1.29-.3.29H6c-.2,0-.3-.09-.3-.29V14.67A.26.26,0,0,1,6,14.38Zm3.51,3.11h1.77a.25.25,0,0,1,.29.29v1.77c0,.2-.09.3-.29.3H9.54a.26.26,0,0,1-.29-.3V17.78A.26.26,0,0,1,9.54,17.49Zm3.54,3.14h1.76a.26.26,0,0,1,.3.29v1.77c0,.2-.1.29-.3.29H13.08c-.2,0-.3-.09-.3-.29V20.92A.26.26,0,0,1,13.08,20.63Zm7-1.06a2.49,2.49,0,1,0-.87.87l1.2,1.2a.61.61,0,0,0,.87,0,.62.62,0,0,0,0-.87h0Zm-2.14,0a1.26,1.26,0,1,1,1.25-1.26h0A1.25,1.25,0,0,1,17.92,19.57Z"/></svg>
