<svg id="图层_1" data-name="图层 1" xmlns="http://www.w3.org/2000/svg" viewBox="0 0 24 24"><defs><style>.cls-1{fill:#;}</style></defs><title>kucunfb</title><path class="cls-1" d="M20.5,14.8V8.7A1.8,1.8,0,0,0,22,6.9a1.8,1.8,0,0,0-1.8-1.8,2.2,2.2,0,0,0-1.4.6L13.7,2.8a4.3,4.3,0,0,0,.1-.5A1.9,1.9,0,0,0,11.9.5a1.9,1.9,0,0,0-1.8,1.8c0,.2.1.3.1.5L5,5.7a2,2,0,0,0-1.4-.6A1.8,1.8,0,0,0,1.8,6.9,1.8,1.8,0,0,0,3.2,8.7v6.1a1.8,1.8,0,0,0-1.4,1.8,1.7,1.7,0,0,0,1.8,1.8,1.6,1.6,0,0,0,1.3-.6l5.3,2.9a1.9,1.9,0,0,0-.2.7,1.9,1.9,0,0,0,1.8,1.9,2,2,0,0,0,1.9-1.9,1.9,1.9,0,0,0-.2-.7l5.2-2.9a2,2,0,0,0,1.4.6,1.7,1.7,0,0,0,1.8-1.8A1.6,1.6,0,0,0,20.5,14.8ZM13,20a.9.9,0,0,0-.6-.3V15.1h-.9v4.6a1.5,1.5,0,0,0-.7.3L5.4,17.1a.9.9,0,0,0,.1-.5,1.8,1.8,0,0,0-1.4-1.7V8.7a1.4,1.4,0,0,0,.8-.5l3.9,2.4.4-.7L5.4,7.5c0-.2.1-.4.1-.6s-.1-.3-.1-.4l5.2-3a1.6,1.6,0,0,0,1.3.6,1.5,1.5,0,0,0,1.3-.6l5.2,3v.4a1.3,1.3,0,0,0,.1.6L14.6,9.9l.5.7,3.8-2.3.8.4v6.2a1.7,1.7,0,0,0-1.3,1.8v.4Z"/><path class="cls-1" d="M10.2,13.5a2.2,2.2,0,0,0,3.3,0,2.2,2.2,0,0,0,0-3.3h0a2.2,2.2,0,0,0-3.3,0,2.2,2.2,0,0,0,0,3.3Z"/></svg>
