<svg id="图层_1" data-name="图层 1" xmlns="http://www.w3.org/2000/svg" viewBox="0 0 24 24"><defs> </defs><path class="cls-1" d="M22.51,8.63,18.63,2.32a.56.56,0,0,0-.47-.27H6a.55.55,0,0,0-.46.26l-4,6.37h0v0l0,.07,0,0V20.29A1.66,1.66,0,0,0,3.19,22H20.81a1.66,1.66,0,0,0,1.66-1.66V8.68h0Zm-1.26,0h-8.7V3.16h5.3Zm-15-5.52h5.17V8.68H2.85ZM21.37,20.29a.55.55,0,0,1-.56.55H3.19a.54.54,0,0,1-.55-.55V9.79H21.37Z"/><path class="cls-1" d="M20.81,22.18H3.19a1.9,1.9,0,0,1-1.9-1.89V8.89a.26.26,0,0,1,0-.23l0-.05.06-.08L5.31,2.18A.8.8,0,0,1,6,1.82H18.16a.8.8,0,0,1,.67.37L22.71,8.5a.24.24,0,0,1,0,.27V20.29A1.9,1.9,0,0,1,20.81,22.18ZM1.77,8.79v11.5a1.43,1.43,0,0,0,1.42,1.42H20.81a1.43,1.43,0,0,0,1.42-1.42V8.79l0,0a.38.38,0,0,1,0-.15L18.43,2.44a.33.33,0,0,0-.27-.15H6a.32.32,0,0,0-.26.15Zm19,12.29H3.19a.78.78,0,0,1-.79-.79V9.79a.24.24,0,0,1,.24-.24H21.37a.23.23,0,0,1,.23.24v10.5A.78.78,0,0,1,20.81,21.08ZM2.87,10V20.29a.31.31,0,0,0,.32.31H20.81a.31.31,0,0,0,.32-.31V10ZM21.25,8.92h-8.7a.23.23,0,0,1-.24-.23V3.16a.24.24,0,0,1,.24-.24h5.3a.23.23,0,0,1,.2.11l3.41,5.53a.25.25,0,0,1,0,.24A.22.22,0,0,1,21.25,8.92Zm-8.46-.47h8l-3.11-5H12.79Zm-1.34.47H2.85a.22.22,0,0,1-.21-.12.23.23,0,0,1,0-.24L6.08,3a.23.23,0,0,1,.2-.11h5.17a.24.24,0,0,1,.24.24V8.69A.23.23,0,0,1,11.45,8.92ZM3.28,8.45h7.93v-5H6.42Z"/><path class="cls-1" d="M9.8,12.55h4.95a.55.55,0,1,0,0-1.1H9.8a.55.55,0,0,0,0,1.1Z"/><path class="cls-1" d="M14.75,12.79H9.8a.79.79,0,1,1,0-1.58h4.95a.79.79,0,0,1,0,1.58ZM9.8,11.69a.31.31,0,1,0,0,.62h4.95a.31.31,0,1,0,0-.62Z"/></svg>
