<svg id="图层_1" data-name="图层 1" xmlns="http://www.w3.org/2000/svg" viewBox="0 0 24 24"><defs></defs><title>lailjygl</title><path class="cls-1" d="M22.8,18.3h-.3a.4.4,0,0,1-.4-.3l-.3-.5a1.3,1.3,0,0,1,.1-.6l.3-.2a.4.4,0,0,0,0-.5l-.5-.4a.3.3,0,0,0-.4,0l-.3.3h-.5l-.5-.2c-.2,0-.3-.2-.3-.4v-.4a.3.3,0,0,0-.3-.3h-.6a.4.4,0,0,0-.4.3v.4c0,.2-.1.4-.3.4l-.5.2h-.5l-.3-.3a.3.3,0,0,0-.4,0l-.4.4c-.2.2-.2.4,0,.5l.2.2a.7.7,0,0,1,.1.6l-.2.5-.4.3h-.4a.3.3,0,0,0-.3.3v.6a.3.3,0,0,0,.3.3h.4l.4.3.2.6c.1.1,0,.3-.1.5l-.2.2c-.2.2-.2.4,0,.5l.4.4a.3.3,0,0,0,.4,0h0l.3-.2c.1-.2.3-.2.5-.1l.5.2c.2,0,.3.2.3.4v.4c0,.2.2.3.4.3h.6a.3.3,0,0,0,.3-.3v-.4c0-.2.1-.4.3-.4l.5-.2c.2-.1.4-.1.5.1l.3.2a.3.3,0,0,0,.4,0h0l.5-.4a.4.4,0,0,0,0-.5l-.3-.2a1.1,1.1,0,0,1-.1-.5l.3-.6a.4.4,0,0,1,.4-.3h.3c.2,0,.4-.1.4-.3v-.6C23.2,18.4,23,18.3,22.8,18.3Zm-3.7,2.2a1.6,1.6,0,1,1,0-3.2,1.6,1.6,0,0,1,0,3.2ZM14.9,15l-3.1,3.1H10.6L7.4,15a.9.9,0,0,1,0-1.2.8.8,0,0,1,1.1,0l1.9,1.9V6.4h0a.8.8,0,0,1,.8-.8h0a.9.9,0,0,1,.8.8v9.3l1.8-1.9a.8.8,0,0,1,1.1,0A.9.9,0,0,1,14.9,15Zm-1.3,6a4.2,4.2,0,0,0,.9,1.4,8,8,0,0,1-3.3.8h0c-2.5,0-5.1-1.4-7.2-3.9a14.3,14.3,0,0,1-2.3-3.7,11.1,11.1,0,0,1-.9-4.3V4.4a1.1,1.1,0,0,1,.9-1h0A36.6,36.6,0,0,1,6,2.1C10.6.8,10.9.8,11.1.8h.1c.2,0,.6,0,5.1,1.3l4.4,1.3h0a1,1,0,0,1,.8,1v6.9a10.7,10.7,0,0,1-.6,3.5l-1.5-.6a9.8,9.8,0,0,0,.5-2.9V4.8L11.2,2.4,2.4,4.8v6.5a11.3,11.3,0,0,0,2.8,7c1.8,2.1,3.9,3.3,6,3.3A5.3,5.3,0,0,0,13.6,21Z"/></svg>