<svg id="图层_1" data-name="图层 1" xmlns="http://www.w3.org/2000/svg" viewBox="0 0 24 24"><defs> </defs><title>ldscgl</title><path class="cls-1" d="M9.61,19.06a.76.76,0,0,0-.76-.77A.51.51,0,0,1,8.38,18v0a2.78,2.78,0,0,0-.16-.4v0a.5.5,0,0,1,.1-.57l.35-.36a.26.26,0,0,0,.08-.19.25.25,0,0,0-.08-.18l-.8-.8a.25.25,0,0,0-.18-.08.27.27,0,0,0-.19.08l-.35.35a.5.5,0,0,1-.57.1h0a2.06,2.06,0,0,0-.26-.12l-.13-.05h0a.51.51,0,0,1-.34-.48.77.77,0,0,0-.5-.72A.75.75,0,0,0,5,14.43H4.9a.77.77,0,0,0-.76.77.51.51,0,0,1-.34.48h0l-.39.17h0a.52.52,0,0,1-.24.05.53.53,0,0,1-.33-.15l-.06-.06-.29-.29a.27.27,0,0,0-.19-.08.25.25,0,0,0-.18.08l-.27.27-.53.53a.24.24,0,0,0-.07.18.25.25,0,0,0,.07.19l.36.36a.49.49,0,0,1,.14.41.33.33,0,0,1-.05.16v0a2.83,2.83,0,0,0-.17.4v0a.51.51,0,0,1-.47.34.76.76,0,0,0-.77.77v.12a.85.85,0,0,0,0,.23.76.76,0,0,0,.73.55.49.49,0,0,1,.47.34h0a2.83,2.83,0,0,0,.17.4v0a.48.48,0,0,1,0,.35.45.45,0,0,1-.13.22l-.35.36a.27.27,0,0,0-.08.19.25.25,0,0,0,.08.18l.79.81a.32.32,0,0,0,.19.07.24.24,0,0,0,.18-.07l.36-.36a.5.5,0,0,1,.57-.1h0l.4.17h0a.51.51,0,0,1,.34.48.77.77,0,0,0,.76.77h.18A.75.75,0,0,0,5.8,23a.51.51,0,0,1,.34-.48h0l.13,0,.27-.12h0a.5.5,0,0,1,.57.1l.36.36a.29.29,0,0,0,.18.07.26.26,0,0,0,.19-.07l.8-.81a.29.29,0,0,0,.07-.19.25.25,0,0,0-.08-.18l-.35-.36a.5.5,0,0,1-.1-.57v0a2.83,2.83,0,0,0,.17-.4v0A.5.5,0,0,1,8.86,20a.78.78,0,0,0,.77-.77h0ZM6,21.07a2,2,0,0,1-.76.24,1.83,1.83,0,0,1-.33,0,2.15,2.15,0,0,1-1.49-.7,2.17,2.17,0,0,1-.55-1.23s0-.09,0-.14a2.19,2.19,0,0,1,.52-1.49,3.47,3.47,0,0,1,.34-.32A2.17,2.17,0,0,1,5,17h.25a2.41,2.41,0,0,1,.76.24,2.15,2.15,0,0,1,0,3.79Z"/><path class="cls-1" d="M12.38,12.4a6,6,0,0,0,4.31-1.79,6.1,6.1,0,1,0-4.31,1.79Zm0-10.61A4.51,4.51,0,1,1,7.87,6.3,4.52,4.52,0,0,1,12.38,1.79Z"/><path class="cls-1" d="M19.76,11.39a3.92,3.92,0,1,0,3.92,3.92A3.93,3.93,0,0,0,19.76,11.39Zm0,6.82a2.9,2.9,0,1,1,2.9-2.9A2.9,2.9,0,0,1,19.76,18.21Z"/><path class="cls-1" d="M15.13,16.74a2.48,2.48,0,1,0-2.48,2.48A2.49,2.49,0,0,0,15.13,16.74Zm-2.48,1.5a1.5,1.5,0,1,1,1.5-1.5A1.5,1.5,0,0,1,12.65,18.24Z"/><path class="cls-1" d="M15.85,18.86A2.1,2.1,0,1,0,17.94,21,2.1,2.1,0,0,0,15.85,18.86Zm0,3.28A1.19,1.19,0,1,1,17,21,1.18,1.18,0,0,1,15.85,22.14Z"/></svg>