<svg id="图层_1" data-name="图层 1" xmlns="http://www.w3.org/2000/svg" viewBox="0 0 24 24"><defs></defs><path class="cls-1" d="M3.75,14.79a2.76,2.76,0,0,1-1.07-.21A2.73,2.73,0,0,1,1,12,2.72,2.72,0,0,1,1.21,11a2.91,2.91,0,0,1,.59-.87,2.83,2.83,0,0,1,.88-.59,2.8,2.8,0,0,1,1.07-.21h.41L8,4.68a1.2,1.2,0,0,1-.13-.43,3.79,3.79,0,0,1,0-.49A2.64,2.64,0,0,1,8,2.68a2.93,2.93,0,0,1,.58-.88,2.81,2.81,0,0,1,.88-.58,2.74,2.74,0,0,1,2.15,0,2.81,2.81,0,0,1,.88.58,2.93,2.93,0,0,1,.58.88,2.64,2.64,0,0,1,.22,1.08,2.6,2.6,0,0,1-.15.89,3.52,3.52,0,0,1-.4.8l3.3,7.4L18,9.46a3.29,3.29,0,0,1-.35-.73,2.65,2.65,0,0,1-.13-.85,2.81,2.81,0,0,1,.21-1.08,2.67,2.67,0,0,1,.59-.88,2.63,2.63,0,0,1,.87-.59,2.82,2.82,0,0,1,1.08-.22,2.77,2.77,0,0,1,1.07.22,2.71,2.71,0,0,1,.89.59,2.86,2.86,0,0,1,.6.88,2.91,2.91,0,0,1,0,2.17,2.91,2.91,0,0,1-.6.89,2.79,2.79,0,0,1-2,.82h-.47l-1.85,3.39a3,3,0,0,1,.68.92,2.61,2.61,0,0,1,.25,1.15,2.81,2.81,0,0,1-.21,1.08,2.74,2.74,0,0,1-.6.89,2.55,2.55,0,0,1-.88.6,2.76,2.76,0,0,1-2.16,0,2.51,2.51,0,0,1-.87-.6,2.88,2.88,0,0,1-.59-.89,2.81,2.81,0,0,1-.21-1.08A2.75,2.75,0,0,1,13.56,15a2.69,2.69,0,0,1,.68-.92L10.88,6.52a1.45,1.45,0,0,1-.31,0,2.35,2.35,0,0,1-.6-.07,4.3,4.3,0,0,1-.54-.2L6.09,10.52a2.92,2.92,0,0,1,.32.72,2.6,2.6,0,0,1,.11.79,2.81,2.81,0,0,1-.21,1.08,2.55,2.55,0,0,1-.6.88,2.91,2.91,0,0,1-.87.59,2.82,2.82,0,0,1-1.09.21ZM1,20.34H23V23H1V20.34Z"/></svg>
