<svg id="图层_1" data-name="图层 1" xmlns="http://www.w3.org/2000/svg" viewBox="0 0 24 24"><defs> </defs><title>leixgl</title><path class="cls-1" d="M14.91,10.5a1.66,1.66,0,0,1,1.59,1.73v4A1.67,1.67,0,0,1,14.91,18H9.09a1.67,1.67,0,0,1-1.58-1.73v-4A1.66,1.66,0,0,1,9.09,10.5h5.82ZM12,12a1.47,1.47,0,0,0-1.5,1.43,1.44,1.44,0,0,0,.86,1.18v1.87h1.28V14.62a1.44,1.44,0,0,0,.86-1.18A1.47,1.47,0,0,0,12,12ZM12,7.5A1.4,1.4,0,0,0,10.5,9v1.5H9V9.15S9,6,12,6s3,3.15,3,3.15V10.5H13.5V9A1.4,1.4,0,0,0,12,7.5ZM12,24A12,12,0,1,1,17.88,1.54L19,0l2,5.25-5.24-.77L17,2.77A10.49,10.49,0,1,0,21.71,8l1.38-.57A12,12,0,0,1,12,24Z"/></svg>