<svg id="图层_1" data-name="图层 1" xmlns="http://www.w3.org/2000/svg" viewBox="0 0 24 24"><defs> </defs><title>liezhank</title><path class="cls-1" d="M11.21,12.07h-9a.67.67,0,0,0-.68.68v9a.67.67,0,0,0,.68.68h9a.68.68,0,0,0,.68-.68v-9A.68.68,0,0,0,11.21,12.07Zm-.67,9H2.87V13.42h7.67Z"/><path class="cls-1" d="M21.35,20.64H13.24a.68.68,0,0,0-.68.67.69.69,0,0,0,.68.68h8.11a.68.68,0,0,0,.68-.68A.67.67,0,0,0,21.35,20.64Z"/><path class="cls-1" d="M21.35,12.52H13.24a.69.69,0,0,0-.68.68.68.68,0,0,0,.68.67h8.11A.67.67,0,0,0,22,13.2.68.68,0,0,0,21.35,12.52Z"/><path class="cls-1" d="M21.35,16.58H13.24a.68.68,0,1,0,0,1.35h8.11a.68.68,0,1,0,0-1.35Z"/><path class="cls-1" d="M22.07,5.85,19.45,4.7a.68.68,0,0,0-.54,1.24l1,.45L12.11,9.07l-8-2.68,8-3.42,3.77,1.65a.68.68,0,0,0,.54-1.24l-4-1.76a.62.62,0,0,0-.53,0L1.93,5.85a.66.66,0,0,0-.41.64A.68.68,0,0,0,2,7.11l9.92,3.31a.52.52,0,0,0,.21,0,.54.54,0,0,0,.22,0L22,7.11a.68.68,0,0,0,.05-1.26Z"/></svg>