<svg id="图层_1" data-name="图层 1" xmlns="http://www.w3.org/2000/svg" viewBox="0 0 24 24"><defs> </defs><title></title><path class="cls-1" d="M17.75,11.23H6.23a.77.77,0,1,0,0,1.54H17.75a.77.77,0,1,0,0-1.54Z"/><path class="cls-1" d="M22.67,16.48s0,0,0,0V2.92A2.48,2.48,0,0,0,20.14.5H3.85A2.48,2.48,0,0,0,1.3,2.92V21.08A2.48,2.48,0,0,0,3.85,23.5H16.18a.87.87,0,0,0,.54-.19l4-3.2A.73.73,0,0,0,20.76,19,.87.87,0,0,0,19.6,19l-2.67,2.17V18.25a.89.89,0,0,1,.9-.88h4.05a.8.8,0,0,0,.82-.77A.53.53,0,0,0,22.67,16.48ZM21,15.83H17.83a2.49,2.49,0,0,0-2.55,2.42V22H3.85a.9.9,0,0,1-.91-.89V2.92A.9.9,0,0,1,3.85,2H20.14a.89.89,0,0,1,.9.89Z"/><path class="cls-1" d="M9.52,16.6H6.23a.77.77,0,1,0,0,1.53H9.52a.77.77,0,1,0,0-1.53Z"/><path class="cls-1" d="M17.75,5.87H6.23a.77.77,0,1,0,0,1.53H17.75a.77.77,0,1,0,0-1.53Z"/></svg>
