<svg id="图层_1" data-name="图层 1" xmlns="http://www.w3.org/2000/svg" viewBox="0 0 24 24"><defs> </defs><path class="cls-1" d="M8,7h8a2.29,2.29,0,0,0,2.29-2.29V3.07A2.28,2.28,0,0,0,16,.79H8A2.29,2.29,0,0,0,5.72,3.07v1.6A2.29,2.29,0,0,0,8,7Zm-.9-3.89a.9.9,0,0,1,.9-.9h8a.91.91,0,0,1,.9.9v1.6a.91.91,0,0,1-.9.91H8a.9.9,0,0,1-.9-.91Z"/><path class="cls-1" d="M23.69,12a.69.69,0,0,0-.69-.7H20.16a.7.7,0,0,0-.69.7.69.69,0,0,0,.69.69h2.15v6.72H20.93V17.9l-2.19,2.19,2.19,2.18V20.79H23a.69.69,0,0,0,.69-.69s0-.05,0-.08,0,0,0-.07V12Z"/><path class="cls-1" d="M9.61,4.67a.76.76,0,0,0,.8-.8.8.8,0,0,0-1.6,0A.76.76,0,0,0,9.61,4.67Z"/><circle class="cls-1" cx="14.4" cy="20.13" r="0.8"/><path class="cls-1" d="M17.6,10.82l-5-2.55h0A1.29,1.29,0,0,0,12,8.11a1.27,1.27,0,0,0-.63.15l-5,2.56a1.3,1.3,0,0,0,0,2.36l4.94,2.55h0a1.06,1.06,0,0,0,.63.16,1,1,0,0,0,.7-.2l4.89-2.52a1.31,1.31,0,0,0,0-2.35ZM12,14.5h0L7.16,12,12,9.5h0L16.86,12Z"/><path class="cls-1" d="M5.26,3.91,3.07,1.73V3.2H1a.69.69,0,0,0-.69.7S.32,4,.32,4s0,0,0,.08v8a.69.69,0,0,0,.69.69H3.83a.7.7,0,1,0,0-1.39H1.69V4.59H3.07V6.1Z"/><path class="cls-1" d="M16,17H8a2.29,2.29,0,0,0-2.29,2.29v1.6A2.29,2.29,0,0,0,8,23.21h8a2.29,2.29,0,0,0,2.29-2.28v-1.6A2.28,2.28,0,0,0,16,17Zm.9,3.89a.91.91,0,0,1-.9.9H8a.9.9,0,0,1-.9-.9v-1.6a.9.9,0,0,1,.9-.91h8a.91.91,0,0,1,.9.91Z"/></svg>
