<svg id="图层_1" data-name="图层 1" xmlns="http://www.w3.org/2000/svg" viewBox="0 0 24 24"><defs> </defs><title></title><path class="cls-1" d="M16.12,17.14H3.86a2.14,2.14,0,1,1,0-4.28H9.43v1.71h5.14V9.43H9.43v1.71H3.86a3,3,0,0,0-.43,0,3.85,3.85,0,0,0,0,7.66,3,3,0,0,0,.43,0H16.12v1.71L18.86,18l-2.74-2.57Z"/><polygon class="cls-1" points="18.86 15.43 18.86 18 18.86 20.57 24 20.57 24 15.43 18.86 15.43"/><path class="cls-1" d="M16.29,13.61l1,1V12.86h1.12a3.86,3.86,0,0,0,.43-7.69l-.43,0H5.14V3.43H0V8.57H5.14V6.86H18.43a2.14,2.14,0,1,1,0,4.28H17.31V9.43l-1,1-.81.75-.15.15-.76.71.91.86Z"/></svg>
