<svg id="图层_1" data-name="图层 1" xmlns="http://www.w3.org/2000/svg" viewBox="0 0 24 24"><defs> </defs><title></title><path class="cls-1" d="M6.35,12A5.65,5.65,0,1,0,12,6.35,5.65,5.65,0,0,0,6.35,12Zm10.46,0A4.81,4.81,0,1,1,12,7.19,4.82,4.82,0,0,1,16.81,12ZM12,9.38A2.62,2.62,0,1,1,9.38,12,2.62,2.62,0,0,1,12,9.38Zm3.67,11.51a4.4,4.4,0,0,0,1,1.4A11.33,11.33,0,1,1,22.55,16a4.42,4.42,0,0,0-1.46-.88A9.51,9.51,0,0,0,21.62,12,9.63,9.63,0,1,0,12,21.63,9.54,9.54,0,0,0,15.67,20.89Zm7.77-1.15V18.62l-1-.19a2.59,2.59,0,0,0-.29-.71l.56-.83h0l-.78-.78h0l-.83.55a2.66,2.66,0,0,0-.7-.29l-.2-1H19.08l-.2,1a2.66,2.66,0,0,0-.7.29l-.83-.55-.79.79.55.83a2.66,2.66,0,0,0-.29.7l-1,.2v1.12l1,.2a2.87,2.87,0,0,0,.29.7l-.55.84.79.79.83-.55a3.56,3.56,0,0,0,.7.29l.2,1H20.2l.2-1a3.56,3.56,0,0,0,.7-.29l.83.55h0l.78-.79h0l-.56-.84a2.53,2.53,0,0,0,.29-.7Zm-3.8.76A1.32,1.32,0,1,1,21,19.18,1.32,1.32,0,0,1,19.64,20.5Z"/></svg>
