<svg id="图层_1" data-name="图层 1" xmlns="http://www.w3.org/2000/svg" viewBox="0 0 24 24"><defs> </defs><title>lvdanjichu</title><path class="cls-1" d="M17,4.14H3.92A1.94,1.94,0,0,0,2,6.11V21a1.94,1.94,0,0,0,1.92,2H17a1.94,1.94,0,0,0,1.92-2V6.11A1.94,1.94,0,0,0,17,4.14ZM17.38,21a.39.39,0,0,1-.38.39H3.92A.39.39,0,0,1,3.54,21V6.11a.39.39,0,0,1,.38-.4H17a.39.39,0,0,1,.38.4ZM22,3V17.89a.77.77,0,1,1-1.54,0V3a.39.39,0,0,0-.38-.39H7A.79.79,0,0,1,7,1H20.08A1.94,1.94,0,0,1,22,3ZM12,16.88a.77.77,0,0,1-.77.78H6.62a.79.79,0,0,1,0-1.57h4.61A.77.77,0,0,1,12,16.88Zm3.08-7.83a.78.78,0,0,1-.77.79H6.62a.79.79,0,0,1,0-1.57h7.69A.78.78,0,0,1,15.08,9.05Zm0,3.93a.78.78,0,0,1-.77.79H6.62a.79.79,0,0,1,0-1.57h7.69A.78.78,0,0,1,15.08,13Z"/></svg>