<svg id="图层_1" data-name="图层 1" xmlns="http://www.w3.org/2000/svg" viewBox="0 0 24 24"><defs><style>.cls-1{fill:;}</style></defs><title>manztjrk</title><path class="cls-1" d="M5.9,7.8A.9.9,0,0,1,5,6.9a.9.9,0,0,1,.9-.8h7.7a.9.9,0,0,1,.9.8.8.8,0,0,1-.9.8Zm0,3.4h7.7a.9.9,0,0,0,.9-.9.9.9,0,0,0-.9-.8H5.9a.9.9,0,0,0-.9.9A.9.9,0,0,0,5.9,11.2ZM22.8,21.7a.9.9,0,0,1-.9.9H13.7a.9.9,0,0,1-.9-.8V15.5h.1v-.2l1.2-2.1a.7.7,0,0,1,.7-.4h5.7a.8.8,0,0,1,.7.4l1.4,2.2h0v.2c.1,0,.1.1.1.2Zm-7.4-7.4-.2.5h5.2l-.3-.5ZM21,16.5H14.6v4.4h6.5ZM10,13.8a.9.9,0,0,0-.6-.3.7.7,0,0,0-.6.3.8.8,0,0,0,0,1.2H6.1a.9.9,0,0,0-.9.8.9.9,0,0,0,.9.9H8.8a.5.5,0,0,0-.3.5.6.6,0,0,0,.3.6.7.7,0,0,0,1.2,0l1.5-1.4a.8.8,0,0,0,0-1.2ZM8.2,20.9H3V3.1H17.1V7.9a.9.9,0,0,0,.9.9.8.8,0,0,0,.8-.9V2.2a1.4,1.4,0,0,0-.2-.6l-.7-.2H2.1a.8.8,0,0,0-.7.2,1.1,1.1,0,0,0-.2.6V21.8a1.4,1.4,0,0,0,.2.6l.6.2H8.2a.9.9,0,0,0,.9-.8A.9.9,0,0,0,8.2,20.9Z"/></svg>
