<svg id="图层_1" data-name="图层 1" xmlns="http://www.w3.org/2000/svg" viewBox="0 0 24 24"><defs></defs><title>tablgl</title><path class="cls-1" d="M23,17.28v-.13a.78.78,0,0,0-.78-.78.5.5,0,0,1-.48-.35v0c0-.13-.11-.27-.17-.4v0a.54.54,0,0,1,.1-.59l.36-.36a.27.27,0,0,0,.08-.19.24.24,0,0,0-.08-.19l-.82-.82a.26.26,0,0,0-.19-.08.29.29,0,0,0-.19.08l-.35.36a.54.54,0,0,1-.59.1h0a1.69,1.69,0,0,0-.27-.12l-.13,0h0a.5.5,0,0,1-.34-.48.79.79,0,0,0-.52-.74.75.75,0,0,0-.26,0h-.14a.78.78,0,0,0-.78.78.5.5,0,0,1-.34.48h0l-.4.17h0a.56.56,0,0,1-.25,0,.5.5,0,0,1-.34-.15L16,13.73l-.3-.3a.25.25,0,0,0-.18-.08.26.26,0,0,0-.19.08l-.28.28-.54.54a.29.29,0,0,0,0,.38l.36.36a.48.48,0,0,1,.15.42.37.37,0,0,1-.05.17h0c-.06.13-.11.27-.16.41v0a.5.5,0,0,1-.48.35.78.78,0,0,0-.78.78v.13a.64.64,0,0,0,0,.24.77.77,0,0,0,.74.55.5.5,0,0,1,.48.35v0a3.33,3.33,0,0,0,.16.4v0a.51.51,0,0,1,0,.36.53.53,0,0,1-.13.23l-.36.36a.27.27,0,0,0,0,.38l.81.82a.27.27,0,0,0,.38,0l.36-.36a.49.49,0,0,1,.58-.1h0a2.9,2.9,0,0,0,.41.16h0a.52.52,0,0,1,.34.49.78.78,0,0,0,.78.78h.19a.79.79,0,0,0,.73-.78.52.52,0,0,1,.34-.49h0l.14,0,.27-.12h0a.49.49,0,0,1,.58.1l.36.36a.27.27,0,0,0,.38,0l.82-.82a.29.29,0,0,0,0-.38l-.37-.37a.52.52,0,0,1-.1-.58v0a2.09,2.09,0,0,0,.17-.41h0a.5.5,0,0,1,.48-.35.78.78,0,0,0,.78-.78h0Zm-3.73,1.93a2.3,2.3,0,0,1-.78.25h-.34a2.21,2.21,0,0,1-2.08-2,.76.76,0,0,1,0-.15,2.18,2.18,0,0,1,.53-1.52,1.78,1.78,0,0,1,.35-.32,2.17,2.17,0,0,1,1.3-.44l.25,0a2.29,2.29,0,0,1,.78.24,2.2,2.2,0,0,1,0,3.87ZM15.43,8.11h5.18v3.45a6.53,6.53,0,0,1,1.63.92V2H1V19.92H11.94a6.76,6.76,0,0,1-.35-1.63H8.9V13.82h3.94a6.76,6.76,0,0,1,2.59-2.12ZM7.26,18.29H2.63V13.82H7.26Zm0-6.1H2.63V8.11H7.26ZM2.63,6.49V3.63h18V6.49Zm11.17,5.7H8.9V8.11h4.9Z"/></svg>
