<svg id="图层_1" data-name="图层 1" xmlns="http://www.w3.org/2000/svg" viewBox="0 0 24 24"><defs></defs><title>mjbftj</title><path class="cls-1" d="M6.6,15.9a.8.8,0,0,1-.7.8H4.8a.9.9,0,0,1-.8-.8.8.8,0,0,1,.8-.8H5.9A.7.7,0,0,1,6.6,15.9ZM5.9,18H4.8a.9.9,0,0,0-.8.8.8.8,0,0,0,.8.8H5.9a.7.7,0,0,0,.7-.8A.8.8,0,0,0,5.9,18ZM2.6,21.4h7.8V23H2.5A1.6,1.6,0,0,1,1,21.4V2.6A1.6,1.6,0,0,1,2.5,1H13.6l6.3,6.3v3.1H18.3V8.8H13.6V2.6H2.6ZM15.1,7.3h3.2L15.1,4.2Zm7.3,10.8c-1.3,1.2-4,3.4-7.3,3.4s-5.9-2.2-7.2-3.4a1.8,1.8,0,0,1,0-2.7c1.3-1.3,4-3.4,7.2-3.4s6,2.1,7.3,3.4A1.8,1.8,0,0,1,22.4,18.1Zm-1-1.4h-.1c-1.1-1.1-3.5-3-6.2-3s-5,1.9-6.2,3H8.8c0,.1.1.1.1.2s3.6,3,6.2,3,5.1-1.9,6.2-3S21.4,16.8,21.4,16.7Zm-6.2-1.5a1.6,1.6,0,0,0-1.6,1.5,1.6,1.6,0,0,0,1.6,1.6,1.6,1.6,0,0,0,1.5-1.6A1.5,1.5,0,0,0,15.2,15.2ZM5,10.8A4.3,4.3,0,0,1,5,4.7a4.3,4.3,0,0,1,6,0,4.3,4.3,0,0,1,0,6.1A4.3,4.3,0,0,1,5,10.8Zm.4-1.2L9.8,5.2A3.1,3.1,0,0,0,5.4,9.6Zm.7.7a3.2,3.2,0,0,0,4.1-.3,3.3,3.3,0,0,0,.4-4.2Z"/></svg>