<svg id="图层_1" data-name="图层 1" xmlns="http://www.w3.org/2000/svg" viewBox="0 0 24 24"><defs> </defs><title>MOVCDdapan</title><path class="cls-1" d="M12,8.8A3.2,3.2,0,1,0,15.2,12,3.21,3.21,0,0,0,12,8.8Zm0,5A1.8,1.8,0,1,1,13.8,12,1.81,1.81,0,0,1,12,13.8ZM10.5,5.5A1.5,1.5,0,1,1,12,7,1.5,1.5,0,0,1,10.5,5.5ZM6,7.5A1.5,1.5,0,1,1,7.5,9,1.5,1.5,0,0,1,6,7.5Zm9,0A1.5,1.5,0,1,1,16.5,9,1.5,1.5,0,0,1,15,7.5Zm3,9A1.5,1.5,0,1,1,16.5,15,1.5,1.5,0,0,1,18,16.5Zm-9,0A1.5,1.5,0,1,1,7.5,15,1.5,1.5,0,0,1,9,16.5ZM5.5,14A1.5,1.5,0,1,1,7,12.5,1.5,1.5,0,0,1,5.5,14ZM20,12.5A1.5,1.5,0,1,1,18.5,11,1.5,1.5,0,0,1,20,12.5Zm-6,6A1.5,1.5,0,1,1,12.5,17,1.5,1.5,0,0,1,14,18.5ZM22.71,8.38A11.31,11.31,0,1,0,23.3,12,11.3,11.3,0,0,0,22.71,8.38ZM12,21.7A9.71,9.71,0,1,1,21.7,12,9.71,9.71,0,0,1,12,21.7Z"/></svg>