<svg id="图层_1" data-name="图层 1" xmlns="http://www.w3.org/2000/svg" viewBox="0 0 24 24"><defs> </defs><title></title><path class="cls-1" d="M8.9,9.51,4.47,17.1a1.15,1.15,0,0,0-.81,1.43A1.18,1.18,0,0,0,6,18.22a1.2,1.2,0,0,0-.19-.64l5-8.5-.6-.34A3.4,3.4,0,0,1,8.88,4.09a3.45,3.45,0,0,1,4.69-1.25,3.38,3.38,0,0,1,1.27,4.62L16,8.14a4.73,4.73,0,0,0-1.76-6.5A4.82,4.82,0,0,0,7.71,3.38,4.75,4.75,0,0,0,8.9,9.51Z"/><path class="cls-1" d="M23.35,15.84a4.81,4.81,0,0,0-6-2L13,6.18a1.17,1.17,0,0,0-.68-1.51,1.2,1.2,0,0,0-1.44.51,1.17,1.17,0,0,0,.43,1.6,1,1,0,0,0,.54.15l5.06,8.7.61-.34a3.45,3.45,0,0,1,4.72,1.1,3.39,3.39,0,0,1-1.11,4.69l-.18.1A3.45,3.45,0,0,1,16.22,20v0L15,20.61a4.83,4.83,0,0,0,6.57,1.75,4.75,4.75,0,0,0,1.77-6.51h0Z"/><path class="cls-1" d="M19.77,19.24a1.17,1.17,0,0,0,.44-1.61,1.2,1.2,0,0,0-1.62-.43,1.22,1.22,0,0,0-.34.34h-10v.68a3.44,3.44,0,1,1-3.43-3.4h0V13.46A4.76,4.76,0,1,0,9.56,18.9h8.67A1.18,1.18,0,0,0,19.77,19.24Z"/></svg>
