<svg id="图层_1" data-name="图层 1" xmlns="http://www.w3.org/2000/svg" viewBox="0 0 24 24"><defs> </defs><title></title><path class="cls-1" d="M12,.5a11,11,0,0,1,4.48.91,11.75,11.75,0,0,1,3.66,2.47A11.38,11.38,0,0,1,22.6,7.53,11.21,11.21,0,0,1,23.5,12a11.09,11.09,0,0,1-.9,4.47,11.61,11.61,0,0,1-6.13,6.12,11.21,11.21,0,0,1-4.48.9,11.09,11.09,0,0,1-4.47-.9A11.64,11.64,0,0,1,1.4,16.48,11.09,11.09,0,0,1,.5,12a11.21,11.21,0,0,1,.9-4.48A11.38,11.38,0,0,1,3.87,3.88,11.83,11.83,0,0,1,7.52,1.41,10.93,10.93,0,0,1,12,.5Zm0,19.38a1.56,1.56,0,1,0,0-3.11,1.56,1.56,0,1,0,0,3.11Zm1.31-6.33a1.18,1.18,0,0,1,.52-.87l1.21-1a9.27,9.27,0,0,0,1.23-1.27,2.8,2.8,0,0,0,.62-1.63,5.78,5.78,0,0,0-.21-1.88,3.6,3.6,0,0,0-.85-1.5,4.11,4.11,0,0,0-1.53-1A5.83,5.83,0,0,0,12.12,4a5.34,5.34,0,0,0-4.3,1.89,5.25,5.25,0,0,0-.9,1.62,4.54,4.54,0,0,0-.23,1.4,1.23,1.23,0,0,0,.43,1A1.41,1.41,0,0,0,8,10.2a1.38,1.38,0,0,0,.85-.26.91.91,0,0,0,.38-.78A2.15,2.15,0,0,1,9.4,8.4a3.92,3.92,0,0,1,.53-.86,3,3,0,0,1,.81-.69,2,2,0,0,1,1.07-.29,2.84,2.84,0,0,1,1.85.58,1.69,1.69,0,0,1,.64,1.45A1.37,1.37,0,0,1,14,9.4a3.92,3.92,0,0,1-.65.72c-.27.24-.55.47-.85.7s-.58.47-.85.72a4.24,4.24,0,0,0-.67.81,2,2,0,0,0-.29,1l0,1a1,1,0,0,0,.36.74,1.43,1.43,0,0,0,1,.37A1.33,1.33,0,0,0,13,15a1,1,0,0,0,.32-.82v-.62Z"/></svg>
