<svg id="图层_1" data-name="图层 1" xmlns="http://www.w3.org/2000/svg" viewBox="0 0 24 24"><defs> </defs><title>moyuangl</title><path class="cls-1" d="M14.76,17.11a.84.84,0,0,0-1,0,.46.46,0,0,0,0,.75l.55.42H9a2.12,2.12,0,0,1-2.33-1.81,1.84,1.84,0,0,1,.44-1.18.48.48,0,0,0-.21-.75.84.84,0,0,0-1,.16,2.74,2.74,0,0,0-.66,1.77c0,1.6,1.67,2.9,3.73,2.9h5.28l-.48.38a.47.47,0,0,0,.05.77.89.89,0,0,0,.94,0l1.71-1.33a.47.47,0,0,0,0-.77h0Z"/><path class="cls-1" d="M15,13.4H9.29l.64-.49a.47.47,0,0,0-.06-.77.85.85,0,0,0-.94,0l-1.7,1.33a.46.46,0,0,0,0,.77h0l1.7,1.32a.86.86,0,0,0,1,0,.47.47,0,0,0,0-.73l-.39-.3H15a2.12,2.12,0,0,1,2.33,1.82,1.88,1.88,0,0,1-.46,1.2.47.47,0,0,0,.2.75.79.79,0,0,0,.38.09.78.78,0,0,0,.59-.24,2.75,2.75,0,0,0,.69-1.8C18.77,14.7,17.1,13.4,15,13.4Z"/><path class="cls-1" d="M4.5,10.73q.13-.23.3-.54a5.86,5.86,0,0,0,.35-.8,12.65,12.65,0,0,0,.36-1.25c.12-.49.2-.9.25-1.23a10.26,10.26,0,0,0,.06-1.23c0-.44,0-.74-.06-.89L5.61,4h.55c.08.09.2.2.35.34a9.34,9.34,0,0,1,.65.77c.28.37.56.77.83,1.21a8.63,8.63,0,0,1,.54.93l.47,1c.2-.55.37-1,.52-1.41S9.84,6,10,5.49s.32-.88.37-1L10.64,4h.51c.08.17.18.36.29.56a4.18,4.18,0,0,1,.37.92c.12.42.23.84.31,1.26s.18,1,.27,1.6a8.49,8.49,0,0,1,.11,1.52l0,.89H9.72c.15-.24.26-.45.35-.63a4.84,4.84,0,0,0,.28-.67c.09-.26.18-.53.26-.81s.13-.54.18-.79.08-.54.12-.84A7.3,7.3,0,0,0,11,6.07c0-.32,0-.51,0-.58L10.83,5c-.1.28-.24.72-.42,1.31s-.27.93-.3,1l-.75,2a2.76,2.76,0,0,0,.05.45l0,.51H7.6a2.58,2.58,0,0,0,.06-.37,5.88,5.88,0,0,0,0-.66,8.75,8.75,0,0,0-.18-1.47A5.27,5.27,0,0,0,7,6.25l-.49-.89c.13.65.24,1.23.33,1.72s.16,1,.21,1.55.08,1,.08,1.44v.66Z"/><path class="cls-1" d="M19,5.49c.07.15.16.34.25.55a3.85,3.85,0,0,1,.2,1.1,3.6,3.6,0,0,1-.3,1.66,3.27,3.27,0,0,1-.8,1.2,3.45,3.45,0,0,1-1.05.65,3,3,0,0,1-1.08.21,3.5,3.5,0,0,1-1.48-.33,2.8,2.8,0,0,1-1.26-1.07,3.41,3.41,0,0,1-.46-1.87,3.68,3.68,0,0,1,.23-1.44,5.15,5.15,0,0,1,.44-.86,2.71,2.71,0,0,1,.63-.66,3,3,0,0,1,1-.52,3.15,3.15,0,0,1,1-.17,2.6,2.6,0,0,1,1,.24,1.83,1.83,0,0,1,.76.57l.53.68-.42.27Zm-1.55.34.37-.09a7.6,7.6,0,0,0-.62-.66,1.35,1.35,0,0,0-1-.33,1.71,1.71,0,0,0-1.38.72,2.64,2.64,0,0,0-.57,1.45,3.77,3.77,0,0,0,.06,1.14,1.74,1.74,0,0,0,.51,1,1.57,1.57,0,0,0,1,.38,1.23,1.23,0,0,0,1-.38,1.51,1.51,0,0,0,.42-.94,4.39,4.39,0,0,0,0-1,2.31,2.31,0,0,0-.19-.68L16.79,6Z"/><path class="cls-1" d="M21.22,23H2.78A.78.78,0,0,1,2,22.22V1.78A.78.78,0,0,1,2.78,1H21.22a.78.78,0,0,1,.78.78V22.22A.78.78,0,0,1,21.22,23ZM3.55,21.44h16.9V2.56H3.55Z"/></svg>