<svg id="图层_1" data-name="图层 1" xmlns="http://www.w3.org/2000/svg" viewBox="0 0 24 24"><defs> </defs><title>mpcaitugl</title><path class="cls-1" d="M22.75,17.57h-.84a8.06,8.06,0,0,0-.33-.78l.59-.57a.47.47,0,0,0,0-.67l-.67-.67a.48.48,0,0,0-.67,0h0l-.56.59a7.44,7.44,0,0,0-.78-.34v-.83a.54.54,0,0,0-.54-.48H18a.54.54,0,0,0-.54.48v.83c-.17.08-.52.2-.78.34l-.57-.59a.47.47,0,0,0-.66,0h0l-.67.67a.46.46,0,0,0,0,.67h0l.59.56c-.14.26-.25.61-.33.78H14.2a.53.53,0,0,0-.47.54v.95a.53.53,0,0,0,.47.54H15c.08.17.19.52.33.77l-.59.58a.47.47,0,0,0,0,.66l.67.67a.48.48,0,0,0,.68,0h0l.55-.59c.26.14.61.25.78.33v.84a.53.53,0,0,0,.54.47H19a.53.53,0,0,0,.54-.47V22c.17-.08.53-.19.78-.33l.57.59a.47.47,0,0,0,.66,0h0l.68-.68a.47.47,0,0,0,0-.67h0l-.59-.55c.14-.26.25-.61.33-.78h.84a.54.54,0,0,0,.48-.54v-.95A.54.54,0,0,0,22.75,17.57Zm-4.27,3.16a2.15,2.15,0,1,1,2.14-2.15A2.14,2.14,0,0,1,18.48,20.73Z"/><path class="cls-1" d="M3.11,18.76a.74.74,0,0,0,.46.16.75.75,0,0,0,.59-.29l2.22-2.87,3.8,2a.75.75,0,0,0,1-.28L17.24,7.38A.74.74,0,1,0,16,6.61l-5.73,9.46L6.52,14.16a.74.74,0,0,0-.93.2L3,17.72A.75.75,0,0,0,3.11,18.76Z"/><path class="cls-1" d="M10.55,9.79a3.26,3.26,0,1,0-3.26,3.26A3.26,3.26,0,0,0,10.55,9.79Zm-5,0a1.77,1.77,0,1,1,1.77,1.77A1.78,1.78,0,0,1,5.52,9.79Z"/><path class="cls-1" d="M21.16,12.28a5.37,5.37,0,0,1,1.26,1.3V.67H6V2.16H21.16Z"/><path class="cls-1" d="M2.26,20.41V4.76H17.91v6.62a5.71,5.71,0,0,1,1.49.22V3.27H.77V21.9H13.85a6.11,6.11,0,0,1-1.24-1.49Z"/></svg>