<svg id="图层_1" data-name="图层 1" xmlns="http://www.w3.org/2000/svg" viewBox="0 0 24 24"><defs> </defs><title>mpcaitudy</title><path class="cls-1" d="M17.57,23.1l.12,0h-.12Z"/><path class="cls-1" d="M21.37,15.48V13.6h-6.1v1.88H13.41v5.25h1.86V22.6h6.1V20.73h1.86V15.48ZM16,14.35h4.65v1.13H16Zm4.65,7.5H16V19.6h4.65ZM22.5,20H21.37V18.85h-6.1V20H14.13V16.23H22.5Z"/><path class="cls-1" d="M20.68,16.6a.75.75,0,1,0,.73.75A.74.74,0,0,0,20.68,16.6Z"/><path class="cls-1" d="M3.11,19a.74.74,0,0,0,.46.16.75.75,0,0,0,.59-.29L6.38,16,10.18,18a.74.74,0,0,0,1-.28l6.08-10a.75.75,0,0,0-.25-1,.74.74,0,0,0-1,.26l-5.73,9.46L6.52,14.39a.74.74,0,0,0-.93.21L3,18A.75.75,0,0,0,3.11,19Z"/><path class="cls-1" d="M10.55,10a3.26,3.26,0,1,0-3.26,3.26A3.25,3.25,0,0,0,10.55,10Zm-5,0a1.77,1.77,0,1,1,1.77,1.77A1.77,1.77,0,0,1,5.52,10Z"/><path class="cls-1" d="M21.16,12.51a5.61,5.61,0,0,1,1.27,1.3V.9H6V2.39H21.16Z"/><path class="cls-1" d="M2.26,20.64V5H17.91v6.61a6.17,6.17,0,0,1,1.49.22V3.51H.77V22.13H13.85a6.11,6.11,0,0,1-1.24-1.49Z"/></svg>