<svg id="图层_1" data-name="图层 1" xmlns="http://www.w3.org/2000/svg" viewBox="0 0 24 24"><defs> </defs><title>mujianjichusz</title><path class="cls-1" d="M6.64,15.87a.78.78,0,0,1-.78.78H4.79a.79.79,0,1,1,0-1.57H5.86A.78.78,0,0,1,6.64,15.87ZM5.86,18H4.79a.78.78,0,0,0-.79.78.79.79,0,0,0,.79.79H5.86a.79.79,0,0,0,.78-.79A.78.78,0,0,0,5.86,18ZM2.58,21.42h7.84V23H2.52A1.55,1.55,0,0,1,1,21.42V2.58A1.55,1.55,0,0,1,2.52,1H13.57l6.3,6.3v3.15H18.29V8.85H13.57V2.58h-11ZM15.14,7.3h3.15L15.15,4.15ZM22.4,18.06c-1.33,1.27-4,3.4-7.26,3.4s-5.94-2.13-7.27-3.4a1.76,1.76,0,0,1,0-2.65C9.2,14.14,11.92,12,15.14,12s5.93,2.13,7.26,3.4A1.76,1.76,0,0,1,22.4,18.06Zm-1-1.33a.32.32,0,0,0-.11-.17c-1.16-1.11-3.51-3-6.18-3s-5,1.86-6.19,3a.32.32,0,0,0-.11.17.3.3,0,0,0,.11.18c1.16,1.11,3.51,3,6.19,3s5-1.86,6.18-3A.28.28,0,0,0,21.43,16.73Zm-6.24-1.58a1.58,1.58,0,1,0,1.55,1.58A1.57,1.57,0,0,0,15.19,15.15ZM11.07,9.72a.49.49,0,0,0,.09.55l.33.33a.25.25,0,0,1,.08.18.29.29,0,0,1-.07.18l-.76.76a.24.24,0,0,1-.18.07.28.28,0,0,1-.17-.07l-.34-.34a.47.47,0,0,0-.54-.09h0l-.25.11-.13,0h0a.47.47,0,0,0-.32.45.74.74,0,0,1-.68.73H7.94a.73.73,0,0,1-.73-.73.47.47,0,0,0-.32-.45h0a2.5,2.5,0,0,1-.38-.15h0a.47.47,0,0,0-.54.09l-.34.34a.22.22,0,0,1-.17.07.29.29,0,0,1-.18-.07L4.51,11a.24.24,0,0,1-.07-.18.22.22,0,0,1,.07-.17l.33-.34A.45.45,0,0,0,5,10.06a.5.5,0,0,0,0-.34h0a2.5,2.5,0,0,1-.15-.38v0A.46.46,0,0,0,4.32,9a.71.71,0,0,1-.69-.51.78.78,0,0,1,0-.22V8.14a.73.73,0,0,1,.73-.73.46.46,0,0,0,.44-.32v0a2.5,2.5,0,0,1,.15-.38h0a.47.47,0,0,0,0-.16.48.48,0,0,0-.13-.39L4.5,5.8a.27.27,0,0,1,0-.36l.5-.5.26-.26a.26.26,0,0,1,.17-.07.29.29,0,0,1,.18.07L5.88,5,5.94,5a.52.52,0,0,0,.31.14.46.46,0,0,0,.23,0h0A2.39,2.39,0,0,1,6.87,5h0a.48.48,0,0,0,.32-.45.73.73,0,0,1,.72-.73h.12a.7.7,0,0,1,.25.05.72.72,0,0,1,.47.68.48.48,0,0,0,.32.45h0l.13,0,.24.11h0A.47.47,0,0,0,10,5l.33-.34a.29.29,0,0,1,.18-.07.24.24,0,0,1,.17.07l.76.76a.27.27,0,0,1,0,.36l-.33.33a.49.49,0,0,0-.09.55h0c0,.13.11.25.15.38v0a.46.46,0,0,0,.44.32.73.73,0,0,1,.72.73v.12h0a.73.73,0,0,1-.73.73.46.46,0,0,0-.44.32v0a3,3,0,0,1-.15.38ZM10,8.25A2,2,0,0,0,8.94,6.46a1.9,1.9,0,0,0-.72-.23H8a2,2,0,0,0-1.2.4,1.93,1.93,0,0,0-.33.31A2,2,0,0,0,6,8.34a.57.57,0,0,0,0,.13A2.13,2.13,0,0,0,6.5,9.63a2,2,0,0,0,1.41.66h.31a2,2,0,0,0,.72-.23A2,2,0,0,0,10,8.25Z"/></svg>