<svg id="图层_1" data-name="图层 1" xmlns="http://www.w3.org/2000/svg" viewBox="0 0 24 24"><defs> </defs><title>mujianyan</title><path class="cls-1" d="M4.67,7.14A.73.73,0,0,1,4,6.36a.74.74,0,0,1,.67-.79h6.66a.74.74,0,0,1,.67.79.73.73,0,0,1-.67.78Z"/><path class="cls-1" d="M4.78,14.43a.79.79,0,0,1,0-1.57H6.35a.79.79,0,0,1,0,1.57Z"/><rect class="cls-1" x="5.71" y="7.5" width="1.57" height="5" rx="0.79" ry="0.79" transform="translate(16.5 3.5) rotate(90)"/><path class="cls-1" d="M2.58,2.58h11V8.85h4.72v1.6h1.58V7.3L13.57,1h-11A1.55,1.55,0,0,0,1,2.58V21.42A1.55,1.55,0,0,0,2.52,23h7.9V21.42H2.58ZM15.15,4.15,18.29,7.3H15.14ZM22.4,15.41c-1.33-1.27-4-3.4-7.26-3.4s-5.94,2.13-7.27,3.4a1.76,1.76,0,0,0,0,2.65c1.33,1.27,4.05,3.4,7.27,3.4s5.93-2.13,7.26-3.4A1.76,1.76,0,0,0,22.4,15.41Zm-1.08,1.5c-1.16,1.11-3.51,3-6.18,3s-5-1.86-6.19-3a.3.3,0,0,1-.11-.18A.32.32,0,0,1,9,16.56c1.16-1.11,3.51-3,6.19-3s5,1.86,6.18,3a.32.32,0,0,1,.11.17A.28.28,0,0,1,21.32,16.91Zm-6.13-1.76a1.58,1.58,0,1,0,1.55,1.58A1.57,1.57,0,0,0,15.19,15.15Z"/></svg>