<?xml version="1.0" standalone="no"?><!DOCTYPE svg PUBLIC "-//W3C//DTD SVG 1.1//EN" "http://www.w3.org/Graphics/SVG/1.1/DTD/svg11.dtd"><svg t="1553045623190" class="icon" style="" viewBox="0 0 1024 1024" version="1.1" xmlns="http://www.w3.org/2000/svg" p-id="9476" xmlns:xlink="http://www.w3.org/1999/xlink" width="200" height="200"><defs><style type="text/css"></style></defs><path d="M1017.6 697.6c-12.8-12.8-217.6-192-230.4-204.8-12.8-12.8-25.6-12.8-25.6-12.8H435.2s-51.2 6.4-51.2 51.2c0 32 19.2 57.6 51.2 64s89.6 19.2 140.8 25.6c19.2 0 0 12.8 0 12.8l-64 44.8H294.4s-89.6-64-153.6-115.2C44.8 492.8 6.4 563.2 6.4 563.2s-12.8 25.6 0 38.4c51.2 44.8 236.8 211.2 249.6 224s32 6.4 32 6.4h377.6c32 0 51.2 19.2 51.2 19.2s57.6 51.2 76.8 64c32 25.6 44.8 0 44.8 0l172.8-185.6c6.4 0 19.2-19.2 6.4-32m0 0z m-262.4-595.2c0 19.2-6.4 25.6-25.6 25.6H307.2c-12.8 0-25.6-6.4-25.6-25.6v-12.8c0-12.8 12.8-25.6 25.6-25.6h428.8c12.8 0 25.6 19.2 25.6 32l-6.4 6.4M83.2 96c0 19.2 19.2 38.4 38.4 38.4s38.4-19.2 38.4-38.4-19.2-32-38.4-32-38.4 19.2-38.4 32m672 211.2c0 19.2-6.4 25.6-25.6 25.6H307.2c-12.8 0-25.6-6.4-25.6-25.6v-12.8c0-19.2 12.8-32 25.6-32h428.8c12.8 0 25.6 19.2 25.6 32l-6.4 12.8M83.2 300.8c0 19.2 19.2 38.4 38.4 38.4s38.4-19.2 38.4-38.4-19.2-38.4-38.4-38.4-38.4 19.2-38.4 38.4" p-id="9477"></path></svg>
