<svg id="图层_1" data-name="图层 1" xmlns="http://www.w3.org/2000/svg" viewBox="0 0 24 24"><defs><style>.cls-1{fill:;}</style></defs><title>ngrk</title><path class="cls-1" d="M12.7,17.7a.3.3,0,0,0,.1.2h0a.4.4,0,0,1-.1.3c0,.1-.1.2-.1.3h0L8.9,22.3l-.3.2H8.2l-.4-.3c-.1,0-.2-.2-.2-.3v-.4c0-.1.1-.2.2-.3h0l2.3-2.4H2.3a.7.7,0,0,1-.6-.2.8.8,0,0,1-.2-.5,1.4,1.4,0,0,1,.2-.6l.6-.2h7.8L7.8,15h0l-.3-.3v-.4l.2-.4.4-.2h.4l.4.2h0l3.6,3.5h0c.1,0,.1.1.2.2ZM22.4,8l-.3-.3L12.4,1.6h-.8L1.9,7.7,1.6,8a.4.4,0,0,0-.1.3V12a.8.8,0,0,0,.2.5l.6.3a.5.5,0,0,0,.5-.3.5.5,0,0,0,.3-.5V9a.4.4,0,0,1,.2-.4l8.5-5.3h.4l8.5,5.3a.4.4,0,0,1,.2.4V20.5a.4.4,0,0,1-.4.4H16.2a.9.9,0,0,0-.6.3.8.8,0,0,0-.2.5,1.4,1.4,0,0,0,.2.6l.6.2h5.5l.6-.2a1.4,1.4,0,0,0,.2-.6V8.3A.4.4,0,0,0,22.4,8ZM7.8,9.1l2.7,4.2h1V7.4h-1v4.2L7.8,7.4h-1v5.9h1Zm9.5,3.2V10H14.7v1h1.6v1a1.7,1.7,0,0,1-1.4.5c-1,0-1.5-.8-1.6-2.1s.6-2.1,1.6-2.2a1.4,1.4,0,0,1,1.4,1.2l1-.4a2.4,2.4,0,0,0-2.4-1.8c-1.6.2-2.5,1.2-2.6,3.2s.9,2.9,2.6,3A2.6,2.6,0,0,0,17.3,12.3Z"/></svg>
