<?xml version="1.0" standalone="no"?><!DOCTYPE svg PUBLIC "-//W3C//DTD SVG 1.1//EN" "http://www.w3.org/Graphics/SVG/1.1/DTD/svg11.dtd"><svg t="1547016047674" class="icon" style="" viewBox="0 0 1582 1024" version="1.1" xmlns="http://www.w3.org/2000/svg" p-id="1415" xmlns:xlink="http://www.w3.org/1999/xlink" width="308.984375" height="200"><defs><style type="text/css"></style></defs><path d="M472.436364 344.436364h232.727272c6.981818 2.327273 11.636364-2.327273 13.963637-9.309091 2.327273-6.981818-2.327273-11.636364-9.309091-13.963637H472.436364c-6.981818 2.327273-11.636364 6.981818-9.309091 13.963637 2.327273 4.654545 4.654545 6.981818 9.309091 9.309091zM635.345455 525.963636h-162.909091c-6.981818 0-11.636364 4.654545-11.636364 11.636364s4.654545 11.636364 11.636364 11.636364h162.909091c6.981818 0 11.636364-4.654545 11.636363-11.636364s-4.654545-11.636364-11.636363-11.636364zM819.2 421.236364H472.436364c-6.981818 0-11.636364 4.654545-11.636364 11.636363s4.654545 11.636364 11.636364 11.636364h344.436363c6.981818 0 11.636364-4.654545 11.636364-11.636364s-4.654545-11.636364-9.309091-11.636363zM176.872727 916.945455H48.872727c-6.981818 0-11.636364 4.654545-11.636363 11.636363s4.654545 11.636364 11.636363 11.636364h128c6.981818 0 11.636364-4.654545 11.636364-11.636364s-4.654545-11.636364-11.636364-11.636363z" p-id="1416" fill="#bfbfbf"></path><path d="M1224.145455 819.2H1117.090909c20.945455-18.618182 32.581818-41.890909 32.581818-69.818182V195.490909c0-51.2-41.890909-93.090909-93.090909-93.090909H581.818182c-51.2 0-93.090909 41.890909-93.090909 93.090909V209.454545h-74.472728c-39.563636 0-72.145455 32.581818-72.145454 72.145455v591.127273c0 16.290909 6.981818 34.909091 18.618182 46.545454h-95.418182c-6.981818 0-11.636364 4.654545-11.636364 11.636364s4.654545 11.636364 11.636364 11.636364h505.018182l69.818182 69.818181c11.636364 11.636364 30.254545 11.636364 41.890909 0s11.636364-27.927273 2.327272-39.563636l-30.254545-30.254545h148.945454c6.981818 0 11.636364-4.654545 11.636364-11.636364s-4.654545-11.636364-11.636364-11.636364H977.454545c11.636364-11.636364 18.618182-30.254545 18.618182-46.545454v-27.927273h225.745455c6.981818 0 11.636364-4.654545 11.636363-11.636364 2.327273-6.981818-2.327273-13.963636-9.30909-13.963636z m-393.309091 97.745455l-65.163637-65.163637c-9.309091-9.309091-20.945455-11.636364-32.581818-6.981818l-23.272727-23.272727c46.545455-53.527273 41.890909-134.981818-11.636364-181.527273s-134.981818-41.890909-181.527273 11.636364-41.890909 134.981818 11.636364 181.527272c46.545455 39.563636 116.363636 41.890909 162.909091 2.327273l23.272727 23.272727c-4.654545 11.636364-2.327273 23.272727 6.981818 30.254546l25.6 25.6H414.254545c-25.6 0-46.545455-20.945455-48.872727-46.545455V279.272727c0-25.6 20.945455-48.872727 46.545455-48.872727h512c25.6 0 46.545455 20.945455 46.545454 48.872727v591.127273c0 25.6-20.945455 46.545455-46.545454 46.545455h-93.090909z m-216.436364-74.472728c-58.181818 0-104.727273-46.545455-104.727273-104.727272s46.545455-104.727273 104.727273-104.727273 104.727273 46.545455 104.727273 104.727273-46.545455 104.727273-104.727273 104.727272z m384-23.272727V279.272727c0-39.563636-30.254545-69.818182-69.818182-72.145454H512v-11.636364c0-39.563636 30.254545-69.818182 69.818182-69.818182h474.763636c39.563636 0 69.818182 30.254545 69.818182 69.818182v553.890909c0 39.563636-30.254545 69.818182-69.818182 69.818182h-58.181818zM134.981818 349.090909c0-32.581818-25.6-58.181818-58.181818-58.181818S18.618182 316.509091 18.618182 349.090909s25.6 58.181818 58.181818 58.181818 58.181818-25.6 58.181818-58.181818z m-100.072727 0c0-23.272727 18.618182-41.890909 41.890909-41.890909s41.890909 18.618182 41.890909 41.890909-18.618182 41.890909-41.890909 41.890909S34.909091 372.363636 34.909091 349.090909zM1354.472727 165.236364c-32.581818 0-58.181818 25.6-58.181818 58.181818s25.6 58.181818 58.181818 58.181818 58.181818-25.6 58.181818-58.181818c0-30.254545-25.6-58.181818-58.181818-58.181818z m0 100.072727c-23.272727 0-41.890909-18.618182-39.563636-41.890909s18.618182-41.890909 41.890909-39.563637c23.272727 0 39.563636 18.618182 39.563636 41.89091 0 20.945455-18.618182 39.563636-41.890909 39.563636zM274.618182 128V93.090909h37.236363c6.981818 0 11.636364-4.654545 11.636364-11.636364s-6.981818-11.636364-13.963636-11.636363h-37.236364V32.581818c0-6.981818-4.654545-11.636364-11.636364-11.636363s-11.636364 4.654545-11.636363 11.636363V69.818182H214.109091c-6.981818 0-11.636364 4.654545-11.636364 11.636363s4.654545 11.636364 11.636364 11.636364h37.236364v34.909091c0 6.981818 4.654545 11.636364 11.636363 11.636364s11.636364-4.654545 11.636364-11.636364zM195.490909 712.145455H169.890909v-25.6c0-4.654545-4.654545-6.981818-9.309091-6.981819s-6.981818 4.654545-6.981818 6.981819v25.6H128c-4.654545 0-9.309091 4.654545-9.309091 9.30909s4.654545 9.309091 9.309091 9.309091h25.6v25.6c0 4.654545 4.654545 6.981818 9.309091 6.981819s6.981818-4.654545 6.981818-6.981819v-25.6h25.6c4.654545 0 9.309091-2.327273 9.309091-9.309091 0-4.654545-4.654545-9.309091-9.309091-9.30909zM1554.618182 628.363636h-27.927273v-27.927272c0-4.654545-4.654545-9.309091-6.981818-9.309091-4.654545 0-9.309091 4.654545-9.309091 9.309091V628.363636h-27.927273c-4.654545 0-9.309091 2.327273-9.309091 6.981819 0 4.654545 2.327273 9.309091 6.981819 9.30909h30.254545v27.927273c0 4.654545 4.654545 9.309091 9.309091 9.309091s9.309091-4.654545 9.309091-9.309091v-27.927273h27.927273c4.654545 0 9.309091-2.327273 9.30909-6.981818 0-4.654545-2.327273-9.309091-6.981818-9.309091h-4.654545z" p-id="1417"></path></svg>
