<svg id="图层_1" data-name="图层 1" xmlns="http://www.w3.org/2000/svg" viewBox="0 0 24 24"><defs> </defs><title>pass</title><path class="cls-1" d="M19.24,9.28V7.16c0-3.4-3.17-6.16-7.07-6.16S5.09,3.76,5.09,7.16V9.24A3.1,3.1,0,0,0,2,12.13v8A3.14,3.14,0,0,0,5.33,23H18.67A3.14,3.14,0,0,0,22,20.1v-8A3,3,0,0,0,19.24,9.28Zm-5.6,7.42v2.69h-2.5V16.75a2.26,2.26,0,0,1-1.4-2,2.45,2.45,0,0,1,2.61-2.27A2.45,2.45,0,0,1,15,14.73,2.24,2.24,0,0,1,13.64,16.7ZM17,9.23H7.31V7.54c0-2.33,2.17-4.22,4.84-4.22S17,5.21,17,7.54V9.23Z"/></svg>