<svg id="图层_1" data-name="图层 1" xmlns="http://www.w3.org/2000/svg" viewBox="0 0 24 24"><defs> </defs><title>peizhigl</title><path class="cls-1" d="M13.54,12.31H8.4a.71.71,0,0,0-.71.72v0a.71.71,0,0,0,.71.71h5.14a.71.71,0,0,0,.71-.71v0A.71.71,0,0,0,13.54,12.31Z"/><path class="cls-1" d="M15,16.78H2.67a.87.87,0,0,1-.88-.85V4.38a.87.87,0,0,1,.88-.85H20.2a.86.86,0,0,1,.88.85V7.46a6.69,6.69,0,0,1,1.61.42V3.94a2,2,0,0,0-2-1.94H2.2a2,2,0,0,0-2,1.94V16.37a2,2,0,0,0,2,1.94H16.56A6.13,6.13,0,0,1,15,16.78Z"/><path class="cls-1" d="M14.25,7.59a.72.72,0,0,0-.71-.72H8.4a.72.72,0,0,0-.71.72v0a.71.71,0,0,0,.71.71h5.14a.71.71,0,0,0,.71-.71Z"/><path class="cls-1" d="M6.66,10.31A.71.71,0,0,0,6,9.59H4.55a.71.71,0,0,0-.71.72v0a.71.71,0,0,0,.71.71H6a.71.71,0,0,0,.71-.71Z"/><path class="cls-1" d="M14.25,10.31a.71.71,0,0,0-.71-.72H8.4a.71.71,0,0,0-.71.72v0A.71.71,0,0,0,8.4,11h5.14a.71.71,0,0,0,.71-.71Z"/><path class="cls-1" d="M18.19,20.3H4.69c-.68,0-1.13.34-1.13.85S4,22,4.69,22h13.5c.67,0,1.12-.34,1.12-.85S18.86,20.3,18.19,20.3Z"/><path class="cls-1" d="M23.8,13.25v-.13a.74.74,0,0,0-.74-.74.49.49,0,0,1-.46-.33v0c-.05-.13-.1-.26-.16-.39h0a.49.49,0,0,1,.1-.56l.34-.35a.29.29,0,0,0,.07-.18.24.24,0,0,0-.07-.18l-.78-.78a.27.27,0,0,0-.36,0l-.34.34a.47.47,0,0,1-.55.1h0l-.25-.11-.13-.05h0a.47.47,0,0,1-.33-.46.75.75,0,0,0-.49-.7.66.66,0,0,0-.25,0h-.12a.74.74,0,0,0-.74.74.47.47,0,0,1-.33.46h0a2.54,2.54,0,0,0-.38.16h0a.46.46,0,0,1-.23.05.5.5,0,0,1-.32-.15l-.06-.05-.28-.29a.27.27,0,0,0-.36,0l-.26.27-.51.51a.27.27,0,0,0,0,.36l.34.35a.46.46,0,0,1,.14.4.42.42,0,0,1,0,.15v0A3.52,3.52,0,0,0,16,12v0a.48.48,0,0,1-.45.33.74.74,0,0,0-.74.74v.13a.83.83,0,0,0,0,.22.73.73,0,0,0,.71.52.48.48,0,0,1,.45.34h0a3.2,3.2,0,0,0,.16.39v0a.5.5,0,0,1,0,.34.55.55,0,0,1-.12.21l-.35.35a.27.27,0,0,0,0,.36l.78.78a.23.23,0,0,0,.18.07.26.26,0,0,0,.18-.07l.34-.35a.49.49,0,0,1,.55-.09h0l.38.16h0a.5.5,0,0,1,.32.46.75.75,0,0,0,.74.75h.18A.74.74,0,0,0,20.1,17a.51.51,0,0,1,.33-.46h0l.13-.05.25-.11h0a.48.48,0,0,1,.55.09l.35.35a.23.23,0,0,0,.18.07.26.26,0,0,0,.18-.07l.77-.78a.27.27,0,0,0,0-.36l-.34-.35a.47.47,0,0,1-.1-.55v0a3.2,3.2,0,0,0,.16-.39v0a.48.48,0,0,1,.45-.33.74.74,0,0,0,.74-.74h0Zm-3.53,1.83a2.13,2.13,0,0,1-.74.23,1.71,1.71,0,0,1-.32,0,2,2,0,0,1-1.45-.68,2.07,2.07,0,0,1-.53-1.18.61.61,0,0,1,0-.14,2.08,2.08,0,0,1,.5-1.44,2,2,0,0,1,.34-.31,2,2,0,0,1,1.23-.41h.24a2.06,2.06,0,0,1,1.83,2.07A2.1,2.1,0,0,1,20.27,15.08Z"/><path class="cls-1" d="M6,12.31H4.55a.71.71,0,0,0-.71.72v0a.71.71,0,0,0,.71.71H6a.71.71,0,0,0,.71-.71v0A.71.71,0,0,0,6,12.31Z"/><path class="cls-1" d="M6.66,7.59A.72.72,0,0,0,6,6.87H4.55a.72.72,0,0,0-.71.72v0a.71.71,0,0,0,.71.71H6a.71.71,0,0,0,.71-.71Z"/></svg>