<svg id="图层_1" data-name="图层 1" xmlns="http://www.w3.org/2000/svg" viewBox="0 0 24 24"><defs></defs><title>pilcx</title><path class="cls-1" d="M22.9,20.4h0l-2.6-2.6a6.1,6.1,0,0,0,1.1-3.6,5.9,5.9,0,1,0-5.8,6A5,5,0,0,0,19,19l2.7,2.7h0a.8.8,0,0,0,.7.3.9.9,0,0,0,.9-.9A1,1,0,0,0,22.9,20.4Zm-7.3-2a4.2,4.2,0,0,1,0-8.3,4.2,4.2,0,0,1,0,8.3Z"/><path class="cls-1" d="M1.8,4.2H20.7a1,1,0,0,0,1-1.1,1,1,0,0,0-1-1.1H1.8a1.1,1.1,0,0,0,0,2.2Z"/><path class="cls-1" d="M1.8,12.6H6.9a1.1,1.1,0,0,0,0-2.2H1.8a1.1,1.1,0,0,0,0,2.2Z"/><path class="cls-1" d="M7.8,18.9h-6a1.1,1.1,0,0,0,0,2.2h6a1.1,1.1,0,0,0,0-2.2Z"/></svg>
