<svg id="图层_1" data-name="图层 1" xmlns="http://www.w3.org/2000/svg" viewBox="0 0 24 24"><defs></defs><title>pilxz</title><polygon class="cls-1" points="17.1 11.6 17.1 8.6 15 10.7 15 5.7 12.2 5.7 12.2 10.7 10.7 9.1 10.1 8.6 10.1 11.6 13.6 15 17.1 11.6"/><path class="cls-1" d="M22.2,1H5a.9.9,0,0,0-.8.8V19a.9.9,0,0,0,.8.8H22.2A.9.9,0,0,0,23,19V1.8A.9.9,0,0,0,22.2,1Zm-.8,17.2H5.8V2.6H21.4Z"/><path class="cls-1" d="M19.1,21.4H2.8V5A.9.9,0,0,0,2,4.2a.8.8,0,0,0-.8.8V22.2A.8.8,0,0,0,2,23H19.1a.8.8,0,1,0,0-1.6Z"/></svg>