<svg id="图层_1" data-name="图层 1" xmlns="http://www.w3.org/2000/svg" viewBox="0 0 24 24"><defs> </defs><title>pljy</title><path class="cls-1" d="M2.58,2.58h11V8.85h4.72v1.6h1.58V7.3L13.57,1h-11A1.55,1.55,0,0,0,1,2.58V21.42A1.55,1.55,0,0,0,2.52,23h7.9V21.42H2.58ZM15.15,4.15,18.29,7.3H15.14Z"/><path class="cls-1" d="M22.4,15.41c-1.33-1.27-4-3.4-7.26-3.4s-5.94,2.13-7.27,3.4a1.76,1.76,0,0,0,0,2.65c1.33,1.27,4.05,3.4,7.27,3.4s5.93-2.13,7.26-3.4A1.76,1.76,0,0,0,22.4,15.41Zm-1.08,1.5c-1.16,1.11-3.51,3-6.18,3s-5-1.86-6.19-3a.3.3,0,0,1-.11-.18A.32.32,0,0,1,9,16.56c1.16-1.11,3.51-3,6.19-3s5,1.86,6.18,3a.32.32,0,0,1,.11.17A.28.28,0,0,1,21.32,16.91Z"/><path class="cls-1" d="M15.19,15.15a1.58,1.58,0,1,0,1.55,1.58A1.57,1.57,0,0,0,15.19,15.15Z"/><path class="cls-1" d="M4.07,4.13V11.5H5.22V8.92h.87c1.37,0,2.06-.82,2.06-2.45s-.7-2.3-2-2.34ZM6.93,6.54c0,.72-.33,1.08-.93,1.11H5.22V5.44H6C6.6,5.46,6.91,5.83,6.93,6.54Z"/><polygon class="cls-1" points="8.89 4.13 8.89 11.5 12.69 11.5 12.69 10.22 10.04 10.22 10.04 4.13 8.89 4.13"/></svg>