<?xml version="1.0" standalone="no"?><!DOCTYPE svg PUBLIC "-//W3C//DTD SVG 1.1//EN" "http://www.w3.org/Graphics/SVG/1.1/DTD/svg11.dtd"><svg t="1560993814460" class="icon" style="" viewBox="0 0 1024 1024" version="1.1" xmlns="http://www.w3.org/2000/svg" p-id="5407" xmlns:xlink="http://www.w3.org/1999/xlink" width="200" height="200"><defs><style type="text/css"></style></defs><path d="M5.9 217.203c0-23.623 19.223-42.793 42.917-42.793h171.727c23.75 0 42.97 19.17 42.97 42.793 0 23.648-19.22 42.817-42.969 42.818H48.82c-23.697 0-42.919-19.171-42.919-42.818z m0 599.254c0-23.648 19.223-42.793 42.917-42.793h157.437c23.699 0 42.918 19.145 42.918 42.793s-19.218 42.819-42.918 42.819H48.817c-23.695 0-42.917-19.171-42.917-42.82z m758.502-299.626c0-23.623 19.22-42.793 42.969-42.793h171.727c23.699 0 42.918 19.17 42.918 42.793 0 23.648-19.22 42.819-42.918 42.819H807.373c-23.75-0.001-42.969-19.171-42.97-42.819zM406.611 217.203c0-23.623 19.22-42.793 42.97-42.793h529.515c23.699 0 42.918 19.17 42.918 42.793 0 23.648-19.22 42.817-42.919 42.818H449.58c-23.75 0-42.969-19.171-42.969-42.818zM5.9 516.831c0-23.623 19.223-42.793 42.917-42.793h529.571c23.699 0 42.918 19.17 42.918 42.793 0 23.648-19.22 42.819-42.918 42.819H48.817C25.122 559.649 5.9 540.479 5.9 516.83z m400.712 299.626c0-23.648 19.22-42.793 42.97-42.793h529.515c23.699 0 42.918 19.145 42.918 42.793s-19.22 42.819-42.918 42.819H449.582c-23.75 0-42.969-19.171-42.97-42.819z" p-id="5408"></path><path d="M311.263 48.294c28.478 0 51.522 23.245 51.523 51.046v207.047c0 28.202-22.892 51.046-51.523 51.046-28.477 0-51.523-23.246-51.523-51.046V99.34c0-28.202 22.895-51.046 51.523-51.046z m360.662 309.138c28.475 0 51.523 23.244 51.522 51.044v207.048c0 28.202-22.896 51.046-51.523 51.046-28.479 0-51.523-23.246-51.523-51.046V408.476c0-28.201 22.893-51.044 51.523-51.044zM311.263 666.569c28.478 0 51.522 23.245 51.522 51.044v207.048c0 28.201-22.892 51.046-51.523 51.046-28.477 0-51.523-23.246-51.523-51.046V717.613c0-28.201 22.895-51.044 51.523-51.044z" p-id="5409"></path></svg>