<?xml version="1.0" standalone="no"?><!DOCTYPE svg PUBLIC "-//W3C//DTD SVG 1.1//EN" "http://www.w3.org/Graphics/SVG/1.1/DTD/svg11.dtd"><svg t="1563416342108" class="icon" viewBox="0 0 1024 1024" version="1.1" xmlns="http://www.w3.org/2000/svg" p-id="1239" xmlns:xlink="http://www.w3.org/1999/xlink" width="200" height="200"><defs><style type="text/css"></style></defs><path d="M954.586 236.14l-89.035-132.558c-9.677-17.813-30.292-37.609-58.556-37.609H218.004c-32.385 0-53.416 29.691-57.82 36.517L71.322 236.278A32.026 32.026 0 0 0 65.973 254v652.294c0 29.793 24.238 54.031 54.031 54.031h785.991c29.793 0 54.031-24.238 54.031-54.031V254a32.032 32.032 0 0 0-5.44-17.86z m-740.899-98.413c0.202-0.304 0.148-0.209 0.283-0.429 1.773-2.628 4.71-5.79 6.667-7.262h585.041c1.146 0.909 2.817 2.896 3.777 4.531 0.658 1.427 1.01 1.896 1.95 3.297L889.409 254H136.458l77.229-116.273z m-83.651 758.536v-576.04h765.928v576.04H130.036z" p-id="1240"></path><path d="M711.657 429.506L452.114 689.049 313.53 550.466c-12.578-12.578-32.969-12.578-45.546 0-12.577 12.577-12.577 32.968 0 45.546l161.357 161.356c12.578 12.578 32.969 12.577 45.546 0l282.315-282.315c12.577-12.577 12.577-32.968 0-45.545s-32.968-12.578-45.545-0.002z" p-id="1241"></path></svg>