<svg id="图层_1" data-name="图层 1" xmlns="http://www.w3.org/2000/svg" viewBox="0 0 24 24"><defs> </defs><title>qiehuan</title><path class="cls-1" d="M22.9,8.32A11.51,11.51,0,1,0,23.5,12,11.49,11.49,0,0,0,22.9,8.32ZM12,21.8A9.79,9.79,0,1,1,21.8,12,9.82,9.82,0,0,1,12,21.8Z"/><path class="cls-1" d="M18.32,9.92,14.64,6.24a.74.74,0,0,0-1,1L16,9.71H6.2a.73.73,0,1,0,0,1.46H17.8a.76.76,0,0,0,.16,0,.72.72,0,0,0,.36-.18.67.67,0,0,0,.09-.14l.07-.11v0a.71.71,0,0,0,.06-.25.42.42,0,0,0,0-.15A.59.59,0,0,0,18.32,9.92Z"/><path class="cls-1" d="M17.8,12.84H6.23a.72.72,0,0,0-.55.21,1.1,1.1,0,0,0-.09.14l-.07.11v0a.65.65,0,0,0-.06.24.42.42,0,0,0,0,.16.65.65,0,0,0,.18.36l3.68,3.69a.75.75,0,0,0,1,0,.76.76,0,0,0,0-1.05L8,14.31H17.8a.75.75,0,0,0,.74-.74A.74.74,0,0,0,17.8,12.84Z"/></svg>