<svg id="图层_1" data-name="图层 1" xmlns="http://www.w3.org/2000/svg" viewBox="0 0 24 24"><defs> </defs><title></title><path class="cls-1" d="M4.31,23.5h0c-.34-.11-1.45-.66-1.45-2.95V14.92a14.14,14.14,0,0,1,2-5.69l0-.07H8.48l.07,0A2.65,2.65,0,0,1,9.8,10.8a2.42,2.42,0,0,1-.37,1.93c.34.15,3.58,1.57,5.49,2.43a4.72,4.72,0,0,1,2.69,2.47,4.61,4.61,0,0,1-.38,3.61,7.6,7.6,0,0,1-1.36,2.2l0,.06Zm10.87-1.32A6.53,6.53,0,0,0,16,20.77l0-.06a3.38,3.38,0,0,0,.33-2.59,3.28,3.28,0,0,0-2-1.72C12.56,15.59,9.54,14.26,9,14l-1.43-.64.76-1.26c.38-.62.25-.9.25-.92v0a1.23,1.23,0,0,0-.38-.56l-.07-.08H5.59A13.22,13.22,0,0,0,4.12,15v5.54A2.53,2.53,0,0,0,4.44,22a.36.36,0,0,0,.15.17H15.18ZM12.11,10.36c-.09,0-.28,0-.71-.36h0l0,0c-.21-.43-1.19-2.24-2.09-2.32h0A.34.34,0,0,1,9,7.39c-.06-.23.07-.68,1-1.54l0,0h.78l0,.15c.06.66.34,2.86,1.4,3.61l0,0,0,.07a.89.89,0,0,1,0,.59v0A.87.87,0,0,1,12.11,10.36Zm-7-1.63V7a2.62,2.62,0,0,0-2-1.62L3,5.37V4.66A4.73,4.73,0,0,1,5.33,2H11V4.89h-.44A4.39,4.39,0,0,0,8.48,7.26V8.71Zm2.07-1.3V7.07l.09-.23A6,6,0,0,1,8.91,4.43a7.66,7.66,0,0,1,.8-.58V3.27H5.63a3.41,3.41,0,0,0-1.08,1l-.15.2,0,0,0,0A3.81,3.81,0,0,1,6.28,6.65l.06.19v.57h.8Zm13.17-.85a.81.81,0,1,1,.8-.81A.8.8,0,0,1,20.31,6.58Zm-1.9-1.15a.74.74,0,1,1,.72-.73A.71.71,0,0,1,18.41,5.43Zm-7-.53V2h1.1l.43.52V4.41l-.54.49Zm8.94-.41a.79.79,0,1,1,.78-.79A.79.79,0,0,1,20.38,4.49Zm-3.71-.06A.68.68,0,0,1,16,3.74.7.7,0,0,1,16.67,3a.69.69,0,0,1,.69.7A.72.72,0,0,1,16.67,4.43Zm1.81-1.35a.76.76,0,0,1,0-1.51.76.76,0,0,1,0,1.51Zm1.9-1a.78.78,0,0,1-.78-.79.78.78,0,1,1,1.56,0A.79.79,0,0,1,20.38,2.08Z"/></svg>
