<svg id="图层_1" data-name="图层 1" xmlns="http://www.w3.org/2000/svg" viewBox="0 0 24 24"><defs> </defs><title>qitigenghuan</title><path class="cls-1" d="M21.78,6.69a.53.53,0,0,1,0,.8L20.25,8.87a.66.66,0,0,1-.84,0,.53.53,0,0,1-.05-.8l.43-.39H15.07a3.2,3.2,0,0,1-3.35-3,3.15,3.15,0,0,1,.6-1.83.66.66,0,0,1,.86-.17.53.53,0,0,1,.19.78A2.12,2.12,0,0,0,13,4.66a2,2,0,0,0,2.1,1.89h4.79l-.49-.44a.53.53,0,0,1,0-.78.66.66,0,0,1,.88,0l1.53,1.38ZM20.5,1.46H15.36l.57-.52a.53.53,0,0,0,0-.8.69.69,0,0,0-.84,0L13.51,1.52a.53.53,0,0,0,0,.8h0L15,3.7a.68.68,0,0,0,.89,0,.54.54,0,0,0,0-.76l-.35-.31H20.5a2,2,0,0,1,2.1,1.89,2.14,2.14,0,0,1-.42,1.25.53.53,0,0,0,.18.78.67.67,0,0,0,.34.09.63.63,0,0,0,.52-.25,3.17,3.17,0,0,0,.63-1.87A3.2,3.2,0,0,0,20.5,1.46ZM17.83,14.61h3.63v9H17.83v-1H15.29A8,8,0,0,1,7.1,14.76V12.88a.59.59,0,0,0-.62-.6H3.78v.89H.15v-9H3.78v1H6.32A8,8,0,0,1,14.51,13v1.88a.58.58,0,0,0,.62.59h2.7ZM2.74,5.09H1.19v7.09H2.74ZM18.92,22.64h1.55V15.55H18.92ZM18.4,16.5H15.18a1.6,1.6,0,0,1-1.65-1.59V13A7,7,0,0,0,6.37,6.14H3.31v5.2H6.53a1.6,1.6,0,0,1,1.66,1.59v1.88a7,7,0,0,0,7.15,6.84H18.4ZM6.72,22.66a.69.69,0,0,0-.74.2.85.85,0,0,1-.54.36,1.47,1.47,0,0,1-.88-.31A2.41,2.41,0,0,0,3,22.22a3.2,3.2,0,0,0-2,.51A.35.35,0,0,0,.81,23a.33.33,0,0,0,.14.26.78.78,0,0,0,.81,0A1.85,1.85,0,0,1,2.86,23a1.39,1.39,0,0,1,.81.4,2.77,2.77,0,0,0,2,.6A1.92,1.92,0,0,0,7,23.16C7.15,23,7,22.74,6.72,22.66Zm0-2.09a.68.68,0,0,0-.74.2.89.89,0,0,1-.54.36,1.42,1.42,0,0,1-.88-.32A2.47,2.47,0,0,0,3,20.12a3.34,3.34,0,0,0-2,.51.31.31,0,0,0-.05.55.78.78,0,0,0,.81,0,1.79,1.79,0,0,1,1.1-.32,1.4,1.4,0,0,1,.81.39,2.78,2.78,0,0,0,2,.61A1.92,1.92,0,0,0,7,21.07C7.15,20.87,7,20.65,6.72,20.57Zm0-2.1a.68.68,0,0,0-.74.21.89.89,0,0,1-.54.36,1.56,1.56,0,0,1-.88-.32A2.41,2.41,0,0,0,3,18a3.2,3.2,0,0,0-2,.51.36.36,0,0,0-.19.29.33.33,0,0,0,.14.25.78.78,0,0,0,.81,0,1.8,1.8,0,0,1,1.1-.33,1.39,1.39,0,0,1,.81.4,2.78,2.78,0,0,0,2,.61A1.92,1.92,0,0,0,7,19C7.15,18.78,7,18.56,6.72,18.47Z"/></svg>