<svg id="图层_1" data-name="图层 1" xmlns="http://www.w3.org/2000/svg" viewBox="0 0 24 24"><defs><style>.cls-1{fill:#009494;}</style></defs><title></title><path class="cls-1" d="M2,19.78H22V4.22H2ZM3,5.33H21V18.67H3Z"/><rect class="cls-1" x="4.5" y="7" width="15" height="10"/><polygon class="cls-1" points="1 3.11 3 3.11 3 2 0 2 0 5.33 1 5.33 1 3.11"/><polygon class="cls-1" points="1 18.67 0 18.67 0 22 3 22 3 20.89 1 20.89 1 18.67"/><polygon class="cls-1" points="21 2 21 3.11 23 3.11 23 5.33 24 5.33 24 2 21 2"/><polygon class="cls-1" points="23 20.89 21 20.89 21 22 24 22 24 18.67 23 18.67 23 20.89"/></svg>
