<svg id="图层_1" data-name="图层 1" xmlns="http://www.w3.org/2000/svg" viewBox="0 0 24 24"><defs></defs><title></title><circle class="cls-1" cx="5" cy="20.2" r="2.5"/><circle class="cls-1" cx="12" cy="20.2" r="2.5"/><circle class="cls-1" cx="19" cy="20.2" r="2.5"/><path class="cls-1" d="M14.9,19.6a1.3,1.3,0,0,1,.1.6,1.5,1.5,0,0,1-.1.7h1.2a1.5,1.5,0,0,1-.1-.7,1.3,1.3,0,0,1,.1-.6Z"/><path class="cls-1" d="M7.9,19.6a1.3,1.3,0,0,1,.1.6,1.5,1.5,0,0,1-.1.7H9.1a1.5,1.5,0,0,1-.1-.7,1.3,1.3,0,0,1,.1-.6Z"/><path class="cls-1" d="M0,19.6v1.3H2.1a1.5,1.5,0,0,1-.1-.7,1.3,1.3,0,0,1,.1-.6Z"/><path class="cls-1" d="M21.9,19.6a1.3,1.3,0,0,1,.1.6,1.5,1.5,0,0,1-.1.7H24V19.6Z"/><path class="cls-1" d="M15.3,11.2c0-.1-.2-.1-.1-.2S17.1,7.8,18,6.2s.1-.1.2-.1h.9a2.4,2.4,0,0,0,2-2.7,2.4,2.4,0,0,0-2.4-2.2,2.3,2.3,0,0,0-2.3,1.6,2.4,2.4,0,0,0,.8,2.8c.1.1.1.1,0,.3l-2.7,4.6c-.1.1-.1.2-.3.2a1.4,1.4,0,0,0-1.1.2h-.3L9,8.1c-.2-.1-.2-.1-.1-.2a2,2,0,0,0,.2-1.5A1.8,1.8,0,0,0,7.5,5.1,1.9,1.9,0,0,0,5.6,6.2a1.9,1.9,0,0,0,.5,2.1.2.2,0,0,1,0,.3L5,10.5H4.8a1.7,1.7,0,0,0-1.9,2.1,1.5,1.5,0,0,0,1.4,1.1A1.5,1.5,0,0,0,5.9,13a1.5,1.5,0,0,0-.2-1.8.2.2,0,0,1,0-.3l1.2-2c0-.1.1-.2.2-.1a1.8,1.8,0,0,0,1-.2h.3l3.8,2.8a.4.4,0,0,1,.1.3,2.1,2.1,0,0,0,.1,2.4,2.2,2.2,0,0,0,2.4.7,2.2,2.2,0,0,0,1.4-1.7A2,2,0,0,0,15.3,11.2Z"/></svg>
