<?xml version="1.0" standalone="no"?><!DOCTYPE svg PUBLIC "-//W3C//DTD SVG 1.1//EN" "http://www.w3.org/Graphics/SVG/1.1/DTD/svg11.dtd"><svg t="1560993890421" class="icon" style="" viewBox="0 0 1024 1024" version="1.1" xmlns="http://www.w3.org/2000/svg" p-id="6133" xmlns:xlink="http://www.w3.org/1999/xlink" width="200" height="200"><defs><style type="text/css"></style></defs><path d="M1017.526556 182.961892l-329.073778 569.955783-110.823367-63.985778 329.073778-569.955783 110.823367 63.985778Z" p-id="6134"></path><path d="M561.038222 853.731556 669.980444 801.080889 552.135111 733.041778Z" p-id="6135"></path><path d="M710.940444 789.191111c1.251556 4.295111 1.820444 8.846222 1.678222 13.482667-0.597333 15.786667-9.841778 29.980444-24.092444 36.835556l-108.942222 52.650667c-5.859556 2.844444-12.231111 4.238222-18.545778 4.238222-7.395556 0-14.762667-1.905778-21.333333-5.717333-12.231111-7.054222-20.167111-19.712-21.219556-33.792l-7.509333-101.831111L206.336 755.057778c-23.552 0-42.666667-19.114667-42.666667-42.666667s19.114667-42.666667 42.666667-42.666667l333.539556 0c0.341333-0.654222 0.426667-1.422222 0.768-2.048l73.984-128.113778L206.336 539.562667c-23.552 0-42.666667-19.086222-42.666667-42.666667s19.114667-42.666667 42.666667-42.666667l457.528889 0L852.48 127.544889C834.503111 70.172444 783.104 28.444444 721.777778 28.444444L144.526222 28.444444c-76.231111 0-138.040889 64.056889-138.040889 143.075556l0 680.988444C6.513778 931.498667 68.295111 995.555556 144.526222 995.555556l577.251556 0c76.259556 0 138.040889-64.056889 138.040889-143.047111L859.818667 541.411556l-134.456889 232.874667C721.720889 780.572444 716.714667 785.607111 710.940444 789.191111zM206.336 238.705778l483.555556 0c23.552 0 42.666667 19.086222 42.666667 42.666667s-19.114667 42.666667-42.666667 42.666667l-483.555556 0c-23.552 0-42.666667-19.086222-42.666667-42.666667S182.784 238.705778 206.336 238.705778z" p-id="6136"></path></svg>