<svg id="图层_1" data-name="图层 1" xmlns="http://www.w3.org/2000/svg" viewBox="0 0 24 24"><defs></defs><title>renwyic</title><path class="cls-1" d="M23.3,4.3V15a1.8,1.8,0,0,1-1.9,1.9H15.3v2.4a.6.6,0,0,1-.6.6.7.7,0,0,1-.7-.6V16.9H10.2c-.4,0-.7-.2-.7-.6a.7.7,0,0,1,.7-.7H21.4A.6.6,0,0,0,22,15V4.3a.5.5,0,0,0-.6-.6H10.2A.7.7,0,0,1,9.5,3a.7.7,0,0,1,.7-.7H21.4A1.9,1.9,0,0,1,23.3,4.3ZM9.8,13a.5.5,0,0,0,.5.3h.2L13.2,12l1.5,1.2H15c.2,0,.3-.1.3-.2l2.1-3.8.4.9.4.2c.2,0,.4-.1.4-.2l2.2-3.5a.4.4,0,0,0-.1-.6.4.4,0,0,0-.6.1L18.3,9l-.5-.9-.3-.2-.4.2-2.3,4.1-1.3-1c-.1-.2-.3-.2-.5-.1l-2.9,1.3A.4.4,0,0,0,9.8,13Zm8.7,7.3H10.9a.7.7,0,1,0,0,1.4h7.6a.7.7,0,0,0,0-1.4ZM5.7,5.9a1.4,1.4,0,0,0,1.1-.5,1.3,1.3,0,0,0,.5-1.1,1.3,1.3,0,0,0-.5-1.2,1.4,1.4,0,0,0-1.1-.4,1.5,1.5,0,0,0-1.1.4,1.7,1.7,0,0,0-.5,1.2,1.6,1.6,0,0,0,.5,1.1A1.6,1.6,0,0,0,5.7,5.9ZM13,10c0-.5-.3-.7-.9-.7H9.8L8.7,7.6A2.5,2.5,0,0,0,6.6,6.3H4.2a2.1,2.1,0,0,0-1.6.6,2.1,2.1,0,0,0-.5,1.6V11L.8,12.6a.9.9,0,0,0-.1.5c0,.4.2.7.8.7s.5-.2.7-.6L3,11.9a1.1,1.1,0,0,0,.4-1.2V8.6h.3V20.1a8,8,0,0,0,.1,1.1.8.8,0,0,0,.8.5.9.9,0,0,0,.9-.5V13.8H6v6.5c0,.9.3,1.4.8,1.4s.7-.1.8-.4a2.5,2.5,0,0,0,.1-1V8.6L8.6,10c.3.5.6.7.8.7H12C12.7,10.7,13,10.5,13,10Z"/></svg>