<?xml version="1.0" standalone="no"?><!DOCTYPE svg PUBLIC "-//W3C//DTD SVG 1.1//EN" "http://www.w3.org/Graphics/SVG/1.1/DTD/svg11.dtd"><svg t="1555910647615" class="icon" style="" viewBox="0 0 1024 1024" version="1.1" xmlns="http://www.w3.org/2000/svg" p-id="4697" xmlns:xlink="http://www.w3.org/1999/xlink" width="200" height="200"><defs><style type="text/css"></style></defs><path d="M851.2 451.1c-15.1 0-26.3 12.3-26.3 27.4v361.7c0 36-27.9 66.7-63.9 66.7H193c-36 0-77.8-30.7-77.8-66.7V270.5c0-36.1 41.9-74.6 77.8-74.6h305.9c15.1 0 27.3-11.2 27.3-26.4s-12.2-26.3-27.3-26.3H193c-71.9 0-130.4 55-130.4 127.2v569.7c0 72.1 58.5 119.4 130.4 119.4h568c71.9 0 116.4-47.2 116.4-119.4V478.5c0.1-15.1-11.1-27.4-26.2-27.4zM932.6 180l-92.7-92.8c-30.4-30.6-84-30.6-114.5 0l-75.7 89.1L246.6 563 220 794.8l12.8 11.2 225.4-30.7 385.6-404.5 88.9-72.7c31.5-31.7 31.5-86.5-0.1-118.1zM284.3 741.4l6.6-108.5 100 100.1-106.6 8.4zM439 704.7L316.7 582.3 677.2 223l120 120.3L439 704.7z m455.5-448.2l-53.7 53.8-130.9-131 53.7-53.9c5.1-5.1 11.8-7.9 19.1-7.9 7.2 0 14 2.8 19.1 7.9l92.6 92.8c10.6 10.6 10.6 27.7 0.1 38.3z" p-id="4698"></path></svg>