<svg id="图层_1" data-name="图层 1" xmlns="http://www.w3.org/2000/svg" viewBox="0 0 24 24"><defs><style>.cls-1{fill:;}</style></defs><title>rirkfb</title><path class="cls-1" d="M22.8,11a.8.8,0,0,1-1.1.1l-.3-.2v3.4a.7.7,0,0,1-.8.7.7.7,0,0,1-.7-.7V9.6L12,3.2,4.1,9.6h0V21.7h0a.7.7,0,0,1-.7.8.7.7,0,0,1-.8-.8V10.9l-.3.2h0A.8.8,0,0,1,1.2,11a.7.7,0,0,1,.1-1L11.5,1.7a.7.7,0,0,1,1,0L22.7,10h0A.6.6,0,0,1,22.8,11Zm-15,9.2H6a.3.3,0,0,0-.3.3v1.7a.3.3,0,0,0,.3.3H7.8a.3.3,0,0,0,.3-.3V20.5A.3.3,0,0,0,7.8,20.2Zm3.5,0H9.5a.3.3,0,0,0-.3.3v1.7a.3.3,0,0,0,.3.3h1.8a.3.3,0,0,0,.3-.3V20.5A.3.3,0,0,0,11.3,20.2ZM7.8,17.3H6c-.2,0-.3.1-.3.2v1.7a.3.3,0,0,0,.3.3H7.8a.3.3,0,0,0,.3-.3V17.5C8.1,17.4,8,17.3,7.8,17.3Zm0-3H6a.3.3,0,0,0-.3.3v1.6a.3.3,0,0,0,.3.3H7.8a.3.3,0,0,0,.3-.3V14.6A.3.3,0,0,0,7.8,14.3Zm3.3-2.2h4.1c.5,0,.8-.3.8-.6a.8.8,0,0,0-.8-.7H11.1l.7-.6a.6.6,0,0,0,0-.9,1.1,1.1,0,0,0-1.1,0L8.6,11H8.5a.5.5,0,0,0,0,.5.1.1,0,0,0,.1.1h.1l2,1.7.5.2.6-.2a.6.6,0,0,0,0-.9Zm.2,5.1H9.5a.3.3,0,0,0-.3.3v1.7a.3.3,0,0,0,.3.3h1.8a.3.3,0,0,0,.3-.3V17.5A.3.3,0,0,0,11.3,17.2Zm11,4.1a2.5,2.5,0,0,0,.1.9H21v-.5H15.9v.5H14.6a2.8,2.8,0,0,0,.1-.9V16.2a1.9,1.9,0,0,0-.1-.8h7.8a2.2,2.2,0,0,0-.1.8ZM21,18.9H15.9v2H21Zm0-2.6H15.9v1.8H21Z"/></svg>
