<svg id="图层_1" data-name="图层 1" xmlns="http://www.w3.org/2000/svg" viewBox="0 0 24 24"><defs> </defs><title>rukedansh</title><path class="cls-1" d="M5.12,12.66a.74.74,0,0,0,.77.72h7.72a.75.75,0,0,0,.77-.72V12.6a.76.76,0,0,0-.77-.73H5.89a.76.76,0,0,0-.77.73Z"/><path class="cls-1" d="M11.76,10.69a.75.75,0,0,0,.76-.73V9.9a.75.75,0,0,0-.76-.72H5.89a.75.75,0,0,0-.77.72V10a.75.75,0,0,0,.77.73Z"/><path class="cls-1" d="M21.77,7.49,15,1a.85.85,0,0,0-.57-.22H2.4a.39.39,0,0,0-.4.38V22.81a.39.39,0,0,0,.4.38h9.66a6.74,6.74,0,0,1-1-1.83H3.74V2.63H14.45V8.14h5.81v5a6.94,6.94,0,0,1,1.74,1V8A.76.76,0,0,0,21.77,7.49Z"/><path class="cls-1" d="M12.59,14.57H5.86a.76.76,0,0,0,0,1.51h5.56A5.72,5.72,0,0,1,12.59,14.57Z"/><path class="cls-1" d="M5.12,18a.75.75,0,0,0,.74.75h4.81c0-.06,0-.11,0-.16a5.94,5.94,0,0,1,.19-1.35h-5A.75.75,0,0,0,5.12,18Z"/><path class="cls-1" d="M20.13,18.17h-2V16a1.89,1.89,0,0,0,1.19-1.71,1.75,1.75,0,0,0-.54-1.26,2.15,2.15,0,0,0-1.52-.61,2,2,0,0,0-2.06,1.87A1.89,1.89,0,0,0,16.41,16v2.13h-2a.8.8,0,1,0,0,1.59h5.7a.8.8,0,1,0,0-1.59Z"/><path class="cls-1" d="M18.9,21.24H15.67a.8.8,0,1,0,0,1.6H18.9a.8.8,0,1,0,0-1.6Z"/></svg>