<svg id="图层_1" data-name="图层 1" xmlns="http://www.w3.org/2000/svg" viewBox="0 0 24 24"><defs> </defs><title>rukush</title><path class="cls-1" d="M13.36,16H8.49l.69-.66a.56.56,0,0,0,0-.79.61.61,0,0,0-.84,0L6.68,16.11a.55.55,0,0,0-.18.39.5.5,0,0,0,.18.39l1.66,1.58a.58.58,0,0,0,.84,0,.56.56,0,0,0,0-.79l-.65-.62h4.83a.56.56,0,1,0,0-1.11Z"/><path class="cls-1" d="M21.52,19H19.74V16.88a1.49,1.49,0,0,0,1-1.38h0a1.58,1.58,0,0,0-3.15,0h0a1.49,1.49,0,0,0,1,1.38V19H16.8a.56.56,0,1,0,0,1.11h4.72a.56.56,0,1,0,0-1.11Z"/><path class="cls-1" d="M20.49,21.62H17.83a.56.56,0,1,0,0,1.12h2.66a.56.56,0,1,0,0-1.12Z"/><path class="cls-1" d="M6,8.73H6A1.25,1.25,0,0,0,7.24,10,1.27,1.27,0,0,0,8.5,8.73h0A1.26,1.26,0,1,0,6,8.73Z"/><path class="cls-1" d="M9.69,8.73h0a1.26,1.26,0,1,0,2.52,0h0a1.26,1.26,0,0,0-2.52,0Z"/><path class="cls-1" d="M14.63,7.47a1.25,1.25,0,0,0-1.26,1.26h0a1.26,1.26,0,1,0,2.51,0h0A1.26,1.26,0,0,0,14.63,7.47Z"/><path class="cls-1" d="M11.37,21.43H3.94A.91.91,0,0,1,3,20.52v-17a.91.91,0,0,1,.91-.91H18.79a.91.91,0,0,1,.91.91V8a.81.81,0,0,0,.83.78A.81.81,0,0,0,21.37,8V3.48A2.53,2.53,0,0,0,18.79,1H3.94A2.53,2.53,0,0,0,1.37,3.48v17A2.53,2.53,0,0,0,3.94,23h7.43a.79.79,0,1,0,0-1.57Z"/></svg>