<svg id="图层_1" data-name="图层 1" xmlns="http://www.w3.org/2000/svg" viewBox="0 0 24 24"><defs> </defs><title>rukuglx</title><path class="cls-1" d="M19.86,9.49v4.87a.79.79,0,0,0,1.57,0V10.83l.27.22a.78.78,0,1,0,1-1.18h0L12.51,1.2a.79.79,0,0,0-1,0L1.28,9.86a.78.78,0,0,0-.1,1.1.79.79,0,0,0,1.11.11v0l.27-.23V22.2a.79.79,0,1,0,1.57,0h0V9.5h0L12,2.83Z"/><rect class="cls-1" x="5.71" y="20.63" width="2.36" height="2.36" rx="0.29" ry="0.29"/><rect class="cls-1" x="9.25" y="20.63" width="2.36" height="2.36" rx="0.29" ry="0.29"/><rect class="cls-1" x="5.73" y="17.51" width="2.36" height="2.36" rx="0.29" ry="0.29"/><rect class="cls-1" x="5.73" y="14.38" width="2.36" height="2.36" rx="0.29" ry="0.29"/><rect class="cls-1" x="9.25" y="17.49" width="2.36" height="2.36" rx="0.29" ry="0.29"/><rect class="cls-1" x="12.78" y="20.63" width="2.36" height="2.36" rx="0.29" ry="0.29"/><path class="cls-1" d="M15.42,11.06H12.19l.53-.52a.62.62,0,0,0,0-.87.62.62,0,0,0-.87,0l-1.58,1.57a.25.25,0,0,0,0,.07s-.07.09-.09.13a.66.66,0,0,0,0,.48.86.86,0,0,1,.07.1s0,.07.06.09h0l1.56,1.56a.6.6,0,0,0,.43.18.62.62,0,0,0,.44-1l-.52-.52h3.23a.61.61,0,0,0,.61-.61A.62.62,0,0,0,15.42,11.06Z"/><path class="cls-1" d="M23,19.53v-.09a.56.56,0,0,0-.57-.57.37.37,0,0,1-.35-.26h0c0-.1-.08-.2-.12-.3h0a.4.4,0,0,1,.07-.43l.27-.26a.22.22,0,0,0,0-.28l-.6-.6a.22.22,0,0,0-.14,0,.19.19,0,0,0-.13,0l-.26.27a.38.38,0,0,1-.43.07h0l-.2-.08-.1,0h0a.37.37,0,0,1-.25-.35.58.58,0,0,0-.37-.54.63.63,0,0,0-.19,0h-.1a.58.58,0,0,0-.57.57.37.37,0,0,1-.25.35h0a2.52,2.52,0,0,0-.29.12h0a.37.37,0,0,1-.18,0,.41.41,0,0,1-.24-.11l-.05,0-.21-.22a.22.22,0,0,0-.28,0l-.2.21-.39.39a.22.22,0,0,0,0,.28l.26.26a.37.37,0,0,1,.11.31.27.27,0,0,1,0,.12h0l-.12.3h0a.37.37,0,0,1-.34.26.56.56,0,0,0-.57.57v.09a.47.47,0,0,0,0,.17.56.56,0,0,0,.54.41.36.36,0,0,1,.34.25h0a2.08,2.08,0,0,0,.12.3h0a.36.36,0,0,1,0,.27.32.32,0,0,1-.09.16l-.26.27a.17.17,0,0,0-.06.14.16.16,0,0,0,.06.13l.59.6a.18.18,0,0,0,.14.06.16.16,0,0,0,.13-.06l.26-.26a.37.37,0,0,1,.43-.08h0a1.78,1.78,0,0,0,.29.12h0a.37.37,0,0,1,.25.35.56.56,0,0,0,.56.57h.14a.58.58,0,0,0,.53-.57.37.37,0,0,1,.25-.35h0l.1,0,.2-.09h0a.39.39,0,0,1,.43.08l.26.26a.18.18,0,0,0,.14.06.16.16,0,0,0,.13-.06l.6-.6a.22.22,0,0,0,.05-.14.24.24,0,0,0-.05-.14L22,21.11a.38.38,0,0,1-.07-.43h0c0-.1.09-.2.12-.3h0a.39.39,0,0,1,.35-.25.57.57,0,0,0,.57-.57h0Zm-2.7,1.41a1.9,1.9,0,0,1-.57.18h-.25a1.59,1.59,0,0,1-1.1-.52A1.66,1.66,0,0,1,18,19.7s0-.07,0-.11a1.58,1.58,0,0,1,.39-1.1,1.42,1.42,0,0,1,.25-.24,1.58,1.58,0,0,1,.95-.32h.18a1.9,1.9,0,0,1,.57.18,1.61,1.61,0,0,1,0,2.82Z"/></svg>