<svg id="图层_1" data-name="图层 1" xmlns="http://www.w3.org/2000/svg" viewBox="0 0 24 24"><defs> </defs><title></title><rect class="cls-1" x="12.02" y="17.51" width="2.36" height="2.36" rx="0.29" ry="0.29"/><path class="cls-1" d="M10.42,18.06H7.19l.53-.52a.62.62,0,0,0,0-.87.62.62,0,0,0-.87,0L5.27,18.24a.25.25,0,0,0,0,.07c0,.05-.07.09-.09.13a.66.66,0,0,0,0,.48.86.86,0,0,1,.07.1s0,.07.06.09h0l1.56,1.56a.6.6,0,0,0,.43.18.62.62,0,0,0,.44-1.05l-.52-.52h3.23a.61.61,0,0,0,.61-.61A.62.62,0,0,0,10.42,18.06Z"/><rect class="cls-1" x="12" y="20.63" width="2.36" height="2.36" rx="0.29" ry="0.29"/><rect class="cls-1" x="12.02" y="14.38" width="2.36" height="2.36" rx="0.29" ry="0.29"/><rect class="cls-1" x="15.54" y="20.63" width="2.36" height="2.36" rx="0.29" ry="0.29"/><rect class="cls-1" x="19.07" y="20.63" width="2.36" height="2.36" rx="0.29" ry="0.29"/><path class="cls-1" d="M22.72,9.85,12.51,1.19a.79.79,0,0,0-1,0L1.28,9.85A.79.79,0,0,0,1.19,11a.78.78,0,0,0,1.1.09l.28-.23V22.21a.79.79,0,1,0,1.57,0V9.5h0L12,2.82l7.87,6.67h0v4.86a.79.79,0,0,0,1.58,0V10.82l.27.23a.73.73,0,0,0,.5.19.75.75,0,0,0,.6-.28A.79.79,0,0,0,22.72,9.85Z"/><rect class="cls-1" x="15.54" y="17.49" width="2.36" height="2.36" rx="0.29" ry="0.29"/></svg>
