<svg id="图层_1" data-name="图层 1" xmlns="http://www.w3.org/2000/svg" viewBox="0 0 24 24"><defs> </defs><title>sanpianku</title><path class="cls-1" d="M1.44,15.78H6.5a1,1,0,0,0,.93-1V9.35a1,1,0,0,0-.93-1H1.44a1,1,0,0,0-.94,1v5.46A1,1,0,0,0,1.44,15.78ZM2.14,10H5.8v4.12H2.14Z"/><path class="cls-1" d="M6.8,6.36a.83.83,0,0,0,.82-.84V3.31H19.67a.84.84,0,0,0,0-1.67H7.35A1.38,1.38,0,0,0,6,3V5.52A.83.83,0,0,0,6.8,6.36Z"/><path class="cls-1" d="M6.23,20.72H2.41a.82.82,0,0,0-.8.84.82.82,0,0,0,.8.8H6.23a.82.82,0,0,0,0-1.64Z"/><path class="cls-1" d="M22.49,4.42H9.74a1,1,0,0,0-1,1v9.28a1,1,0,0,0,1,1H22.4a1.09,1.09,0,0,0,1.1-1.09V12.81a.82.82,0,0,0-1.64,0v1.33H10.36V6.06h11.5V9.55a.82.82,0,0,0,1.64,0V5.46A1,1,0,0,0,22.49,4.42Z"/><path class="cls-1" d="M13.88,20.72H10.05a.82.82,0,0,0,0,1.64h3.82a.82.82,0,0,0,.8-.84A.82.82,0,0,0,13.88,20.72Z"/><path class="cls-1" d="M22.71,17.44H1.36a.79.79,0,0,0-.79.79v.06a.79.79,0,0,0,.79.79H22.71a.8.8,0,0,0,.79-.79v-.06A.8.8,0,0,0,22.71,17.44Z"/><path class="cls-1" d="M21.52,20.72H17.7a.82.82,0,0,0,0,1.64h3.82a.82.82,0,0,0,0-1.64Z"/></svg>