<?xml version="1.0" standalone="no"?><!DOCTYPE svg PUBLIC "-//W3C//DTD SVG 1.1//EN" "http://www.w3.org/Graphics/SVG/1.1/DTD/svg11.dtd"><svg t="1560993473935" class="icon" style="" viewBox="0 0 1024 1024" version="1.1" xmlns="http://www.w3.org/2000/svg" p-id="4212" xmlns:xlink="http://www.w3.org/1999/xlink" width="200" height="200"><defs><style type="text/css"></style></defs><path d="M516.2 376c-76.2 0-138 61.8-138 138s61.8 138 138 138 138-61.8 138-138c0.1-76.2-61.7-138-138-138z m0 194.2c-31 0-56.1-25.1-56.1-56.1s25.1-56.1 56.1-56.1 56.1 25.1 56.1 56.1c0.1 31-25.1 56.1-56.1 56.1zM516.2 247.3c-22.6 0-41-18.3-41-41v-158c0-22.6 18.3-41 41-41 22.6 0 41 18.3 41 41v158.1c0 22.6-18.4 40.9-41 40.9zM516.2 1020.7c-22.6 0-41-18.3-41-41V821.6c0-22.6 18.3-41 41-41 22.6 0 41 18.3 41 41v158.1c0 22.7-18.4 41-41 41zM249.5 514c0 22.6-18.3 41-41 41h-158c-22.6 0-41-18.3-41-41 0-22.6 18.3-41 41-41h158.1c22.6 0 40.9 18.4 40.9 41zM1022.9 514c0 22.6-18.3 41-41 41H823.8c-22.6 0-41-18.3-41-41 0-22.6 18.3-41 41-41h158.1c22.7 0 41 18.4 41 41z" fill="#242424" p-id="4213"></path><path d="M516.2 97c-230.3 0-417 186.7-417 417 0 171.3 103.3 318.5 251 382.7l41-71.7C268 775.5 181.1 655 181.1 514.1c0-185.1 150-335.1 335.1-335.1s335.1 150 335.1 335.1c0 185.1-150 335.1-335.1 335.1v81.9c230.3 0 417-186.7 417-417C933.3 283.7 746.6 97 516.2 97z" fill="#242424" p-id="4214"></path><path d="M368.4 859.8m-40.9 0a40.9 40.9 0 1 0 81.8 0 40.9 40.9 0 1 0-81.8 0Z" fill="#242424" p-id="4215"></path></svg>