<?xml version="1.0" standalone="no"?><!DOCTYPE svg PUBLIC "-//W3C//DTD SVG 1.1//EN" "http://www.w3.org/Graphics/SVG/1.1/DTD/svg11.dtd"><svg t="1555379388056" class="icon" style="" viewBox="0 0 1024 1024" version="1.1" xmlns="http://www.w3.org/2000/svg" p-id="10408" xmlns:xlink="http://www.w3.org/1999/xlink" width="200" height="200"><defs><style type="text/css"></style></defs><path d="M897.28 85.333333h-750.933333c-28.16 0-51.2 23.04-51.2 51.2v750.933334c0 28.16 23.04 51.2 51.2 51.2h750.933333c28.16 0 51.2-23.04 51.2-51.2V136.533333c0-28.16-22.613333-51.2-51.2-51.2z m-17.066667 785.066667h-716.8V153.6h716.8v716.8z" p-id="10409"></path><path d="M453.546667 722.773333c-13.226667 13.226667-34.986667 13.226667-48.213334 0l-132.693333-132.693333c-13.226667-13.226667-13.226667-34.986667 0-48.213333 13.226667-13.226667 34.986667-13.226667 48.213333 0l132.693334 132.693333c13.653333 13.226667 13.653333 34.986667 0 48.213333z" p-id="10410"></path><path d="M767.573333 408.746667l-313.6 313.6c-13.226667 13.226667-34.986667 13.226667-48.213333 0-13.226667-13.226667-13.226667-34.986667 0-48.213334l313.6-313.6c13.226667-13.226667 34.986667-13.226667 48.213333 0 13.226667 13.226667 13.226667 34.986667 0 48.213334z" p-id="10411"></path></svg>
