<svg id="图层_1" data-name="图层 1" xmlns="http://www.w3.org/2000/svg" viewBox="0 0 24 24"><defs></defs><title>shebeiqdgl</title><path class="cls-1" d="M4.21,7a.65.65,0,0,1,.65-.65H19.14a.65.65,0,1,1,0,1.3H4.86A.65.65,0,0,1,4.21,7ZM6,5.48H18a.65.65,0,1,0,0-1.29H6A.65.65,0,1,0,6,5.48Zm17.12,6.17v9.52a.85.85,0,0,1-.24.6.9.9,0,0,1-.6.25H1.76a.9.9,0,0,1-.6-.25.85.85,0,0,1-.24-.6V11.65a.85.85,0,0,1,.84-.85H22.24A.85.85,0,0,1,23.08,11.65ZM2.21,12.1v8.62H21.79V12.1Zm2.65,6.61a.65.65,0,0,0,.65-.65V14.75a.64.64,0,0,0-.19-.45.62.62,0,0,0-.46-.19.65.65,0,0,0-.65.64v3.31A.65.65,0,0,0,4.86,18.71Zm11.44-2.3A2.23,2.23,0,0,1,17,14.79a2.28,2.28,0,0,1,1.63-.68,2.3,2.3,0,1,1-2.29,2.3Zm2.29,1a1,1,0,1,0-1-1A1,1,0,0,0,18.59,17.41ZM11.47,18a2.29,2.29,0,0,1,0-3.24,2.25,2.25,0,0,1,1.62-.68,2.3,2.3,0,0,1,0,4.6A2.26,2.26,0,0,1,11.47,18Zm2.63-1.62a1,1,0,1,0-1,1A1,1,0,0,0,14.1,16.41Zm-5.95,2.3h0a.65.65,0,0,0,.64-.65V14.75a.64.64,0,0,0-.64-.64.6.6,0,0,0-.46.19.6.6,0,0,0-.19.45v3.31A.65.65,0,0,0,8.15,18.71ZM2.66,9.89H21.34a.65.65,0,0,0,0-1.29H2.66a.65.65,0,1,0,0,1.29Zm5.5-6.61h7.68a.65.65,0,1,0,0-1.3H8.16a.65.65,0,0,0,0,1.3Z"/></svg>