<svg id="图层_1" data-name="图层 1" xmlns="http://www.w3.org/2000/svg" viewBox="0 0 24 24"><defs></defs><title>shebei3</title><path class="cls-1" d="M22.4,2.7H1.6A1.11,1.11,0,0,0,.5,3.81V16.12a1.11,1.11,0,0,0,1.1,1.11h9.75V19.9a.22.22,0,0,0,0,.08H5.26a.45.45,0,0,0-.45.45v.42a.45.45,0,0,0,.45.45H18.74a.45.45,0,0,0,.45-.45v-.42a.45.45,0,0,0-.45-.45h-6.1a.22.22,0,0,0,0-.08V17.23H22.4a1.11,1.11,0,0,0,1.1-1.11V3.81A1.11,1.11,0,0,0,22.4,2.7Zm-.21,13.21H1.81V4H22.19Z"/><rect class="cls-1" x="3.61" y="5.87" width="16.41" height="7.93"/></svg>
