<svg id="图层_1" data-name="图层 1" xmlns="http://www.w3.org/2000/svg" viewBox="0 0 24 24"><title>shebei</title><polygon class="cls-1" points="16.04 10.25 16.04 10.25 20.37 5.67 19.62 4.87 15.31 9.42 12.76 6.72 12 7.52 15.31 11.01 16.04 10.25"/><path class="cls-1" d="M22.68,17H1.32c-.25,0-.45.11-.45.26v1c0,.15.2.26.45.26H22.68c.25,0,.45-.11.45-.26v-1C23.13,17.09,22.93,17,22.68,17Z"/><path class="cls-1" d="M22.68,20H1.32c-.25,0-.45.11-.45.26v1c0,.15.2.26.45.26H22.68c.25,0,.45-.11.45-.26v-1C23.13,20.09,22.93,20,22.68,20Z"/><path class="cls-1" d="M22.19,2.5H1.81A1.1,1.1,0,0,0,.74,3.63V13.1a1.1,1.1,0,0,0,1.07,1.13H22.19a1.1,1.1,0,0,0,1.07-1.13V3.63A1.1,1.1,0,0,0,22.19,2.5ZM22,12.92H2V3.81H22Z"/><rect class="cls-1" x="4.03" y="5.8" width="5" height="5.04"/></svg>
