<svg id="图层_1" data-name="图层 1" xmlns="http://www.w3.org/2000/svg" viewBox="0 0 24 24"><defs></defs><title>shebtj</title><path class="cls-1" d="M16.7,16.4H7.5c-.2,0-.4.3-.4.6s.2.6.4.6h9.2c.2,0,.4-.3.4-.6S16.9,16.4,16.7,16.4Z"/><path class="cls-1" d="M12,1A11,11,0,1,0,23,12,11,11,0,0,0,12,1Zm0,20.3A9.3,9.3,0,1,1,21.3,12,9.3,9.3,0,0,1,12,21.3Z"/><path class="cls-1" d="M17.1,6.7H6.9a.9.9,0,0,0-1,.8v7.2a1,1,0,0,0,1,.9H17.1a1,1,0,0,0,1-.9V7.5A.9.9,0,0,0,17.1,6.7Zm-.3,7.7H7.2V7.9c0-.1,0-.1.1-.1h9.4c.1,0,.1,0,.1.1Z"/><path class="cls-1" d="M14,8.4c-1.4.9-2.4,3.8-2.4,3.8l-.5-1.4-1.2.9a5.5,5.5,0,0,1,1.8,1.9c.4-1,1.8-3,2.4-3.2A4.5,4.5,0,0,1,14,8.4Z"/></svg>