<svg id="图层_1" data-name="图层 1" xmlns="http://www.w3.org/2000/svg" viewBox="0 0 24 24"><defs></defs><title></title><path class="cls-1" d="M19.75,13.39a.61.61,0,0,0-.86-.14h0a5.67,5.67,0,0,1-5.61.54.64.64,0,0,0-.83.31h0s0,.05,0,.06l-6,6a1.58,1.58,0,0,1-2.24-2.23l6.11-6.12a.6.6,0,0,0,.17-.73,5.62,5.62,0,0,1,5.1-8,5.83,5.83,0,0,1,1.44.21L14.2,6.15a2.83,2.83,0,0,0,2,4.83,2.77,2.77,0,0,0,2-.83L21,7.33a5.65,5.65,0,0,1,.19,1.36,5.24,5.24,0,0,1-.1,1,.63.63,0,0,0,.51.72.62.62,0,0,0,.72-.5h0a6.72,6.72,0,0,0-.41-3.88.55.55,0,0,0-.18-.24l-.05-.07a.63.63,0,0,0-.88,0L17.32,9.27a1.62,1.62,0,0,1-2.24,0,1.58,1.58,0,0,1,0-2.24l3.51-3.51a.63.63,0,0,0,0-.88h0a.83.83,0,0,0-.12-.08.72.72,0,0,0-.25-.21,6.71,6.71,0,0,0-2.61-.51A6.87,6.87,0,0,0,8.75,8.71a6.8,6.8,0,0,0,.14,1.35,6.7,6.7,0,0,0,.32,1.08L3.35,17a2.83,2.83,0,1,0,4,4l5.88-5.89a6.83,6.83,0,0,0,6.38-.86.61.61,0,0,0,.14-.86h0"/><path class="cls-1" d="M21.79,16.19H15.35a.63.63,0,1,0,0,1.25h6.44a.63.63,0,0,0,0-1.25m0,2.5H15.4a.62.62,0,0,0,0,1.24h6.39a.62.62,0,0,0,0-1.24m0,2.54H15.4a.63.63,0,0,0,0,1.25h6.39a.63.63,0,0,0,0-1.25"/><path class="cls-1" d="M5,1.84A3.43,3.43,0,0,0,1.53,5.21,3.43,3.43,0,0,0,5,8.59,3.42,3.42,0,0,0,8.49,5.21,3.42,3.42,0,0,0,5,1.84Zm0,5.9A2.57,2.57,0,0,1,2.4,5.21,2.57,2.57,0,0,1,5,2.68,2.57,2.57,0,0,1,7.62,5.21,2.57,2.57,0,0,1,5,7.74Z"/><path class="cls-1" d="M6.38,4.94H5V3.85a.56.56,0,0,0-1.11,0V5.48A.55.55,0,0,0,4.42,6h2a.55.55,0,0,0,.55-.55A.55.55,0,0,0,6.38,4.94Z"/></svg>
