<svg id="图层_1" data-name="图层 1" xmlns="http://www.w3.org/2000/svg" viewBox="0 0 24 24"><defs> </defs><title>shenheth</title><path class="cls-1" d="M15.63,11.15a.85.85,0,0,0-.84-.84H4.68a.85.85,0,0,0,0,1.69H14.79A.85.85,0,0,0,15.63,11.15Z"/><path class="cls-1" d="M4.68,15.38a.85.85,0,0,0,0,1.7H9.73a.85.85,0,1,0,0-1.7Z"/><path class="cls-1" d="M14.79,5.23H4.68a.85.85,0,0,0,0,1.69H14.79a.85.85,0,0,0,0-1.69Z"/><path class="cls-1" d="M14.32,21.31H2.94a.85.85,0,0,1-.84-.85V3.54a.85.85,0,0,1,.84-.85H16.48a.85.85,0,0,1,.85.85V12A.84.84,0,1,0,19,12V2.69A1.69,1.69,0,0,0,17.33,1H2.11A1.69,1.69,0,0,0,.42,2.69V21.31A1.69,1.69,0,0,0,2.1,23H14.32a.85.85,0,1,0,0-1.69Z"/><path class="cls-1" d="M20.2,16.23H16.37l.61-.61a.85.85,0,1,0-1.19-1.2l-2,2.06,0,0a.87.87,0,0,0,0,1.13l0,0,2,2.06a.85.85,0,1,0,1.2-1.2l-.62-.61H20.2a1.7,1.7,0,1,1,0,3.39h-.79a.85.85,0,1,0,0,1.69h.78a3.39,3.39,0,1,0,0-6.77Z"/></svg>