<svg id="图层_1" data-name="图层 1" xmlns="http://www.w3.org/2000/svg" viewBox="0 0 24 24"><defs></defs><title>shengcbb</title><path class="cls-1" d="M1.3,20.4H6.2V7.3H1.3ZM2.9,9H4.5v9.8H2.9ZM16,13.9H14.4V4.1h4.9v8.2H17.7V5.7H16ZM7.8.8h4.9V17.2H11.1V2.4H9.5v18H7.8ZM22.6,15.1l-1.1-.7h-.4a.4.4,0,0,0-.1.3h-.1l-2,2.8a.6.6,0,0,1,0,.6l.3.2-.2.2a.2.2,0,0,0-.2-.2l-1.6-1.7c-.7-.7-.2-1.6.7-1.9h.8a.1.1,0,1,0,0-.3h-.3A4.2,4.2,0,0,0,15,15.7l-.3.3a1.4,1.4,0,0,1-1,1.1.3.3,0,0,0-.4,0h0l-.3.2a.4.4,0,0,0,0,.5L14.2,19a.2.2,0,0,0,.4,0l.2-.2c.1,0,.1,0,.1-.1s.2-.2.1-.3h.3a1.2,1.2,0,0,1,1.2.3l1.6,1.6-1.2,1.7h0l-.5.4-.5.9.5.3.7-.7.3-.6h-.1l1.2-1.6L21.2,23l1.1-1.1-2.5-2.5-.4-.5.2-.2.3.2.5-.2,2-2.7h0v-.2h.3A.4.4,0,0,0,22.6,15.1Zm-2.9,2.5-.2-.2,1.5-2h.1Zm.7.4h-.2l1.4-2h.2Z"/></svg>