<svg id="图层_1" data-name="图层 1" xmlns="http://www.w3.org/2000/svg" viewBox="0 0 24 24"><defs> </defs><title></title><path class="cls-1" d="M19.68,1H18.5a1.17,1.17,0,0,0,0,2.34,1.22,1.22,0,0,1,1.17,1.17v7.4A6.1,6.1,0,0,1,22,13.58V3.36A2.32,2.32,0,0,0,19.68,1Z"/><path class="cls-1" d="M9.17,13.87l3.5-4.67H10.33V6.28a1.75,1.75,0,1,1,3.5,0V9.2h0a1.17,1.17,0,0,0,2.34,0h0V6.28A4.08,4.08,0,0,0,12.09,2.2h0A4.08,4.08,0,0,0,8,6.28V9.2H5.67Z"/><path class="cls-1" d="M11.5,17.53c0-.05,0-.11,0-.16h0C8,17.37,8,15,6.83,15H4.5a1.18,1.18,0,0,1-1.17-1.16V4.54A1.21,1.21,0,0,1,4.5,3.37,1.17,1.17,0,0,0,4.5,1H3.32A2.32,2.32,0,0,0,1,3.36H1V19.71A2.32,2.32,0,0,0,3.32,22H13.54A6,6,0,0,1,11.5,17.53Z"/><path class="cls-1" d="M20.8,14.12a.32.32,0,0,0-.45.07.33.33,0,0,0,0,.29.32.32,0,0,0-.18.1h0l-1.94,2.74a.89.89,0,0,1-.05.62l.31.22-.13.18-.22-.22-1.63-1.63c-.71-.7-.17-1.6.66-1.92a3.19,3.19,0,0,1,.6-.12H18c.22,0,.2-.29,0-.32l-.29,0a4.25,4.25,0,0,0-3.43,1.42l-.24.25a1.37,1.37,0,0,1-1,1.11.31.31,0,0,0-.42,0l-.06.08-.24.24a.3.3,0,0,0,0,.43l1.18,1.17a.31.31,0,0,0,.42,0l.23-.23.1-.06a.32.32,0,0,0,0-.38h0a.14.14,0,0,1,0-.06l0-.08s0,0,0,0a.7.7,0,0,1,.06-.09.46.46,0,0,1,.18-.13,1.22,1.22,0,0,1,1.18.31l1.61,1.62-1.19,1.68,0,0-.5.47-.44.86.46.33.67-.69.29-.63,0,0L17.74,20l2.7,2.71,1.18-1.08L19.08,19.1l-.41-.41.18-.24.29.2a.9.9,0,0,1,.57-.25l1.92-2.7,0,0h0a.39.39,0,0,0,0-.21.3.3,0,0,0,.25-.13.32.32,0,0,0-.08-.45ZM19,17.31l-.18-.13,1.44-2,.18.13Zm.66.47-.18-.13,1.44-2,.18.13Z"/></svg>
