<svg id="图层_1" data-name="图层 1" xmlns="http://www.w3.org/2000/svg" viewBox="0 0 24 24"><defs></defs><title>yanzhengpiansx</title><polygon class="cls-1" points="2.14 2.58 20.21 2.58 20.21 7.29 21.85 7.29 21.85 2.58 21.85 2.57 21.85 1 0.5 1 0.5 2.58 0.5 2.58 0.5 19.87 0.5 21.44 0.5 21.44 8.71 21.44 8.71 19.87 2.14 19.87 2.14 2.58"/><rect class="cls-1" x="3.78" y="8.86" width="8.21" height="1.58"/><rect class="cls-1" x="3.79" y="12.01" width="4.92" height="1.57"/><rect class="cls-1" x="3.79" y="5.72" width="9.86" height="1.57"/><path class="cls-1" d="M15.18,12.72a4.88,4.88,0,0,1,4.26.48l-1,1.44,4.37,0-1.56-4.11-.8,1.17a7.35,7.35,0,0,0-6-.6,5.86,5.86,0,0,0-4.08,6.13h2A4.08,4.08,0,0,1,15.18,12.72Z"/><path class="cls-1" d="M23.46,16.18h-2a4.07,4.07,0,0,1-2.82,4.48,5,5,0,0,1-4.07-.35l.88-1.3-4.7-.25,2,4.24.83-1.23a6.78,6.78,0,0,0,5.77.54A5.85,5.85,0,0,0,23.46,16.18Z"/><polygon class="cls-1" points="21.5 16.18 21.5 16.18 21.5 16.18 21.5 16.18"/></svg>
