<svg id="图层_1" data-name="图层 1" xmlns="http://www.w3.org/2000/svg" viewBox="0 0 24 24"><defs> </defs><title>shengchangl</title><path class="cls-1" d="M20.72,14.14a2.79,2.79,0,1,0,2.78,2.79A2.78,2.78,0,0,0,20.72,14.14ZM12,5.57A2.79,2.79,0,1,0,9.22,2.79,2.77,2.77,0,0,0,12,5.57Zm9.29,6.92a4.46,4.46,0,0,1,1.72.59S23,13,23,13A11.05,11.05,0,0,0,16.48,2.89a4.32,4.32,0,0,1-.38,1.72A9.35,9.35,0,0,1,21.29,12.49ZM6.06,16.93a2.78,2.78,0,1,0-2.78,2.78A2.79,2.79,0,0,0,6.06,16.93ZM2.71,12.49A9.34,9.34,0,0,1,7.9,4.61a4.5,4.5,0,0,1-.38-1.72A11.05,11.05,0,0,0,1,13s0,.08,0,.12A4.4,4.4,0,0,1,2.71,12.49ZM12,22.29a9.27,9.27,0,0,1-5.75-2,4.47,4.47,0,0,1-1.57.9,10.91,10.91,0,0,0,14.64,0,4.38,4.38,0,0,1-1.57-.9A9.27,9.27,0,0,1,12,22.29Z"/></svg>