<svg id="图层_1" data-name="图层 1" xmlns="http://www.w3.org/2000/svg" viewBox="0 0 24 24"><defs></defs><path class="cls-1" d="M15.3,3.6a.8.8,0,0,0,.8-.8h0a.9.9,0,0,0-.8-.8.9.9,0,0,0-.9.8h0A.8.8,0,0,0,15.3,3.6Z"/><path class="cls-1" d="M20.6,15.3h0s-3.5-.1-5.1-2.8a3.5,3.5,0,0,1,.2-3.8h.2A4.4,4.4,0,0,0,17,6h.1a.8.8,0,0,0-.9-.8.7.7,0,0,0-.8.7,3,3,0,0,1-1.1,1.9h0l-.5.7a5.6,5.6,0,0,0,1,5.9,8.2,8.2,0,0,0,5,2.5h0c.5.1.8.4.8.8v.8H3.4v-.8a.8.8,0,0,1,.7-.8h0a7.9,7.9,0,0,0,5-2.5,5.2,5.2,0,0,0,1-5.9,2.3,2.3,0,0,0-.5-.7H9.5a3.2,3.2,0,0,1-.9-2.3A3.4,3.4,0,0,1,12,2.1h.3a.8.8,0,0,0,.9-.8.9.9,0,0,0-.9-.8H12A5,5,0,0,0,6.9,5.4,4.7,4.7,0,0,0,8.2,8.7a3.3,3.3,0,0,1,.3,3.7,6.6,6.6,0,0,1-5.1,2.9,1.7,1.7,0,0,0-1.7,1.6v3.3H5.1v1.7a1.7,1.7,0,0,0,1.7,1.6H17.1a1.7,1.7,0,0,0,1.8-1.6V20.2h3.4V16.9A1.7,1.7,0,0,0,20.6,15.3ZM17.2,21a.9.9,0,0,1-.9.9H7.7a.9.9,0,0,1-.9-.9v-.8H17.2Z"/></svg>
