<svg id="图层_1" data-name="图层 1" xmlns="http://www.w3.org/2000/svg" viewBox="0 0 24 24"><defs> </defs><path class="cls-1" d="M22.21,13.29a1.27,1.27,0,0,1,0-2.52.91.91,0,0,0,.62-.36.88.88,0,0,0,.15-.7A11.24,11.24,0,0,0,21.42,5.9a.9.9,0,0,0-.61-.39.89.89,0,0,0-.7.19,1.27,1.27,0,0,1-1.77-1.79.89.89,0,0,0-.2-1.3A11.28,11.28,0,0,0,14.33,1a.93.93,0,0,0-.71.15.89.89,0,0,0-.36.63,1.27,1.27,0,0,1-2.52,0A.89.89,0,0,0,9.67,1,11.28,11.28,0,0,0,5.86,2.61a.89.89,0,0,0-.2,1.3A1.27,1.27,0,0,1,3.89,5.7a.89.89,0,0,0-.7-.19.9.9,0,0,0-.61.39A11.24,11.24,0,0,0,1,9.71a.88.88,0,0,0,.15.7.91.91,0,0,0,.62.36,1.26,1.26,0,0,1,0,2.51.86.86,0,0,0-.61.37.88.88,0,0,0-.15.7,11.13,11.13,0,0,0,1.58,3.78.9.9,0,0,0,.6.39.89.89,0,0,0,.69-.17,1.27,1.27,0,0,1,1.78,1.77.86.86,0,0,0-.18.69.93.93,0,0,0,.39.59A11.24,11.24,0,0,0,9.68,23a.88.88,0,0,0,.7-.15.86.86,0,0,0,.36-.6,1.27,1.27,0,0,1,2.51,0,.86.86,0,0,0,.36.6.92.92,0,0,0,.52.17l.19,0a11.14,11.14,0,0,0,3.79-1.56.88.88,0,0,0,.39-.6.9.9,0,0,0-.17-.69,1.25,1.25,0,0,1,.1-1.66,1.27,1.27,0,0,1,1.67-.11.88.88,0,0,0,1.29-.21A11.1,11.1,0,0,0,23,14.35a.88.88,0,0,0-.15-.7A.88.88,0,0,0,22.21,13.29ZM21,14.76a9.19,9.19,0,0,1-.71,1.71,3,3,0,0,0-3.87,3.86,9.58,9.58,0,0,1-1.72.71,3,3,0,0,0-5.45,0,9.89,9.89,0,0,1-1.72-.71,3,3,0,0,0-3.86-3.86A8.85,8.85,0,0,1,3,14.76,3,3,0,0,0,4.69,12,3.06,3.06,0,0,0,3,9.28a9,9,0,0,1,.7-1.71A3,3,0,0,0,7.71,4.86a3.1,3.1,0,0,0-.17-1.18A8.56,8.56,0,0,1,9.25,3a3.08,3.08,0,0,0,.7.95A3,3,0,0,0,12,4.71,3.07,3.07,0,0,0,14.75,3a9.08,9.08,0,0,1,1.71.71,2.92,2.92,0,0,0-.18,1.18,3,3,0,0,0,3,2.89,3,3,0,0,0,1-.18A9.79,9.79,0,0,1,21,9.28a3,3,0,0,0,0,5.48ZM12,7.65A4.35,4.35,0,1,0,16.34,12,4.35,4.35,0,0,0,12,7.65Zm0,6.92A2.58,2.58,0,1,1,14.57,12,2.58,2.58,0,0,1,12,14.57Z"/></svg>
