<svg id="图层_1" data-name="图层 1" xmlns="http://www.w3.org/2000/svg" viewBox="0 0 24 24"><defs><style>.cls-1{fill:#009494;}</style></defs><title>shuaxin</title><path class="cls-1" d="M19.88,3.41A11.64,11.64,0,0,0,14.53.64l-.28,2.84a8.43,8.43,0,0,1,3.4,1.8Z"/><path class="cls-1" d="M18.51,17.4l1.84,2.19a12.28,12.28,0,0,0,2.87-5.4L20.38,14A8.75,8.75,0,0,1,18.51,17.4Z"/><path class="cls-1" d="M20.66,11.13l2.84.22a10.53,10.53,0,0,0-1.79-5.76L19.48,7.46A8.45,8.45,0,0,1,20.66,11.13Z"/><path class="cls-1" d="M5.32,17.51A8.65,8.65,0,0,1,5.49,6.38l3.57,4.26L10,1.51.82.8,3.66,4.19A11.5,11.5,0,0,0,3.1,19.38a11.45,11.45,0,0,0,15,2.08l-1.83-2.18A8.62,8.62,0,0,1,5.32,17.51Z"/></svg>