<svg id="图层_1" data-name="图层 1" xmlns="http://www.w3.org/2000/svg" viewBox="0 0 24 24"><defs> </defs><title>shujucxx</title><polygon class="cls-1" points="16.06 2.46 16.06 5.39 19.08 5.39 16.06 2.46"/><path class="cls-1" d="M14.7,9.68A4.44,4.44,0,0,0,10.2,14a4.5,4.5,0,0,0,9,0A4.43,4.43,0,0,0,14.7,9.68Z"/><path class="cls-2" d="M8.57,20.06H2.48V2.46H14.59v4.4h4.49v.78a.76.76,0,0,0,1.51,0V5.39L16.1,1H1.71A.67.67,0,0,0,1,1.62V20.9a.65.65,0,0,0,.66.63H8.57a.74.74,0,1,0,0-1.47Zm7.49-17.6,3,2.93h-3Z"/><path class="cls-2" d="M22.76,21.55l-3.32-3.7A5.87,5.87,0,0,0,20.88,14,6.1,6.1,0,0,0,14.7,8a6.1,6.1,0,0,0-6.18,6,6.1,6.1,0,0,0,6.18,6,6.3,6.3,0,0,0,3.43-1l3.28,3.65a.91.91,0,0,0,1.26.09A.85.85,0,0,0,22.76,21.55ZM14.7,18.41A4.44,4.44,0,0,1,10.2,14a4.5,4.5,0,0,1,9,0A4.43,4.43,0,0,1,14.7,18.41Z"/><path class="cls-2" d="M13,6.13a.74.74,0,0,0-.75-.74H4.75a.74.74,0,1,0,0,1.47h7.54A.74.74,0,0,0,13,6.13Z"/><path class="cls-2" d="M8.14,9.06a.74.74,0,0,0-.75-.73H4.75a.73.73,0,1,0,0,1.46H7.39A.74.74,0,0,0,8.14,9.06Z"/><path class="cls-2" d="M6.26,14.19H4.75a.74.74,0,1,0,0,1.47H6.26a.74.74,0,1,0,0-1.47Z"/><path class="cls-2" d="M6.26,11.26H4.75a.74.74,0,1,0,0,1.47H6.26a.74.74,0,1,0,0-1.47Z"/></svg>