<svg id="图层_1" data-name="图层 1" xmlns="http://www.w3.org/2000/svg" viewBox="0 0 24 24"><defs> </defs><title>shujufenxix</title><path class="cls-1" d="M4.57,14.86H2.43A1.12,1.12,0,0,0,1.29,16v4.71A1.16,1.16,0,0,0,2.43,22H4.57a1.1,1.1,0,0,0,1-1.14V16A1.1,1.1,0,0,0,4.57,14.86Zm-.43,5.28c0,.29-.28.43-.71.43s-.72-.14-.72-.43V16.71c0-.28.29-.42.72-.42s.71.14.71.42Zm6.15-9.57H8.14A1.13,1.13,0,0,0,7,11.71v9A1.17,1.17,0,0,0,8.14,22h2.15a1.23,1.23,0,0,0,1.14-1.14V11.71C11.29,11.14,10.86,10.57,10.29,10.57Zm-.43,9.57c0,.29-.29.43-.72.43s-.71-.14-.71-.43V12.43c0-.29.28-.43.71-.43s.72.14.72.43Zm11.71-11H19.43a1.12,1.12,0,0,0-1.14,1.15V20.71A1.16,1.16,0,0,0,19.43,22h2.14a1.23,1.23,0,0,0,1.14-1.14V10.29C22.57,9.71,22.14,9.14,21.57,9.14Zm-.43,11c0,.29-.28.43-.71.43s-.72-.14-.72-.43V11c0-.29.29-.43.72-.43s.71.14.71.43ZM16,13.43H13.86a1.13,1.13,0,0,0-1.15,1.14v6.14A1.17,1.17,0,0,0,13.86,22H16a1.1,1.1,0,0,0,1-1.14V14.57A1.1,1.1,0,0,0,16,13.43Zm-.43,6.71c0,.29-.28.43-.71.43s-.72-.14-.72-.43V15.29c0-.29.29-.43.72-.43s.71.14.71.43ZM2.71,13.71,9.14,8.14l4.57,3.15a.58.58,0,0,0,1,0l6.58-7V5.57a.71.71,0,1,0,1.42,0V2.71A.67.67,0,0,0,22,2H19.14a.67.67,0,0,0-.71.71.67.67,0,0,0,.71.72h1l-6,6.28L9.57,6.57h0a.7.7,0,0,0-1,0l-6.86,6a.88.88,0,0,0,0,1.14A1.17,1.17,0,0,0,2.71,13.71Z"/></svg>