<svg id="图层_1" data-name="图层 1" xmlns="http://www.w3.org/2000/svg" viewBox="0 0 24 24"><defs> </defs><title>shujuwh</title><path class="cls-1" d="M11.63,19.75a2.33,2.33,0,0,0,0,2.87,1.18,1.18,0,0,0,.18.21c-.63.05-1.28.08-2,.08-4.87,0-8.81-1.53-8.81-3.41V15.41c0,1.89,3.94,3.41,8.8,3.41a22,22,0,0,0,2.76-.17ZM9.85,10.64c4.87,0,8.82-1.52,8.82-3.41V4.5c0-1.89-4-3.41-8.82-3.41S1,2.61,1,4.5V7.23C1,9.1,5,10.64,9.85,10.64ZM23,13c0,.88,0,2.61-.68,3.43l-.14.17a1.9,1.9,0,0,1-2.91.26h0s-3.62,4.94-3.62,4.94a1.16,1.16,0,0,1-1.92,0,1.93,1.93,0,0,1,0-2.37l4-4.49a3.24,3.24,0,0,1,.2-3.61l.14-.17c.68-.85,2.1-.86,2.79-.86.22,0,.07.21.07.21l-1.32,1.63a1,1,0,0,0-.12.58,6.83,6.83,0,0,0,.26,1.6,3.88,3.88,0,0,0,1.24.34s.42,0,.54-.13L22.81,13S23,12.77,23,13Zm-7.53,7.49a.76.76,0,0,0-.67-.83.85.85,0,0,0,0,1.66A.77.77,0,0,0,15.43,20.53ZM9.85,16.77a20,20,0,0,0,5-.58l1.65-1.86a4,4,0,0,1-.5-2.6,18.14,18.14,0,0,1-6.11.95C5,12.68,1,11.16,1,9.27v4.09C1,15.24,5,16.77,9.85,16.77Z"/></svg>