<svg id="图层_1" data-name="图层 1" xmlns="http://www.w3.org/2000/svg" viewBox="0 0 24 24"><defs> </defs><title></title><path class="cls-1" d="M5.63,16.48a1.5,1.5,0,0,0,1.5-.79A1.46,1.46,0,0,0,7,14a.22.22,0,0,1,0-.3c.37-.62.73-1.25,1.09-1.88a.2.2,0,0,1,.24-.12,1.57,1.57,0,0,0,.88-.14.26.26,0,0,1,.3,0q1.8,1.37,3.62,2.71c.13.1.13.15.05.28a2,2,0,0,0,2.4,2.88A2,2,0,0,0,16.05,14c-.07-.06-.18-.08-.09-.24l2.58-4.45a.15.15,0,0,1,.19-.09,2.16,2.16,0,0,0,.84,0A2.32,2.32,0,1,0,17,6.18a2.3,2.3,0,0,0,.75,2.58c.13.1.12.17.05.3q-1.29,2.19-2.55,4.4c-.07.11-.12.16-.26.14a1.89,1.89,0,0,0-1.09.23.18.18,0,0,1-.24,0L10,11.07c-.09-.07-.11-.12,0-.23a1.64,1.64,0,0,0,.17-1.35,1.73,1.73,0,0,0-3.26-.22,1.72,1.72,0,0,0,.42,2,.2.2,0,0,1,0,.31c-.35.59-.69,1.19-1,1.79-.07.1-.12.14-.25.11a1.53,1.53,0,0,0-1.73,2A1.49,1.49,0,0,0,5.63,16.48Z"/><path class="cls-1" d="M23,20H2V3A1,1,0,0,0,0,3V21a1,1,0,0,0,1,1H23a1,1,0,0,0,0-2Z"/></svg>
