<?xml version="1.0" standalone="no"?><!DOCTYPE svg PUBLIC "-//W3C//DTD SVG 1.1//EN" "http://www.w3.org/Graphics/SVG/1.1/DTD/svg11.dtd"><svg t="1560993696314" class="icon" style="" viewBox="0 0 1024 1024" version="1.1" xmlns="http://www.w3.org/2000/svg" p-id="4592" xmlns:xlink="http://www.w3.org/1999/xlink" width="200" height="200"><defs><style type="text/css"></style></defs><path d="M912 669.1V812c0 11.9-4.1 22.1-12.5 30.3-8.4 8.4-18.5 12.5-30.3 12.5H726.3c-11.9 0-22.1-4.1-30.3-12.5-8.4-8.4-12.5-18.5-12.5-30.3V669.1c0-11.9 4.1-22.1 12.5-30.3 8.4-8.4 18.5-12.5 30.3-12.5h42.8v-85.7H540.5v85.7h42.8c11.9 0 22.1 4.1 30.3 12.5 8.4 8.4 12.5 18.5 12.5 30.3V812c0 11.9-4.1 22.1-12.5 30.3-8.4 8.4-18.5 12.5-30.3 12.5H440.5c-11.9 0-22.1-4.1-30.3-12.5-8.4-8.4-12.5-18.5-12.5-30.3V669.1c0-11.9 4.1-22.1 12.5-30.3 8.4-8.4 18.5-12.5 30.3-12.5h42.8v-85.7H254.8v85.7h42.8c11.9 0 22.1 4.1 30.3 12.5 8.4 8.4 12.5 18.5 12.5 30.3V812c0 11.9-4.1 22.1-12.5 30.3-8.4 8.4-18.5 12.5-30.3 12.5H154.8c-11.9 0-22.1-4.1-30.3-12.5-8.4-8.3-12.5-18.4-12.5-30.3V669.1c0-11.9 4.1-22.1 12.5-30.3 8.4-8.4 18.5-12.5 30.3-12.5h42.8v-85.7c0-15.5 5.6-28.8 17-40.2 11.3-11.3 24.7-17 40.2-17h228.5v-85.7h-42.8c-11.9 0-22.1-4.1-30.3-12.5-8.4-8.4-12.5-18.5-12.5-30.3V212c0-11.9 4.1-22.1 12.5-30.3 8.4-8.4 18.5-12.5 30.3-12.5h142.8c11.9 0 22.1 4.1 30.3 12.5 8.4 8.4 12.5 18.5 12.5 30.3v142.9c0 11.9-4.1 22.1-12.5 30.3-8.4 8.4-18.5 12.5-30.3 12.5h-42.8v85.7H769c15.5 0 28.8 5.6 40.2 17 11.3 11.4 17 24.7 17 40.2v85.7H869c11.9 0 22.1 4.1 30.3 12.5 8.6 8.4 12.7 18.4 12.7 30.3z" p-id="4593"></path></svg>