<?xml version="1.0" standalone="no"?><!DOCTYPE svg PUBLIC "-//W3C//DTD SVG 1.1//EN" "http://www.w3.org/Graphics/SVG/1.1/DTD/svg11.dtd"><svg t="1547453825456" class="icon" style="" viewBox="0 0 1024 1024" version="1.1" xmlns="http://www.w3.org/2000/svg" p-id="2845" xmlns:xlink="http://www.w3.org/1999/xlink" width="200" height="200"><defs><style type="text/css"></style></defs><path d="M943.87 329.79a466.4 466.4 0 0 0-858.74 0A465.93 465.93 0 0 0 844 840.16a465.59 465.59 0 0 0 99.87-510.37z m-33.15 348.38a430.41 430.41 0 0 1-792.44 0A429.94 429.94 0 0 1 818.56 207.3a429.6 429.6 0 0 1 92.16 470.87z" p-id="2846"></path><path d="M708.74 432.94h-125l-38.6-118.86a34.84 34.84 0 0 0-66.28 0l-38.62 118.86h-125a34.85 34.85 0 0 0-20.49 63l101.11 73.46-38.6 118.91a34.85 34.85 0 0 0 53.63 39L512 653.81l101.11 73.46a34.34 34.34 0 0 0 41 0 34.35 34.35 0 0 0 12.66-39l-38.65-118.83L729.23 496a34.85 34.85 0 0 0-20.49-63zM606.28 540.81a34.76 34.76 0 0 0-12.66 39l37.78 116.25-98.92-71.87a34.78 34.78 0 0 0-41 0l-98.88 71.87 37.78-116.29a34.76 34.76 0 0 0-12.66-39l-98.92-71.83h122.27a34.77 34.77 0 0 0 33.15-24.08L512 328.58l37.78 116.28a34.77 34.77 0 0 0 33.15 24.08H705.2z" p-id="2847"></path></svg>