<svg id="图层_1" data-name="图层 1" xmlns="http://www.w3.org/2000/svg" viewBox="0 0 24 24"><defs> </defs><path class="cls-1" d="M2.85,16.34a1.88,1.88,0,0,0,1.89-1,1.84,1.84,0,0,0-.19-2.12.28.28,0,0,1,0-.38c.46-.79.92-1.57,1.37-2.37a.24.24,0,0,1,.3-.15,1.93,1.93,0,0,0,1.11-.18.3.3,0,0,1,.37,0l4.56,3.41c.16.11.16.18.07.34a2.49,2.49,0,0,0,3,3.62,2.38,2.38,0,0,0,1.61-2,2.41,2.41,0,0,0-1-2.32c-.09-.07-.23-.1-.12-.29l3.25-5.6c.06-.11.11-.15.25-.11a2.8,2.8,0,0,0,1,0,2.92,2.92,0,0,0-.45-5.81,2.92,2.92,0,0,0-1.81,5.21c.16.13.16.21.06.37L15,12.54a.3.3,0,0,1-.33.19,2.27,2.27,0,0,0-1.37.28c-.12.07-.19,0-.3,0L8.38,9.54c-.12-.09-.15-.15-.06-.29a2.11,2.11,0,0,0,.21-1.7A2.18,2.18,0,1,0,5,9.76c.15.13.15.22,0,.38-.44.74-.87,1.5-1.31,2.25a.24.24,0,0,1-.3.15A1.92,1.92,0,0,0,1.22,15,1.85,1.85,0,0,0,2.85,16.34Z"/><rect class="cls-1" x="0.5" y="20.37" width="23" height="2.2"/></svg>
