<svg id="图层_1" data-name="图层 1" xmlns="http://www.w3.org/2000/svg" viewBox="0 0 24 24"><defs><style></style></defs><title>stdtji</title><path class="cls-1" d="M6.9,6.4a3.8,3.8,0,0,0-1.7-.8C4.3,5.3,3.9,4.9,4,4.3s.3-.9,1-1,1.2.5,1.3,1.5l1.6-.4c-.3-2-1.3-2.9-3-2.9s-2.5,1-2.6,2.8A2.6,2.6,0,0,0,4.2,7.2l1.4.6a1.4,1.4,0,0,1,.8,1.3,1.3,1.3,0,0,1-1.2,1.2c-.9,0-1.5-.7-1.6-2.1L2,8.6C2.3,10.9,3.4,12,5.3,12S8,11,8.1,9A3,3,0,0,0,6.9,6.4Z"/><polygon class="cls-1" points="11 8.7 12.7 8.7 12.7 3.7 15 3.7 15 2.6 8.7 2.6 8.7 3.7 11 3.7 11 8.7"/><path class="cls-1" d="M22,5.6c0-2-1.4-3-3.9-3H15.8V8.7h2.4C20.8,8.8,22.1,7.7,22,5.6Zm-4.5,2V3.7H18c1.5,0,2.2.7,2.3,1.9s-.8,2-2.3,2Z"/><path class="cls-1" d="M5.1,17.2H3.8c-.7,0-1.3.4-1.3.8v3.7c0,.5.6.8,1.3.8H5.1c.8,0,1.3-.3,1.3-.8V18C6.4,17.6,5.9,17.2,5.1,17.2ZM5,21.5H4V18.2H5Z"/><path class="cls-1" d="M10.1,13.2H8.8c-.7,0-1.3.4-1.3.7v7.9c0,.4.6.7,1.3.7h1.3c.8,0,1.3-.3,1.3-.7V13.9C11.4,13.6,10.9,13.2,10.1,13.2ZM10,21.5H9V14.2h1Z"/><path class="cls-1" d="M15.1,14.6H13.8c-.7,0-1.3.3-1.3.7v6.5c0,.4.6.7,1.3.7h1.3c.8,0,1.3-.3,1.3-.7V15.3C16.4,14.9,15.9,14.6,15.1,14.6ZM15,21.5H14v-6h1Z"/><path class="cls-1" d="M20.1,9.9H18.8c-.7,0-1.3.3-1.3.7V21.8c0,.4.6.7,1.3.7h1.3c.7,0,1.3-.3,1.3-.7V10.6C21.4,10.2,20.8,9.9,20.1,9.9ZM20,21.5H19V10.9h1Z"/></svg>