<svg id="图层_1" data-name="图层 1" xmlns="http://www.w3.org/2000/svg" viewBox="0 0 24 24"><defs> </defs><title>tablgl</title><path class="cls-1" d="M17.61,15.62A2.37,2.37,0,1,0,20,18,2.36,2.36,0,0,0,17.61,15.62Zm0,3.51A1.15,1.15,0,1,1,18.76,18,1.14,1.14,0,0,1,17.61,19.13Zm6.25-2.38a.83.83,0,0,0-.78-.77h0a1.34,1.34,0,0,1-1.34-1.34,1.51,1.51,0,0,1,.12-.5,1,1,0,0,0-.36-1.2l-1.57-.87a1,1,0,0,0-.39-.08,1,1,0,0,0-.75.31,2.06,2.06,0,0,1-1.07.62,2.1,2.1,0,0,1-1.08-.63,1.08,1.08,0,0,0-1.14-.24l0,0-1.6.87,0,0a1,1,0,0,0-.33,1.17,1.7,1.7,0,0,1,.11.51A1.34,1.34,0,0,1,12.25,16h-.07a.83.83,0,0,0-.76.77A8.47,8.47,0,0,0,11.29,18a8.67,8.67,0,0,0,.13,1.25.84.84,0,0,0,.77.77h.06a1.34,1.34,0,0,1,1.33,1.33,1.63,1.63,0,0,1-.11.51,1,1,0,0,0,.36,1.2l1.53.85a1.1,1.1,0,0,0,.4.08,1,1,0,0,0,.75-.32,2.06,2.06,0,0,1,1.1-.66,2.05,2.05,0,0,1,1.1.67,1,1,0,0,0,1.18.23l1.55-.85,0,0a1,1,0,0,0,.33-1.17,1.61,1.61,0,0,1-.12-.51A1.34,1.34,0,0,1,23,20h.06a.84.84,0,0,0,.77-.77A8.47,8.47,0,0,0,24,18a8.47,8.47,0,0,0-.13-1.24ZM22.7,18.81a2.55,2.55,0,0,0-2.22,2.53,2.75,2.75,0,0,0,.13.78l-1.12.62a4.37,4.37,0,0,0-.46-.4,2.38,2.38,0,0,0-1.42-.55,2.43,2.43,0,0,0-1.42.54,4.06,4.06,0,0,0-.45.39l-1.07-.6a2.69,2.69,0,0,0,.13-.78,2.55,2.55,0,0,0-2.22-2.53A6.33,6.33,0,0,1,12.5,18a6,6,0,0,1,.08-.81,2.56,2.56,0,0,0,2.22-2.54,2.68,2.68,0,0,0-.13-.77l1.15-.63a4.81,4.81,0,0,0,.46.37,2.41,2.41,0,0,0,1.39.52,2.43,2.43,0,0,0,1.38-.51,3.29,3.29,0,0,0,.45-.37l1.11.62a2.61,2.61,0,0,0-.13.77,2.56,2.56,0,0,0,2.22,2.54,6.44,6.44,0,0,1,.07.81,6.44,6.44,0,0,1-.07.82ZM1.59,22.27V20.93a8.79,8.79,0,0,1,8-8.72h0a7.56,7.56,0,0,1,.83,0h.12a6.08,6.08,0,0,0,3.27-1l.38-.3a6,6,0,0,0,2.35-4.78,6.13,6.13,0,1,0-9.9,4.78l.38.3-.45.18A10.28,10.28,0,0,0,0,20.93v2.12a.79.79,0,0,0,.79.79H12.34a8.15,8.15,0,0,1-1-1.57ZM5.86,6.09a4.55,4.55,0,1,1,4.55,4.51A4.53,4.53,0,0,1,5.86,6.09Z"/></svg>