<svg id="图层_1" data-name="图层 1" xmlns="http://www.w3.org/2000/svg" viewBox="0 0 24 24"><defs> </defs><path class="cls-1" d="M2.41,21.12c0-.54,0-5.24,0-5.24v-.1H.9v6a1.26,1.26,0,0,0,1.29,1.27h6V21.58H3S2.46,21.51,2.41,21.12Z"/><path class="cls-1" d="M2.4,8.12s0-4.7,0-5.24c0-.39.52-.47.53-.47H8.23V.91h-6A1.26,1.26,0,0,0,.9,2.17V8.22H2.4Z"/><path class="cls-1" d="M21.6,21.06c0,.06-.1.49-.47.53l-5.24,0h-.1V23.1h6a1.26,1.26,0,0,0,1.27-1.29v-6H21.59Z"/><path class="cls-1" d="M21.83.9h-6V2.39h.1l5.19,0h0c.4,0,.48.52.48.52V8.22H23.1v-6A1.26,1.26,0,0,0,21.83.9Z"/><polygon class="cls-1" points="17.06 18.5 17.06 12.56 18.08 12.56 18.08 18.5 19.03 18.5 19.03 12.56 21.9 12.56 21.9 11.43 19.03 11.43 19.03 5.49 18.08 5.49 18.08 11.43 17.06 11.43 17.06 5.49 14.33 5.49 14.33 11.43 13.67 11.43 13.67 5.49 12.72 5.49 12.72 11.43 12 11.43 12 5.49 10.33 5.49 10.33 11.43 9.67 11.43 9.67 5.49 8.72 5.49 8.72 11.43 8.06 11.43 8.06 5.49 7.11 5.49 7.11 11.43 5.87 11.43 5.87 5.49 4.92 5.49 4.92 11.43 2.1 11.43 2.1 12.56 4.92 12.56 4.92 18.5 5.87 18.5 5.87 12.56 7.11 12.56 7.11 18.5 8.06 18.5 8.06 12.56 8.72 12.56 8.72 18.5 9.67 18.5 9.67 12.56 10.33 12.56 10.33 18.5 12 18.5 12 12.56 12.72 12.56 12.72 18.5 13.67 18.5 13.67 12.56 14.33 12.56 14.33 18.5 17.06 18.5"/></svg>
