<svg id="图层_1" data-name="图层 1" xmlns="http://www.w3.org/2000/svg" viewBox="0 0 24 24"><defs></defs><title>tishixx</title><path class="cls-1" d="M21.5,6.5a10.1,10.1,0,0,0-4.1-4.1A11.4,11.4,0,0,0,12,1,12.1,12.1,0,0,0,6.6,2.4,10.1,10.1,0,0,0,2.5,6.5,11.1,11.1,0,0,0,1,12a11.1,11.1,0,0,0,1.5,5.5,9.6,9.6,0,0,0,4,4A11.1,11.1,0,0,0,12,23a11.1,11.1,0,0,0,5.5-1.5,9.6,9.6,0,0,0,4-4A11.1,11.1,0,0,0,23,12,11.1,11.1,0,0,0,21.5,6.5ZM20,16.6A10.1,10.1,0,0,1,16.6,20a9.4,9.4,0,0,1-9.2,0A11,11,0,0,1,4,16.6,9.6,9.6,0,0,1,2.8,12,8.7,8.7,0,0,1,4.1,7.4,8,8,0,0,1,7.5,4,9.5,9.5,0,0,1,12,2.8,9.5,9.5,0,0,1,16.5,4a8,8,0,0,1,3.4,3.4A8.7,8.7,0,0,1,21.2,12,9.6,9.6,0,0,1,20,16.6Zm-8.7-3c-.2-2.2-.9-5.2-.9-5.7a2.1,2.1,0,0,1,.5-1.2,1.6,1.6,0,0,1,2.2,0h0a2.1,2.1,0,0,1,.5,1.2c0,.5-.6,3.5-.8,5.7ZM13.1,15a1.7,1.7,0,0,1,0,2.3,1.6,1.6,0,0,1-2.2,0,1.7,1.7,0,0,1,0-2.3A1.6,1.6,0,0,1,13.1,15Z"/></svg>