<svg id="图层_1" data-name="图层 1" xmlns="http://www.w3.org/2000/svg" viewBox="0 0 24 24"><defs></defs><title>tongjlv</title><path class="cls-1" d="M3.8,14.8l-1.1-.2L1.8,14l-.6-.9A3.6,3.6,0,0,1,1,12a3.6,3.6,0,0,1,.2-1l.6-.9a1.5,1.5,0,0,1,.9-.6l1.1-.2h.4L8,4.7c-.1-.1-.1-.3-.2-.4V3.8A3.6,3.6,0,0,1,8,2.7a7,7,0,0,1,.6-.9l.9-.6L10.6,1l1,.2.9.6a1.8,1.8,0,0,1,.6.9,3.6,3.6,0,0,1,.2,1.1,2.8,2.8,0,0,1-.1.9l-.4.7,3.3,7.5L18,9.5a3,3,0,0,1-.4-.8,1.9,1.9,0,0,1-.1-.8,2,2,0,0,1,.2-1.1,2.4,2.4,0,0,1,.6-.9l.9-.6,1-.2,1.1.2.9.6.6.9A3.6,3.6,0,0,1,23,7.9,4.3,4.3,0,0,1,22.8,9l-.6.9-.9.6-1.1.2h-.4l-1.9,3.4a2.2,2.2,0,0,1,.7.9,2,2,0,0,1,.2,1.1,2,2,0,0,1-.2,1.1,1.5,1.5,0,0,1-.6.9,1.6,1.6,0,0,1-.8.6,2.2,2.2,0,0,1-1.1.2,2,2,0,0,1-1.1-.2,2.4,2.4,0,0,1-.9-.6,3.5,3.5,0,0,1-.6-.9,3.6,3.6,0,0,1-.2-1.1,2,2,0,0,1,.3-1.1,1.5,1.5,0,0,1,.6-.9L10.9,6.5H10l-.6-.2L6.1,10.5l.3.7a2.5,2.5,0,0,1,.1.8,2,2,0,0,1-.2,1.1,2.4,2.4,0,0,1-.6.9l-.9.6-1,.2ZM1,20.3H23V23H1V20.3Z"/></svg>