<svg id="图层_1" data-name="图层 1" xmlns="http://www.w3.org/2000/svg" viewBox="0 0 24 24"><defs> </defs><title>toupianku</title><path class="cls-1" d="M9.21,22.23a.76.76,0,0,1-.76.77H2.72A1.63,1.63,0,0,1,1,21.47V2.53A1.63,1.63,0,0,1,2.72,1H21.14a1.64,1.64,0,0,1,1.72,1.53v9.39a.77.77,0,0,1-1.53,0V2.58a.36.36,0,0,0-.19-.05H2.72a.32.32,0,0,0-.18.05V21.42a.32.32,0,0,0,.18,0H8.44A.76.76,0,0,1,9.21,22.23Zm13-4.72a.76.76,0,0,0,.76-.76v-1.6A1.18,1.18,0,0,0,21.82,14H12.15A1.17,1.17,0,0,0,11,15.15v2.19l.57.15a1.27,1.27,0,0,1,0,2.47l-.57.15v1.72A1.17,1.17,0,0,0,12.15,23h9.67A1.18,1.18,0,0,0,23,21.83V20.11L22.42,20a1.26,1.26,0,0,1-1-1.24.77.77,0,0,0-1.53,0,2.81,2.81,0,0,0,1.53,2.51v.24h-9v-.24a2.82,2.82,0,0,0,0-5V15.5h9v1.25A.76.76,0,0,0,22.23,17.51ZM12.7,11.2a.77.77,0,0,0-.77-.77H4.87a.77.77,0,0,0,0,1.54h7.06A.77.77,0,0,0,12.7,11.2Zm6.39-4.27a.77.77,0,0,0-.76-.77H4.87a.77.77,0,0,0,0,1.53H18.33A.76.76,0,0,0,19.09,6.93ZM4.87,14.78a.77.77,0,0,0,0,1.53H8.11a.77.77,0,0,0,0-1.53Zm10.87,3a.77.77,0,0,0-.77.77.76.76,0,0,0,.77.76h2.59a.77.77,0,0,0,0-1.53Z"/></svg>