<svg id="图层_1" data-name="图层 1" xmlns="http://www.w3.org/2000/svg" viewBox="0 0 24 24"><defs> </defs><title></title><path class="cls-1" d="M9.67,14.33l3.5-4.66H10.83V6.75a1.75,1.75,0,1,1,3.5,0V9.67h0a1.17,1.17,0,0,0,2.34,0h0V6.75a4.08,4.08,0,0,0-4.08-4.08h0A4.08,4.08,0,0,0,8.5,6.75V9.67H6.17Z"/><path class="cls-1" d="M20.18,1.5H19a1.17,1.17,0,1,0,0,2.33A1.23,1.23,0,0,1,20.17,5v9.33A1.2,1.2,0,0,1,19,15.5H16.67c-1.08,0-1.17,2.33-4.67,2.33S8.5,15.5,7.33,15.5H5a1.18,1.18,0,0,1-1.17-1.17V5A1.22,1.22,0,0,1,5,3.83,1.17,1.17,0,1,0,5,1.5H3.82A2.32,2.32,0,0,0,1.5,3.82h0V20.18A2.32,2.32,0,0,0,3.82,22.5H20.18a2.32,2.32,0,0,0,2.32-2.32h0V3.82A2.32,2.32,0,0,0,20.18,1.5Z"/></svg>
