<svg id="图层_1" data-name="图层 1" xmlns="http://www.w3.org/2000/svg" viewBox="0 0 24 24"><defs> </defs><title>tuikgl</title><path class="cls-1" d="M23,18.05v-.14a.82.82,0,0,0-.82-.82.53.53,0,0,1-.5-.37v0c-.05-.14-.11-.29-.17-.42v0a.55.55,0,0,1,.1-.62l.38-.38a.32.32,0,0,0,.08-.2.28.28,0,0,0-.08-.2L21.1,14a.28.28,0,0,0-.2-.08.27.27,0,0,0-.19.08l-.38.38a.53.53,0,0,1-.61.1h0l-.28-.12-.14,0h0a.53.53,0,0,1-.36-.51.83.83,0,0,0-.54-.77.66.66,0,0,0-.28,0h-.14a.82.82,0,0,0-.81.82.54.54,0,0,1-.36.51h0l-.43.17h0a.65.65,0,0,1-.26.06.52.52,0,0,1-.35-.16l-.07-.06L15.32,14a.28.28,0,0,0-.2-.08.32.32,0,0,0-.2.08l-.29.29-.56.57a.27.27,0,0,0-.07.2.31.31,0,0,0,.07.2l.38.38a.56.56,0,0,1,.16.44.84.84,0,0,1,0,.17v0a3.25,3.25,0,0,0-.18.43v0a.55.55,0,0,1-.51.37.81.81,0,0,0-.81.82v.14a.93.93,0,0,0,0,.24.83.83,0,0,0,.78.58.55.55,0,0,1,.51.37v0a3.12,3.12,0,0,0,.18.42v0a.58.58,0,0,1-.1.62l-.38.38a.3.3,0,0,0-.08.2.28.28,0,0,0,.08.2l.85.86a.29.29,0,0,0,.4,0l.37-.38a.54.54,0,0,1,.61-.11h0a3.25,3.25,0,0,0,.43.18h0a.54.54,0,0,1,.37.51A.82.82,0,0,0,18,23h.19a.83.83,0,0,0,.77-.82.54.54,0,0,1,.36-.51h0l.14-.05.28-.13h0a.55.55,0,0,1,.61.11l.38.38a.3.3,0,0,0,.2.08.32.32,0,0,0,.2-.08L22,21.1a.32.32,0,0,0,.08-.2.28.28,0,0,0-.08-.2l-.38-.38a.55.55,0,0,1-.1-.62v0a3.69,3.69,0,0,0,.17-.42v0a.54.54,0,0,1,.5-.37.82.82,0,0,0,.82-.82h0Zm-3.9,2a2.48,2.48,0,0,1-.81.26,2.17,2.17,0,0,1-.36,0,2.24,2.24,0,0,1-1.59-.75,2.36,2.36,0,0,1-.59-1.31c0-.05,0-.1,0-.15a2.29,2.29,0,0,1,.56-1.59,2,2,0,0,1,.36-.35A2.29,2.29,0,0,1,18,15.74h.27a2.48,2.48,0,0,1,.81.26,2.32,2.32,0,0,1,0,4.06Z"/><path class="cls-1" d="M18.5,3.33A1.23,1.23,0,0,1,19.67,4.5v7.41A6,6,0,0,1,22,13.54V3.32A2.32,2.32,0,0,0,19.68,1H18.5a1.17,1.17,0,1,0,0,2.33Z"/><path class="cls-1" d="M9.17,13.83l3.5-4.66H10.33V6.25a1.75,1.75,0,1,1,3.5,0V9.17h0a1.17,1.17,0,0,0,2.34,0h0V6.25a4.08,4.08,0,0,0-4.08-4.08h0A4.08,4.08,0,0,0,8,6.25V9.17H5.67Z"/><path class="cls-1" d="M11.5,17.5c0-.06,0-.11,0-.17h0C8,17.33,8,15,6.83,15H4.5a1.18,1.18,0,0,1-1.17-1.17V4.5A1.22,1.22,0,0,1,4.5,3.33,1.17,1.17,0,1,0,4.5,1H3.32A2.32,2.32,0,0,0,1,3.32H1V19.68A2.32,2.32,0,0,0,3.32,22H13.54A6,6,0,0,1,11.5,17.5Z"/></svg>