<svg id="图层_1" data-name="图层 1" xmlns="http://www.w3.org/2000/svg" viewBox="0 0 24 24"><defs></defs><title></title><path class="cls-1" d="M8.2,11h.1l1.5,1.6.5.2.4-.2a.6.6,0,0,0,0-.9l-.5-.5h3.2a.6.6,0,0,0,.6-.6.5.5,0,0,0-.6-.6H10.2l.5-.6a.5.5,0,0,0,0-.8.6.6,0,0,0-.9,0L8.3,10.2a.1.1,0,0,1-.1.1H8.1v.5Z"/><path class="cls-1" d="M19.7,12.4A.8.8,0,0,0,19,12H13.8a.6.6,0,0,0-.6.4l-2.6,4.5a.9.9,0,0,0,0,.7l2.6,4.5a.8.8,0,0,0,.6.4H19a.8.8,0,0,0,.7-.4l2.6-4.5a.9.9,0,0,0,0-.7ZM18.6,21H14.3l-2.2-3.7,2.2-3.8h4.3l2.2,3.8Z"/><path class="cls-1" d="M16.5,14.6a2.7,2.7,0,1,0,0,5.3,2.7,2.7,0,0,0,0-5.3Zm0,3.8a1.1,1.1,0,0,1-1.2-1.1,1.2,1.2,0,0,1,1.2-1.2,1.1,1.1,0,0,1,1.1,1.2A1.1,1.1,0,0,1,16.5,18.4Z"/><path class="cls-1" d="M20.3,1.5H3.8A2.3,2.3,0,0,0,1.5,3.8V20.3a2.2,2.2,0,0,0,2.3,2.2h6a.7.7,0,0,0,.7-.7.7.7,0,0,0-.7-.8h-6a.7.7,0,0,1-.8-.7V3.8A.7.7,0,0,1,3.8,3H20.3a.7.7,0,0,1,.7.8v6a.7.7,0,0,0,.8.7.7.7,0,0,0,.7-.7v-6A2.2,2.2,0,0,0,20.3,1.5Z"/><path class="cls-1" d="M12.8,6a.8.8,0,0,0-.8-.7H6a.7.7,0,0,0-.7.7v6a.8.8,0,0,0,.7.8.9.9,0,0,0,.8-.8V6.8H12A.9.9,0,0,0,12.8,6Z"/></svg>
