<svg id="图层_1" data-name="图层 1" xmlns="http://www.w3.org/2000/svg" xmlns:xlink="http://www.w3.org/1999/xlink" viewBox="0 0 24 24"><defs><clipPath id="clip-path"><rect id="SVGID" class="cls-1" x="1.5" y="0.5" width="21" height="23"/></clipPath></defs><g class="cls-2"><path class="cls-3" d="M6.17,6.26a5.83,5.83,0,0,0,11.66,0A5.85,5.85,0,0,0,7.88,2.2,5.72,5.72,0,0,0,6.17,6.26Zm11.15,7h-.48a1.37,1.37,0,0,0-.57.14c-.18.09-.39.22-.74.37a9.29,9.29,0,0,1-3.5.69,8.87,8.87,0,0,1-3.49-.69c-.35-.15-.75-.37-.75-.37a1.23,1.23,0,0,0-.57-.14h-.5a6,6,0,0,0-4.51,3.68,9.55,9.55,0,0,0-.7,3.61,1.17,1.17,0,0,0,.58.88c.33.18,3.27,2.05,9.91,2.05s9.91-2.05,9.91-2.05a1.17,1.17,0,0,0,.58-.89A9.42,9.42,0,0,0,21.82,17a6,6,0,0,0-4.5-3.76Zm0,0"/></g></svg>
