<svg id="图层_1" data-name="图层 1" xmlns="http://www.w3.org/2000/svg" viewBox="0 0 24 24"><defs> </defs><title>waiguancj</title><path class="cls-1" d="M10.35,1.18,2.68,10.39a.46.46,0,0,0,.35.75h7.66a.47.47,0,0,0,.46-.46V1.47A.45.45,0,0,0,10.35,1.18Z"/><path class="cls-1" d="M10.69,12.87H1.45a.45.45,0,0,0-.29.79l9.24,7.88a.46.46,0,0,0,.75-.35V13.32A.46.46,0,0,0,10.69,12.87Z"/><path class="cls-1" d="M22.84,10.28,13.62,2.11a.45.45,0,0,0-.74.37v8.17a.46.46,0,0,0,.45.48h9.22A.49.49,0,0,0,22.84,10.28Z"/><path class="cls-1" d="M21.79,20.94,20.05,19.2a3.9,3.9,0,1,0-.85.85l1.74,1.74h0a.6.6,0,1,0,.85-.85ZM16.9,19.6a2.7,2.7,0,1,1,2.7-2.7A2.7,2.7,0,0,1,16.9,19.6Z"/></svg>