<svg id="图层_1" data-name="图层 1" xmlns="http://www.w3.org/2000/svg" viewBox="0 0 24 24"><defs></defs><title>waiysg</title><path class="cls-1" d="M13.7,19.2,15.8,17l-1.7-1.8a5.8,5.8,0,0,0,.5-1.4h2.5v-3H14.6a5.8,5.8,0,0,0-.5-1.4l1.7-1.8L13.7,5.5,11.9,7.3a3.5,3.5,0,0,0-1.4-.6V4.1h-3V6.7a3.8,3.8,0,0,0-1.3.6L4.4,5.5,2.3,7.6,4,9.4a7.8,7.8,0,0,0-.5,1.4H.9v3H3.5A5.8,5.8,0,0,0,4,15.2L2.3,17l2.1,2.2,1.8-1.8,1.3.6v2.5h3.1V18l1.3-.6Zm-4.6-4a2.9,2.9,0,0,1-2.9-2.9,2.9,2.9,0,0,1,5.7,0A2.9,2.9,0,0,1,9.1,15.2Z"/><path class="cls-1" d="M15.8,8.1l1.9,1.5,1-1.3.6,1.5,2.2-.9-.6-1.5,1.6.2.3-2.4L21.3,5l1-1.3-2-1.5-.9,1.3L18.8,2l-2.3.9.6,1.5-1.5-.2-.4,2.4,1.6.2Zm2.1-2.4a1.2,1.2,0,0,1,1.3-1,1.2,1.2,0,0,1,1,1.4,1.2,1.2,0,0,1-1.3,1A1.2,1.2,0,0,1,17.9,5.7Zm5.2,13.1-.3-2.1-1.8.2.7-1.7-1.9-.9-.7,1.8L18,14.5l-1.7,1.3,1.1,1.5-1.9.2.2,2.1,1.9-.2-.8,1.7,2,.9.7-1.7,1.1,1.5,1.7-1.3L21.2,19Zm-3.7.5a1.2,1.2,0,0,1-1.3-1A1.3,1.3,0,0,1,19.2,17a1.1,1.1,0,0,1,1.2,1A1.1,1.1,0,0,1,19.4,19.3Z"/></svg>