<?xml version="1.0" standalone="no"?><!DOCTYPE svg PUBLIC "-//W3C//DTD SVG 1.1//EN" "http://www.w3.org/Graphics/SVG/1.1/DTD/svg11.dtd"><svg t="1553047744410" class="icon" style="" viewBox="0 0 1109 1024" version="1.1" xmlns="http://www.w3.org/2000/svg" p-id="32231" xmlns:xlink="http://www.w3.org/1999/xlink" width="216.6015625" height="200"><defs><style type="text/css"></style></defs><path d="M85.333333 512C85.333333 229.248 314.581333 0 597.333333 0s512 229.248 512 512-229.248 512-512 512a42.666667 42.666667 0 0 1 0-85.333333c235.648 0 426.666667-191.018667 426.666667-426.666667S832.981333 85.333333 597.333333 85.333333 170.666667 276.352 170.666667 512h113.792l-142.250667 170.666667L0 512h85.333333z" p-id="32232"></path><path d="M512 213.333333l85.333333 0 0 384-85.333333 0 0-384Z" p-id="32233"></path><path d="M853.333333 512l0 85.333333-341.333333 0 0-85.333333 341.333333 0Z" p-id="32234"></path></svg>