<svg id="图层_1" data-name="图层 1" xmlns="http://www.w3.org/2000/svg" viewBox="0 0 24 24"><defs> </defs><title></title><path class="cls-1" d="M16.07,2.31l4.07,4.27H16.75a.67.67,0,0,1-.68-.65V2.31Zm0-1.31H3.86A1.34,1.34,0,0,0,2.5,2.31V21.69A1.34,1.34,0,0,0,3.86,23H20.14a1.34,1.34,0,0,0,1.36-1.31V6.58Zm4.07,20h0a.67.67,0,0,1-.68.66H4.54A.67.67,0,0,1,3.86,21V3a.67.67,0,0,1,.68-.66H15.05V6.25a1.34,1.34,0,0,0,1.36,1.32h3.73ZM14.1,7.6v0a.59.59,0,0,1-.54.63H9.68a.59.59,0,0,1-.54-.63v0A.59.59,0,0,1,9.68,7h3.88A.59.59,0,0,1,14.1,7.6ZM7.83,7h-1a.59.59,0,0,0-.54.63v0a.59.59,0,0,0,.54.63h1a.59.59,0,0,0,.53-.63v0A.59.59,0,0,0,7.83,7Zm7.69,3.56H10.6a.65.65,0,0,0-.68.63v0a.66.66,0,0,0,.68.64h4.92a.66.66,0,0,0,.67-.64v0A.65.65,0,0,0,15.52,10.53Zm-7.27,0H6.92a.66.66,0,0,0-.68.63v0a.67.67,0,0,0,.68.64H8.25a.66.66,0,0,0,.68-.64v0A.65.65,0,0,0,8.25,10.53Zm7.27,3.56H10.6a.65.65,0,0,0-.68.63v0a.66.66,0,0,0,.68.64h4.92a.66.66,0,0,0,.67-.64v0A.65.65,0,0,0,15.52,14.09Zm-7.27,0H6.92a.66.66,0,0,0-.68.63v0a.67.67,0,0,0,.68.64H8.25a.66.66,0,0,0,.68-.64v0A.65.65,0,0,0,8.25,14.09Zm7.27,3.56H10.6a.66.66,0,0,0-.68.63v0a.66.66,0,0,0,.68.64h4.92a.66.66,0,0,0,.67-.64v0A.66.66,0,0,0,15.52,17.65Zm-7.27,0H6.92a.67.67,0,0,0-.68.63v0a.67.67,0,0,0,.68.64H8.25a.66.66,0,0,0,.68-.64v0A.66.66,0,0,0,8.25,17.65Z"/></svg>
