<svg id="图层_1" data-name="图层 1" xmlns="http://www.w3.org/2000/svg" viewBox="0 0 24 24"><defs></defs><title>wenduyc</title><path class="cls-1" d="M20.2,14.8a4.4,4.4,0,0,0-2-1.8V3.5A2.7,2.7,0,0,0,15.5.7a2.8,2.8,0,0,0-2.8,2.8v9.6a5.4,5.4,0,0,0-2,1.7,5.3,5.3,0,0,0-.9,3,5.5,5.5,0,0,0,1.6,3.8,6.1,6.1,0,0,0,4.1,1.7,5.7,5.7,0,0,0,3.9-1.6A5.5,5.5,0,0,0,21,17.9,5,5,0,0,0,20.2,14.8Zm-4.7,7.5a4.6,4.6,0,0,1-4.6-4.5,4.6,4.6,0,0,1,2.6-4.1h.2V3.5a1.9,1.9,0,0,1,3.8,0V13.7h.3a4.7,4.7,0,0,1,2.6,4.1A4.9,4.9,0,0,1,15.5,22.3ZM10.3,4.8H5.8c-.6,0-.9-.3-.9-.8a.8.8,0,0,1,.9-.9h4.6a.9.9,0,0,1,.9.9C11.1,4.5,10.9,4.8,10.3,4.8Zm0,2.7H7.4a1,1,0,0,1-.9-.9,1,1,0,0,1,.9-.8h2.9a.9.9,0,0,1,.8.8C11.1,7.2,10.9,7.5,10.3,7.5Zm0,2.8H9.4a1,1,0,0,1-.9-.8,1,1,0,0,1,.9-.9h1a.9.9,0,0,1,.9.9C11.1,9.9,10.9,10.3,10.3,10.3Zm7.6,7.3A2.4,2.4,0,0,1,15.5,20,2.5,2.5,0,0,1,13,17.6a2.3,2.3,0,0,1,1.6-2.2V6.5a.9.9,0,0,1,.9-.8.9.9,0,0,1,.8.8v8.9A2.2,2.2,0,0,1,17.9,17.6ZM5.4,12.5v4.2a1.1,1.1,0,0,1-1.2,1.2A1.1,1.1,0,0,1,3,16.7V12.5a1.1,1.1,0,0,1,1.2-1.2A1.1,1.1,0,0,1,5.4,12.5Zm0,7.5a1.2,1.2,0,0,1-1.2,1.2A1.2,1.2,0,0,1,3,20a1.1,1.1,0,0,1,1.2-1.1A1.1,1.1,0,0,1,5.4,20Z"/></svg>