<svg id="图层_1" data-name="图层 1" xmlns="http://www.w3.org/2000/svg" viewBox="0 0 24 24"><defs> </defs><title>wyzlgl</title><path class="cls-1" d="M20.37,11.14a2.62,2.62,0,0,0-2.44,1.59l-1.49-.32a3,3,0,0,0,0-.43,4.2,4.2,0,0,0-2.55-3.83l.69-1.68a3.88,3.88,0,0,0,.48,0A2.57,2.57,0,0,0,17.71,4a2.63,2.63,0,0,0-5.25,0,2.49,2.49,0,0,0,1.38,2.21l-.69,1.68A4.64,4.64,0,0,0,12,7.75a4.56,4.56,0,0,0-2.84,1L5.77,5.47A2.44,2.44,0,0,0,6.27,4,2.57,2.57,0,0,0,3.64,1.5,2.57,2.57,0,0,0,1,4,2.57,2.57,0,0,0,3.64,6.51,2.74,2.74,0,0,0,5.17,6L8.59,9.3a4.15,4.15,0,0,0-1,2.68,4.06,4.06,0,0,0,.71,2.29L5.4,16.45a2.68,2.68,0,0,0-1.77-.66,2.51,2.51,0,1,0,0,5,2.56,2.56,0,0,0,2.62-2.5,2.48,2.48,0,0,0-.32-1.21l2.9-2.18a4.52,4.52,0,0,0,3.2,1.3,4.56,4.56,0,0,0,1.62-.29L14.89,18a2.48,2.48,0,0,0-1.07,2,2.63,2.63,0,1,0,2.63-2.5,2.68,2.68,0,0,0-.76.11l-1.25-2.07a4.25,4.25,0,0,0,1.82-2.29l1.49.32v.08a2.63,2.63,0,1,0,2.62-2.5ZM12,15.4A3.45,3.45,0,0,1,8.5,12,3.45,3.45,0,0,1,12,8.67,3.45,3.45,0,0,1,15.55,12,3.45,3.45,0,0,1,12,15.4Z"/></svg>