<svg id="图层_1" data-name="图层 1" xmlns="http://www.w3.org/2000/svg" viewBox="0 0 24 24"><defs> </defs><title></title><path class="cls-1" d="M20.43,11.67a.45.45,0,0,0-.64,0L15.5,15.49l-2.66-2.66a.45.45,0,0,0-.64.64l3,3a.44.44,0,0,0,.32.13.46.46,0,0,0,.3-.11l4.61-4.15A.44.44,0,0,0,20.43,11.67Z"/><path class="cls-1" d="M6.7,7.52a4.55,4.55,0,0,0-.92,2.75v4.17a.42.42,0,0,0,.84,0V10.27A3.65,3.65,0,0,1,7.37,8a.41.41,0,0,0-.09-.58A.41.41,0,0,0,6.7,7.52Z"/><path class="cls-1" d="M21.2,8.81a6.87,6.87,0,1,0-4.86,11.72A6.86,6.86,0,0,0,21.2,8.81ZM16.34,19.35A5.69,5.69,0,1,1,22,13.67,5.7,5.7,0,0,1,16.34,19.35Z"/><path class="cls-1" d="M11.11,22a1.47,1.47,0,0,1-1.39-1H8.19A3,3,0,0,0,14,21H12.5A1.47,1.47,0,0,1,11.11,22Z"/><path class="cls-1" d="M10.5,19.74A.74.74,0,0,0,9.76,19H3.18a6.45,6.45,0,0,0,1.27-3.27c.08-1.17.07-3.09.06-4.48V10.18A6.39,6.39,0,0,1,6.63,5.4a6.06,6.06,0,0,1,4.74-1.54,5.85,5.85,0,0,1,3.69,1.9.74.74,0,1,0,1.08-1,7.39,7.39,0,0,0-3.45-2.12V2.52a2,2,0,1,0-4,0v.1A7.6,7.6,0,0,0,5.64,4.3,7.88,7.88,0,0,0,3,10.18v1.08c0,1.37,0,3.25,0,4.37A5.94,5.94,0,0,1,1,19.18.75.75,0,0,0,.83,20a.72.72,0,0,0,.69.48H9.76A.74.74,0,0,0,10.5,19.74ZM10.7,2a.53.53,0,0,1,.48.39,7.69,7.69,0,0,0-1,0A.51.51,0,0,1,10.7,2Z"/></svg>
