<svg id="图层_1" data-name="图层 1" xmlns="http://www.w3.org/2000/svg" viewBox="0 0 24 24"><defs> </defs><path class="cls-1" d="M17.16,9.41H15.1c.1,1.94.2,3.86.3,5.79h1.47Q17,12.31,17.16,9.41ZM16.1,18a1,1,0,0,0,0-2.07,1,1,0,0,0-1,1.05A1,1,0,0,0,16.1,18Z"/><path class="cls-1" d="M16.13,20.16a6.46,6.46,0,0,1-4.62-1.92,6.52,6.52,0,1,1,4.62,1.92Zm0-12a5.44,5.44,0,1,0,5.41,5.43A5.43,5.43,0,0,0,16.13,8.16Zm-5,13.42a1.4,1.4,0,0,1-1.32-1H8.38a2.81,2.81,0,0,0,5.55,0H12.48A1.41,1.41,0,0,1,11.16,21.58ZM7,7.71a4.4,4.4,0,0,0-.87,2.64v4a.38.38,0,0,0,.39.39h0a.39.39,0,0,0,.39-.39v-4A3.57,3.57,0,0,1,7.6,8.19.4.4,0,0,0,7,7.71Z"/><path class="cls-1" d="M10.57,19.4a.7.7,0,0,0-.7-.7H3.62a6.29,6.29,0,0,0,1.21-3.13c.07-1.12.06-3,0-4.29v-1a6.17,6.17,0,0,1,2-4.57A5.72,5.72,0,0,1,11.4,4.22,5.57,5.57,0,0,1,14.91,6a.7.7,0,0,0,1,0,.71.71,0,0,0,0-1,7.15,7.15,0,0,0-3.29-2v-.1a1.89,1.89,0,1,0-3.78,0V3A7.18,7.18,0,0,0,6,4.63a7.6,7.6,0,0,0-2.49,5.63v1c0,1.32,0,3.11-.05,4.18a5.69,5.69,0,0,1-1.83,3.39.72.72,0,0,0-.21.79.7.7,0,0,0,.66.46H9.87A.7.7,0,0,0,10.57,19.4Zm.19-17a.49.49,0,0,1,.46.37,6.91,6.91,0,0,0-.91,0A.49.49,0,0,1,10.76,2.42Z"/></svg>
