<svg id="图层_1" data-name="图层 1" xmlns="http://www.w3.org/2000/svg" viewBox="0 0 24 24"><defs> </defs><title></title><path class="cls-1" d="M22.7,18.49l-2.87-2.87a6,6,0,1,0-4.93,2.56h0a6,6,0,0,0,3.5-1.13l2.87,2.87a1,1,0,0,0,1.43-1.43Zm-8-2a4.6,4.6,0,1,1,4.6-4.6A4.6,4.6,0,0,1,14.66,16.48Zm1.05,2.62v2.65a.18.18,0,0,1-.09.16.14.14,0,0,1-.16,0l-13.33-8a.19.19,0,0,1-.07-.24.16.16,0,0,1,.1-.08l.14-.06,3-1.84a.47.47,0,0,0,.18-.19l3-5.55a5.94,5.94,0,0,1,6.05-2.73,10.54,10.54,0,0,1,1.33.41l.09,0,.21.09c.1,0,.19.08.27.13l.24.18.18.15.1.05c.47.41.89.88.95.94s.21.28.3.42a7.27,7.27,0,0,1,1.84,1.47,7.71,7.71,0,0,0-1.37-2.58v0l-.19-.2.09-.17a2.12,2.12,0,0,0-.74-2.81A1.92,1.92,0,0,0,15.18,2l-.1.18-.33-.08a7,7,0,0,0-4.16.56A6.35,6.35,0,0,0,7.64,5.37l-3,5.42L1.83,12.52a1.12,1.12,0,0,0-.65.56,1.29,1.29,0,0,0,.45,1.7L5.4,17.06a3.62,3.62,0,0,0,1.5,4.31,3.25,3.25,0,0,0,4.3-.82L15,22.83a1.16,1.16,0,0,0,1.19,0,1.24,1.24,0,0,0,.59-1.08V18.87A7.29,7.29,0,0,1,15.71,19.1ZM17.36,2.21a1,1,0,0,1,.38,1.29l-.22-.2-.13-.07,0,0A2.82,2.82,0,0,0,17,2.92c-.15-.08-.29-.14-.41-.19l0,0a.37.37,0,0,0-.12-.07,2,2,0,0,0-.31-.12.91.91,0,0,1,1.26-.32ZM7.4,20.45a2.53,2.53,0,0,1-1.09-2.84l4,2.39A2.26,2.26,0,0,1,7.4,20.45Z"/></svg>
