<svg id="图层_1" data-name="图层 1" xmlns="http://www.w3.org/2000/svg" viewBox="0 0 24 24"><defs></defs><title>xinpiancgl</title><path class="cls-1" d="M13.2,10.2H10.8a.8.8,0,0,0-.7.8v2.3a.7.7,0,0,0,.7.8h2.4a.7.7,0,0,0,.7-.8V11A.8.8,0,0,0,13.2,10.2Z"/><path class="cls-1" d="M16.3,14.3c0-.1-.1-.2-.3-.2H15v-.3h1a.3.3,0,0,0,.3-.3c0-.1-.1-.2-.3-.2H15v-.4h1a.3.3,0,0,0,.3-.3c0-.1-.1-.2-.3-.2H15v-.5h1l.3-.2c0-.1-.1-.2-.3-.2H15v-.5h1c.1,0,.3-.1.3-.2a.3.3,0,0,0-.3-.3H15v-.3a1,1,0,0,0-1-1h-.9V8.7l-.2-.2c-.2,0-.3.1-.3.2v.4h-.4V8.7c0-.1-.1-.2-.3-.2l-.2.2v.4h-.4V8.7c0-.1-.1-.2-.3-.2l-.2.2v.4H10a1.1,1.1,0,0,0-1.1,1v.3H8c-.2,0-.2.1-.2.3s0,.2.2.2h.9v.5H8c-.2,0-.2.1-.2.2s0,.2.2.2h.9v.5H8c-.2,0-.2.1-.2.2s0,.3.2.3h.9v.4H8c-.2,0-.2.1-.2.2s0,.3.2.3h.9v.4H8c-.2,0-.2.1-.2.2s0,.3.2.3h.9v.7a1,1,0,0,0,1.1,1h.1l.2-.2h.5v.7a.2.2,0,0,0,.2.2l.3-.2v-.7h.4v.7l.2.2c.2,0,.3-.1.3-.2v-.7h.4v.7c0,.1.1.2.3.2a.2.2,0,0,0,.2-.2v-.7h.6l.2.2H14a1.1,1.1,0,0,0,1.1-1v-.7H16A.3.3,0,0,0,16.3,14.3Zm-1.7-.1a.6.6,0,0,1-.6.6H10a.6.6,0,0,1-.6-.6h0v-4a.6.6,0,0,1,.6-.5h4a.6.6,0,0,1,.6.5Z"/><path class="cls-1" d="M19.9,9.5v4.9a.7.7,0,0,0,.7.7.7.7,0,0,0,.8-.7V10.8l.3.3a.9.9,0,0,0,1.1-.1.7.7,0,0,0-.1-1.1h0L12.5,1.2a.7.7,0,0,0-1,0L1.3,9.9A.8.8,0,0,0,1.2,11a.9.9,0,0,0,1.1.1h0l.3-.3V22.2a.8.8,0,0,0,.8.8.8.8,0,0,0,.7-.8h0V9.5h0L12,2.8Z"/><rect class="cls-1" x="5.7" y="20.6" width="2.4" height="2.36" rx="0.3" ry="0.3"/><rect class="cls-1" x="9.2" y="20.6" width="2.4" height="2.36" rx="0.3" ry="0.3"/><rect class="cls-1" x="12.8" y="20.6" width="2.4" height="2.36" rx="0.3" ry="0.3"/><path class="cls-1" d="M23,19.5h0a.6.6,0,0,0-.6-.5.3.3,0,0,1-.3-.3h0l-.2-.3h0c0-.2,0-.3.1-.4l.3-.3h0v-.2l-.6-.6h-.3l-.3.3h-.7c-.1,0-.2-.2-.2-.3a.7.7,0,0,0-.4-.6h-.3a.6.6,0,0,0-.6.6c0,.1-.1.3-.2.3h0l-.3.2h-.5l-.2-.2h-.3l-.2.2-.4.4c0,.1-.1.1-.1.2h.1l.3.3v.3a.1.1,0,0,1-.1.1h0c0,.1-.1.2-.1.3h0a.3.3,0,0,1-.3.3c-.4,0-.6.2-.6.5h0v.2a.7.7,0,0,0,.6.4.3.3,0,0,1,.3.3h0c0,.1.1.2.1.3h0v.2a.3.3,0,0,0-.1.2l-.3.3h0v.2l.6.6h.3l.2-.3a.4.4,0,0,1,.5-.1h.3a.5.5,0,0,1,.2.4.6.6,0,0,0,.6.6h.1a.6.6,0,0,0,.6-.6.5.5,0,0,1,.2-.4h.1c.1,0,.2,0,.2-.1h0c.2-.1.3,0,.5.1l.2.3h.3l.6-.6v-.2h0l-.3-.3a.3.3,0,0,1,0-.4h0a.4.4,0,0,1,.1-.3h0a.3.3,0,0,1,.3-.3.6.6,0,0,0,.6-.6Zm-2.7,1.4-.6.2h-.2a1.3,1.3,0,0,1-1.1-.5,1.1,1.1,0,0,1-.4-.9h0a1.4,1.4,0,0,1,.3-1.1l.3-.3a1.6,1.6,0,0,1,.9-.3h.2l.6.2a1.6,1.6,0,0,1,.8,1.4A1.5,1.5,0,0,1,20.3,20.9Z"/></svg>