<svg id="图层_1" data-name="图层 1" xmlns="http://www.w3.org/2000/svg" viewBox="0 0 24 24"><defs></defs><title>xinpiansc</title><path class="cls-1" d="M23,18.3v-.2a.7.7,0,0,0-.7-.7.5.5,0,0,1-.5-.3h0c0-.2-.1-.3-.1-.4h0a.6.6,0,0,1,0-.6l.4-.3c0-.1.1-.1.1-.2v-.2l-.8-.8H21l-.4.4a.4.4,0,0,1-.5.1h0l-.3-.2h-.1a.7.7,0,0,1-.4-.5.8.8,0,0,0-.4-.7h-.4a.7.7,0,0,0-.7.7.7.7,0,0,1-.4.5h0l-.4.2h-.6l-.3-.3h-.3l-.3.3-.5.5v.2c0,.1.1.1.1.2l.3.3a.4.4,0,0,1,.2.4c0,.1,0,.1-.1.2h0c0,.1-.1.2-.1.4h0a.5.5,0,0,1-.5.3.7.7,0,0,0-.7.7v.4a.8.8,0,0,0,.7.5.5.5,0,0,1,.5.3h0c0,.1.1.2.1.3h0a.4.4,0,0,1,.1.3v.2l-.4.4h-.1V21l.8.8h.3l.4-.4h.9a.7.7,0,0,1,.4.5.7.7,0,0,0,.7.7h.2a.8.8,0,0,0,.7-.7.5.5,0,0,1,.3-.5h.9l.4.4h.3l.8-.8v-.2h-.1l-.3-.4a.3.3,0,0,1-.1-.5h0c0-.1.1-.2.1-.3h0a.5.5,0,0,1,.5-.3.7.7,0,0,0,.7-.7Zm-3.5,1.8-.7.2h-.3a2,2,0,0,1-1.5-.6,3.1,3.1,0,0,1-.5-1.2v-.2a2.4,2.4,0,0,1,.5-1.4l.3-.3a1.9,1.9,0,0,1,1.2-.4h.3l.7.2a2.1,2.1,0,0,1,1.1,1.9A2.1,2.1,0,0,1,19.5,20.1Zm-5.6-4.7H8.8a2,2,0,0,1-1.9-1.9v-6A1.9,1.9,0,0,1,8.8,5.6h5.8a2,2,0,0,1,2,1.9v5.6A6.1,6.1,0,0,0,13.9,15.4Zm-.8,1.7a4.7,4.7,0,0,0-.3,1.7,4.1,4.1,0,0,0,.3,1.6h-.9v1.8a.6.6,0,0,1-.6.6.6.6,0,0,1-.6-.6V20.4H9.9v1.8c0,.3-.4.6-.7.6a.6.6,0,0,1-.6-.6V20.4H7.5a.6.6,0,0,1-.6.6H6.6A2.6,2.6,0,0,1,4,18.5V16.6H1.6A.5.5,0,0,1,1,16a.6.6,0,0,1,.6-.6H4v-1H1.6a.5.5,0,0,1-.6-.6.5.5,0,0,1,.6-.6H4V12H1.6a.5.5,0,0,1-.6-.6.6.6,0,0,1,.6-.6H4V9.7H1.6A.5.5,0,0,1,1,9.1a.5.5,0,0,1,.6-.6H4V7.4H1.6A.6.6,0,0,1,1,6.8a.5.5,0,0,1,.6-.6H4V5.4A2.5,2.5,0,0,1,6.6,2.8h2v-1a.6.6,0,0,1,.6-.5c.4,0,.7.2.7.5v1H11v-1c0-.3.2-.5.6-.5a.6.6,0,0,1,.6.5v1h1.1v-1c0-.3.3-.5.7-.5a.6.6,0,0,1,.6.5v1h2.2a2.6,2.6,0,0,1,2.6,2.6v.8h2.4c.4,0,.7.2.7.6s-.4.6-.7.6H19.4V8.5h2.4c.4,0,.7.2.7.6a.7.7,0,0,1-.7.6H19.4v1.1h2.4a.7.7,0,0,1,.7.6.7.7,0,0,1-.7.6H19.4v.6H18.2V5.4A1.4,1.4,0,0,0,16.8,4H6.6A1.4,1.4,0,0,0,5.2,5.4V15.7a1.4,1.4,0,0,0,1.4,1.4Z"/></svg>