<svg id="图层_1" data-name="图层 1" xmlns="http://www.w3.org/2000/svg" viewBox="0 0 24 24"><defs></defs><title>xinpghjs</title><path class="cls-1" d="M19.8,13.1V3.2a1.7,1.7,0,0,0-1.6-1.7H5.6A1.6,1.6,0,0,0,4.2,3.2V13.3H1v9.2H16.1a.6.6,0,0,0,.5-.6.7.7,0,0,0-.5-.7H2V14.4H6.8A5.5,5.5,0,0,0,12,18.2a5.8,5.8,0,0,0,5.2-3.8H22v6.8H20a.7.7,0,0,0-.6.7.6.6,0,0,0,.6.6h3V13.1Zm-1.1.2H16.3v.3A4.5,4.5,0,0,1,12,17.1a4.5,4.5,0,0,1-4.2-3.5v-.5H5.2V3.2c0-.3.1-.4.4-.4H18.2c.3,0,.5.1.5.4Z"/><polygon class="cls-1" points="13.9 7.9 10.1 7.9 10.1 10.3 8.1 10.3 12.1 14.7 15.9 10.3 13.9 10.3 13.9 7.9"/><rect class="cls-1" x="10.1" y="4.5" width="3.8" height="0.48"/><rect class="cls-1" x="10.1" y="5.6" width="3.8" height="1.43"/></svg>