<svg id="图层_1" data-name="图层 1" xmlns="http://www.w3.org/2000/svg" viewBox="0 0 24 24"><defs> </defs><title>xinxisz</title><path class="cls-1" d="M12.4,21.46H3.27a.75.75,0,0,1-.75-.76V9a1,1,0,0,1,.94-.95h4.1a.9.9,0,0,0,.91-.9V3.48a1,1,0,0,1,.94-1h6.73a.77.77,0,0,1,.75.77V9.56a.5.5,0,0,0,.5.5.5.5,0,0,0,.51-.5V3.3a1.78,1.78,0,0,0-1.76-1.79H7.7a.92.92,0,0,0-.77.24L1.8,6.5a.91.91,0,0,0-.28.79h0V20.7a1.78,1.78,0,0,0,1.76,1.79H12.4a.51.51,0,0,0,.5-.51h0A.51.51,0,0,0,12.4,21.46ZM2.3,7.2a.12.12,0,0,1,0-.14L7.47,2.31a.12.12,0,0,1,.09,0l.06,0a.12.12,0,0,1,.08.12V7.15a.14.14,0,0,1-.14.14H2.43A.13.13,0,0,1,2.3,7.2Zm15.33,7.39a2.54,2.54,0,0,0-.82-.26h-.27a2.34,2.34,0,0,0-1.37.45,3,3,0,0,0-.37.34,2.3,2.3,0,0,0-.55,1.59.76.76,0,0,0,0,.15,2.31,2.31,0,0,0,2.19,2,2.17,2.17,0,0,0,.36,0,2.62,2.62,0,0,0,.82-.26,2.3,2.3,0,0,0,0-4Zm0,2.94a1.47,1.47,0,0,1-.82.48,1.35,1.35,0,0,1-.35,0,1.42,1.42,0,0,1,.08-2.84,1.24,1.24,0,0,1,.27,0,1.41,1.41,0,0,1,.82.48,1.39,1.39,0,0,1,.33.91A1.42,1.42,0,0,1,17.63,17.53Zm4.13-2.73a.52.52,0,0,1-.25-.6,1.4,1.4,0,0,0,.06-.41,1.36,1.36,0,0,0-.39-1L20.35,12a1.38,1.38,0,0,0-1-.39,1.4,1.4,0,0,0-.41.06.52.52,0,0,1-.6-.25,1.36,1.36,0,0,0-.43-.49,1.38,1.38,0,0,0-.78-.24H16a1.35,1.35,0,0,0-1.21.73.52.52,0,0,1-.6.25,1.4,1.4,0,0,0-.41-.06,1.35,1.35,0,0,0-1,.4l-.83.82a1.3,1.3,0,0,0-.18.23,1.35,1.35,0,0,0-.21.73,1.4,1.4,0,0,0,.06.41.51.51,0,0,1-.21.57l0,0A1.37,1.37,0,0,0,10.69,16v1.16a1.37,1.37,0,0,0,.73,1.2.61.61,0,0,1,.22.23.52.52,0,0,1,0,.37,1.45,1.45,0,0,0-.06.41,1.39,1.39,0,0,0,.39,1l.83.82a1.33,1.33,0,0,0,1,.4,1.4,1.4,0,0,0,.41-.06.51.51,0,0,1,.6.25,1.37,1.37,0,0,0,1.21.73h1.16a1.38,1.38,0,0,0,1.21-.73.49.49,0,0,1,.6-.25,1.37,1.37,0,0,0,1.37-.34l.82-.82a1.35,1.35,0,0,0,.4-1,1.4,1.4,0,0,0-.06-.41.5.5,0,0,1,.25-.6,1.38,1.38,0,0,0,.73-1.21V16A1.38,1.38,0,0,0,21.76,14.8Zm-.2,1.82a.82.82,0,0,1-.82.82.54.54,0,0,0-.51.36v0c0,.14-.11.29-.17.43h0a.55.55,0,0,0,.1.62l.38.38a.24.24,0,0,1,.08.19.24.24,0,0,1-.08.2l-.86.86a.24.24,0,0,1-.2.08.27.27,0,0,1-.19-.08l-.38-.38a.55.55,0,0,0-.62-.1h0l-.28.12-.14.05h0a.53.53,0,0,0-.36.51.82.82,0,0,1-.78.81h-.19a.82.82,0,0,1-.82-.82.55.55,0,0,0-.36-.51h0L14.85,20h0a.53.53,0,0,0-.61.1l-.38.38a.24.24,0,0,1-.2.08.32.32,0,0,1-.2-.08l-.85-.85a.27.27,0,0,1-.08-.2.24.24,0,0,1,.08-.2l.38-.38a.58.58,0,0,0,.1-.62h0a3.25,3.25,0,0,1-.18-.43v0a.52.52,0,0,0-.5-.36.81.81,0,0,1-.78-.58.64.64,0,0,1,0-.24v-.14a.82.82,0,0,1,.82-.82.53.53,0,0,0,.5-.36v0a3.25,3.25,0,0,1,.18-.43v0a.84.84,0,0,0,0-.17.55.55,0,0,0-.16-.44l-.38-.38a.28.28,0,0,1-.08-.2.32.32,0,0,1,.08-.2l.56-.56.3-.29a.24.24,0,0,1,.2-.08.27.27,0,0,1,.19.08l.32.31.06.06a.52.52,0,0,0,.36.16.5.5,0,0,0,.26,0h0a3.93,3.93,0,0,1,.43-.18h0a.54.54,0,0,0,.36-.51.82.82,0,0,1,.82-.82h.14a.87.87,0,0,1,.28,0,.81.81,0,0,1,.54.77.55.55,0,0,0,.36.51h0l.15,0,.28.13h0a.52.52,0,0,0,.61-.11l.38-.37a.24.24,0,0,1,.2-.08.32.32,0,0,1,.2.08l.86.85a.32.32,0,0,1,.08.2.28.28,0,0,1-.08.2l-.38.38a.55.55,0,0,0-.11.61v0a3.25,3.25,0,0,1,.18.43v0a.53.53,0,0,0,.5.36.82.82,0,0,1,.82.82v.14Zm-9.27-5.2h-7a.61.61,0,0,1,0-1.19h7a.61.61,0,0,1,0,1.19Zm-2,3.3H5.31a.61.61,0,0,1,0-1.19h4.93a.61.61,0,0,1,0,1.19ZM9.63,18H5.31a.6.6,0,0,1,0-1.18H9.63a.6.6,0,0,1,0,1.18Z"/></svg>