<svg id="图层_1" data-name="图层 1" xmlns="http://www.w3.org/2000/svg" viewBox="0 0 24 24"><defs></defs><title>xppbbb</title><path class="cls-1" d="M1.7,20.7H6.6V7.6H1.7ZM3.3,9.3H5v9.8H3.3Zm13.1,4.9H14.8V4.3h4.9v8.2H18.1V6H16.4ZM8.2,1.1h5V17.5H11.5V2.7H9.9v18H8.2ZM20,17.2v2.3a.9.9,0,0,1-.8.8H16.9a.9.9,0,0,1-.8-.8V17.2a.9.9,0,0,1,.8-.8h2.3A.8.8,0,0,1,20,17.2Zm2.1.6c.1,0,.2-.1.2-.3a.2.2,0,0,0-.2-.2h-1v-.5h1l.2-.2a.2.2,0,0,0-.2-.2h-1v-.3a1.1,1.1,0,0,0-1-1.1h-.9v-.3a.3.3,0,0,0-.3-.3c-.1,0-.2.1-.2.3V15h-.5v-.3c0-.2-.1-.3-.2-.3s-.2.1-.2.3V15h-.5v-.3c0-.2-.1-.3-.2-.3a.3.3,0,0,0-.3.3V15H16a1.1,1.1,0,0,0-1,1.1v.3H14a.2.2,0,0,0-.2.2l.2.2h1v.5H14a.2.2,0,0,0-.2.2c0,.2.1.3.2.3h1v.4H14c-.1,0-.2.1-.2.3a.2.2,0,0,0,.2.2h1v.4H14c-.1,0-.2.1-.2.3a.2.2,0,0,0,.2.2h1V20H14c-.1,0-.2.1-.2.3a.2.2,0,0,0,.2.2h1v.7a1.1,1.1,0,0,0,1,1.1h.2c.1,0,.2-.1.2-.3h.4v.7c0,.1.1.2.3.2a.2.2,0,0,0,.2-.2V22h.5v.7a.2.2,0,0,0,.4,0V22h.5v.7a.2.2,0,0,0,.2.2c.2,0,.3-.1.3-.2V22h.5a.3.3,0,0,0,.3.3h.1a1.1,1.1,0,0,0,1-1.1v-.7h1l.2-.2c0-.2-.1-.3-.2-.3h-1v-.3h1a.2.2,0,0,0,.2-.2c0-.2-.1-.3-.2-.3h-1v-.4h1a.2.2,0,0,0,.2-.2c0-.2-.1-.3-.2-.3h-1v-.4Zm-1.5,2.3a.6.6,0,0,1-.5.6H16a.6.6,0,0,1-.5-.6h0V16.1a.6.6,0,0,1,.5-.6h4.1a.6.6,0,0,1,.5.6Z"/></svg>