<svg id="图层_1" data-name="图层 1" xmlns="http://www.w3.org/2000/svg" viewBox="0 0 24 24"><defs></defs><title>yanmo</title><path class="cls-1" d="M12.6,2.9h1.1a.7.7,0,0,0,.7-.7.7.7,0,0,0-.7-.6H12.6a.7.7,0,0,0-.7.6.8.8,0,0,0,.2.5Z"/><path class="cls-1" d="M21.7,20.5H20.5V10.9h.8a.7.7,0,0,0,.6-.7.6.6,0,0,0-.6-.6H17.7c-.4-1.8-2.1-3.1-4.3-3.5V5.4h7.2a1.2,1.2,0,0,0,1.3-1.2h.7V.3H19.7V4.1H13.3a1.2,1.2,0,0,0-1.2,1.2V6C9.6,6.1,7.4,7.6,7,9.6H2.7a.6.6,0,0,0-.6.6.7.7,0,0,0,.6.7h1v9.5H2.3a1.6,1.6,0,0,0,0,3.2H21.7a1.6,1.6,0,0,0,0-3.2ZM20.8,1.1h.7V3.4h-.7ZM12.4,7.3c1.7,0,3.3.9,3.7,2.1H8.7A4,4,0,0,1,12.4,7.3ZM5,20.4V10.9H19.2v9.5H5Zm16.7,2H2.3a.3.3,0,0,1,0-.6H21.7a.3.3,0,1,1,0,.6Z"/><path class="cls-1" d="M16,14.1H8a.9.9,0,0,0-.9.8v2.9a.9.9,0,0,0,.9.8h8a.9.9,0,0,0,.9-.8V14.9A.9.9,0,0,0,16,14.1Zm-.4,3.2H8.4V15.4h7.2Z"/></svg>