<svg id="图层_1" data-name="图层 1" xmlns="http://www.w3.org/2000/svg" viewBox="0 0 24 24"><defs> </defs><title>yanzhengpdsh</title><path class="cls-1" d="M4.36,5.38V20.7h9.4A6,6,0,0,1,24,14.48V5.38Zm18,5.54a7.45,7.45,0,0,0-3.33-.78,7.69,7.69,0,0,0-7.6,7.76A9.26,9.26,0,0,0,11.54,19H6V7.13H22.4Z"/><path class="cls-1" d="M21.92,19H20V16.92a1.8,1.8,0,0,0,1.16-1.65,1.74,1.74,0,0,0-.52-1.22,2.07,2.07,0,0,0-1.47-.59,1.91,1.91,0,0,0-2,1.81,1.82,1.82,0,0,0,1.15,1.65V19H16.4a.77.77,0,1,0,0,1.54h5.52a.77.77,0,1,0,0-1.54Z"/><path class="cls-1" d="M20.72,22H17.6a.77.77,0,1,0,0,1.54h3.12a.77.77,0,1,0,0-1.54Z"/><polygon class="cls-1" points="1.75 2.75 17.89 2.75 17.89 4.28 19.64 4.28 19.64 1 0 1 0 16.32 3.27 16.32 3.27 14.57 1.75 14.57 1.75 2.75"/></svg>