<svg id="图层_1" data-name="图层 1" xmlns="http://www.w3.org/2000/svg" viewBox="0 0 24 24"><defs> </defs><title>yanzhengpiangl</title><path class="cls-1" d="M22.69,17.69a.8.8,0,0,0-.8-.8.53.53,0,0,1-.49-.36v0c-.05-.14-.11-.28-.17-.42v0a.53.53,0,0,1,.1-.6l.37-.37a.3.3,0,0,0,.08-.2.24.24,0,0,0-.08-.19l-.84-.84a.27.27,0,0,0-.19-.08.24.24,0,0,0-.19.08l-.37.37a.53.53,0,0,1-.6.1h0a1.59,1.59,0,0,0-.27-.12l-.14-.05h0a.52.52,0,0,1-.35-.5.8.8,0,0,0-.53-.75.65.65,0,0,0-.27-.05h-.14a.8.8,0,0,0-.8.8.52.52,0,0,1-.35.5h0a2.09,2.09,0,0,0-.41.17h0a.45.45,0,0,1-.25.05.51.51,0,0,1-.35-.15l-.06-.07-.31-.3a.27.27,0,0,0-.19-.08.24.24,0,0,0-.19.08l-.29.28-.55.56a.27.27,0,0,0-.08.19.3.3,0,0,0,.08.2l.37.37a.49.49,0,0,1,.15.43.34.34,0,0,1-.05.17v0a2.65,2.65,0,0,0-.18.42v0a.53.53,0,0,1-.5.35.8.8,0,0,0-.79.81v.13a.88.88,0,0,0,0,.24.8.8,0,0,0,.76.57.53.53,0,0,1,.5.36v0a3,3,0,0,0,.18.41v0a.55.55,0,0,1,0,.38.59.59,0,0,1-.13.23l-.37.37a.27.27,0,0,0-.08.19.28.28,0,0,0,.08.2l.83.84a.28.28,0,0,0,.2.08.27.27,0,0,0,.19-.08l.37-.37a.5.5,0,0,1,.59-.1h0a3.79,3.79,0,0,0,.42.18h0a.54.54,0,0,1,.35.5.8.8,0,0,0,.8.81H18a.79.79,0,0,0,.75-.8.54.54,0,0,1,.35-.5h0l.14-.05.28-.13h0a.52.52,0,0,1,.6.1l.37.37a.28.28,0,0,0,.2.08.27.27,0,0,0,.19-.08l.84-.84a.29.29,0,0,0,.07-.2.24.24,0,0,0-.08-.19L21.33,20a.53.53,0,0,1-.11-.6v0A2.09,2.09,0,0,0,21.4,19v0a.53.53,0,0,1,.49-.36.8.8,0,0,0,.8-.8h0ZM18.87,19.8a2.15,2.15,0,0,1-.79.25,2.06,2.06,0,0,1-.35,0,2.19,2.19,0,0,1-1.56-.74,2.22,2.22,0,0,1-.57-1.28s0-.09,0-.14a2.24,2.24,0,0,1,.55-1.56,1.94,1.94,0,0,1,.36-.34,2.19,2.19,0,0,1,1.33-.44h.26a2.36,2.36,0,0,1,.79.25,2.26,2.26,0,0,1,0,4Z"/><path class="cls-1" d="M6.11,11.22h5.11V6.11a5.11,5.11,0,1,0-5.11,5.11Zm0-8.9A3.79,3.79,0,0,1,9.9,6.11V9.9H6.11a3.79,3.79,0,0,1,0-7.58Z"/><path class="cls-1" d="M23,6.11a5.11,5.11,0,1,0-10.22,0v5.11h5.11A5.11,5.11,0,0,0,23,6.11Zm-8.9,0A3.79,3.79,0,1,1,17.89,9.9H14.1Z"/><path class="cls-1" d="M1,17.89a5.11,5.11,0,0,0,10.22,0V12.78H6.11A5.11,5.11,0,0,0,1,17.89Zm8.9,0A3.79,3.79,0,1,1,6.11,14.1H9.9Z"/></svg>