<svg id="图层_1" data-name="图层 1" xmlns="http://www.w3.org/2000/svg" viewBox="0 0 24 24"><defs> </defs><title>yanzhengpiancx</title><polygon class="cls-1" points="1.75 2.72 17.89 2.72 17.89 4.23 19.64 4.23 19.64 1 0 1 0 16.06 3.27 16.06 3.27 14.34 1.75 14.34 1.75 2.72"/><path class="cls-1" d="M23.27,21.83l-1.78-1.92a4.54,4.54,0,0,0,.77-2.54,4.17,4.17,0,0,0-4-4.3,4.17,4.17,0,0,0-4,4.3,4.18,4.18,0,0,0,4,4.31,3.78,3.78,0,0,0,2.36-.84l1.78,1.93h0a.6.6,0,0,0,.47.23.64.64,0,0,0,.61-.66.67.67,0,0,0-.22-.51Zm-5-1.48a2.88,2.88,0,0,1-2.77-3,2.88,2.88,0,0,1,2.77-3,2.89,2.89,0,0,1,2.77,3A2.89,2.89,0,0,1,18.26,20.35Z"/><path class="cls-1" d="M4.36,5.3V20.36h9.4a5.78,5.78,0,0,1-.69-2.75A6,6,0,0,1,24,14.25V5.3Zm18,5.45a7.6,7.6,0,0,0-10.93,6.86,8.76,8.76,0,0,0,.07,1H6V7H22.4Z"/></svg>