<svg id="图层_1" data-name="图层 1" xmlns="http://www.w3.org/2000/svg" viewBox="0 0 24 24"><defs> </defs><title>yanzhengpiansp</title><polygon class="cls-1" points="1.25 2.77 17.4 2.77 17.4 4.3 19.14 4.3 19.14 1.02 -0.49 1.02 -0.49 16.34 2.78 16.34 2.78 14.58 1.25 14.58 1.25 2.77"/><path class="cls-1" d="M3.87,5.39V20.71h9.4a5.94,5.94,0,0,1-.69-2.79,6,6,0,0,1,10.93-3.43V5.39Zm18,5.55a7.49,7.49,0,0,0-3.33-.79A7.7,7.7,0,0,0,11,17.92a7.17,7.17,0,0,0,.07,1H5.47V7.14H21.91Z"/><path class="cls-1" d="M23,20.93c-.69-.48-1.31-.91-1.85-1.3l-.68.41a5,5,0,0,0,.22-.61h2.36v-1.2H20.79a4.13,4.13,0,0,0,.05-.72h2v-1.2h-1c.18-.31.41-.69.68-1.12L21,14.91c-.18.46-.39.92-.63,1.4H19.26l.81-.24c-.12-.22-.32-.53-.59-.92l-.18-.27L18,15.22c.05.09.15.23.27.41.24.34.39.57.45.68h-1v1.2h1.72v.72h-2v1.2h1.86c-.15.5-.71.95-1.68,1.36l.43.41.43.41a1.62,1.62,0,0,1-1.26-.71V17.58H15v1.33h.86v1.88l-.45.36-.5.4L15.5,23a9.53,9.53,0,0,1,1-1.06,2.18,2.18,0,0,0,1.9.85l1.76.07h2.67a2.12,2.12,0,0,0,.09-.27c.12-.41.23-.75.32-1-.27,0-.73,0-1.36,0Zm-2.4.72c-.9,0-1.5,0-1.81,0a4.53,4.53,0,0,0,1.5-1.27c.18.16.43.37.77.62l.72.65Z"/><path class="cls-1" d="M16.5,15l-1.31.37a13.42,13.42,0,0,1,1,1.75l1.44-.45A15.33,15.33,0,0,0,16.5,15Z"/></svg>