<svg id="图层_1" data-name="图层 1" xmlns="http://www.w3.org/2000/svg" viewBox="0 0 24 24"><defs> </defs><title>yanzhenpianxp</title><polygon class="cls-1" points="1.5 2.86 17.64 2.86 17.64 4.38 19.39 4.38 19.39 1.13 -0.25 1.13 -0.25 16.29 3.03 16.29 3.03 14.56 1.5 14.56 1.5 2.86"/><path class="cls-1" d="M4.12,5.46V20.62h9.42a5.88,5.88,0,0,1-.71-2.8,6,6,0,0,1,10.92-3.4v-9Zm18,5.45a7.53,7.53,0,0,0-3.32-.77,7.65,7.65,0,0,0-7.6,7.68,9.45,9.45,0,0,0,.07,1.07H5.72V7.2H22.15Z"/><polygon class="cls-1" points="17.3 20.41 15.03 17.94 13.77 19.3 17.3 23.13 23.43 16.5 22.18 15.14 17.3 20.41"/></svg>