<?xml version="1.0" standalone="no"?><!DOCTYPE svg PUBLIC "-//W3C//DTD SVG 1.1//EN" "http://www.w3.org/Graphics/SVG/1.1/DTD/svg11.dtd"><svg t="1553047878839" class="icon" style="" viewBox="0 0 1024 1024" version="1.1" xmlns="http://www.w3.org/2000/svg" p-id="34340" xmlns:xlink="http://www.w3.org/1999/xlink" width="200" height="200"><defs><style type="text/css"></style></defs><path d="M512 0c282.773333 0 512 229.226667 512 512S794.773333 1024 512 1024 0 794.773333 0 512 229.226667 0 512 0z m0 85.333333C276.352 85.333333 85.333333 276.352 85.333333 512s191.018667 426.666667 426.666667 426.666667 426.666667-191.018667 426.666667-426.666667S747.648 85.333333 512 85.333333z m-60.842667 513.984l243.392-245.290666a42.794667 42.794667 0 0 1 60.842667 0c16.810667 16.938667 16.810667 44.394667 0 61.333333L481.578667 691.306667a42.730667 42.730667 0 0 1-60.842667 0l-152.128-153.301334a43.605333 43.605333 0 0 1 0-61.333333 42.794667 42.794667 0 0 1 60.842667 0l121.706666 122.645333z" p-id="34341"></path></svg>