<svg id="图层_1" data-name="图层 1" xmlns="http://www.w3.org/2000/svg" viewBox="0 0 24 24"><defs></defs><title>yichztj</title><path class="cls-1" d="M5.3,9H18.7a.7.7,0,0,0,.8-.8.7.7,0,0,0-.8-.7H5.3a.7.7,0,0,0-.8.7A.7.7,0,0,0,5.3,9Z"/><path class="cls-1" d="M20.2,3H3.8A3,3,0,0,0,.7,6V18a3,3,0,0,0,3.1,3H14.3V19.5H3.8A1.6,1.6,0,0,1,2.2,18V6A1.6,1.6,0,0,1,3.8,4.5H20.2A1.6,1.6,0,0,1,21.8,6v5.2h1.5V6A3,3,0,0,0,20.2,3Z"/><path class="cls-1" d="M4.5,15.8a.7.7,0,0,0,.8.7h9V15h-9A.7.7,0,0,0,4.5,15.8Z"/><path class="cls-1" d="M4.5,12a.8.8,0,0,0,.8.8h9V11.2h-9A.8.8,0,0,0,4.5,12Z"/><path class="cls-1" d="M16.5,17.2a.8.8,0,0,0-.7.8v3h1.5V18A.9.9,0,0,0,16.5,17.2Z"/><path class="cls-1" d="M19.5,13.5a.8.8,0,0,0-.8.8V21h1.5V14.3A.7.7,0,0,0,19.5,13.5Z"/><path class="cls-1" d="M22.5,15.8a.7.7,0,0,0-.7.7V21h1.5V16.5A.8.8,0,0,0,22.5,15.8Z"/></svg>