<svg id="图层_1" data-name="图层 1" xmlns="http://www.w3.org/2000/svg" viewBox="0 0 24 24"><defs> </defs><title>yichangdan</title><path class="cls-1" d="M10.91,22.89H4.36A2.36,2.36,0,0,1,2,20.53V2.86A2.36,2.36,0,0,1,4.36.51H17.47a2.36,2.36,0,0,1,2.36,2.35V11.6a.79.79,0,0,1-1.57,0V2.86a.79.79,0,0,0-.79-.78H4.36a.78.78,0,0,0-.79.78V20.53a.79.79,0,0,0,.79.79h6.55a.79.79,0,1,1,0,1.57Zm5.95-7.26a.58.58,0,0,1,.65.66v2.35a.58.58,0,0,1-.65.66.58.58,0,0,1-.66-.66V16.29A.58.58,0,0,1,16.86,15.63Zm-.66,4.84a.66.66,0,0,0,.66.66.66.66,0,1,0-.66-.66Zm-.85-13.2H6.41a.79.79,0,1,1,0-1.57h8.94c.43,0,.47.35.47.79S15.78,7.27,15.35,7.27Zm0,4.33H6.45a.79.79,0,0,1,0-1.58h8.94c.43,0,.47.36.47.79S15.82,11.6,15.39,11.6Zm-4.51,4.61H6.45a.79.79,0,1,1,0-1.57h4.43a.79.79,0,0,1,0,1.57Zm6.06,7.28A5.06,5.06,0,1,1,22,18.43,5.07,5.07,0,0,1,16.94,23.49Zm0-8.81a3.76,3.76,0,1,0,3.75,3.75A3.75,3.75,0,0,0,16.94,14.68Z"/></svg>