<svg id="图层_1" data-name="图层 1" xmlns="http://www.w3.org/2000/svg" viewBox="0 0 24 24"><defs> </defs><path class="cls-1" d="M.7,15.78a.7.7,0,0,1-.7-.7V8.76a.71.71,0,0,1,.7-.7.71.71,0,0,1,.71.7v6.32A.7.7,0,0,1,.7,15.78Zm2.36,0a.7.7,0,0,1-.7-.7V8.76a.7.7,0,0,1,.7-.7.71.71,0,0,1,.71.7v6.32A.7.7,0,0,1,3.06,15.78ZM12,22.1a1,1,0,0,1-.37-.08.87.87,0,0,1-.53-.81V15.65H6.9a2,2,0,0,1-2-2V10.22a2,2,0,0,1,2-2h4.18V2.79a.88.88,0,0,1,.5-.8.91.91,0,0,1,.95.1L23.66,10.7a.9.9,0,0,1,.34.68.87.87,0,0,1-.3.69l-11.13,9.8A.88.88,0,0,1,12,22.1ZM6.9,10a.22.22,0,0,0-.22.22v3.43a.23.23,0,0,0,.22.22H12a.89.89,0,0,1,.9.89v4.46l8.81-7.77L12.88,4.62V9.11a.89.89,0,0,1-.27.63A.86.86,0,0,1,12,10Z"/></svg>
