<svg id="图层_1" data-name="图层 1" xmlns="http://www.w3.org/2000/svg" viewBox="0 0 24 24"><defs> </defs><title>yuancailiaogl</title><path class="cls-1" d="M23.15,20h0L13.53,2.42a1.74,1.74,0,0,0-1.5-1,1.75,1.75,0,0,0-1.5,1L6.62,9.52H2.2A1.65,1.65,0,0,0,.57,11.16V21A1.63,1.63,0,0,0,2.2,22.6H21.59a1.83,1.83,0,0,0,1.63-.82A1.85,1.85,0,0,0,23.15,20ZM12,21H2.2v-2.4H12Zm0-4H2.2V15.29H12Zm0-3.27H2.2v-2.5H12ZM21.59,21H13.65v-9.8A1.66,1.66,0,0,0,12,9.52H8.49L12,3.2,12,3.09l.07.11,9.62,17.54a.48.48,0,0,1,.07.2A.44.44,0,0,1,21.59,21Z"/><path class="cls-1" d="M18.18,7.24l-.42.64.6.6L19,8.06a2.55,2.55,0,0,0,.54.22l.15.75h.85l.15-.75a2.55,2.55,0,0,0,.54-.22l.63.42h0l.6-.6h0L22,7.24a2.2,2.2,0,0,0,.22-.53L23,6.55V5.7l-.75-.15A1.91,1.91,0,0,0,22,5l.42-.64h0l-.6-.6h0l-.63.42A2.11,2.11,0,0,0,20.68,4l-.15-.75h-.85L19.53,4A2.11,2.11,0,0,0,19,4.2l-.63-.42-.6.6.42.64a1.91,1.91,0,0,0-.22.53l-.75.15v.85l.75.16A2.2,2.2,0,0,0,18.18,7.24Zm1.93-2.12a1,1,0,1,1-1,1A1,1,0,0,1,20.11,5.12Z"/></svg>