<svg id="图层_1" data-name="图层 1" xmlns="http://www.w3.org/2000/svg" viewBox="0 0 24 24"><defs></defs><title>yuedcnjs</title><path class="cls-1" d="M11.1,5.3c.1-.3-1.8-.3-2-.3a3.9,3.9,0,0,0-2,.8C5.6,6.9,5.7,9.6,5.9,11.6H4.5l1.7,3.3.6,1.3.7-1.3,1.6-3.2H7.9c-.2-.2-.1-1.5-.1-1.7C7.9,7.5,9.3,5.5,11.1,5.3Z"/><path class="cls-1" d="M16.1,10a6.5,6.5,0,1,0,6.5,6.5A6.5,6.5,0,0,0,16.1,10Zm0,11.6a5.1,5.1,0,1,1,5.1-5.1A5.1,5.1,0,0,1,16.1,21.6Z"/><path class="cls-1" d="M20.6,16.7H15.9V13.6c0-.1-.1-.2-.3-.2s-.3.1-.3.2v3.2c-.1.1-.1.1-.1.2s.1.2.2.3h5.2a.3.3,0,0,0,.3-.3A.3.3,0,0,0,20.6,16.7Z"/><path class="cls-1" d="M12.7,5.1a.8.8,0,0,0,.8.7h4.3a.8.8,0,0,0,.8-.7.8.8,0,0,0-.8-.8H13.5A.8.8,0,0,0,12.7,5.1Z"/><path class="cls-1" d="M17.8,7.2H13.5a.9.9,0,0,0-.8.8.9.9,0,0,0,.8.8h4.3a.9.9,0,0,0,.8-.8A.9.9,0,0,0,17.8,7.2Z"/><path class="cls-1" d="M7.1,2.6H8.8a.8.8,0,0,0,.8-.8A.7.7,0,0,0,8.8,1H7.1a.8.8,0,0,0-.8.8A.9.9,0,0,0,7.1,2.6Z"/><path class="cls-1" d="M7.1,19.7H5a2.1,2.1,0,0,1-2.1-2V4.6A2.1,2.1,0,0,1,5,2.6a.9.9,0,0,0,.8-.8A.8.8,0,0,0,5,1,3.6,3.6,0,0,0,1.4,4.6V17.7A3.6,3.6,0,0,0,5,21.2H7.1a.8.8,0,0,0,.8-.7A.8.8,0,0,0,7.1,19.7Z"/><path class="cls-1" d="M18.1,2.6a2,2,0,0,1,2,2V6.5a.8.8,0,1,0,1.6,0V4.6A3.6,3.6,0,0,0,18.1,1a.8.8,0,0,0-.8.8A.9.9,0,0,0,18.1,2.6Z"/><path class="cls-1" d="M14.4,2.6h1.8a.9.9,0,0,0,.8-.8.8.8,0,0,0-.8-.8H14.4a.7.7,0,0,0-.7.8A.8.8,0,0,0,14.4,2.6Z"/><path class="cls-1" d="M10.8,2.6h1.7a.9.9,0,0,0,.8-.8.8.8,0,0,0-.8-.8H10.8a.7.7,0,0,0-.8.8A.8.8,0,0,0,10.8,2.6Z"/></svg>