<svg id="图层_1" data-name="图层 1" xmlns="http://www.w3.org/2000/svg" viewBox="0 0 24 24"><title>ywgzdy</title><path class="cls-1" d="M17.43,16.34H12.59a2.59,2.59,0,0,0-5.09.13.51.51,0,0,0-.34-.13h-.6a.55.55,0,1,0,0,1.1h.6a.51.51,0,0,0,.34-.13,2.59,2.59,0,0,0,5.09.13h4.84a.55.55,0,0,0,0-1.1Zm-7.37,2.05a1.5,1.5,0,1,1,1.5-1.5A1.5,1.5,0,0,1,10.06,18.39ZM9,5.06a.54.54,0,0,1,.54-.55H14.4a.55.55,0,0,1,0,1.1H9.57A.54.54,0,0,1,9,5.06Zm8.4,5.25h-.62a.56.56,0,0,0-.35.13,2.59,2.59,0,0,0-5.07,0H6.56a.55.55,0,1,0,0,1.09h4.83a2.59,2.59,0,0,0,5.1-.23.59.59,0,0,0,.32.11h.62a.55.55,0,1,0,0-1.09Zm-3.51,2.17a1.51,1.51,0,1,1,1.5-1.5A1.5,1.5,0,0,1,13.92,12.48ZM18.58,1H5.42A2.86,2.86,0,0,0,2.5,3.77V20.23A2.86,2.86,0,0,0,5.42,23H18.58a2.86,2.86,0,0,0,2.92-2.77V3.77A2.86,2.86,0,0,0,18.58,1Zm1.55,19.34A1.4,1.4,0,0,1,18.7,21.7H5.3a1.4,1.4,0,0,1-1.43-1.36V3.66A1.4,1.4,0,0,1,5.3,2.3H18.7a1.4,1.4,0,0,1,1.43,1.36Z"/></svg>
