<svg id="图层_1" data-name="图层 1" xmlns="http://www.w3.org/2000/svg" viewBox="0 0 24 24"><defs> </defs><title>zhanpian</title><path class="cls-1" d="M19.69,10.64H12.48a3.22,3.22,0,0,0-3.21,3.21v5.84a3.21,3.21,0,0,0,3.21,3.21h7.21a3.21,3.21,0,0,0,3.21-3.21V13.85A3.21,3.21,0,0,0,19.69,10.64Zm1.85,9.05h0a1.85,1.85,0,0,1-1.85,1.85H12.48a1.85,1.85,0,0,1-1.84-1.85V13.85A1.84,1.84,0,0,1,12.48,12h7.21a1.85,1.85,0,0,1,1.85,1.85Z"/><path class="cls-1" d="M19.69,23H12.48a3.31,3.31,0,0,1-3.31-3.31V13.85a3.31,3.31,0,0,1,3.31-3.31h7.21A3.31,3.31,0,0,1,23,13.85v5.84A3.31,3.31,0,0,1,19.69,23ZM12.48,10.74a3.11,3.11,0,0,0-3.11,3.11v5.84a3.11,3.11,0,0,0,3.11,3.11h7.21a3.11,3.11,0,0,0,3.11-3.11V13.85a3.11,3.11,0,0,0-3.11-3.11Zm7.21,10.9H12.48a2,2,0,0,1-1.94-1.95V13.85a1.94,1.94,0,0,1,1.94-1.95h7.21a2,2,0,0,1,1.95,1.95v5.94A1.94,1.94,0,0,1,19.69,21.64ZM12.48,12.1a1.75,1.75,0,0,0-1.75,1.75v5.84a1.76,1.76,0,0,0,1.75,1.75h7.21a1.76,1.76,0,0,0,1.75-1.75V13.85a1.75,1.75,0,0,0-1.75-1.75Z"/><path class="cls-1" d="M7.17,18.81H3.85a1.38,1.38,0,0,1-1.39-1.38V3.85A1.39,1.39,0,0,1,3.85,2.46H16.06a1.39,1.39,0,0,1,1.39,1.39V8.61a.68.68,0,1,0,1.36,0V3.85A2.75,2.75,0,0,0,16.06,1.1H3.85A2.75,2.75,0,0,0,1.1,3.85V17.43a2.75,2.75,0,0,0,2.75,2.75H7.17a.69.69,0,0,0,0-1.37Z"/><path class="cls-1" d="M7.17,20.27H3.85A2.85,2.85,0,0,1,1,17.42V3.85A2.86,2.86,0,0,1,3.85,1H16.06a2.86,2.86,0,0,1,2.85,2.85V8.61a.78.78,0,0,1-1.56,0V3.85a1.29,1.29,0,0,0-1.29-1.29H3.85A1.29,1.29,0,0,0,2.56,3.85V17.42a1.29,1.29,0,0,0,1.29,1.29H7.17a.78.78,0,1,1,0,1.56ZM3.85,1.2A2.65,2.65,0,0,0,1.2,3.85V17.42a2.66,2.66,0,0,0,2.65,2.66H7.17a.59.59,0,0,0,0-1.17H3.85a1.49,1.49,0,0,1-1.49-1.49V3.85A1.49,1.49,0,0,1,3.85,2.36H16.06a1.49,1.49,0,0,1,1.49,1.49V8.61a.58.58,0,1,0,1.16,0V3.85A2.65,2.65,0,0,0,16.06,1.2Z"/><path class="cls-1" d="M8.59,9.27H4.5a.69.69,0,0,0,0,1.37H8.59a.69.69,0,0,0,0-1.37Z"/><path class="cls-1" d="M8.59,10.74H4.5a.78.78,0,0,1,0-1.56H8.59a.78.78,0,1,1,0,1.56ZM4.5,9.37a.59.59,0,0,0,0,1.17H8.59a.59.59,0,0,0,0-1.17Z"/><path class="cls-1" d="M15.41,5.19H4.5a.68.68,0,0,0,0,1.36H15.41a.68.68,0,0,0,0-1.36Z"/><path class="cls-1" d="M15.41,6.65H4.5a.78.78,0,1,1,0-1.56H15.41a.78.78,0,1,1,0,1.56ZM4.5,5.29a.58.58,0,0,0,0,1.16H15.41a.58.58,0,0,0,0-1.16Z"/><path class="cls-1" d="M7.23,13.36H4.5a.69.69,0,0,0,0,1.37H7.23a.69.69,0,0,0,0-1.37Z"/><path class="cls-1" d="M7.23,14.82H4.5a.78.78,0,1,1,0-1.56H7.23a.78.78,0,1,1,0,1.56ZM4.5,13.46a.59.59,0,0,0,0,1.17H7.23a.59.59,0,0,0,0-1.17Z"/></svg>