<svg id="图层_1" data-name="图层 1" xmlns="http://www.w3.org/2000/svg" viewBox="0 0 24 24"><defs> </defs><title></title><path class="cls-1" d="M22.06,17.5a.71.71,0,0,1-.72-.69V12a.7.7,0,0,0-.71-.69H13.44a.7.7,0,0,1-.72-.68V8.3a.7.7,0,0,1,.72-.69h1.31a.69.69,0,0,0,.71-.68V1.69A.7.7,0,0,0,14.75,1H9.25a.7.7,0,0,0-.71.69V6.93a.69.69,0,0,0,.71.68h1.31a.7.7,0,0,1,.72.69v2.33a.7.7,0,0,1-.72.68H3.38a.7.7,0,0,0-.72.69v4.8a.71.71,0,0,1-.71.7H1.22a.7.7,0,0,0-.72.69v4.12a.7.7,0,0,0,.72.69H5.53a.7.7,0,0,0,.72-.69V18.19a.7.7,0,0,0-.72-.69H4.81a.71.71,0,0,1-.72-.69V13.38a.71.71,0,0,1,.72-.69h5.75a.7.7,0,0,1,.72.69V16.8a.7.7,0,0,1-.7.7H9.83a.7.7,0,0,0-.72.69v4.12a.7.7,0,0,0,.72.69h4.31a.7.7,0,0,0,.72-.69V18.19a.7.7,0,0,0-.72-.69h-.7a.7.7,0,0,1-.72-.69V13.38a.7.7,0,0,1,.72-.69h5.75a.71.71,0,0,1,.72.69V16.8a.71.71,0,0,1-.72.69h-.72a.7.7,0,0,0-.72.68V22.3a.7.7,0,0,0,.72.69h4.31a.7.7,0,0,0,.72-.69V18.17a.7.7,0,0,0-.72-.68Z"/></svg>
