<svg id="图层_1" data-name="图层 1" xmlns="http://www.w3.org/2000/svg" viewBox="0 0 24 24"><defs></defs><path class="cls-1" d="M23.54,17.11V15.8H21.39a4.57,4.57,0,0,0-.87-2.1L22,12.18l-.93-.93-1.52,1.52a4.57,4.57,0,0,0-2.1-.87V9.75H16.18V11.9a4.57,4.57,0,0,0-2.1.87l-1.52-1.52-.93.93,1.52,1.52a4.68,4.68,0,0,0-.87,2.1H10.13v1.31h2.15a4.61,4.61,0,0,0,.87,2.1l-1.52,1.51.93.93,1.52-1.51a4.68,4.68,0,0,0,2.1.87v2.14h1.31V21a4.68,4.68,0,0,0,2.1-.87l1.52,1.51.93-.93-1.52-1.51a4.61,4.61,0,0,0,.87-2.1Zm-3.77-.23a2.93,2.93,0,0,1-.56,1.35l-.25.34-.35.26a2.89,2.89,0,0,1-1.35.56l-.42.06-.43-.06a2.93,2.93,0,0,1-1.35-.56l-.34-.26-.26-.34a2.93,2.93,0,0,1-.56-1.35l-.06-.43L13.9,16a2.89,2.89,0,0,1,.56-1.35l.26-.35.34-.26a3.16,3.16,0,0,1,1.35-.56l.43-.06.42.06a3,3,0,0,1,1.35.56l.35.26.25.35A2.89,2.89,0,0,1,19.77,16l.07.42Z"/><path class="cls-1" d="M11.26,10.35h1.6V8.85h5.2v-8h-12v8h5.2Zm-3.6-3.1V2.45h8.8v4.8Z"/><polygon class="cls-1" points="5.86 11.99 10.26 11.99 10.26 10.39 5.86 10.39 4.26 10.39 4.26 11.99 4.26 14.39 0.46 14.39 0.46 15.6 0.46 15.99 0.46 21.39 0.46 21.59 0.46 23 8.06 23 8.06 21.39 2.06 21.39 2.06 15.99 8.06 15.99 8.06 14.39 5.86 14.39 5.86 11.99"/></svg>
