<svg id="图层_1" data-name="图层 1" xmlns="http://www.w3.org/2000/svg" viewBox="0 0 24 24"><defs> </defs><path class="cls-1" d="M7.23,10.69l3.28,8.54L2.13,10.36H7.06c.17.16.17.16.17.33m15-1.48H17.42l1.64-4.94Zm-.32,1.15-8.22,8.71,3.28-8.38v-.17h4.94ZM15.44,9.21H8.71L12,4ZM1.8,9.21,4.93,4.27l1.8,4.94H1.8Zm5.92-.66L5.91,3.45H11Zm8.71,0-3.29-5.1h5.1Zm2-6.25H5.75a1.73,1.73,0,0,0-1.48.82L.82,8.71A1.72,1.72,0,0,0,1,10.85L10.84,21.2a2,2,0,0,0,2.63,0l9.7-10.35a2,2,0,0,0,0-2.14L19.72,3.12A1.47,1.47,0,0,0,18.4,2.3ZM12,20.05,8.38,10.36h7.39Z"/></svg>
