<svg id="图层_1" data-name="图层 1" xmlns="http://www.w3.org/2000/svg" viewBox="0 0 24 24"><defs> </defs><title></title><path class="cls-1" d="M22.26,2.5H1.75A.74.74,0,0,0,1,3.23H1V16.44a.74.74,0,0,0,.75.73H4.87a.78.78,0,0,0,.59-.27l4.16-5.09,1.91,1.55a.75.75,0,0,0,1-.07l3.7-3.93a2.41,2.41,0,0,0,3.28-.79A2.37,2.37,0,1,0,15.1,7.36a2.16,2.16,0,0,0,.18.88l-3.35,3.54L10,10.21a.74.74,0,0,0-1,.09h0l-4.42,5.4h-2V4h19V15.7H11.23a.74.74,0,0,0-.74.73h0V20H6.11a.74.74,0,0,0-.74.73h0a.74.74,0,0,0,.74.73h10a.74.74,0,0,0,.75-.73h0a.75.75,0,0,0-.75-.74H12V17.17H22.25a.74.74,0,0,0,.75-.73h0V3.23a.73.73,0,0,0-.73-.73Zm-4.78,4a.89.89,0,0,1,.9.88.9.9,0,1,1-.9-.88Z"/></svg>
