<svg id="图层_1" data-name="图层 1" xmlns="http://www.w3.org/2000/svg" viewBox="0 0 24 24"><defs> </defs><title>zhuanwckd</title><path class="cls-1" d="M5.66,6.63H15a.82.82,0,0,0,.82-.83A.81.81,0,0,0,15,5H5.66a.81.81,0,0,0-.83.82A.82.82,0,0,0,5.66,6.63Z"/><path class="cls-1" d="M14.2,15.42H8.78l1.09-1.1a.86.86,0,0,0,.25-.6.81.81,0,0,0-.25-.57.88.88,0,0,0-.6-.25.86.86,0,0,0-.57.25L6.2,15.66a.84.84,0,0,0,0,1.16l2.49,2.49a.81.81,0,0,0,.59.26,1,1,0,0,0,.6-.23.84.84,0,0,0,0-1.17l-1.1-1.1H14.2a.83.83,0,0,0,.83-.83A.82.82,0,0,0,14.2,15.42Z"/><path class="cls-1" d="M5.66,10.9H15a.81.81,0,0,0,.82-.82A.82.82,0,0,0,15,9.25H5.66a.82.82,0,0,0-.83.83A.81.81,0,0,0,5.66,10.9Z"/><path class="cls-1" d="M21.71,1a.81.81,0,0,0-.83.82V22.2a.83.83,0,0,0,1.65,0V1.79A.81.81,0,0,0,21.71,1Z"/><path class="cls-1" d="M18.33,1h-16a.81.81,0,0,0-.82.82V22.21a.81.81,0,0,0,.82.82h16a.81.81,0,0,0,.83-.82V1.79A.81.81,0,0,0,18.33,1Zm-.82,1.65V21.38H3.12V2.62Z"/></svg>