<svg id="图层_1" data-name="图层 1" xmlns="http://www.w3.org/2000/svg" viewBox="0 0 24 24"><defs> </defs><title>zonghepanding</title><path class="cls-1" d="M.92,7.32l10.66,5.82a.74.74,0,0,0,.36.06.78.78,0,0,0,.37-.06L23.08,7.33a.7.7,0,0,0,.36-.67.8.8,0,0,0-.36-.61L12.42.61a.61.61,0,0,0-.66,0L1,6.05a.9.9,0,0,0-.42.61.69.69,0,0,0,.36.66Zm11.2-5.26,9.14,4.66-9.2,5-9.26-5ZM.56,11.92a.9.9,0,0,1,.42-.6l2.24-1.15L4.74,11,2.8,12l9.26,5,9.2-5-1.81-.91L21,10.23l2.12,1.09a.72.72,0,0,1,.42.6.7.7,0,0,1-.36.67L12.3,18.4a.74.74,0,0,1-.36.06.72.72,0,0,1-.36-.06L.92,12.59a.65.65,0,0,1-.36-.67Zm22.82,5a.68.68,0,0,1-.37.66L12.24,23.42a.74.74,0,0,1-.36.06.78.78,0,0,1-.37-.06L.86,17.61A.75.75,0,0,1,.5,17a.9.9,0,0,1,.42-.61l2.12-1,1.52.85L2.8,17l9.26,5,9.2-5-1.69-.85,1.51-.85,2,1c.24.12.42.36.3.61Zm0,0"/></svg>